%TF.GenerationSoftware,KiCad,Pcbnew,(7.0.0)*%
%TF.CreationDate,2023-06-27T20:49:36+12:00*%
%TF.ProjectId,VehicleJunctionBoxMotherboard_PCB,56656869-636c-4654-9a75-6e6374696f6e,V1.0*%
%TF.SameCoordinates,Original*%
%TF.FileFunction,Copper,L2,Inr*%
%TF.FilePolarity,Positive*%
%FSLAX46Y46*%
G04 Gerber Fmt 4.6, Leading zero omitted, Abs format (unit mm)*
G04 Created by KiCad (PCBNEW (7.0.0)) date 2023-06-27 20:49:36*
%MOMM*%
%LPD*%
G01*
G04 APERTURE LIST*
%TA.AperFunction,ComponentPad*%
%ADD10C,0.800000*%
%TD*%
%TA.AperFunction,ComponentPad*%
%ADD11C,6.400000*%
%TD*%
%TA.AperFunction,ComponentPad*%
%ADD12R,1.700000X1.700000*%
%TD*%
%TA.AperFunction,ComponentPad*%
%ADD13O,1.700000X1.700000*%
%TD*%
%TA.AperFunction,ComponentPad*%
%ADD14C,3.500000*%
%TD*%
%TA.AperFunction,ComponentPad*%
%ADD15C,1.440000*%
%TD*%
%TA.AperFunction,ComponentPad*%
%ADD16R,1.800000X1.800000*%
%TD*%
%TA.AperFunction,ComponentPad*%
%ADD17C,1.800000*%
%TD*%
%TA.AperFunction,ComponentPad*%
%ADD18R,3.800000X3.800000*%
%TD*%
%TA.AperFunction,ComponentPad*%
%ADD19C,4.000000*%
%TD*%
%TA.AperFunction,ComponentPad*%
%ADD20R,2.000000X1.500000*%
%TD*%
%TA.AperFunction,ComponentPad*%
%ADD21O,2.000000X1.500000*%
%TD*%
%TA.AperFunction,ViaPad*%
%ADD22C,0.800000*%
%TD*%
%TA.AperFunction,ViaPad*%
%ADD23C,0.500000*%
%TD*%
G04 APERTURE END LIST*
D10*
%TO.N,GND*%
%TO.C,H4*%
X117600000Y-120000000D03*
X118302944Y-118302944D03*
X118302944Y-121697056D03*
X120000000Y-117600000D03*
D11*
X120000000Y-120000000D03*
D10*
X120000000Y-122400000D03*
X121697056Y-118302944D03*
X121697056Y-121697056D03*
X122400000Y-120000000D03*
%TD*%
D12*
%TO.N,+5V*%
%TO.C,J9*%
X29099999Y-68159999D03*
D13*
%TO.N,Local*%
X29099999Y-65619999D03*
%TO.N,Upstream*%
X29099999Y-63079999D03*
%TO.N,CAN-*%
X29099999Y-60539999D03*
%TO.N,CAN+*%
X29099999Y-57999999D03*
%TO.N,BSPD*%
X29099999Y-55459999D03*
%TO.N,GND*%
X29099999Y-52919999D03*
%TO.N,BSPD Test Current +*%
X29099999Y-50379999D03*
%TO.N,BSPD Test Current -*%
X29099999Y-47839999D03*
%TD*%
D14*
%TO.N,Net-(J4-Pin_1)*%
%TO.C,J4*%
X85000000Y-45000000D03*
%TD*%
D15*
%TO.N,GND*%
%TO.C,RV2*%
X44450000Y-94400000D03*
%TO.N,DISCHARGE_THRESHOLD*%
X41910000Y-94400000D03*
%TO.N,+5V*%
X39370000Y-94400000D03*
%TD*%
D16*
%TO.N,Net-(J2-Pin_1)*%
%TO.C,J2*%
X74569999Y-101339999D03*
D17*
%TO.N,BSPD Test Current +*%
X78760000Y-101340000D03*
%TO.N,BSPD Test Current -*%
X82950000Y-101340000D03*
%TO.N,GND*%
X87150000Y-101340000D03*
%TO.N,DOC_FLT*%
X91340000Y-101340000D03*
%TO.N,TSAL_GRN*%
X95530000Y-101340000D03*
%TO.N,TSAL_RED*%
X95530000Y-107690000D03*
%TO.N,BSPD*%
X91340000Y-107690000D03*
%TO.N,CAN+*%
X87150000Y-107690000D03*
%TO.N,CAN-*%
X82950000Y-107690000D03*
%TO.N,SD_LP_IN*%
X78760000Y-107690000D03*
%TO.N,SD_LP_OUT*%
X74570000Y-107690000D03*
%TD*%
D14*
%TO.N,GND*%
%TO.C,J7*%
X50000000Y-45000000D03*
%TD*%
D15*
%TO.N,HV-*%
%TO.C,RV1*%
X115500000Y-62040000D03*
%TO.N,TS Detection Threshold*%
X115500000Y-59500000D03*
%TO.N,+5VA*%
X115500000Y-56960000D03*
%TD*%
D18*
%TO.N,SD_LP_IN*%
%TO.C,J1*%
X33299999Y-74099999D03*
D19*
%TO.N,SD_LP_FROM_HVD*%
X33300000Y-79100000D03*
%TD*%
D14*
%TO.N,Net-(J3-Pin_1)*%
%TO.C,J3*%
X110000000Y-45000000D03*
%TD*%
D20*
%TO.N,GND*%
%TO.C,U4*%
X93999999Y-85262499D03*
D21*
%TO.N,GLV+*%
X93999999Y-82722499D03*
%TO.N,HV-*%
X93999999Y-80182499D03*
%TO.N,Net-(U4-+VOUT)*%
X93999999Y-77642499D03*
%TD*%
D10*
%TO.N,GND*%
%TO.C,H3*%
X27600000Y-120000000D03*
X28302944Y-118302944D03*
X28302944Y-121697056D03*
X30000000Y-117600000D03*
D11*
X30000000Y-120000000D03*
D10*
X30000000Y-122400000D03*
X31697056Y-118302944D03*
X31697056Y-121697056D03*
X32400000Y-120000000D03*
%TD*%
D22*
%TO.N,GLV+*%
X65300000Y-90900000D03*
D23*
X79700000Y-92400000D03*
X102500000Y-98200000D03*
X96700000Y-89000000D03*
X75700000Y-94600000D03*
X93550000Y-92450000D03*
%TO.N,HV-*%
X117800000Y-65500000D03*
X79250000Y-71150000D03*
X117400000Y-52500000D03*
X122100000Y-71000000D03*
X121600000Y-55200000D03*
X97400000Y-72800000D03*
D22*
X67000000Y-38900000D03*
D23*
X119500000Y-54000000D03*
D22*
X67000000Y-35150000D03*
D23*
X76700000Y-71150000D03*
X90000000Y-71975500D03*
D22*
X67000000Y-37650000D03*
D23*
X116750000Y-71850000D03*
X121600000Y-57000000D03*
D22*
X96450000Y-74000000D03*
D23*
X123660000Y-62540000D03*
D22*
X67000000Y-36400000D03*
X64000000Y-63100000D03*
X65400000Y-63100000D03*
D23*
%TO.N,+5V*%
X35150000Y-94400000D03*
X121000000Y-105900000D03*
X44450000Y-86200000D03*
X45310000Y-61910000D03*
X44450000Y-80400000D03*
X36000000Y-93100000D03*
X118500000Y-108400000D03*
D22*
X61200000Y-95300000D03*
X62200000Y-95300000D03*
D23*
X119500000Y-94400000D03*
X119300000Y-88600000D03*
X79250000Y-89900000D03*
X71550000Y-92450000D03*
X44450000Y-74550000D03*
X115500000Y-108400000D03*
D22*
X60200000Y-95300000D03*
D23*
X38880000Y-70730000D03*
X121400000Y-92600000D03*
%TO.N,+5VA*%
X121200000Y-65500000D03*
X97700000Y-70600000D03*
X97700000Y-71300000D03*
X119200000Y-57900000D03*
%TO.N,Net-(D10-A)*%
X85700000Y-71300000D03*
%TO.N,Upstream*%
X38050000Y-74550000D03*
%TO.N,Local*%
X37050000Y-80400000D03*
%TO.N,GND*%
X61500000Y-90800000D03*
X45575000Y-60135000D03*
X60590000Y-90800000D03*
X120880000Y-88590000D03*
X110780000Y-100980000D03*
X110770000Y-91860000D03*
D22*
X66700000Y-102600000D03*
D23*
X68660000Y-89770000D03*
X110770000Y-102260000D03*
X110780000Y-99710000D03*
X36680000Y-85750000D03*
X109910000Y-102960000D03*
X38110000Y-86140000D03*
X35120000Y-95990000D03*
X110790000Y-94410000D03*
X112500000Y-108390000D03*
X38150000Y-84690000D03*
X34070000Y-85740000D03*
X34070000Y-89040000D03*
X43310000Y-91080000D03*
X44440000Y-77940000D03*
X44150000Y-64010000D03*
X38070000Y-78880000D03*
X41460000Y-80350000D03*
X114000000Y-108390000D03*
X110770000Y-93130000D03*
D22*
X64000000Y-100800000D03*
D23*
X93060000Y-89000000D03*
X116290000Y-90360000D03*
X114730000Y-101400000D03*
X42880000Y-80350000D03*
X41380000Y-74540000D03*
X121440000Y-91040000D03*
X42890000Y-86170000D03*
X76900000Y-95000000D03*
X38140000Y-89050000D03*
X109890000Y-95110000D03*
X36670000Y-89050000D03*
X43890000Y-57410000D03*
X34440000Y-93110000D03*
D22*
X64400000Y-99550000D03*
D23*
X114660000Y-93600000D03*
X44450000Y-83770000D03*
X119910000Y-96620000D03*
X116700000Y-88600000D03*
X42890000Y-74530000D03*
X120000000Y-108400000D03*
X76740000Y-88450000D03*
%TO.N,Net-(D8-A)*%
X85700000Y-73600000D03*
%TD*%
%TA.AperFunction,Conductor*%
%TO.N,GND*%
G36*
X49938000Y-25017113D02*
G01*
X49983387Y-25062500D01*
X50000000Y-25124500D01*
X50000000Y-42629033D01*
X49984714Y-42688676D01*
X49942625Y-42733614D01*
X49884110Y-42752768D01*
X49709728Y-42764197D01*
X49701706Y-42765253D01*
X49420391Y-42821210D01*
X49412563Y-42823307D01*
X49140961Y-42915505D01*
X49133471Y-42918607D01*
X48876225Y-43045466D01*
X48869211Y-43049516D01*
X48630723Y-43208869D01*
X48624296Y-43213801D01*
X48606750Y-43229188D01*
X48599316Y-43240581D01*
X48605990Y-43252437D01*
X50000000Y-44646447D01*
X50000000Y-45353551D01*
X48605991Y-46747560D01*
X48599316Y-46759418D01*
X48606749Y-46770810D01*
X48624290Y-46786194D01*
X48630728Y-46791133D01*
X48869211Y-46950483D01*
X48876225Y-46954533D01*
X49133471Y-47081392D01*
X49140961Y-47084494D01*
X49412563Y-47176692D01*
X49420391Y-47178789D01*
X49701706Y-47234746D01*
X49709728Y-47235802D01*
X49884110Y-47247232D01*
X49942625Y-47266386D01*
X49984714Y-47311324D01*
X50000000Y-47370967D01*
X50000000Y-70000000D01*
X50000001Y-70000281D01*
X50002541Y-70427126D01*
X50002549Y-70428419D01*
X50002609Y-70429693D01*
X50002610Y-70429704D01*
X50043249Y-71282837D01*
X50043251Y-71282875D01*
X50043319Y-71284287D01*
X50043453Y-71285696D01*
X50043456Y-71285730D01*
X50123261Y-72121476D01*
X50124767Y-72137246D01*
X50124973Y-72138679D01*
X50124974Y-72138687D01*
X50178624Y-72511830D01*
X50246707Y-72985363D01*
X50246985Y-72986807D01*
X50246986Y-72986811D01*
X50405021Y-73806776D01*
X50408865Y-73826717D01*
X50409211Y-73828143D01*
X50409214Y-73828157D01*
X50610521Y-74657959D01*
X50610528Y-74657986D01*
X50610872Y-74659403D01*
X50611287Y-74660816D01*
X50611292Y-74660835D01*
X50736541Y-75087391D01*
X50852272Y-75481533D01*
X50852748Y-75482909D01*
X50852754Y-75482927D01*
X51058892Y-76078523D01*
X51132516Y-76291246D01*
X51133065Y-76292617D01*
X51133066Y-76292620D01*
X51365985Y-76874425D01*
X51450971Y-77086708D01*
X51451588Y-77088059D01*
X51451594Y-77088073D01*
X51806301Y-77864774D01*
X51806310Y-77864794D01*
X51806914Y-77866115D01*
X51807579Y-77867405D01*
X51807581Y-77867409D01*
X52135411Y-78503309D01*
X52199541Y-78627704D01*
X52200274Y-78628974D01*
X52200283Y-78628990D01*
X52469887Y-79095957D01*
X52627960Y-79369747D01*
X52628754Y-79370983D01*
X52628772Y-79371012D01*
X53037741Y-80007379D01*
X53091202Y-80090566D01*
X53588217Y-80788526D01*
X53589123Y-80789678D01*
X54116981Y-81460905D01*
X54116995Y-81460922D01*
X54117879Y-81462046D01*
X54678989Y-82109602D01*
X55270275Y-82729725D01*
X55890398Y-83321011D01*
X56537954Y-83882121D01*
X56539081Y-83883007D01*
X56539094Y-83883018D01*
X56972701Y-84224010D01*
X57211474Y-84411783D01*
X57909434Y-84908798D01*
X57910690Y-84909605D01*
X58628987Y-85371227D01*
X58629005Y-85371238D01*
X58630253Y-85372040D01*
X59372296Y-85800459D01*
X60133885Y-86193086D01*
X60135223Y-86193697D01*
X60135225Y-86193698D01*
X60166671Y-86208059D01*
X60913292Y-86549029D01*
X61708754Y-86867484D01*
X62518467Y-87147728D01*
X63340597Y-87389128D01*
X64173283Y-87591135D01*
X65014637Y-87753293D01*
X65862754Y-87875233D01*
X66715713Y-87956681D01*
X67571581Y-87997451D01*
X68000000Y-88000000D01*
X68000336Y-88000000D01*
X91983674Y-88000000D01*
X92000000Y-88000000D01*
X92000000Y-86057018D01*
X92500000Y-86057018D01*
X92500353Y-86063614D01*
X92505573Y-86112167D01*
X92509111Y-86127141D01*
X92553547Y-86246277D01*
X92561962Y-86261689D01*
X92637498Y-86362592D01*
X92649907Y-86375001D01*
X92750810Y-86450537D01*
X92766222Y-86458952D01*
X92885358Y-86503388D01*
X92900332Y-86506926D01*
X92948885Y-86512146D01*
X92955482Y-86512500D01*
X93733674Y-86512500D01*
X93746549Y-86509049D01*
X93750000Y-86496174D01*
X94250000Y-86496174D01*
X94253450Y-86509049D01*
X94266326Y-86512500D01*
X95044518Y-86512500D01*
X95051114Y-86512146D01*
X95099667Y-86506926D01*
X95114641Y-86503388D01*
X95233777Y-86458952D01*
X95249189Y-86450537D01*
X95350092Y-86375001D01*
X95362501Y-86362592D01*
X95438037Y-86261689D01*
X95446452Y-86246277D01*
X95490888Y-86127141D01*
X95494426Y-86112167D01*
X95499646Y-86063614D01*
X95500000Y-86057018D01*
X95500000Y-85528826D01*
X95496549Y-85515950D01*
X95483674Y-85512500D01*
X94266326Y-85512500D01*
X94253450Y-85515950D01*
X94250000Y-85528826D01*
X94250000Y-86496174D01*
X93750000Y-86496174D01*
X93750000Y-85528826D01*
X93746549Y-85515950D01*
X93733674Y-85512500D01*
X92516326Y-85512500D01*
X92503450Y-85515950D01*
X92500000Y-85528826D01*
X92500000Y-86057018D01*
X92000000Y-86057018D01*
X92000000Y-84624000D01*
X92016613Y-84562000D01*
X92062000Y-84516613D01*
X92124000Y-84500000D01*
X92376000Y-84500000D01*
X92438000Y-84516613D01*
X92483387Y-84562000D01*
X92500000Y-84624000D01*
X92500000Y-84996174D01*
X92503450Y-85009049D01*
X92516326Y-85012500D01*
X95483674Y-85012500D01*
X95496549Y-85009049D01*
X95500000Y-84996174D01*
X95500000Y-84624000D01*
X95516613Y-84562000D01*
X95562000Y-84516613D01*
X95624000Y-84500000D01*
X95876000Y-84500000D01*
X95938000Y-84516613D01*
X95983387Y-84562000D01*
X96000000Y-84624000D01*
X96000000Y-88000000D01*
X118816895Y-88000000D01*
X118873190Y-88013515D01*
X118917213Y-88051115D01*
X118939368Y-88104602D01*
X118934826Y-88162318D01*
X118907265Y-88207291D01*
X118907379Y-88207379D01*
X118906551Y-88208457D01*
X118906547Y-88208462D01*
X118902438Y-88213817D01*
X118902435Y-88213821D01*
X118824085Y-88315928D01*
X118824082Y-88315933D01*
X118819139Y-88322375D01*
X118816029Y-88329883D01*
X118816028Y-88329885D01*
X118766782Y-88448776D01*
X118766780Y-88448781D01*
X118763670Y-88456291D01*
X118762609Y-88464348D01*
X118762608Y-88464353D01*
X118745811Y-88591941D01*
X118744750Y-88600000D01*
X118763670Y-88743709D01*
X118819139Y-88877625D01*
X118907379Y-88992621D01*
X119022375Y-89080861D01*
X119156291Y-89136330D01*
X119300000Y-89155250D01*
X119443709Y-89136330D01*
X119577625Y-89080861D01*
X119692621Y-88992621D01*
X119780861Y-88877625D01*
X119836330Y-88743709D01*
X119855250Y-88600000D01*
X119836330Y-88456291D01*
X119780861Y-88322375D01*
X119692621Y-88207379D01*
X119692734Y-88207291D01*
X119665174Y-88162318D01*
X119660632Y-88104602D01*
X119682787Y-88051115D01*
X119726810Y-88013515D01*
X119783105Y-88000000D01*
X124875500Y-88000000D01*
X124937500Y-88016613D01*
X124982887Y-88062000D01*
X124999500Y-88124000D01*
X124999500Y-119997438D01*
X124999394Y-120002563D01*
X124990525Y-120216987D01*
X124990513Y-120217271D01*
X124981948Y-120413428D01*
X124981114Y-120423357D01*
X124954568Y-120636321D01*
X124954459Y-120637169D01*
X124928422Y-120834936D01*
X124926844Y-120844196D01*
X124882971Y-121053439D01*
X124882671Y-121054832D01*
X124839321Y-121250371D01*
X124837105Y-121258914D01*
X124776186Y-121463538D01*
X124775602Y-121465444D01*
X124715302Y-121656689D01*
X124712559Y-121664475D01*
X124635008Y-121863224D01*
X124634051Y-121865603D01*
X124557260Y-122050993D01*
X124554099Y-122058001D01*
X124460437Y-122249587D01*
X124459026Y-122252383D01*
X124366346Y-122430420D01*
X124362880Y-122436636D01*
X124253743Y-122619793D01*
X124251800Y-122622946D01*
X124143920Y-122792282D01*
X124140257Y-122797710D01*
X124016399Y-122971184D01*
X124013858Y-122974616D01*
X123891626Y-123133912D01*
X123887872Y-123138567D01*
X123750107Y-123301226D01*
X123746908Y-123304858D01*
X123611254Y-123452899D01*
X123607512Y-123456807D01*
X123456807Y-123607512D01*
X123452899Y-123611254D01*
X123304858Y-123746908D01*
X123301226Y-123750107D01*
X123138567Y-123887872D01*
X123133912Y-123891626D01*
X122974616Y-124013858D01*
X122971184Y-124016399D01*
X122797710Y-124140257D01*
X122792282Y-124143920D01*
X122622946Y-124251800D01*
X122619793Y-124253743D01*
X122436636Y-124362880D01*
X122430420Y-124366346D01*
X122252383Y-124459026D01*
X122249587Y-124460437D01*
X122058001Y-124554099D01*
X122050993Y-124557260D01*
X121865603Y-124634051D01*
X121863224Y-124635008D01*
X121664475Y-124712559D01*
X121656689Y-124715302D01*
X121465444Y-124775602D01*
X121463538Y-124776186D01*
X121258914Y-124837105D01*
X121250371Y-124839321D01*
X121054832Y-124882671D01*
X121053439Y-124882971D01*
X120844196Y-124926844D01*
X120834936Y-124928422D01*
X120637169Y-124954459D01*
X120636321Y-124954568D01*
X120423357Y-124981114D01*
X120413428Y-124981948D01*
X120217381Y-124990508D01*
X120217097Y-124990520D01*
X120002563Y-124999394D01*
X119997438Y-124999500D01*
X30002562Y-124999500D01*
X29997437Y-124999394D01*
X29782901Y-124990520D01*
X29782617Y-124990508D01*
X29586570Y-124981948D01*
X29576641Y-124981114D01*
X29363677Y-124954568D01*
X29362829Y-124954459D01*
X29165062Y-124928422D01*
X29155802Y-124926844D01*
X28946559Y-124882971D01*
X28945166Y-124882671D01*
X28749627Y-124839321D01*
X28741084Y-124837105D01*
X28536460Y-124776186D01*
X28534554Y-124775602D01*
X28343309Y-124715302D01*
X28335523Y-124712559D01*
X28206985Y-124662404D01*
X28136734Y-124634991D01*
X28134395Y-124634051D01*
X27949005Y-124557260D01*
X27941997Y-124554099D01*
X27750411Y-124460437D01*
X27747615Y-124459026D01*
X27569578Y-124366346D01*
X27563362Y-124362880D01*
X27380205Y-124253743D01*
X27377052Y-124251800D01*
X27207716Y-124143920D01*
X27202288Y-124140257D01*
X27028814Y-124016399D01*
X27025382Y-124013858D01*
X26866086Y-123891626D01*
X26861431Y-123887872D01*
X26698772Y-123750107D01*
X26695155Y-123746921D01*
X26547076Y-123611232D01*
X26543191Y-123607512D01*
X26392486Y-123456807D01*
X26388769Y-123452925D01*
X26253072Y-123304838D01*
X26249891Y-123301226D01*
X26112126Y-123138567D01*
X26108372Y-123133912D01*
X25986140Y-122974616D01*
X25983599Y-122971184D01*
X25859741Y-122797710D01*
X25856078Y-122792282D01*
X25853736Y-122788606D01*
X27570305Y-122788606D01*
X27578191Y-122799869D01*
X27819684Y-122995425D01*
X27824938Y-122999242D01*
X28144733Y-123206920D01*
X28150354Y-123210166D01*
X28490116Y-123383283D01*
X28496040Y-123385920D01*
X28852044Y-123522578D01*
X28858197Y-123524577D01*
X29226537Y-123623273D01*
X29232879Y-123624621D01*
X29609508Y-123684273D01*
X29615951Y-123684950D01*
X29996756Y-123704908D01*
X30003244Y-123704908D01*
X30384048Y-123684950D01*
X30390491Y-123684273D01*
X30767120Y-123624621D01*
X30773462Y-123623273D01*
X31141802Y-123524577D01*
X31147955Y-123522578D01*
X31503959Y-123385920D01*
X31509883Y-123383283D01*
X31849645Y-123210166D01*
X31855266Y-123206920D01*
X32175061Y-122999242D01*
X32180315Y-122995425D01*
X32421806Y-122799870D01*
X32429693Y-122788606D01*
X117570305Y-122788606D01*
X117578191Y-122799869D01*
X117819684Y-122995425D01*
X117824938Y-122999242D01*
X118144733Y-123206920D01*
X118150354Y-123210166D01*
X118490116Y-123383283D01*
X118496040Y-123385920D01*
X118852044Y-123522578D01*
X118858197Y-123524577D01*
X119226537Y-123623273D01*
X119232879Y-123624621D01*
X119609508Y-123684273D01*
X119615951Y-123684950D01*
X119996756Y-123704908D01*
X120003244Y-123704908D01*
X120384048Y-123684950D01*
X120390491Y-123684273D01*
X120767120Y-123624621D01*
X120773462Y-123623273D01*
X121141802Y-123524577D01*
X121147955Y-123522578D01*
X121503959Y-123385920D01*
X121509883Y-123383283D01*
X121849645Y-123210166D01*
X121855266Y-123206920D01*
X122175061Y-122999242D01*
X122180315Y-122995425D01*
X122421806Y-122799870D01*
X122429693Y-122788606D01*
X122423027Y-122776580D01*
X120011542Y-120365095D01*
X120000000Y-120358431D01*
X119988457Y-120365095D01*
X117576971Y-122776580D01*
X117570305Y-122788606D01*
X32429693Y-122788606D01*
X32423027Y-122776580D01*
X30011542Y-120365095D01*
X30000000Y-120358431D01*
X29988457Y-120365095D01*
X27576971Y-122776580D01*
X27570305Y-122788606D01*
X25853736Y-122788606D01*
X25748198Y-122622946D01*
X25746255Y-122619793D01*
X25637118Y-122436636D01*
X25633652Y-122430420D01*
X25540972Y-122252383D01*
X25539561Y-122249587D01*
X25527982Y-122225903D01*
X25445886Y-122057972D01*
X25442752Y-122051024D01*
X25365911Y-121865513D01*
X25365046Y-121863363D01*
X25287431Y-121664453D01*
X25284696Y-121656689D01*
X25224359Y-121465325D01*
X25223850Y-121463665D01*
X25162889Y-121258901D01*
X25160680Y-121250386D01*
X25117312Y-121054765D01*
X25117027Y-121053439D01*
X25111495Y-121027057D01*
X25073153Y-120844192D01*
X25071576Y-120834936D01*
X25062648Y-120767120D01*
X25045490Y-120636793D01*
X25045483Y-120636743D01*
X25018881Y-120423330D01*
X25018052Y-120413455D01*
X25009486Y-120217271D01*
X25000634Y-120003244D01*
X26295092Y-120003244D01*
X26315049Y-120384048D01*
X26315726Y-120390491D01*
X26375378Y-120767120D01*
X26376726Y-120773462D01*
X26475422Y-121141802D01*
X26477421Y-121147955D01*
X26614079Y-121503959D01*
X26616716Y-121509883D01*
X26789833Y-121849645D01*
X26793079Y-121855266D01*
X27000757Y-122175061D01*
X27004574Y-122180315D01*
X27200129Y-122421807D01*
X27211392Y-122429693D01*
X27223418Y-122423027D01*
X29634904Y-120011542D01*
X29641568Y-120000000D01*
X30358431Y-120000000D01*
X30365095Y-120011542D01*
X32776580Y-122423027D01*
X32788606Y-122429693D01*
X32799870Y-122421806D01*
X32995425Y-122180315D01*
X32999242Y-122175061D01*
X33206920Y-121855266D01*
X33210166Y-121849645D01*
X33383283Y-121509883D01*
X33385920Y-121503959D01*
X33522578Y-121147955D01*
X33524577Y-121141802D01*
X33623273Y-120773462D01*
X33624621Y-120767120D01*
X33684273Y-120390491D01*
X33684950Y-120384048D01*
X33704908Y-120003244D01*
X116295092Y-120003244D01*
X116315049Y-120384048D01*
X116315726Y-120390491D01*
X116375378Y-120767120D01*
X116376726Y-120773462D01*
X116475422Y-121141802D01*
X116477421Y-121147955D01*
X116614079Y-121503959D01*
X116616716Y-121509883D01*
X116789833Y-121849645D01*
X116793079Y-121855266D01*
X117000757Y-122175061D01*
X117004574Y-122180315D01*
X117200129Y-122421807D01*
X117211392Y-122429693D01*
X117223418Y-122423027D01*
X119634904Y-120011542D01*
X119641568Y-120000000D01*
X120358431Y-120000000D01*
X120365095Y-120011542D01*
X122776580Y-122423027D01*
X122788606Y-122429693D01*
X122799870Y-122421806D01*
X122995425Y-122180315D01*
X122999242Y-122175061D01*
X123206920Y-121855266D01*
X123210166Y-121849645D01*
X123383283Y-121509883D01*
X123385920Y-121503959D01*
X123522578Y-121147955D01*
X123524577Y-121141802D01*
X123623273Y-120773462D01*
X123624621Y-120767120D01*
X123684273Y-120390491D01*
X123684950Y-120384048D01*
X123704908Y-120003244D01*
X123704908Y-119996756D01*
X123684950Y-119615951D01*
X123684273Y-119609508D01*
X123624621Y-119232879D01*
X123623273Y-119226537D01*
X123524577Y-118858197D01*
X123522578Y-118852044D01*
X123385920Y-118496040D01*
X123383283Y-118490116D01*
X123210166Y-118150354D01*
X123206920Y-118144733D01*
X122999242Y-117824938D01*
X122995425Y-117819684D01*
X122799869Y-117578191D01*
X122788606Y-117570305D01*
X122776580Y-117576971D01*
X120365095Y-119988457D01*
X120358431Y-120000000D01*
X119641568Y-120000000D01*
X119634904Y-119988457D01*
X117223418Y-117576971D01*
X117211393Y-117570305D01*
X117200127Y-117578194D01*
X117004578Y-117819678D01*
X117000756Y-117824939D01*
X116793079Y-118144733D01*
X116789833Y-118150354D01*
X116616716Y-118490116D01*
X116614079Y-118496040D01*
X116477421Y-118852044D01*
X116475422Y-118858197D01*
X116376726Y-119226537D01*
X116375378Y-119232879D01*
X116315726Y-119609508D01*
X116315049Y-119615951D01*
X116295092Y-119996756D01*
X116295092Y-120003244D01*
X33704908Y-120003244D01*
X33704908Y-119996756D01*
X33684950Y-119615951D01*
X33684273Y-119609508D01*
X33624621Y-119232879D01*
X33623273Y-119226537D01*
X33524577Y-118858197D01*
X33522578Y-118852044D01*
X33385920Y-118496040D01*
X33383283Y-118490116D01*
X33210166Y-118150354D01*
X33206920Y-118144733D01*
X32999242Y-117824938D01*
X32995425Y-117819684D01*
X32799869Y-117578191D01*
X32788606Y-117570305D01*
X32776580Y-117576971D01*
X30365095Y-119988457D01*
X30358431Y-120000000D01*
X29641568Y-120000000D01*
X29634904Y-119988457D01*
X27223418Y-117576971D01*
X27211393Y-117570305D01*
X27200127Y-117578194D01*
X27004578Y-117819678D01*
X27000756Y-117824939D01*
X26793079Y-118144733D01*
X26789833Y-118150354D01*
X26616716Y-118490116D01*
X26614079Y-118496040D01*
X26477421Y-118852044D01*
X26475422Y-118858197D01*
X26376726Y-119226537D01*
X26375378Y-119232879D01*
X26315726Y-119609508D01*
X26315049Y-119615951D01*
X26295092Y-119996756D01*
X26295092Y-120003244D01*
X25000634Y-120003244D01*
X25000605Y-120002554D01*
X25000500Y-119997426D01*
X25000500Y-119996756D01*
X25000962Y-117211393D01*
X27570305Y-117211393D01*
X27576971Y-117223418D01*
X29988457Y-119634904D01*
X30000000Y-119641568D01*
X30011542Y-119634904D01*
X32423027Y-117223418D01*
X32429692Y-117211393D01*
X117570305Y-117211393D01*
X117576971Y-117223418D01*
X119988457Y-119634904D01*
X120000000Y-119641568D01*
X120011542Y-119634904D01*
X122423027Y-117223418D01*
X122429693Y-117211392D01*
X122421807Y-117200129D01*
X122180315Y-117004574D01*
X122175061Y-117000757D01*
X121855266Y-116793079D01*
X121849645Y-116789833D01*
X121509883Y-116616716D01*
X121503959Y-116614079D01*
X121147955Y-116477421D01*
X121141802Y-116475422D01*
X120773462Y-116376726D01*
X120767120Y-116375378D01*
X120390491Y-116315726D01*
X120384048Y-116315049D01*
X120003244Y-116295092D01*
X119996756Y-116295092D01*
X119615951Y-116315049D01*
X119609508Y-116315726D01*
X119232879Y-116375378D01*
X119226537Y-116376726D01*
X118858197Y-116475422D01*
X118852044Y-116477421D01*
X118496040Y-116614079D01*
X118490116Y-116616716D01*
X118150354Y-116789833D01*
X118144733Y-116793079D01*
X117824939Y-117000756D01*
X117819678Y-117004578D01*
X117578194Y-117200127D01*
X117570305Y-117211393D01*
X32429692Y-117211393D01*
X32429693Y-117211392D01*
X32421807Y-117200129D01*
X32180315Y-117004574D01*
X32175061Y-117000757D01*
X31855266Y-116793079D01*
X31849645Y-116789833D01*
X31509883Y-116616716D01*
X31503959Y-116614079D01*
X31147955Y-116477421D01*
X31141802Y-116475422D01*
X30773462Y-116376726D01*
X30767120Y-116375378D01*
X30390491Y-116315726D01*
X30384048Y-116315049D01*
X30003244Y-116295092D01*
X29996756Y-116295092D01*
X29615951Y-116315049D01*
X29609508Y-116315726D01*
X29232879Y-116375378D01*
X29226537Y-116376726D01*
X28858197Y-116475422D01*
X28852044Y-116477421D01*
X28496040Y-116614079D01*
X28490116Y-116616716D01*
X28150354Y-116789833D01*
X28144733Y-116793079D01*
X27824939Y-117000756D01*
X27819678Y-117004578D01*
X27578194Y-117200127D01*
X27570305Y-117211393D01*
X25000962Y-117211393D01*
X25001466Y-114172681D01*
X74389500Y-114172681D01*
X74429050Y-114435078D01*
X74507266Y-114688650D01*
X74509280Y-114692832D01*
X74620385Y-114923545D01*
X74620388Y-114923551D01*
X74622402Y-114927732D01*
X74625021Y-114931573D01*
X74769272Y-115143151D01*
X74769276Y-115143157D01*
X74771886Y-115146984D01*
X74952377Y-115341508D01*
X75159845Y-115506958D01*
X75389655Y-115639639D01*
X75636673Y-115736586D01*
X75895381Y-115795635D01*
X76093745Y-115810500D01*
X76223938Y-115810500D01*
X76226255Y-115810500D01*
X76424619Y-115795635D01*
X76683327Y-115736586D01*
X76930345Y-115639639D01*
X77160155Y-115506958D01*
X77367623Y-115341508D01*
X77548114Y-115146984D01*
X77697598Y-114927733D01*
X77812734Y-114688650D01*
X77890950Y-114435078D01*
X77930500Y-114172681D01*
X92169500Y-114172681D01*
X92209050Y-114435078D01*
X92287266Y-114688650D01*
X92289280Y-114692832D01*
X92400385Y-114923545D01*
X92400388Y-114923551D01*
X92402402Y-114927732D01*
X92405021Y-114931573D01*
X92549272Y-115143151D01*
X92549276Y-115143157D01*
X92551886Y-115146984D01*
X92732377Y-115341508D01*
X92939845Y-115506958D01*
X93169655Y-115639639D01*
X93416673Y-115736586D01*
X93675381Y-115795635D01*
X93873745Y-115810500D01*
X94003938Y-115810500D01*
X94006255Y-115810500D01*
X94204619Y-115795635D01*
X94463327Y-115736586D01*
X94710345Y-115639639D01*
X94940155Y-115506958D01*
X95147623Y-115341508D01*
X95328114Y-115146984D01*
X95477598Y-114927733D01*
X95592734Y-114688650D01*
X95670950Y-114435078D01*
X95710500Y-114172681D01*
X95710500Y-113907319D01*
X95670950Y-113644922D01*
X95592734Y-113391350D01*
X95477598Y-113152268D01*
X95388840Y-113022084D01*
X95330727Y-112936848D01*
X95330724Y-112936844D01*
X95328114Y-112933016D01*
X95147623Y-112738492D01*
X94940155Y-112573042D01*
X94844292Y-112517695D01*
X94714366Y-112442682D01*
X94714360Y-112442679D01*
X94710345Y-112440361D01*
X94706026Y-112438666D01*
X94706020Y-112438663D01*
X94467649Y-112345110D01*
X94467645Y-112345109D01*
X94463327Y-112343414D01*
X94458804Y-112342381D01*
X94458802Y-112342381D01*
X94209138Y-112285396D01*
X94209132Y-112285395D01*
X94204619Y-112284365D01*
X94199997Y-112284018D01*
X94199993Y-112284018D01*
X94008569Y-112269673D01*
X94008558Y-112269672D01*
X94006255Y-112269500D01*
X93873745Y-112269500D01*
X93871442Y-112269672D01*
X93871430Y-112269673D01*
X93680006Y-112284018D01*
X93680000Y-112284018D01*
X93675381Y-112284365D01*
X93670869Y-112285394D01*
X93670861Y-112285396D01*
X93421197Y-112342381D01*
X93421191Y-112342382D01*
X93416673Y-112343414D01*
X93412357Y-112345107D01*
X93412350Y-112345110D01*
X93173979Y-112438663D01*
X93173968Y-112438668D01*
X93169655Y-112440361D01*
X93165644Y-112442676D01*
X93165633Y-112442682D01*
X92943863Y-112570722D01*
X92939845Y-112573042D01*
X92936221Y-112575931D01*
X92936218Y-112575934D01*
X92736004Y-112735599D01*
X92735999Y-112735603D01*
X92732377Y-112738492D01*
X92729223Y-112741890D01*
X92729221Y-112741893D01*
X92555039Y-112929617D01*
X92555034Y-112929623D01*
X92551886Y-112933016D01*
X92549276Y-112936843D01*
X92549272Y-112936849D01*
X92405017Y-113148430D01*
X92405011Y-113148439D01*
X92402402Y-113152267D01*
X92400390Y-113156443D01*
X92400387Y-113156450D01*
X92289280Y-113387166D01*
X92289280Y-113387167D01*
X92287266Y-113391350D01*
X92285900Y-113395777D01*
X92285897Y-113395786D01*
X92210418Y-113640485D01*
X92210416Y-113640492D01*
X92209050Y-113644922D01*
X92169500Y-113907319D01*
X92169500Y-114172681D01*
X77930500Y-114172681D01*
X77930500Y-113907319D01*
X77890950Y-113644922D01*
X77812734Y-113391350D01*
X77697598Y-113152268D01*
X77608840Y-113022084D01*
X77550727Y-112936848D01*
X77550724Y-112936844D01*
X77548114Y-112933016D01*
X77367623Y-112738492D01*
X77160155Y-112573042D01*
X77064292Y-112517695D01*
X76934366Y-112442682D01*
X76934360Y-112442679D01*
X76930345Y-112440361D01*
X76926026Y-112438666D01*
X76926020Y-112438663D01*
X76687649Y-112345110D01*
X76687645Y-112345109D01*
X76683327Y-112343414D01*
X76678804Y-112342381D01*
X76678802Y-112342381D01*
X76429138Y-112285396D01*
X76429132Y-112285395D01*
X76424619Y-112284365D01*
X76419997Y-112284018D01*
X76419993Y-112284018D01*
X76228569Y-112269673D01*
X76228558Y-112269672D01*
X76226255Y-112269500D01*
X76093745Y-112269500D01*
X76091442Y-112269672D01*
X76091430Y-112269673D01*
X75900006Y-112284018D01*
X75900000Y-112284018D01*
X75895381Y-112284365D01*
X75890869Y-112285394D01*
X75890861Y-112285396D01*
X75641197Y-112342381D01*
X75641191Y-112342382D01*
X75636673Y-112343414D01*
X75632357Y-112345107D01*
X75632350Y-112345110D01*
X75393979Y-112438663D01*
X75393968Y-112438668D01*
X75389655Y-112440361D01*
X75385644Y-112442676D01*
X75385633Y-112442682D01*
X75163863Y-112570722D01*
X75159845Y-112573042D01*
X75156221Y-112575931D01*
X75156218Y-112575934D01*
X74956004Y-112735599D01*
X74955999Y-112735603D01*
X74952377Y-112738492D01*
X74949223Y-112741890D01*
X74949221Y-112741893D01*
X74775039Y-112929617D01*
X74775034Y-112929623D01*
X74771886Y-112933016D01*
X74769276Y-112936843D01*
X74769272Y-112936849D01*
X74625017Y-113148430D01*
X74625011Y-113148439D01*
X74622402Y-113152267D01*
X74620390Y-113156443D01*
X74620387Y-113156450D01*
X74509280Y-113387166D01*
X74509280Y-113387167D01*
X74507266Y-113391350D01*
X74505900Y-113395777D01*
X74505897Y-113395786D01*
X74430418Y-113640485D01*
X74430416Y-113640492D01*
X74429050Y-113644922D01*
X74389500Y-113907319D01*
X74389500Y-114172681D01*
X25001466Y-114172681D01*
X25002540Y-107690000D01*
X73364357Y-107690000D01*
X73384885Y-107911536D01*
X73394195Y-107944258D01*
X73444201Y-108120013D01*
X73444204Y-108120021D01*
X73445771Y-108125528D01*
X73448323Y-108130653D01*
X73448325Y-108130658D01*
X73542387Y-108319559D01*
X73542389Y-108319563D01*
X73544942Y-108324689D01*
X73548391Y-108329256D01*
X73548394Y-108329261D01*
X73675561Y-108497658D01*
X73675566Y-108497663D01*
X73679019Y-108502236D01*
X73683255Y-108506097D01*
X73683259Y-108506102D01*
X73732755Y-108551223D01*
X73843438Y-108652124D01*
X74032599Y-108769247D01*
X74240060Y-108849618D01*
X74458757Y-108890500D01*
X74675514Y-108890500D01*
X74681243Y-108890500D01*
X74899940Y-108849618D01*
X75107401Y-108769247D01*
X75296562Y-108652124D01*
X75460981Y-108502236D01*
X75595058Y-108324689D01*
X75694229Y-108125528D01*
X75755115Y-107911536D01*
X75775643Y-107690000D01*
X77554357Y-107690000D01*
X77574885Y-107911536D01*
X77584195Y-107944258D01*
X77634201Y-108120013D01*
X77634204Y-108120021D01*
X77635771Y-108125528D01*
X77638323Y-108130653D01*
X77638325Y-108130658D01*
X77732387Y-108319559D01*
X77732389Y-108319563D01*
X77734942Y-108324689D01*
X77738391Y-108329256D01*
X77738394Y-108329261D01*
X77865561Y-108497658D01*
X77865566Y-108497663D01*
X77869019Y-108502236D01*
X77873255Y-108506097D01*
X77873259Y-108506102D01*
X77922755Y-108551223D01*
X78033438Y-108652124D01*
X78222599Y-108769247D01*
X78430060Y-108849618D01*
X78648757Y-108890500D01*
X78865514Y-108890500D01*
X78871243Y-108890500D01*
X79089940Y-108849618D01*
X79297401Y-108769247D01*
X79486562Y-108652124D01*
X79650981Y-108502236D01*
X79785058Y-108324689D01*
X79884229Y-108125528D01*
X79945115Y-107911536D01*
X79965643Y-107690000D01*
X81744357Y-107690000D01*
X81764885Y-107911536D01*
X81774195Y-107944258D01*
X81824201Y-108120013D01*
X81824204Y-108120021D01*
X81825771Y-108125528D01*
X81828323Y-108130653D01*
X81828325Y-108130658D01*
X81922387Y-108319559D01*
X81922389Y-108319563D01*
X81924942Y-108324689D01*
X81928391Y-108329256D01*
X81928394Y-108329261D01*
X82055561Y-108497658D01*
X82055566Y-108497663D01*
X82059019Y-108502236D01*
X82063255Y-108506097D01*
X82063259Y-108506102D01*
X82112755Y-108551223D01*
X82223438Y-108652124D01*
X82412599Y-108769247D01*
X82620060Y-108849618D01*
X82838757Y-108890500D01*
X83055514Y-108890500D01*
X83061243Y-108890500D01*
X83279940Y-108849618D01*
X83487401Y-108769247D01*
X83676562Y-108652124D01*
X83840981Y-108502236D01*
X83975058Y-108324689D01*
X84074229Y-108125528D01*
X84135115Y-107911536D01*
X84155643Y-107690000D01*
X85944357Y-107690000D01*
X85964885Y-107911536D01*
X85974195Y-107944258D01*
X86024201Y-108120013D01*
X86024204Y-108120021D01*
X86025771Y-108125528D01*
X86028323Y-108130653D01*
X86028325Y-108130658D01*
X86122387Y-108319559D01*
X86122389Y-108319563D01*
X86124942Y-108324689D01*
X86128391Y-108329256D01*
X86128394Y-108329261D01*
X86255561Y-108497658D01*
X86255566Y-108497663D01*
X86259019Y-108502236D01*
X86263255Y-108506097D01*
X86263259Y-108506102D01*
X86312755Y-108551223D01*
X86423438Y-108652124D01*
X86612599Y-108769247D01*
X86820060Y-108849618D01*
X87038757Y-108890500D01*
X87255514Y-108890500D01*
X87261243Y-108890500D01*
X87479940Y-108849618D01*
X87687401Y-108769247D01*
X87876562Y-108652124D01*
X88040981Y-108502236D01*
X88175058Y-108324689D01*
X88274229Y-108125528D01*
X88335115Y-107911536D01*
X88355643Y-107690000D01*
X90134357Y-107690000D01*
X90154885Y-107911536D01*
X90164195Y-107944258D01*
X90214201Y-108120013D01*
X90214204Y-108120021D01*
X90215771Y-108125528D01*
X90218323Y-108130653D01*
X90218325Y-108130658D01*
X90312387Y-108319559D01*
X90312389Y-108319563D01*
X90314942Y-108324689D01*
X90318391Y-108329256D01*
X90318394Y-108329261D01*
X90445561Y-108497658D01*
X90445566Y-108497663D01*
X90449019Y-108502236D01*
X90453255Y-108506097D01*
X90453259Y-108506102D01*
X90502755Y-108551223D01*
X90613438Y-108652124D01*
X90802599Y-108769247D01*
X91010060Y-108849618D01*
X91228757Y-108890500D01*
X91445514Y-108890500D01*
X91451243Y-108890500D01*
X91669940Y-108849618D01*
X91877401Y-108769247D01*
X92066562Y-108652124D01*
X92230981Y-108502236D01*
X92365058Y-108324689D01*
X92464229Y-108125528D01*
X92525115Y-107911536D01*
X92545643Y-107690000D01*
X94324357Y-107690000D01*
X94344885Y-107911536D01*
X94354195Y-107944258D01*
X94404201Y-108120013D01*
X94404204Y-108120021D01*
X94405771Y-108125528D01*
X94408323Y-108130653D01*
X94408325Y-108130658D01*
X94502387Y-108319559D01*
X94502389Y-108319563D01*
X94504942Y-108324689D01*
X94508391Y-108329256D01*
X94508394Y-108329261D01*
X94635561Y-108497658D01*
X94635566Y-108497663D01*
X94639019Y-108502236D01*
X94643255Y-108506097D01*
X94643259Y-108506102D01*
X94692755Y-108551223D01*
X94803438Y-108652124D01*
X94992599Y-108769247D01*
X95200060Y-108849618D01*
X95418757Y-108890500D01*
X95635514Y-108890500D01*
X95641243Y-108890500D01*
X95859940Y-108849618D01*
X96067401Y-108769247D01*
X96256562Y-108652124D01*
X96420981Y-108502236D01*
X96498186Y-108400000D01*
X114944750Y-108400000D01*
X114945811Y-108408059D01*
X114958718Y-108506102D01*
X114963670Y-108543709D01*
X115019139Y-108677625D01*
X115107379Y-108792621D01*
X115222375Y-108880861D01*
X115356291Y-108936330D01*
X115500000Y-108955250D01*
X115643709Y-108936330D01*
X115777625Y-108880861D01*
X115892621Y-108792621D01*
X115980861Y-108677625D01*
X116036330Y-108543709D01*
X116055250Y-108400000D01*
X117944750Y-108400000D01*
X117945811Y-108408059D01*
X117958718Y-108506102D01*
X117963670Y-108543709D01*
X118019139Y-108677625D01*
X118107379Y-108792621D01*
X118222375Y-108880861D01*
X118356291Y-108936330D01*
X118500000Y-108955250D01*
X118643709Y-108936330D01*
X118777625Y-108880861D01*
X118892621Y-108792621D01*
X118980861Y-108677625D01*
X119036330Y-108543709D01*
X119055250Y-108400000D01*
X119036330Y-108256291D01*
X118980861Y-108122375D01*
X118892621Y-108007379D01*
X118777625Y-107919139D01*
X118741592Y-107904214D01*
X118651223Y-107866782D01*
X118651220Y-107866781D01*
X118643709Y-107863670D01*
X118635649Y-107862608D01*
X118635646Y-107862608D01*
X118508059Y-107845811D01*
X118500000Y-107844750D01*
X118491941Y-107845811D01*
X118364353Y-107862608D01*
X118364348Y-107862609D01*
X118356291Y-107863670D01*
X118348781Y-107866780D01*
X118348776Y-107866782D01*
X118229885Y-107916028D01*
X118229883Y-107916029D01*
X118222375Y-107919139D01*
X118215933Y-107924082D01*
X118215928Y-107924085D01*
X118113821Y-108002435D01*
X118113817Y-108002438D01*
X118107379Y-108007379D01*
X118102438Y-108013817D01*
X118102435Y-108013821D01*
X118024085Y-108115928D01*
X118024082Y-108115933D01*
X118019139Y-108122375D01*
X118016029Y-108129883D01*
X118016028Y-108129885D01*
X117966782Y-108248776D01*
X117966780Y-108248781D01*
X117963670Y-108256291D01*
X117962609Y-108264348D01*
X117962608Y-108264353D01*
X117955340Y-108319559D01*
X117944750Y-108400000D01*
X116055250Y-108400000D01*
X116036330Y-108256291D01*
X115980861Y-108122375D01*
X115892621Y-108007379D01*
X115777625Y-107919139D01*
X115741592Y-107904214D01*
X115651223Y-107866782D01*
X115651220Y-107866781D01*
X115643709Y-107863670D01*
X115635649Y-107862608D01*
X115635646Y-107862608D01*
X115508059Y-107845811D01*
X115500000Y-107844750D01*
X115491941Y-107845811D01*
X115364353Y-107862608D01*
X115364348Y-107862609D01*
X115356291Y-107863670D01*
X115348781Y-107866780D01*
X115348776Y-107866782D01*
X115229885Y-107916028D01*
X115229883Y-107916029D01*
X115222375Y-107919139D01*
X115215933Y-107924082D01*
X115215928Y-107924085D01*
X115113821Y-108002435D01*
X115113817Y-108002438D01*
X115107379Y-108007379D01*
X115102438Y-108013817D01*
X115102435Y-108013821D01*
X115024085Y-108115928D01*
X115024082Y-108115933D01*
X115019139Y-108122375D01*
X115016029Y-108129883D01*
X115016028Y-108129885D01*
X114966782Y-108248776D01*
X114966780Y-108248781D01*
X114963670Y-108256291D01*
X114962609Y-108264348D01*
X114962608Y-108264353D01*
X114955340Y-108319559D01*
X114944750Y-108400000D01*
X96498186Y-108400000D01*
X96555058Y-108324689D01*
X96654229Y-108125528D01*
X96715115Y-107911536D01*
X96735643Y-107690000D01*
X96715115Y-107468464D01*
X96654229Y-107254472D01*
X96555058Y-107055311D01*
X96551605Y-107050738D01*
X96424438Y-106882341D01*
X96424434Y-106882337D01*
X96420981Y-106877764D01*
X96416744Y-106873901D01*
X96416740Y-106873897D01*
X96260796Y-106731736D01*
X96260797Y-106731736D01*
X96256562Y-106727876D01*
X96251692Y-106724861D01*
X96251690Y-106724859D01*
X96072275Y-106613771D01*
X96072276Y-106613771D01*
X96067401Y-106610753D01*
X95859940Y-106530382D01*
X95854302Y-106529328D01*
X95646872Y-106490552D01*
X95646869Y-106490551D01*
X95641243Y-106489500D01*
X95418757Y-106489500D01*
X95413131Y-106490551D01*
X95413127Y-106490552D01*
X95205697Y-106529328D01*
X95205694Y-106529328D01*
X95200060Y-106530382D01*
X95194717Y-106532451D01*
X95194713Y-106532453D01*
X94997941Y-106608683D01*
X94997936Y-106608685D01*
X94992599Y-106610753D01*
X94987727Y-106613769D01*
X94987724Y-106613771D01*
X94808309Y-106724859D01*
X94808301Y-106724864D01*
X94803438Y-106727876D01*
X94799207Y-106731732D01*
X94799203Y-106731736D01*
X94643259Y-106873897D01*
X94643249Y-106873907D01*
X94639019Y-106877764D01*
X94635570Y-106882330D01*
X94635561Y-106882341D01*
X94508394Y-107050738D01*
X94508387Y-107050748D01*
X94504942Y-107055311D01*
X94502392Y-107060431D01*
X94502387Y-107060440D01*
X94408325Y-107249341D01*
X94408321Y-107249349D01*
X94405771Y-107254472D01*
X94404205Y-107259975D01*
X94404201Y-107259986D01*
X94346454Y-107462949D01*
X94344885Y-107468464D01*
X94324357Y-107690000D01*
X92545643Y-107690000D01*
X92525115Y-107468464D01*
X92464229Y-107254472D01*
X92365058Y-107055311D01*
X92361605Y-107050738D01*
X92234438Y-106882341D01*
X92234434Y-106882337D01*
X92230981Y-106877764D01*
X92226744Y-106873901D01*
X92226740Y-106873897D01*
X92070796Y-106731736D01*
X92070797Y-106731736D01*
X92066562Y-106727876D01*
X92061692Y-106724861D01*
X92061690Y-106724859D01*
X91882275Y-106613771D01*
X91882276Y-106613771D01*
X91877401Y-106610753D01*
X91669940Y-106530382D01*
X91664302Y-106529328D01*
X91456872Y-106490552D01*
X91456869Y-106490551D01*
X91451243Y-106489500D01*
X91228757Y-106489500D01*
X91223131Y-106490551D01*
X91223127Y-106490552D01*
X91015697Y-106529328D01*
X91015694Y-106529328D01*
X91010060Y-106530382D01*
X91004717Y-106532451D01*
X91004713Y-106532453D01*
X90807941Y-106608683D01*
X90807936Y-106608685D01*
X90802599Y-106610753D01*
X90797727Y-106613769D01*
X90797724Y-106613771D01*
X90618309Y-106724859D01*
X90618301Y-106724864D01*
X90613438Y-106727876D01*
X90609207Y-106731732D01*
X90609203Y-106731736D01*
X90453259Y-106873897D01*
X90453249Y-106873907D01*
X90449019Y-106877764D01*
X90445570Y-106882330D01*
X90445561Y-106882341D01*
X90318394Y-107050738D01*
X90318387Y-107050748D01*
X90314942Y-107055311D01*
X90312392Y-107060431D01*
X90312387Y-107060440D01*
X90218325Y-107249341D01*
X90218321Y-107249349D01*
X90215771Y-107254472D01*
X90214205Y-107259975D01*
X90214201Y-107259986D01*
X90156454Y-107462949D01*
X90154885Y-107468464D01*
X90134357Y-107690000D01*
X88355643Y-107690000D01*
X88335115Y-107468464D01*
X88274229Y-107254472D01*
X88175058Y-107055311D01*
X88171605Y-107050738D01*
X88044438Y-106882341D01*
X88044434Y-106882337D01*
X88040981Y-106877764D01*
X88036744Y-106873901D01*
X88036740Y-106873897D01*
X87880796Y-106731736D01*
X87880797Y-106731736D01*
X87876562Y-106727876D01*
X87871692Y-106724861D01*
X87871690Y-106724859D01*
X87692275Y-106613771D01*
X87692276Y-106613771D01*
X87687401Y-106610753D01*
X87479940Y-106530382D01*
X87474302Y-106529328D01*
X87266872Y-106490552D01*
X87266869Y-106490551D01*
X87261243Y-106489500D01*
X87038757Y-106489500D01*
X87033131Y-106490551D01*
X87033127Y-106490552D01*
X86825697Y-106529328D01*
X86825694Y-106529328D01*
X86820060Y-106530382D01*
X86814717Y-106532451D01*
X86814713Y-106532453D01*
X86617941Y-106608683D01*
X86617936Y-106608685D01*
X86612599Y-106610753D01*
X86607727Y-106613769D01*
X86607724Y-106613771D01*
X86428309Y-106724859D01*
X86428301Y-106724864D01*
X86423438Y-106727876D01*
X86419207Y-106731732D01*
X86419203Y-106731736D01*
X86263259Y-106873897D01*
X86263249Y-106873907D01*
X86259019Y-106877764D01*
X86255570Y-106882330D01*
X86255561Y-106882341D01*
X86128394Y-107050738D01*
X86128387Y-107050748D01*
X86124942Y-107055311D01*
X86122392Y-107060431D01*
X86122387Y-107060440D01*
X86028325Y-107249341D01*
X86028321Y-107249349D01*
X86025771Y-107254472D01*
X86024205Y-107259975D01*
X86024201Y-107259986D01*
X85966454Y-107462949D01*
X85964885Y-107468464D01*
X85944357Y-107690000D01*
X84155643Y-107690000D01*
X84135115Y-107468464D01*
X84074229Y-107254472D01*
X83975058Y-107055311D01*
X83971605Y-107050738D01*
X83844438Y-106882341D01*
X83844434Y-106882337D01*
X83840981Y-106877764D01*
X83836744Y-106873901D01*
X83836740Y-106873897D01*
X83680796Y-106731736D01*
X83680797Y-106731736D01*
X83676562Y-106727876D01*
X83671692Y-106724861D01*
X83671690Y-106724859D01*
X83492275Y-106613771D01*
X83492276Y-106613771D01*
X83487401Y-106610753D01*
X83279940Y-106530382D01*
X83274302Y-106529328D01*
X83066872Y-106490552D01*
X83066869Y-106490551D01*
X83061243Y-106489500D01*
X82838757Y-106489500D01*
X82833131Y-106490551D01*
X82833127Y-106490552D01*
X82625697Y-106529328D01*
X82625694Y-106529328D01*
X82620060Y-106530382D01*
X82614717Y-106532451D01*
X82614713Y-106532453D01*
X82417941Y-106608683D01*
X82417936Y-106608685D01*
X82412599Y-106610753D01*
X82407727Y-106613769D01*
X82407724Y-106613771D01*
X82228309Y-106724859D01*
X82228301Y-106724864D01*
X82223438Y-106727876D01*
X82219207Y-106731732D01*
X82219203Y-106731736D01*
X82063259Y-106873897D01*
X82063249Y-106873907D01*
X82059019Y-106877764D01*
X82055570Y-106882330D01*
X82055561Y-106882341D01*
X81928394Y-107050738D01*
X81928387Y-107050748D01*
X81924942Y-107055311D01*
X81922392Y-107060431D01*
X81922387Y-107060440D01*
X81828325Y-107249341D01*
X81828321Y-107249349D01*
X81825771Y-107254472D01*
X81824205Y-107259975D01*
X81824201Y-107259986D01*
X81766454Y-107462949D01*
X81764885Y-107468464D01*
X81744357Y-107690000D01*
X79965643Y-107690000D01*
X79945115Y-107468464D01*
X79884229Y-107254472D01*
X79785058Y-107055311D01*
X79781605Y-107050738D01*
X79654438Y-106882341D01*
X79654434Y-106882337D01*
X79650981Y-106877764D01*
X79646744Y-106873901D01*
X79646740Y-106873897D01*
X79490796Y-106731736D01*
X79490797Y-106731736D01*
X79486562Y-106727876D01*
X79481692Y-106724861D01*
X79481690Y-106724859D01*
X79302275Y-106613771D01*
X79302276Y-106613771D01*
X79297401Y-106610753D01*
X79089940Y-106530382D01*
X79084302Y-106529328D01*
X78876872Y-106490552D01*
X78876869Y-106490551D01*
X78871243Y-106489500D01*
X78648757Y-106489500D01*
X78643131Y-106490551D01*
X78643127Y-106490552D01*
X78435697Y-106529328D01*
X78435694Y-106529328D01*
X78430060Y-106530382D01*
X78424717Y-106532451D01*
X78424713Y-106532453D01*
X78227941Y-106608683D01*
X78227936Y-106608685D01*
X78222599Y-106610753D01*
X78217727Y-106613769D01*
X78217724Y-106613771D01*
X78038309Y-106724859D01*
X78038301Y-106724864D01*
X78033438Y-106727876D01*
X78029207Y-106731732D01*
X78029203Y-106731736D01*
X77873259Y-106873897D01*
X77873249Y-106873907D01*
X77869019Y-106877764D01*
X77865570Y-106882330D01*
X77865561Y-106882341D01*
X77738394Y-107050738D01*
X77738387Y-107050748D01*
X77734942Y-107055311D01*
X77732392Y-107060431D01*
X77732387Y-107060440D01*
X77638325Y-107249341D01*
X77638321Y-107249349D01*
X77635771Y-107254472D01*
X77634205Y-107259975D01*
X77634201Y-107259986D01*
X77576454Y-107462949D01*
X77574885Y-107468464D01*
X77554357Y-107690000D01*
X75775643Y-107690000D01*
X75755115Y-107468464D01*
X75694229Y-107254472D01*
X75595058Y-107055311D01*
X75591605Y-107050738D01*
X75464438Y-106882341D01*
X75464434Y-106882337D01*
X75460981Y-106877764D01*
X75456744Y-106873901D01*
X75456740Y-106873897D01*
X75300796Y-106731736D01*
X75300797Y-106731736D01*
X75296562Y-106727876D01*
X75291692Y-106724861D01*
X75291690Y-106724859D01*
X75112275Y-106613771D01*
X75112276Y-106613771D01*
X75107401Y-106610753D01*
X74899940Y-106530382D01*
X74894302Y-106529328D01*
X74686872Y-106490552D01*
X74686869Y-106490551D01*
X74681243Y-106489500D01*
X74458757Y-106489500D01*
X74453131Y-106490551D01*
X74453127Y-106490552D01*
X74245697Y-106529328D01*
X74245694Y-106529328D01*
X74240060Y-106530382D01*
X74234717Y-106532451D01*
X74234713Y-106532453D01*
X74037941Y-106608683D01*
X74037936Y-106608685D01*
X74032599Y-106610753D01*
X74027727Y-106613769D01*
X74027724Y-106613771D01*
X73848309Y-106724859D01*
X73848301Y-106724864D01*
X73843438Y-106727876D01*
X73839207Y-106731732D01*
X73839203Y-106731736D01*
X73683259Y-106873897D01*
X73683249Y-106873907D01*
X73679019Y-106877764D01*
X73675570Y-106882330D01*
X73675561Y-106882341D01*
X73548394Y-107050738D01*
X73548387Y-107050748D01*
X73544942Y-107055311D01*
X73542392Y-107060431D01*
X73542387Y-107060440D01*
X73448325Y-107249341D01*
X73448321Y-107249349D01*
X73445771Y-107254472D01*
X73444205Y-107259975D01*
X73444201Y-107259986D01*
X73386454Y-107462949D01*
X73384885Y-107468464D01*
X73364357Y-107690000D01*
X25002540Y-107690000D01*
X25002837Y-105900000D01*
X120444750Y-105900000D01*
X120463670Y-106043709D01*
X120519139Y-106177625D01*
X120607379Y-106292621D01*
X120722375Y-106380861D01*
X120856291Y-106436330D01*
X121000000Y-106455250D01*
X121143709Y-106436330D01*
X121277625Y-106380861D01*
X121392621Y-106292621D01*
X121480861Y-106177625D01*
X121536330Y-106043709D01*
X121555250Y-105900000D01*
X121536330Y-105756291D01*
X121480861Y-105622375D01*
X121392621Y-105507379D01*
X121277625Y-105419139D01*
X121241592Y-105404214D01*
X121151223Y-105366782D01*
X121151220Y-105366781D01*
X121143709Y-105363670D01*
X121135649Y-105362608D01*
X121135646Y-105362608D01*
X121008059Y-105345811D01*
X121000000Y-105344750D01*
X120991941Y-105345811D01*
X120864353Y-105362608D01*
X120864348Y-105362609D01*
X120856291Y-105363670D01*
X120848781Y-105366780D01*
X120848776Y-105366782D01*
X120729885Y-105416028D01*
X120729883Y-105416029D01*
X120722375Y-105419139D01*
X120715933Y-105424082D01*
X120715928Y-105424085D01*
X120613821Y-105502435D01*
X120613817Y-105502438D01*
X120607379Y-105507379D01*
X120602438Y-105513817D01*
X120602435Y-105513821D01*
X120524085Y-105615928D01*
X120524082Y-105615933D01*
X120519139Y-105622375D01*
X120516029Y-105629883D01*
X120516028Y-105629885D01*
X120466782Y-105748776D01*
X120466780Y-105748781D01*
X120463670Y-105756291D01*
X120462609Y-105764348D01*
X120462608Y-105764353D01*
X120445811Y-105891941D01*
X120444750Y-105900000D01*
X25002837Y-105900000D01*
X25003436Y-102281302D01*
X73369500Y-102281302D01*
X73369501Y-102284864D01*
X73369912Y-102288411D01*
X73369913Y-102288422D01*
X73371055Y-102298263D01*
X73372415Y-102309991D01*
X73417794Y-102412765D01*
X73497235Y-102492206D01*
X73568111Y-102523501D01*
X73591477Y-102533818D01*
X73591478Y-102533818D01*
X73600009Y-102537585D01*
X73625135Y-102540500D01*
X75514864Y-102540499D01*
X75539991Y-102537585D01*
X75642765Y-102492206D01*
X75722206Y-102412765D01*
X75767585Y-102309991D01*
X75770500Y-102284865D01*
X75770499Y-101340000D01*
X77554357Y-101340000D01*
X77554886Y-101345709D01*
X77555426Y-101351542D01*
X77574885Y-101561536D01*
X77576454Y-101567050D01*
X77634201Y-101770013D01*
X77634204Y-101770021D01*
X77635771Y-101775528D01*
X77638323Y-101780653D01*
X77638325Y-101780658D01*
X77732387Y-101969559D01*
X77732389Y-101969563D01*
X77734942Y-101974689D01*
X77738391Y-101979256D01*
X77738394Y-101979261D01*
X77865561Y-102147658D01*
X77865566Y-102147663D01*
X77869019Y-102152236D01*
X77873255Y-102156097D01*
X77873259Y-102156102D01*
X77985603Y-102258517D01*
X78033438Y-102302124D01*
X78222599Y-102419247D01*
X78430060Y-102499618D01*
X78648757Y-102540500D01*
X78865514Y-102540500D01*
X78871243Y-102540500D01*
X79089940Y-102499618D01*
X79297401Y-102419247D01*
X79486562Y-102302124D01*
X79650981Y-102152236D01*
X79785058Y-101974689D01*
X79884229Y-101775528D01*
X79945115Y-101561536D01*
X79965643Y-101340000D01*
X81744357Y-101340000D01*
X81744886Y-101345709D01*
X81745426Y-101351542D01*
X81764885Y-101561536D01*
X81766454Y-101567050D01*
X81824201Y-101770013D01*
X81824204Y-101770021D01*
X81825771Y-101775528D01*
X81828323Y-101780653D01*
X81828325Y-101780658D01*
X81922387Y-101969559D01*
X81922389Y-101969563D01*
X81924942Y-101974689D01*
X81928391Y-101979256D01*
X81928394Y-101979261D01*
X82055561Y-102147658D01*
X82055566Y-102147663D01*
X82059019Y-102152236D01*
X82063255Y-102156097D01*
X82063259Y-102156102D01*
X82175603Y-102258517D01*
X82223438Y-102302124D01*
X82412599Y-102419247D01*
X82620060Y-102499618D01*
X82838757Y-102540500D01*
X83055514Y-102540500D01*
X83061243Y-102540500D01*
X83279940Y-102499618D01*
X83299628Y-102491991D01*
X86357006Y-102491991D01*
X86365113Y-102503181D01*
X86377602Y-102512901D01*
X86386151Y-102518487D01*
X86581194Y-102624039D01*
X86590547Y-102628141D01*
X86800290Y-102700146D01*
X86810199Y-102702655D01*
X87028929Y-102739155D01*
X87039127Y-102740000D01*
X87260873Y-102740000D01*
X87271070Y-102739155D01*
X87489800Y-102702655D01*
X87499709Y-102700146D01*
X87709452Y-102628141D01*
X87718805Y-102624039D01*
X87913845Y-102518488D01*
X87922397Y-102512901D01*
X87934888Y-102503179D01*
X87942992Y-102491992D01*
X87936331Y-102479884D01*
X87161542Y-101705095D01*
X87150000Y-101698431D01*
X87138457Y-101705095D01*
X86363666Y-102479885D01*
X86357006Y-102491991D01*
X83299628Y-102491991D01*
X83487401Y-102419247D01*
X83676562Y-102302124D01*
X83840981Y-102152236D01*
X83975058Y-101974689D01*
X84074229Y-101775528D01*
X84135115Y-101561536D01*
X84155169Y-101345117D01*
X85745626Y-101345117D01*
X85763937Y-101566102D01*
X85765621Y-101576196D01*
X85820059Y-101791166D01*
X85823378Y-101800833D01*
X85912456Y-102003913D01*
X85917322Y-102012903D01*
X85991245Y-102126051D01*
X85999212Y-102133776D01*
X86008592Y-102127853D01*
X86784904Y-101351542D01*
X86791568Y-101340000D01*
X87508431Y-101340000D01*
X87515095Y-101351542D01*
X88291405Y-102127852D01*
X88300786Y-102133776D01*
X88308754Y-102126051D01*
X88382675Y-102012906D01*
X88387543Y-102003911D01*
X88476621Y-101800833D01*
X88479940Y-101791166D01*
X88534378Y-101576196D01*
X88536062Y-101566102D01*
X88554374Y-101345117D01*
X88554374Y-101340000D01*
X90134357Y-101340000D01*
X90134886Y-101345709D01*
X90135426Y-101351542D01*
X90154885Y-101561536D01*
X90156454Y-101567050D01*
X90214201Y-101770013D01*
X90214204Y-101770021D01*
X90215771Y-101775528D01*
X90218323Y-101780653D01*
X90218325Y-101780658D01*
X90312387Y-101969559D01*
X90312389Y-101969563D01*
X90314942Y-101974689D01*
X90318391Y-101979256D01*
X90318394Y-101979261D01*
X90445561Y-102147658D01*
X90445566Y-102147663D01*
X90449019Y-102152236D01*
X90453255Y-102156097D01*
X90453259Y-102156102D01*
X90565603Y-102258517D01*
X90613438Y-102302124D01*
X90802599Y-102419247D01*
X91010060Y-102499618D01*
X91228757Y-102540500D01*
X91445514Y-102540500D01*
X91451243Y-102540500D01*
X91669940Y-102499618D01*
X91877401Y-102419247D01*
X92066562Y-102302124D01*
X92230981Y-102152236D01*
X92365058Y-101974689D01*
X92464229Y-101775528D01*
X92525115Y-101561536D01*
X92545643Y-101340000D01*
X94324357Y-101340000D01*
X94324886Y-101345709D01*
X94325426Y-101351542D01*
X94344885Y-101561536D01*
X94346454Y-101567050D01*
X94404201Y-101770013D01*
X94404204Y-101770021D01*
X94405771Y-101775528D01*
X94408323Y-101780653D01*
X94408325Y-101780658D01*
X94502387Y-101969559D01*
X94502389Y-101969563D01*
X94504942Y-101974689D01*
X94508391Y-101979256D01*
X94508394Y-101979261D01*
X94635561Y-102147658D01*
X94635566Y-102147663D01*
X94639019Y-102152236D01*
X94643255Y-102156097D01*
X94643259Y-102156102D01*
X94755603Y-102258517D01*
X94803438Y-102302124D01*
X94992599Y-102419247D01*
X95200060Y-102499618D01*
X95418757Y-102540500D01*
X95635514Y-102540500D01*
X95641243Y-102540500D01*
X95859940Y-102499618D01*
X96067401Y-102419247D01*
X96256562Y-102302124D01*
X96420981Y-102152236D01*
X96555058Y-101974689D01*
X96654229Y-101775528D01*
X96715115Y-101561536D01*
X96735643Y-101340000D01*
X96715115Y-101118464D01*
X96654229Y-100904472D01*
X96555058Y-100705311D01*
X96551605Y-100700738D01*
X96424438Y-100532341D01*
X96424434Y-100532337D01*
X96420981Y-100527764D01*
X96416744Y-100523901D01*
X96416740Y-100523897D01*
X96260796Y-100381736D01*
X96260797Y-100381736D01*
X96256562Y-100377876D01*
X96251692Y-100374861D01*
X96251690Y-100374859D01*
X96072275Y-100263771D01*
X96072276Y-100263771D01*
X96067401Y-100260753D01*
X95910871Y-100200113D01*
X95865286Y-100182453D01*
X95865285Y-100182452D01*
X95859940Y-100180382D01*
X95854302Y-100179328D01*
X95646872Y-100140552D01*
X95646869Y-100140551D01*
X95641243Y-100139500D01*
X95418757Y-100139500D01*
X95413131Y-100140551D01*
X95413127Y-100140552D01*
X95205697Y-100179328D01*
X95205694Y-100179328D01*
X95200060Y-100180382D01*
X95194717Y-100182451D01*
X95194713Y-100182453D01*
X94997941Y-100258683D01*
X94997936Y-100258685D01*
X94992599Y-100260753D01*
X94987727Y-100263769D01*
X94987724Y-100263771D01*
X94808309Y-100374859D01*
X94808301Y-100374864D01*
X94803438Y-100377876D01*
X94799207Y-100381732D01*
X94799203Y-100381736D01*
X94643259Y-100523897D01*
X94643249Y-100523907D01*
X94639019Y-100527764D01*
X94635570Y-100532330D01*
X94635561Y-100532341D01*
X94508394Y-100700738D01*
X94508387Y-100700748D01*
X94504942Y-100705311D01*
X94502392Y-100710431D01*
X94502387Y-100710440D01*
X94408325Y-100899341D01*
X94408321Y-100899349D01*
X94405771Y-100904472D01*
X94404205Y-100909975D01*
X94404201Y-100909986D01*
X94385731Y-100974904D01*
X94344885Y-101118464D01*
X94324357Y-101340000D01*
X92545643Y-101340000D01*
X92525115Y-101118464D01*
X92464229Y-100904472D01*
X92365058Y-100705311D01*
X92361605Y-100700738D01*
X92234438Y-100532341D01*
X92234434Y-100532337D01*
X92230981Y-100527764D01*
X92226744Y-100523901D01*
X92226740Y-100523897D01*
X92070796Y-100381736D01*
X92070797Y-100381736D01*
X92066562Y-100377876D01*
X92061692Y-100374861D01*
X92061690Y-100374859D01*
X91882275Y-100263771D01*
X91882276Y-100263771D01*
X91877401Y-100260753D01*
X91720871Y-100200113D01*
X91675286Y-100182453D01*
X91675285Y-100182452D01*
X91669940Y-100180382D01*
X91664302Y-100179328D01*
X91456872Y-100140552D01*
X91456869Y-100140551D01*
X91451243Y-100139500D01*
X91228757Y-100139500D01*
X91223131Y-100140551D01*
X91223127Y-100140552D01*
X91015697Y-100179328D01*
X91015694Y-100179328D01*
X91010060Y-100180382D01*
X91004717Y-100182451D01*
X91004713Y-100182453D01*
X90807941Y-100258683D01*
X90807936Y-100258685D01*
X90802599Y-100260753D01*
X90797727Y-100263769D01*
X90797724Y-100263771D01*
X90618309Y-100374859D01*
X90618301Y-100374864D01*
X90613438Y-100377876D01*
X90609207Y-100381732D01*
X90609203Y-100381736D01*
X90453259Y-100523897D01*
X90453249Y-100523907D01*
X90449019Y-100527764D01*
X90445570Y-100532330D01*
X90445561Y-100532341D01*
X90318394Y-100700738D01*
X90318387Y-100700748D01*
X90314942Y-100705311D01*
X90312392Y-100710431D01*
X90312387Y-100710440D01*
X90218325Y-100899341D01*
X90218321Y-100899349D01*
X90215771Y-100904472D01*
X90214205Y-100909975D01*
X90214201Y-100909986D01*
X90195731Y-100974904D01*
X90154885Y-101118464D01*
X90134357Y-101340000D01*
X88554374Y-101340000D01*
X88554374Y-101334883D01*
X88536062Y-101113897D01*
X88534378Y-101103803D01*
X88479940Y-100888833D01*
X88476621Y-100879166D01*
X88387543Y-100676086D01*
X88382678Y-100667096D01*
X88308753Y-100553947D01*
X88300786Y-100546222D01*
X88291405Y-100552146D01*
X87515095Y-101328457D01*
X87508431Y-101340000D01*
X86791568Y-101340000D01*
X86784904Y-101328457D01*
X86008592Y-100552145D01*
X85999212Y-100546222D01*
X85991245Y-100553946D01*
X85917322Y-100667096D01*
X85912456Y-100676086D01*
X85823378Y-100879166D01*
X85820059Y-100888833D01*
X85765621Y-101103803D01*
X85763937Y-101113897D01*
X85745626Y-101334883D01*
X85745626Y-101345117D01*
X84155169Y-101345117D01*
X84155643Y-101340000D01*
X84135115Y-101118464D01*
X84074229Y-100904472D01*
X83975058Y-100705311D01*
X83971605Y-100700738D01*
X83844438Y-100532341D01*
X83844434Y-100532337D01*
X83840981Y-100527764D01*
X83836744Y-100523901D01*
X83836740Y-100523897D01*
X83680796Y-100381736D01*
X83680797Y-100381736D01*
X83676562Y-100377876D01*
X83671692Y-100374861D01*
X83671690Y-100374859D01*
X83492275Y-100263771D01*
X83492276Y-100263771D01*
X83487401Y-100260753D01*
X83330871Y-100200113D01*
X83299620Y-100188006D01*
X86357007Y-100188006D01*
X86363667Y-100200114D01*
X87138457Y-100974904D01*
X87150000Y-100981568D01*
X87161542Y-100974904D01*
X87936332Y-100200113D01*
X87942992Y-100188007D01*
X87934886Y-100176818D01*
X87922394Y-100167096D01*
X87913847Y-100161512D01*
X87718805Y-100055960D01*
X87709452Y-100051858D01*
X87499709Y-99979853D01*
X87489800Y-99977344D01*
X87271070Y-99940844D01*
X87260873Y-99940000D01*
X87039127Y-99940000D01*
X87028929Y-99940844D01*
X86810199Y-99977344D01*
X86800290Y-99979853D01*
X86590547Y-100051858D01*
X86581194Y-100055960D01*
X86386156Y-100161510D01*
X86377600Y-100167100D01*
X86365112Y-100176818D01*
X86357007Y-100188006D01*
X83299620Y-100188006D01*
X83285286Y-100182453D01*
X83285285Y-100182452D01*
X83279940Y-100180382D01*
X83274302Y-100179328D01*
X83066872Y-100140552D01*
X83066869Y-100140551D01*
X83061243Y-100139500D01*
X82838757Y-100139500D01*
X82833131Y-100140551D01*
X82833127Y-100140552D01*
X82625697Y-100179328D01*
X82625694Y-100179328D01*
X82620060Y-100180382D01*
X82614717Y-100182451D01*
X82614713Y-100182453D01*
X82417941Y-100258683D01*
X82417936Y-100258685D01*
X82412599Y-100260753D01*
X82407727Y-100263769D01*
X82407724Y-100263771D01*
X82228309Y-100374859D01*
X82228301Y-100374864D01*
X82223438Y-100377876D01*
X82219207Y-100381732D01*
X82219203Y-100381736D01*
X82063259Y-100523897D01*
X82063249Y-100523907D01*
X82059019Y-100527764D01*
X82055570Y-100532330D01*
X82055561Y-100532341D01*
X81928394Y-100700738D01*
X81928387Y-100700748D01*
X81924942Y-100705311D01*
X81922392Y-100710431D01*
X81922387Y-100710440D01*
X81828325Y-100899341D01*
X81828321Y-100899349D01*
X81825771Y-100904472D01*
X81824205Y-100909975D01*
X81824201Y-100909986D01*
X81805731Y-100974904D01*
X81764885Y-101118464D01*
X81744357Y-101340000D01*
X79965643Y-101340000D01*
X79945115Y-101118464D01*
X79884229Y-100904472D01*
X79785058Y-100705311D01*
X79781605Y-100700738D01*
X79654438Y-100532341D01*
X79654434Y-100532337D01*
X79650981Y-100527764D01*
X79646744Y-100523901D01*
X79646740Y-100523897D01*
X79490796Y-100381736D01*
X79490797Y-100381736D01*
X79486562Y-100377876D01*
X79481692Y-100374861D01*
X79481690Y-100374859D01*
X79302275Y-100263771D01*
X79302276Y-100263771D01*
X79297401Y-100260753D01*
X79140871Y-100200113D01*
X79095286Y-100182453D01*
X79095285Y-100182452D01*
X79089940Y-100180382D01*
X79084302Y-100179328D01*
X78876872Y-100140552D01*
X78876869Y-100140551D01*
X78871243Y-100139500D01*
X78648757Y-100139500D01*
X78643131Y-100140551D01*
X78643127Y-100140552D01*
X78435697Y-100179328D01*
X78435694Y-100179328D01*
X78430060Y-100180382D01*
X78424717Y-100182451D01*
X78424713Y-100182453D01*
X78227941Y-100258683D01*
X78227936Y-100258685D01*
X78222599Y-100260753D01*
X78217727Y-100263769D01*
X78217724Y-100263771D01*
X78038309Y-100374859D01*
X78038301Y-100374864D01*
X78033438Y-100377876D01*
X78029207Y-100381732D01*
X78029203Y-100381736D01*
X77873259Y-100523897D01*
X77873249Y-100523907D01*
X77869019Y-100527764D01*
X77865570Y-100532330D01*
X77865561Y-100532341D01*
X77738394Y-100700738D01*
X77738387Y-100700748D01*
X77734942Y-100705311D01*
X77732392Y-100710431D01*
X77732387Y-100710440D01*
X77638325Y-100899341D01*
X77638321Y-100899349D01*
X77635771Y-100904472D01*
X77634205Y-100909975D01*
X77634201Y-100909986D01*
X77615731Y-100974904D01*
X77574885Y-101118464D01*
X77554357Y-101340000D01*
X75770499Y-101340000D01*
X75770499Y-100395136D01*
X75767585Y-100370009D01*
X75722206Y-100267235D01*
X75642765Y-100187794D01*
X75617907Y-100176818D01*
X75548522Y-100146181D01*
X75548517Y-100146179D01*
X75539991Y-100142415D01*
X75530726Y-100141340D01*
X75518414Y-100139911D01*
X75518401Y-100139910D01*
X75514865Y-100139500D01*
X75511290Y-100139500D01*
X73628714Y-100139500D01*
X73628696Y-100139500D01*
X73625136Y-100139501D01*
X73621589Y-100139912D01*
X73621577Y-100139913D01*
X73609277Y-100141340D01*
X73609275Y-100141340D01*
X73600009Y-100142415D01*
X73591479Y-100146180D01*
X73591476Y-100146182D01*
X73507745Y-100183153D01*
X73507743Y-100183154D01*
X73497235Y-100187794D01*
X73489112Y-100195916D01*
X73489109Y-100195919D01*
X73425919Y-100259109D01*
X73425916Y-100259112D01*
X73417794Y-100267235D01*
X73413154Y-100277743D01*
X73413153Y-100277745D01*
X73376181Y-100361477D01*
X73376179Y-100361484D01*
X73372415Y-100370009D01*
X73371340Y-100379271D01*
X73371340Y-100379273D01*
X73369911Y-100391585D01*
X73369910Y-100391599D01*
X73369500Y-100395135D01*
X73369500Y-100398708D01*
X73369500Y-100398709D01*
X73369500Y-102281285D01*
X73369500Y-102281302D01*
X25003436Y-102281302D01*
X25004112Y-98200000D01*
X101944750Y-98200000D01*
X101963670Y-98343709D01*
X102019139Y-98477625D01*
X102107379Y-98592621D01*
X102222375Y-98680861D01*
X102356291Y-98736330D01*
X102500000Y-98755250D01*
X102643709Y-98736330D01*
X102777625Y-98680861D01*
X102892621Y-98592621D01*
X102980861Y-98477625D01*
X103036330Y-98343709D01*
X103055250Y-98200000D01*
X103036330Y-98056291D01*
X102980861Y-97922375D01*
X102892621Y-97807379D01*
X102777625Y-97719139D01*
X102741592Y-97704214D01*
X102651223Y-97666782D01*
X102651220Y-97666781D01*
X102643709Y-97663670D01*
X102635649Y-97662608D01*
X102635646Y-97662608D01*
X102508059Y-97645811D01*
X102500000Y-97644750D01*
X102491941Y-97645811D01*
X102364353Y-97662608D01*
X102364348Y-97662609D01*
X102356291Y-97663670D01*
X102348781Y-97666780D01*
X102348776Y-97666782D01*
X102229885Y-97716028D01*
X102229883Y-97716029D01*
X102222375Y-97719139D01*
X102215933Y-97724082D01*
X102215928Y-97724085D01*
X102113821Y-97802435D01*
X102113817Y-97802438D01*
X102107379Y-97807379D01*
X102102438Y-97813817D01*
X102102435Y-97813821D01*
X102024085Y-97915928D01*
X102024082Y-97915933D01*
X102019139Y-97922375D01*
X102016029Y-97929883D01*
X102016028Y-97929885D01*
X101966782Y-98048776D01*
X101966780Y-98048781D01*
X101963670Y-98056291D01*
X101962609Y-98064348D01*
X101962608Y-98064353D01*
X101945811Y-98191941D01*
X101944750Y-98200000D01*
X25004112Y-98200000D01*
X25004742Y-94400000D01*
X34594750Y-94400000D01*
X34595811Y-94408059D01*
X34601171Y-94448776D01*
X34613670Y-94543709D01*
X34616781Y-94551220D01*
X34616782Y-94551223D01*
X34636779Y-94599500D01*
X34669139Y-94677625D01*
X34757379Y-94792621D01*
X34872375Y-94880861D01*
X35006291Y-94936330D01*
X35150000Y-94955250D01*
X35293709Y-94936330D01*
X35427625Y-94880861D01*
X35542621Y-94792621D01*
X35630861Y-94677625D01*
X35686330Y-94543709D01*
X35705250Y-94400000D01*
X38344562Y-94400000D01*
X38345159Y-94406061D01*
X38363668Y-94593987D01*
X38363669Y-94593992D01*
X38364266Y-94600053D01*
X38366033Y-94605878D01*
X38366034Y-94605883D01*
X38404977Y-94734260D01*
X38422619Y-94792418D01*
X38425488Y-94797786D01*
X38425490Y-94797790D01*
X38464148Y-94870114D01*
X38517379Y-94969703D01*
X38644906Y-95125094D01*
X38800297Y-95252621D01*
X38977582Y-95347381D01*
X39169947Y-95405734D01*
X39370000Y-95425438D01*
X39570053Y-95405734D01*
X39762418Y-95347381D01*
X39939703Y-95252621D01*
X40095094Y-95125094D01*
X40222621Y-94969703D01*
X40317381Y-94792418D01*
X40375734Y-94600053D01*
X40395438Y-94400000D01*
X40884562Y-94400000D01*
X40885159Y-94406061D01*
X40903668Y-94593987D01*
X40903669Y-94593992D01*
X40904266Y-94600053D01*
X40906033Y-94605878D01*
X40906034Y-94605883D01*
X40944977Y-94734260D01*
X40962619Y-94792418D01*
X40965488Y-94797786D01*
X40965490Y-94797790D01*
X41004148Y-94870114D01*
X41057379Y-94969703D01*
X41184906Y-95125094D01*
X41340297Y-95252621D01*
X41517582Y-95347381D01*
X41709947Y-95405734D01*
X41910000Y-95425438D01*
X41952399Y-95421262D01*
X43785658Y-95421262D01*
X43793089Y-95429371D01*
X43833232Y-95457479D01*
X43842584Y-95462878D01*
X44026239Y-95548517D01*
X44036363Y-95552203D01*
X44232107Y-95604653D01*
X44242738Y-95606527D01*
X44444605Y-95624188D01*
X44455395Y-95624188D01*
X44657261Y-95606527D01*
X44667892Y-95604653D01*
X44863636Y-95552203D01*
X44873760Y-95548517D01*
X45057419Y-95462876D01*
X45066767Y-95457479D01*
X45106907Y-95429373D01*
X45114339Y-95421261D01*
X45108426Y-95411979D01*
X44996447Y-95300000D01*
X59494355Y-95300000D01*
X59495259Y-95307445D01*
X59513955Y-95461423D01*
X59513956Y-95461427D01*
X59514860Y-95468872D01*
X59517518Y-95475882D01*
X59517520Y-95475888D01*
X59566354Y-95604653D01*
X59575182Y-95627930D01*
X59671817Y-95767929D01*
X59751093Y-95838161D01*
X59782226Y-95865743D01*
X59799148Y-95880734D01*
X59949775Y-95959790D01*
X60114944Y-96000500D01*
X60277556Y-96000500D01*
X60285056Y-96000500D01*
X60450225Y-95959790D01*
X60600852Y-95880734D01*
X60617770Y-95865745D01*
X60670322Y-95838162D01*
X60729674Y-95838161D01*
X60782224Y-95865741D01*
X60799148Y-95880734D01*
X60949775Y-95959790D01*
X61114944Y-96000500D01*
X61277556Y-96000500D01*
X61285056Y-96000500D01*
X61450225Y-95959790D01*
X61600852Y-95880734D01*
X61617770Y-95865745D01*
X61670322Y-95838162D01*
X61729674Y-95838161D01*
X61782224Y-95865741D01*
X61799148Y-95880734D01*
X61949775Y-95959790D01*
X62114944Y-96000500D01*
X62277556Y-96000500D01*
X62285056Y-96000500D01*
X62450225Y-95959790D01*
X62600852Y-95880734D01*
X62728183Y-95767929D01*
X62824818Y-95627930D01*
X62885140Y-95468872D01*
X62905645Y-95300000D01*
X62885140Y-95131128D01*
X62866076Y-95080861D01*
X62827479Y-94979087D01*
X62824818Y-94972070D01*
X62728183Y-94832071D01*
X62628443Y-94743709D01*
X62606468Y-94724241D01*
X62606466Y-94724239D01*
X62600852Y-94719266D01*
X62575823Y-94706129D01*
X62456866Y-94643695D01*
X62456862Y-94643693D01*
X62450225Y-94640210D01*
X62442947Y-94638416D01*
X62442944Y-94638415D01*
X62292337Y-94601294D01*
X62292332Y-94601293D01*
X62287085Y-94600000D01*
X75144750Y-94600000D01*
X75145811Y-94608059D01*
X75159992Y-94715779D01*
X75163670Y-94743709D01*
X75166781Y-94751220D01*
X75166782Y-94751223D01*
X75183930Y-94792621D01*
X75219139Y-94877625D01*
X75224084Y-94884069D01*
X75224085Y-94884071D01*
X75293409Y-94974415D01*
X75307379Y-94992621D01*
X75422375Y-95080861D01*
X75556291Y-95136330D01*
X75700000Y-95155250D01*
X75843709Y-95136330D01*
X75977625Y-95080861D01*
X76092621Y-94992621D01*
X76180861Y-94877625D01*
X76236330Y-94743709D01*
X76255250Y-94600000D01*
X76236330Y-94456291D01*
X76213014Y-94400000D01*
X118944750Y-94400000D01*
X118945811Y-94408059D01*
X118951171Y-94448776D01*
X118963670Y-94543709D01*
X118966781Y-94551220D01*
X118966782Y-94551223D01*
X118986779Y-94599500D01*
X119019139Y-94677625D01*
X119107379Y-94792621D01*
X119222375Y-94880861D01*
X119356291Y-94936330D01*
X119500000Y-94955250D01*
X119643709Y-94936330D01*
X119777625Y-94880861D01*
X119892621Y-94792621D01*
X119980861Y-94677625D01*
X120036330Y-94543709D01*
X120055250Y-94400000D01*
X120036330Y-94256291D01*
X119980861Y-94122375D01*
X119892621Y-94007379D01*
X119777625Y-93919139D01*
X119741592Y-93904214D01*
X119651223Y-93866782D01*
X119651220Y-93866781D01*
X119643709Y-93863670D01*
X119635649Y-93862608D01*
X119635646Y-93862608D01*
X119508059Y-93845811D01*
X119500000Y-93844750D01*
X119491941Y-93845811D01*
X119364353Y-93862608D01*
X119364348Y-93862609D01*
X119356291Y-93863670D01*
X119348781Y-93866780D01*
X119348776Y-93866782D01*
X119229885Y-93916028D01*
X119229883Y-93916029D01*
X119222375Y-93919139D01*
X119215933Y-93924082D01*
X119215928Y-93924085D01*
X119113821Y-94002435D01*
X119113817Y-94002438D01*
X119107379Y-94007379D01*
X119102438Y-94013817D01*
X119102435Y-94013821D01*
X119024085Y-94115928D01*
X119024082Y-94115933D01*
X119019139Y-94122375D01*
X119016029Y-94129883D01*
X119016028Y-94129885D01*
X118966782Y-94248776D01*
X118966780Y-94248781D01*
X118963670Y-94256291D01*
X118962609Y-94264348D01*
X118962608Y-94264353D01*
X118953981Y-94329885D01*
X118944750Y-94400000D01*
X76213014Y-94400000D01*
X76180861Y-94322375D01*
X76092621Y-94207379D01*
X76086178Y-94202435D01*
X75984071Y-94124085D01*
X75984069Y-94124084D01*
X75977625Y-94119139D01*
X75941592Y-94104214D01*
X75851223Y-94066782D01*
X75851220Y-94066781D01*
X75843709Y-94063670D01*
X75835649Y-94062608D01*
X75835646Y-94062608D01*
X75708059Y-94045811D01*
X75700000Y-94044750D01*
X75691941Y-94045811D01*
X75564353Y-94062608D01*
X75564348Y-94062609D01*
X75556291Y-94063670D01*
X75548781Y-94066780D01*
X75548776Y-94066782D01*
X75429885Y-94116028D01*
X75429883Y-94116029D01*
X75422375Y-94119139D01*
X75415933Y-94124082D01*
X75415928Y-94124085D01*
X75313821Y-94202435D01*
X75313817Y-94202438D01*
X75307379Y-94207379D01*
X75302438Y-94213817D01*
X75302435Y-94213821D01*
X75224085Y-94315928D01*
X75224082Y-94315933D01*
X75219139Y-94322375D01*
X75216029Y-94329883D01*
X75216028Y-94329885D01*
X75166782Y-94448776D01*
X75166780Y-94448781D01*
X75163670Y-94456291D01*
X75162609Y-94464348D01*
X75162608Y-94464353D01*
X75152161Y-94543709D01*
X75144750Y-94600000D01*
X62287085Y-94600000D01*
X62285056Y-94599500D01*
X62114944Y-94599500D01*
X62107668Y-94601293D01*
X62107662Y-94601294D01*
X61957055Y-94638415D01*
X61957050Y-94638416D01*
X61949775Y-94640210D01*
X61943140Y-94643692D01*
X61943133Y-94643695D01*
X61805793Y-94715777D01*
X61805784Y-94715782D01*
X61799148Y-94719266D01*
X61793535Y-94724237D01*
X61793527Y-94724244D01*
X61782221Y-94734260D01*
X61729670Y-94761838D01*
X61670321Y-94761836D01*
X61617771Y-94734255D01*
X61606468Y-94724241D01*
X61606466Y-94724239D01*
X61600852Y-94719266D01*
X61594211Y-94715780D01*
X61594206Y-94715777D01*
X61456866Y-94643695D01*
X61456862Y-94643693D01*
X61450225Y-94640210D01*
X61442947Y-94638416D01*
X61442944Y-94638415D01*
X61292337Y-94601294D01*
X61292332Y-94601293D01*
X61285056Y-94599500D01*
X61114944Y-94599500D01*
X61107668Y-94601293D01*
X61107662Y-94601294D01*
X60957055Y-94638415D01*
X60957050Y-94638416D01*
X60949775Y-94640210D01*
X60943140Y-94643692D01*
X60943133Y-94643695D01*
X60805793Y-94715777D01*
X60805784Y-94715782D01*
X60799148Y-94719266D01*
X60793535Y-94724237D01*
X60793527Y-94724244D01*
X60782221Y-94734260D01*
X60729670Y-94761838D01*
X60670321Y-94761836D01*
X60617771Y-94734255D01*
X60606468Y-94724241D01*
X60606466Y-94724239D01*
X60600852Y-94719266D01*
X60594211Y-94715780D01*
X60594206Y-94715777D01*
X60456866Y-94643695D01*
X60456862Y-94643693D01*
X60450225Y-94640210D01*
X60442947Y-94638416D01*
X60442944Y-94638415D01*
X60292337Y-94601294D01*
X60292332Y-94601293D01*
X60285056Y-94599500D01*
X60114944Y-94599500D01*
X60107668Y-94601293D01*
X60107662Y-94601294D01*
X59957055Y-94638415D01*
X59957050Y-94638416D01*
X59949775Y-94640210D01*
X59943140Y-94643692D01*
X59943133Y-94643695D01*
X59805791Y-94715779D01*
X59805788Y-94715780D01*
X59799148Y-94719266D01*
X59793537Y-94724236D01*
X59793531Y-94724241D01*
X59681198Y-94823760D01*
X59671817Y-94832071D01*
X59667562Y-94838235D01*
X59667557Y-94838241D01*
X59579445Y-94965893D01*
X59579442Y-94965897D01*
X59575182Y-94972070D01*
X59572523Y-94979081D01*
X59572520Y-94979087D01*
X59517520Y-95124111D01*
X59517517Y-95124119D01*
X59514860Y-95131128D01*
X59513956Y-95138570D01*
X59513955Y-95138576D01*
X59500108Y-95252621D01*
X59494355Y-95300000D01*
X44996447Y-95300000D01*
X44461542Y-94765095D01*
X44450000Y-94758431D01*
X44438457Y-94765095D01*
X43791572Y-95411979D01*
X43785658Y-95421262D01*
X41952399Y-95421262D01*
X42110053Y-95405734D01*
X42302418Y-95347381D01*
X42479703Y-95252621D01*
X42635094Y-95125094D01*
X42762621Y-94969703D01*
X42857381Y-94792418D01*
X42915734Y-94600053D01*
X42934907Y-94405395D01*
X43225812Y-94405395D01*
X43243472Y-94607261D01*
X43245346Y-94617892D01*
X43297796Y-94813636D01*
X43301482Y-94823760D01*
X43387124Y-95007422D01*
X43392518Y-95016764D01*
X43420626Y-95056907D01*
X43428737Y-95064340D01*
X43438016Y-95058429D01*
X44084904Y-94411542D01*
X44091568Y-94400000D01*
X44808431Y-94400000D01*
X44815095Y-94411542D01*
X45461979Y-95058426D01*
X45471261Y-95064339D01*
X45479373Y-95056907D01*
X45507479Y-95016767D01*
X45512876Y-95007419D01*
X45598517Y-94823760D01*
X45602203Y-94813636D01*
X45654653Y-94617892D01*
X45656527Y-94607261D01*
X45674188Y-94405395D01*
X45674188Y-94394605D01*
X45656527Y-94192738D01*
X45654653Y-94182107D01*
X45602203Y-93986363D01*
X45598517Y-93976239D01*
X45512878Y-93792584D01*
X45507479Y-93783232D01*
X45479371Y-93743089D01*
X45471262Y-93735658D01*
X45461979Y-93741572D01*
X44815095Y-94388457D01*
X44808431Y-94400000D01*
X44091568Y-94400000D01*
X44084904Y-94388457D01*
X43438016Y-93741569D01*
X43428738Y-93735658D01*
X43420625Y-93743092D01*
X43392515Y-93783238D01*
X43387125Y-93792575D01*
X43301482Y-93976239D01*
X43297796Y-93986363D01*
X43245346Y-94182107D01*
X43243472Y-94192738D01*
X43225812Y-94394605D01*
X43225812Y-94405395D01*
X42934907Y-94405395D01*
X42935438Y-94400000D01*
X42915734Y-94199947D01*
X42857381Y-94007582D01*
X42762621Y-93830297D01*
X42635094Y-93674906D01*
X42479703Y-93547379D01*
X42365203Y-93486178D01*
X42307790Y-93455490D01*
X42307786Y-93455488D01*
X42302418Y-93452619D01*
X42296590Y-93450851D01*
X42115883Y-93396034D01*
X42115878Y-93396033D01*
X42110053Y-93394266D01*
X42103992Y-93393669D01*
X42103987Y-93393668D01*
X41952399Y-93378738D01*
X43785658Y-93378738D01*
X43791569Y-93388016D01*
X44438457Y-94034904D01*
X44450000Y-94041568D01*
X44461542Y-94034904D01*
X45108429Y-93388016D01*
X45114340Y-93378737D01*
X45106907Y-93370626D01*
X45066764Y-93342518D01*
X45057422Y-93337124D01*
X44873760Y-93251482D01*
X44863636Y-93247796D01*
X44667892Y-93195346D01*
X44657261Y-93193472D01*
X44455395Y-93175812D01*
X44444605Y-93175812D01*
X44242738Y-93193472D01*
X44232107Y-93195346D01*
X44036363Y-93247796D01*
X44026239Y-93251482D01*
X43842575Y-93337125D01*
X43833238Y-93342515D01*
X43793092Y-93370625D01*
X43785658Y-93378738D01*
X41952399Y-93378738D01*
X41916061Y-93375159D01*
X41910000Y-93374562D01*
X41903939Y-93375159D01*
X41716012Y-93393668D01*
X41716005Y-93393669D01*
X41709947Y-93394266D01*
X41704123Y-93396032D01*
X41704116Y-93396034D01*
X41523409Y-93450851D01*
X41523405Y-93450852D01*
X41517582Y-93452619D01*
X41512216Y-93455486D01*
X41512209Y-93455490D01*
X41345673Y-93544505D01*
X41345669Y-93544507D01*
X41340297Y-93547379D01*
X41335589Y-93551242D01*
X41335584Y-93551246D01*
X41189612Y-93671043D01*
X41189607Y-93671047D01*
X41184906Y-93674906D01*
X41181047Y-93679607D01*
X41181043Y-93679612D01*
X41061246Y-93825584D01*
X41061242Y-93825589D01*
X41057379Y-93830297D01*
X41054507Y-93835669D01*
X41054505Y-93835673D01*
X40965490Y-94002209D01*
X40965486Y-94002216D01*
X40962619Y-94007582D01*
X40960852Y-94013405D01*
X40960851Y-94013409D01*
X40906034Y-94194116D01*
X40906032Y-94194123D01*
X40904266Y-94199947D01*
X40903669Y-94206005D01*
X40903668Y-94206012D01*
X40891468Y-94329885D01*
X40884562Y-94400000D01*
X40395438Y-94400000D01*
X40375734Y-94199947D01*
X40317381Y-94007582D01*
X40222621Y-93830297D01*
X40095094Y-93674906D01*
X39939703Y-93547379D01*
X39825203Y-93486178D01*
X39767790Y-93455490D01*
X39767786Y-93455488D01*
X39762418Y-93452619D01*
X39756590Y-93450851D01*
X39575883Y-93396034D01*
X39575878Y-93396033D01*
X39570053Y-93394266D01*
X39563992Y-93393669D01*
X39563987Y-93393668D01*
X39376061Y-93375159D01*
X39370000Y-93374562D01*
X39363939Y-93375159D01*
X39176012Y-93393668D01*
X39176005Y-93393669D01*
X39169947Y-93394266D01*
X39164123Y-93396032D01*
X39164116Y-93396034D01*
X38983409Y-93450851D01*
X38983405Y-93450852D01*
X38977582Y-93452619D01*
X38972216Y-93455486D01*
X38972209Y-93455490D01*
X38805673Y-93544505D01*
X38805669Y-93544507D01*
X38800297Y-93547379D01*
X38795589Y-93551242D01*
X38795584Y-93551246D01*
X38649612Y-93671043D01*
X38649607Y-93671047D01*
X38644906Y-93674906D01*
X38641047Y-93679607D01*
X38641043Y-93679612D01*
X38521246Y-93825584D01*
X38521242Y-93825589D01*
X38517379Y-93830297D01*
X38514507Y-93835669D01*
X38514505Y-93835673D01*
X38425490Y-94002209D01*
X38425486Y-94002216D01*
X38422619Y-94007582D01*
X38420852Y-94013405D01*
X38420851Y-94013409D01*
X38366034Y-94194116D01*
X38366032Y-94194123D01*
X38364266Y-94199947D01*
X38363669Y-94206005D01*
X38363668Y-94206012D01*
X38351468Y-94329885D01*
X38344562Y-94400000D01*
X35705250Y-94400000D01*
X35686330Y-94256291D01*
X35630861Y-94122375D01*
X35542621Y-94007379D01*
X35427625Y-93919139D01*
X35391592Y-93904214D01*
X35301223Y-93866782D01*
X35301220Y-93866781D01*
X35293709Y-93863670D01*
X35285649Y-93862608D01*
X35285646Y-93862608D01*
X35158059Y-93845811D01*
X35150000Y-93844750D01*
X35141941Y-93845811D01*
X35014353Y-93862608D01*
X35014348Y-93862609D01*
X35006291Y-93863670D01*
X34998781Y-93866780D01*
X34998776Y-93866782D01*
X34879885Y-93916028D01*
X34879883Y-93916029D01*
X34872375Y-93919139D01*
X34865933Y-93924082D01*
X34865928Y-93924085D01*
X34763821Y-94002435D01*
X34763817Y-94002438D01*
X34757379Y-94007379D01*
X34752438Y-94013817D01*
X34752435Y-94013821D01*
X34674085Y-94115928D01*
X34674082Y-94115933D01*
X34669139Y-94122375D01*
X34666029Y-94129883D01*
X34666028Y-94129885D01*
X34616782Y-94248776D01*
X34616780Y-94248781D01*
X34613670Y-94256291D01*
X34612609Y-94264348D01*
X34612608Y-94264353D01*
X34603981Y-94329885D01*
X34594750Y-94400000D01*
X25004742Y-94400000D01*
X25004957Y-93100000D01*
X35444750Y-93100000D01*
X35445811Y-93108059D01*
X35457302Y-93195346D01*
X35463670Y-93243709D01*
X35466781Y-93251220D01*
X35466782Y-93251223D01*
X35502363Y-93337124D01*
X35519139Y-93377625D01*
X35524084Y-93384069D01*
X35524085Y-93384071D01*
X35576684Y-93452619D01*
X35607379Y-93492621D01*
X35722375Y-93580861D01*
X35856291Y-93636330D01*
X36000000Y-93655250D01*
X36143709Y-93636330D01*
X36277625Y-93580861D01*
X36392621Y-93492621D01*
X36480861Y-93377625D01*
X36536330Y-93243709D01*
X36555250Y-93100000D01*
X36536330Y-92956291D01*
X36480861Y-92822375D01*
X36392621Y-92707379D01*
X36277625Y-92619139D01*
X36216231Y-92593709D01*
X36151223Y-92566782D01*
X36151220Y-92566781D01*
X36143709Y-92563670D01*
X36135649Y-92562608D01*
X36135646Y-92562608D01*
X36008059Y-92545811D01*
X36000000Y-92544750D01*
X35991941Y-92545811D01*
X35864353Y-92562608D01*
X35864348Y-92562609D01*
X35856291Y-92563670D01*
X35848781Y-92566780D01*
X35848776Y-92566782D01*
X35729885Y-92616028D01*
X35729883Y-92616029D01*
X35722375Y-92619139D01*
X35715933Y-92624082D01*
X35715928Y-92624085D01*
X35613821Y-92702435D01*
X35613817Y-92702438D01*
X35607379Y-92707379D01*
X35602438Y-92713817D01*
X35602435Y-92713821D01*
X35524085Y-92815928D01*
X35524082Y-92815933D01*
X35519139Y-92822375D01*
X35516029Y-92829883D01*
X35516028Y-92829885D01*
X35466782Y-92948776D01*
X35466780Y-92948781D01*
X35463670Y-92956291D01*
X35462609Y-92964348D01*
X35462608Y-92964353D01*
X35458887Y-92992621D01*
X35444750Y-93100000D01*
X25004957Y-93100000D01*
X25005065Y-92450000D01*
X70994750Y-92450000D01*
X70995811Y-92458059D01*
X71008076Y-92551223D01*
X71013670Y-92593709D01*
X71016781Y-92601220D01*
X71016782Y-92601223D01*
X71048429Y-92677625D01*
X71069139Y-92727625D01*
X71074084Y-92734069D01*
X71074085Y-92734071D01*
X71119012Y-92792621D01*
X71157379Y-92842621D01*
X71272375Y-92930861D01*
X71406291Y-92986330D01*
X71550000Y-93005250D01*
X71693709Y-92986330D01*
X71827625Y-92930861D01*
X71942621Y-92842621D01*
X72030861Y-92727625D01*
X72086330Y-92593709D01*
X72105250Y-92450000D01*
X72098667Y-92400000D01*
X79144750Y-92400000D01*
X79145811Y-92408059D01*
X79151171Y-92448776D01*
X79163670Y-92543709D01*
X79166781Y-92551220D01*
X79166782Y-92551223D01*
X79183648Y-92591941D01*
X79219139Y-92677625D01*
X79224084Y-92684069D01*
X79224085Y-92684071D01*
X79262452Y-92734071D01*
X79307379Y-92792621D01*
X79422375Y-92880861D01*
X79556291Y-92936330D01*
X79700000Y-92955250D01*
X79843709Y-92936330D01*
X79977625Y-92880861D01*
X80092621Y-92792621D01*
X80180861Y-92677625D01*
X80236330Y-92543709D01*
X80248667Y-92450000D01*
X92994750Y-92450000D01*
X92995811Y-92458059D01*
X93008076Y-92551223D01*
X93013670Y-92593709D01*
X93016781Y-92601220D01*
X93016782Y-92601223D01*
X93048429Y-92677625D01*
X93069139Y-92727625D01*
X93074084Y-92734069D01*
X93074085Y-92734071D01*
X93119012Y-92792621D01*
X93157379Y-92842621D01*
X93272375Y-92930861D01*
X93406291Y-92986330D01*
X93550000Y-93005250D01*
X93693709Y-92986330D01*
X93827625Y-92930861D01*
X93942621Y-92842621D01*
X94030861Y-92727625D01*
X94083724Y-92600000D01*
X120844750Y-92600000D01*
X120845811Y-92608059D01*
X120860563Y-92720114D01*
X120863670Y-92743709D01*
X120919139Y-92877625D01*
X120924084Y-92884069D01*
X120924085Y-92884071D01*
X120961796Y-92933217D01*
X121007379Y-92992621D01*
X121122375Y-93080861D01*
X121256291Y-93136330D01*
X121400000Y-93155250D01*
X121543709Y-93136330D01*
X121677625Y-93080861D01*
X121792621Y-92992621D01*
X121880861Y-92877625D01*
X121936330Y-92743709D01*
X121955250Y-92600000D01*
X121936330Y-92456291D01*
X121880861Y-92322375D01*
X121792621Y-92207379D01*
X121738601Y-92165928D01*
X121684071Y-92124085D01*
X121684069Y-92124084D01*
X121677625Y-92119139D01*
X121641592Y-92104214D01*
X121551223Y-92066782D01*
X121551220Y-92066781D01*
X121543709Y-92063670D01*
X121535649Y-92062608D01*
X121535646Y-92062608D01*
X121408059Y-92045811D01*
X121400000Y-92044750D01*
X121391941Y-92045811D01*
X121264353Y-92062608D01*
X121264348Y-92062609D01*
X121256291Y-92063670D01*
X121248781Y-92066780D01*
X121248776Y-92066782D01*
X121129885Y-92116028D01*
X121129883Y-92116029D01*
X121122375Y-92119139D01*
X121115933Y-92124082D01*
X121115928Y-92124085D01*
X121013821Y-92202435D01*
X121013817Y-92202438D01*
X121007379Y-92207379D01*
X121002438Y-92213817D01*
X121002435Y-92213821D01*
X120924085Y-92315928D01*
X120924082Y-92315933D01*
X120919139Y-92322375D01*
X120916029Y-92329883D01*
X120916028Y-92329885D01*
X120866782Y-92448776D01*
X120866780Y-92448781D01*
X120863670Y-92456291D01*
X120862609Y-92464348D01*
X120862608Y-92464353D01*
X120852161Y-92543709D01*
X120844750Y-92600000D01*
X94083724Y-92600000D01*
X94086330Y-92593709D01*
X94105250Y-92450000D01*
X94086330Y-92306291D01*
X94030861Y-92172375D01*
X93942621Y-92057379D01*
X93926163Y-92044750D01*
X93834071Y-91974085D01*
X93834069Y-91974084D01*
X93827625Y-91969139D01*
X93791592Y-91954214D01*
X93701223Y-91916782D01*
X93701220Y-91916781D01*
X93693709Y-91913670D01*
X93685649Y-91912608D01*
X93685646Y-91912608D01*
X93558059Y-91895811D01*
X93550000Y-91894750D01*
X93541941Y-91895811D01*
X93414353Y-91912608D01*
X93414348Y-91912609D01*
X93406291Y-91913670D01*
X93398781Y-91916780D01*
X93398776Y-91916782D01*
X93279885Y-91966028D01*
X93279883Y-91966029D01*
X93272375Y-91969139D01*
X93265933Y-91974082D01*
X93265928Y-91974085D01*
X93163821Y-92052435D01*
X93163817Y-92052438D01*
X93157379Y-92057379D01*
X93152438Y-92063817D01*
X93152435Y-92063821D01*
X93074085Y-92165928D01*
X93074082Y-92165933D01*
X93069139Y-92172375D01*
X93066029Y-92179883D01*
X93066028Y-92179885D01*
X93016782Y-92298776D01*
X93016780Y-92298781D01*
X93013670Y-92306291D01*
X93012609Y-92314348D01*
X93012608Y-92314353D01*
X93002394Y-92391941D01*
X92994750Y-92450000D01*
X80248667Y-92450000D01*
X80255250Y-92400000D01*
X80236330Y-92256291D01*
X80180861Y-92122375D01*
X80092621Y-92007379D01*
X79977625Y-91919139D01*
X79941592Y-91904214D01*
X79851223Y-91866782D01*
X79851220Y-91866781D01*
X79843709Y-91863670D01*
X79835649Y-91862608D01*
X79835646Y-91862608D01*
X79708059Y-91845811D01*
X79700000Y-91844750D01*
X79691941Y-91845811D01*
X79564353Y-91862608D01*
X79564348Y-91862609D01*
X79556291Y-91863670D01*
X79548781Y-91866780D01*
X79548776Y-91866782D01*
X79429885Y-91916028D01*
X79429883Y-91916029D01*
X79422375Y-91919139D01*
X79415933Y-91924082D01*
X79415928Y-91924085D01*
X79313821Y-92002435D01*
X79313817Y-92002438D01*
X79307379Y-92007379D01*
X79302438Y-92013817D01*
X79302435Y-92013821D01*
X79224085Y-92115928D01*
X79224082Y-92115933D01*
X79219139Y-92122375D01*
X79216029Y-92129883D01*
X79216028Y-92129885D01*
X79166782Y-92248776D01*
X79166780Y-92248781D01*
X79163670Y-92256291D01*
X79162609Y-92264348D01*
X79162608Y-92264353D01*
X79153981Y-92329885D01*
X79144750Y-92400000D01*
X72098667Y-92400000D01*
X72086330Y-92306291D01*
X72030861Y-92172375D01*
X71942621Y-92057379D01*
X71926163Y-92044750D01*
X71834071Y-91974085D01*
X71834069Y-91974084D01*
X71827625Y-91969139D01*
X71791592Y-91954214D01*
X71701223Y-91916782D01*
X71701220Y-91916781D01*
X71693709Y-91913670D01*
X71685649Y-91912608D01*
X71685646Y-91912608D01*
X71558059Y-91895811D01*
X71550000Y-91894750D01*
X71541941Y-91895811D01*
X71414353Y-91912608D01*
X71414348Y-91912609D01*
X71406291Y-91913670D01*
X71398781Y-91916780D01*
X71398776Y-91916782D01*
X71279885Y-91966028D01*
X71279883Y-91966029D01*
X71272375Y-91969139D01*
X71265933Y-91974082D01*
X71265928Y-91974085D01*
X71163821Y-92052435D01*
X71163817Y-92052438D01*
X71157379Y-92057379D01*
X71152438Y-92063817D01*
X71152435Y-92063821D01*
X71074085Y-92165928D01*
X71074082Y-92165933D01*
X71069139Y-92172375D01*
X71066029Y-92179883D01*
X71066028Y-92179885D01*
X71016782Y-92298776D01*
X71016780Y-92298781D01*
X71013670Y-92306291D01*
X71012609Y-92314348D01*
X71012608Y-92314353D01*
X71002394Y-92391941D01*
X70994750Y-92450000D01*
X25005065Y-92450000D01*
X25005321Y-90900000D01*
X64594355Y-90900000D01*
X64595259Y-90907445D01*
X64613955Y-91061423D01*
X64613956Y-91061427D01*
X64614860Y-91068872D01*
X64617518Y-91075882D01*
X64617520Y-91075888D01*
X64672520Y-91220912D01*
X64675182Y-91227930D01*
X64771817Y-91367929D01*
X64899148Y-91480734D01*
X65049775Y-91559790D01*
X65214944Y-91600500D01*
X65377556Y-91600500D01*
X65385056Y-91600500D01*
X65550225Y-91559790D01*
X65700852Y-91480734D01*
X65828183Y-91367929D01*
X65924818Y-91227930D01*
X65985140Y-91068872D01*
X66005645Y-90900000D01*
X65985140Y-90731128D01*
X65924818Y-90572070D01*
X65828183Y-90432071D01*
X65700852Y-90319266D01*
X65637809Y-90286178D01*
X65556866Y-90243695D01*
X65556862Y-90243693D01*
X65550225Y-90240210D01*
X65542947Y-90238416D01*
X65542944Y-90238415D01*
X65392337Y-90201294D01*
X65392332Y-90201293D01*
X65385056Y-90199500D01*
X65214944Y-90199500D01*
X65207668Y-90201293D01*
X65207662Y-90201294D01*
X65057055Y-90238415D01*
X65057050Y-90238416D01*
X65049775Y-90240210D01*
X65043140Y-90243692D01*
X65043133Y-90243695D01*
X64905791Y-90315779D01*
X64905788Y-90315780D01*
X64899148Y-90319266D01*
X64893537Y-90324236D01*
X64893531Y-90324241D01*
X64777430Y-90427098D01*
X64771817Y-90432071D01*
X64767562Y-90438235D01*
X64767557Y-90438241D01*
X64679445Y-90565893D01*
X64679442Y-90565897D01*
X64675182Y-90572070D01*
X64672523Y-90579081D01*
X64672520Y-90579087D01*
X64617520Y-90724111D01*
X64617517Y-90724119D01*
X64614860Y-90731128D01*
X64613956Y-90738570D01*
X64613955Y-90738576D01*
X64595356Y-90891755D01*
X64594355Y-90900000D01*
X25005321Y-90900000D01*
X25005487Y-89900000D01*
X78694750Y-89900000D01*
X78713670Y-90043709D01*
X78769139Y-90177625D01*
X78774084Y-90184069D01*
X78774085Y-90184071D01*
X78852435Y-90286178D01*
X78857379Y-90292621D01*
X78972375Y-90380861D01*
X79106291Y-90436330D01*
X79250000Y-90455250D01*
X79393709Y-90436330D01*
X79527625Y-90380861D01*
X79642621Y-90292621D01*
X79730861Y-90177625D01*
X79786330Y-90043709D01*
X79805250Y-89900000D01*
X79786330Y-89756291D01*
X79730861Y-89622375D01*
X79642621Y-89507379D01*
X79527625Y-89419139D01*
X79448049Y-89386178D01*
X79401223Y-89366782D01*
X79401220Y-89366781D01*
X79393709Y-89363670D01*
X79385649Y-89362608D01*
X79385646Y-89362608D01*
X79258059Y-89345811D01*
X79250000Y-89344750D01*
X79241941Y-89345811D01*
X79114353Y-89362608D01*
X79114348Y-89362609D01*
X79106291Y-89363670D01*
X79098781Y-89366780D01*
X79098776Y-89366782D01*
X78979885Y-89416028D01*
X78979883Y-89416029D01*
X78972375Y-89419139D01*
X78965933Y-89424082D01*
X78965928Y-89424085D01*
X78863821Y-89502435D01*
X78863817Y-89502438D01*
X78857379Y-89507379D01*
X78852438Y-89513817D01*
X78852435Y-89513821D01*
X78774085Y-89615928D01*
X78774082Y-89615933D01*
X78769139Y-89622375D01*
X78766029Y-89629883D01*
X78766028Y-89629885D01*
X78716782Y-89748776D01*
X78716780Y-89748781D01*
X78713670Y-89756291D01*
X78712609Y-89764348D01*
X78712608Y-89764353D01*
X78695811Y-89891941D01*
X78694750Y-89900000D01*
X25005487Y-89900000D01*
X25005636Y-89000000D01*
X96144750Y-89000000D01*
X96145811Y-89008059D01*
X96162288Y-89133217D01*
X96163670Y-89143709D01*
X96219139Y-89277625D01*
X96307379Y-89392621D01*
X96422375Y-89480861D01*
X96556291Y-89536330D01*
X96700000Y-89555250D01*
X96843709Y-89536330D01*
X96977625Y-89480861D01*
X97092621Y-89392621D01*
X97180861Y-89277625D01*
X97236330Y-89143709D01*
X97255250Y-89000000D01*
X97236330Y-88856291D01*
X97180861Y-88722375D01*
X97092621Y-88607379D01*
X96977625Y-88519139D01*
X96941592Y-88504214D01*
X96851223Y-88466782D01*
X96851220Y-88466781D01*
X96843709Y-88463670D01*
X96835649Y-88462608D01*
X96835646Y-88462608D01*
X96708059Y-88445811D01*
X96700000Y-88444750D01*
X96691941Y-88445811D01*
X96564353Y-88462608D01*
X96564348Y-88462609D01*
X96556291Y-88463670D01*
X96548781Y-88466780D01*
X96548776Y-88466782D01*
X96429885Y-88516028D01*
X96429883Y-88516029D01*
X96422375Y-88519139D01*
X96415933Y-88524082D01*
X96415928Y-88524085D01*
X96313821Y-88602435D01*
X96313817Y-88602438D01*
X96307379Y-88607379D01*
X96302438Y-88613817D01*
X96302435Y-88613821D01*
X96224085Y-88715928D01*
X96224082Y-88715933D01*
X96219139Y-88722375D01*
X96216029Y-88729883D01*
X96216028Y-88729885D01*
X96166782Y-88848776D01*
X96166780Y-88848781D01*
X96163670Y-88856291D01*
X96162609Y-88864348D01*
X96162608Y-88864353D01*
X96146570Y-88986178D01*
X96144750Y-89000000D01*
X25005636Y-89000000D01*
X25006100Y-86200000D01*
X43894750Y-86200000D01*
X43895811Y-86208059D01*
X43902871Y-86261689D01*
X43913670Y-86343709D01*
X43969139Y-86477625D01*
X43974084Y-86484069D01*
X43974085Y-86484071D01*
X44024352Y-86549580D01*
X44057379Y-86592621D01*
X44172375Y-86680861D01*
X44306291Y-86736330D01*
X44450000Y-86755250D01*
X44593709Y-86736330D01*
X44727625Y-86680861D01*
X44842621Y-86592621D01*
X44930861Y-86477625D01*
X44986330Y-86343709D01*
X45005250Y-86200000D01*
X44986330Y-86056291D01*
X44930861Y-85922375D01*
X44842621Y-85807379D01*
X44833603Y-85800459D01*
X44734071Y-85724085D01*
X44734069Y-85724084D01*
X44727625Y-85719139D01*
X44691592Y-85704214D01*
X44601223Y-85666782D01*
X44601220Y-85666781D01*
X44593709Y-85663670D01*
X44585649Y-85662608D01*
X44585646Y-85662608D01*
X44458059Y-85645811D01*
X44450000Y-85644750D01*
X44441941Y-85645811D01*
X44314353Y-85662608D01*
X44314348Y-85662609D01*
X44306291Y-85663670D01*
X44298781Y-85666780D01*
X44298776Y-85666782D01*
X44179885Y-85716028D01*
X44179883Y-85716029D01*
X44172375Y-85719139D01*
X44165933Y-85724082D01*
X44165928Y-85724085D01*
X44063821Y-85802435D01*
X44063817Y-85802438D01*
X44057379Y-85807379D01*
X44052438Y-85813817D01*
X44052435Y-85813821D01*
X43974085Y-85915928D01*
X43974082Y-85915933D01*
X43969139Y-85922375D01*
X43966029Y-85929883D01*
X43966028Y-85929885D01*
X43916782Y-86048776D01*
X43916780Y-86048781D01*
X43913670Y-86056291D01*
X43912609Y-86064348D01*
X43912608Y-86064353D01*
X43904342Y-86127141D01*
X43894750Y-86200000D01*
X25006100Y-86200000D01*
X25007277Y-79100000D01*
X30994564Y-79100000D01*
X31014287Y-79400920D01*
X31015077Y-79404891D01*
X31015078Y-79404899D01*
X31072327Y-79692707D01*
X31072329Y-79692714D01*
X31073120Y-79696691D01*
X31170055Y-79982252D01*
X31171850Y-79985893D01*
X31171851Y-79985894D01*
X31242859Y-80129885D01*
X31303434Y-80252718D01*
X31305685Y-80256087D01*
X31305688Y-80256092D01*
X31407229Y-80408059D01*
X31470975Y-80503461D01*
X31669811Y-80730189D01*
X31896539Y-80929025D01*
X32147282Y-81096566D01*
X32417748Y-81229945D01*
X32703309Y-81326880D01*
X32999080Y-81385713D01*
X33300000Y-81405436D01*
X33600920Y-81385713D01*
X33896691Y-81326880D01*
X34182252Y-81229945D01*
X34452718Y-81096566D01*
X34703461Y-80929025D01*
X34930189Y-80730189D01*
X35129025Y-80503461D01*
X35198155Y-80400000D01*
X36494750Y-80400000D01*
X36495811Y-80408059D01*
X36508773Y-80506518D01*
X36513670Y-80543709D01*
X36569139Y-80677625D01*
X36574084Y-80684069D01*
X36574085Y-80684071D01*
X36652435Y-80786178D01*
X36657379Y-80792621D01*
X36772375Y-80880861D01*
X36906291Y-80936330D01*
X37050000Y-80955250D01*
X37193709Y-80936330D01*
X37327625Y-80880861D01*
X37442621Y-80792621D01*
X37530861Y-80677625D01*
X37586330Y-80543709D01*
X37605250Y-80400000D01*
X43894750Y-80400000D01*
X43895811Y-80408059D01*
X43908773Y-80506518D01*
X43913670Y-80543709D01*
X43969139Y-80677625D01*
X43974084Y-80684069D01*
X43974085Y-80684071D01*
X44052435Y-80786178D01*
X44057379Y-80792621D01*
X44172375Y-80880861D01*
X44306291Y-80936330D01*
X44450000Y-80955250D01*
X44593709Y-80936330D01*
X44727625Y-80880861D01*
X44842621Y-80792621D01*
X44930861Y-80677625D01*
X44986330Y-80543709D01*
X45005250Y-80400000D01*
X44986330Y-80256291D01*
X44930861Y-80122375D01*
X44842621Y-80007379D01*
X44727625Y-79919139D01*
X44691592Y-79904214D01*
X44601223Y-79866782D01*
X44601220Y-79866781D01*
X44593709Y-79863670D01*
X44585649Y-79862608D01*
X44585646Y-79862608D01*
X44458059Y-79845811D01*
X44450000Y-79844750D01*
X44441941Y-79845811D01*
X44314353Y-79862608D01*
X44314348Y-79862609D01*
X44306291Y-79863670D01*
X44298781Y-79866780D01*
X44298776Y-79866782D01*
X44179885Y-79916028D01*
X44179883Y-79916029D01*
X44172375Y-79919139D01*
X44165933Y-79924082D01*
X44165928Y-79924085D01*
X44063821Y-80002435D01*
X44063817Y-80002438D01*
X44057379Y-80007379D01*
X44052438Y-80013817D01*
X44052435Y-80013821D01*
X43974085Y-80115928D01*
X43974082Y-80115933D01*
X43969139Y-80122375D01*
X43966029Y-80129883D01*
X43966028Y-80129885D01*
X43916782Y-80248776D01*
X43916780Y-80248781D01*
X43913670Y-80256291D01*
X43912609Y-80264348D01*
X43912608Y-80264353D01*
X43896273Y-80388434D01*
X43894750Y-80400000D01*
X37605250Y-80400000D01*
X37586330Y-80256291D01*
X37530861Y-80122375D01*
X37442621Y-80007379D01*
X37327625Y-79919139D01*
X37291592Y-79904214D01*
X37201223Y-79866782D01*
X37201220Y-79866781D01*
X37193709Y-79863670D01*
X37185649Y-79862608D01*
X37185646Y-79862608D01*
X37058059Y-79845811D01*
X37050000Y-79844750D01*
X37041941Y-79845811D01*
X36914353Y-79862608D01*
X36914348Y-79862609D01*
X36906291Y-79863670D01*
X36898781Y-79866780D01*
X36898776Y-79866782D01*
X36779885Y-79916028D01*
X36779883Y-79916029D01*
X36772375Y-79919139D01*
X36765933Y-79924082D01*
X36765928Y-79924085D01*
X36663821Y-80002435D01*
X36663817Y-80002438D01*
X36657379Y-80007379D01*
X36652438Y-80013817D01*
X36652435Y-80013821D01*
X36574085Y-80115928D01*
X36574082Y-80115933D01*
X36569139Y-80122375D01*
X36566029Y-80129883D01*
X36566028Y-80129885D01*
X36516782Y-80248776D01*
X36516780Y-80248781D01*
X36513670Y-80256291D01*
X36512609Y-80264348D01*
X36512608Y-80264353D01*
X36496273Y-80388434D01*
X36494750Y-80400000D01*
X35198155Y-80400000D01*
X35296566Y-80252718D01*
X35429945Y-79982252D01*
X35526880Y-79696691D01*
X35585713Y-79400920D01*
X35605436Y-79100000D01*
X35585713Y-78799080D01*
X35526880Y-78503309D01*
X35429945Y-78217748D01*
X35296566Y-77947282D01*
X35129025Y-77696539D01*
X34930189Y-77469811D01*
X34703461Y-77270975D01*
X34654928Y-77238546D01*
X34456092Y-77105688D01*
X34456087Y-77105685D01*
X34452718Y-77103434D01*
X34449082Y-77101641D01*
X34449077Y-77101638D01*
X34185894Y-76971851D01*
X34185893Y-76971850D01*
X34182252Y-76970055D01*
X33896691Y-76873120D01*
X33892714Y-76872329D01*
X33892707Y-76872327D01*
X33604899Y-76815078D01*
X33604891Y-76815077D01*
X33600920Y-76814287D01*
X33300000Y-76794564D01*
X33295957Y-76794829D01*
X33003122Y-76814022D01*
X33003120Y-76814022D01*
X32999080Y-76814287D01*
X32995110Y-76815076D01*
X32995100Y-76815078D01*
X32707292Y-76872327D01*
X32707281Y-76872329D01*
X32703309Y-76873120D01*
X32699466Y-76874424D01*
X32699464Y-76874425D01*
X32421594Y-76968749D01*
X32421587Y-76968751D01*
X32417748Y-76970055D01*
X32414111Y-76971848D01*
X32414105Y-76971851D01*
X32150922Y-77101638D01*
X32150910Y-77101644D01*
X32147282Y-77103434D01*
X32143919Y-77105681D01*
X32143907Y-77105688D01*
X31899920Y-77268715D01*
X31899911Y-77268721D01*
X31896539Y-77270975D01*
X31893488Y-77273650D01*
X31893481Y-77273656D01*
X31672859Y-77467137D01*
X31672851Y-77467144D01*
X31669811Y-77469811D01*
X31667144Y-77472851D01*
X31667137Y-77472859D01*
X31473656Y-77693481D01*
X31473650Y-77693488D01*
X31470975Y-77696539D01*
X31468721Y-77699911D01*
X31468715Y-77699920D01*
X31305688Y-77943907D01*
X31305681Y-77943919D01*
X31303434Y-77947282D01*
X31301644Y-77950910D01*
X31301638Y-77950922D01*
X31171851Y-78214105D01*
X31171848Y-78214111D01*
X31170055Y-78217748D01*
X31073120Y-78503309D01*
X31072329Y-78507281D01*
X31072327Y-78507292D01*
X31015078Y-78795100D01*
X31015076Y-78795110D01*
X31014287Y-78799080D01*
X30994564Y-79100000D01*
X25007277Y-79100000D01*
X25007784Y-76041302D01*
X31099500Y-76041302D01*
X31099501Y-76044864D01*
X31099912Y-76048411D01*
X31099913Y-76048422D01*
X31101340Y-76060722D01*
X31102415Y-76069991D01*
X31147794Y-76172765D01*
X31227235Y-76252206D01*
X31298111Y-76283501D01*
X31321477Y-76293818D01*
X31321478Y-76293818D01*
X31330009Y-76297585D01*
X31355135Y-76300500D01*
X35244864Y-76300499D01*
X35269991Y-76297585D01*
X35372765Y-76252206D01*
X35452206Y-76172765D01*
X35497585Y-76069991D01*
X35500500Y-76044865D01*
X35500500Y-74550000D01*
X37494750Y-74550000D01*
X37513670Y-74693709D01*
X37569139Y-74827625D01*
X37657379Y-74942621D01*
X37772375Y-75030861D01*
X37906291Y-75086330D01*
X38050000Y-75105250D01*
X38193709Y-75086330D01*
X38327625Y-75030861D01*
X38442621Y-74942621D01*
X38530861Y-74827625D01*
X38586330Y-74693709D01*
X38605250Y-74550000D01*
X43894750Y-74550000D01*
X43913670Y-74693709D01*
X43969139Y-74827625D01*
X44057379Y-74942621D01*
X44172375Y-75030861D01*
X44306291Y-75086330D01*
X44450000Y-75105250D01*
X44593709Y-75086330D01*
X44727625Y-75030861D01*
X44842621Y-74942621D01*
X44930861Y-74827625D01*
X44986330Y-74693709D01*
X45005250Y-74550000D01*
X44986330Y-74406291D01*
X44930861Y-74272375D01*
X44842621Y-74157379D01*
X44815190Y-74136330D01*
X44734071Y-74074085D01*
X44734069Y-74074084D01*
X44727625Y-74069139D01*
X44691592Y-74054214D01*
X44601223Y-74016782D01*
X44601220Y-74016781D01*
X44593709Y-74013670D01*
X44585649Y-74012608D01*
X44585646Y-74012608D01*
X44458059Y-73995811D01*
X44450000Y-73994750D01*
X44441941Y-73995811D01*
X44314353Y-74012608D01*
X44314348Y-74012609D01*
X44306291Y-74013670D01*
X44298781Y-74016780D01*
X44298776Y-74016782D01*
X44179885Y-74066028D01*
X44179883Y-74066029D01*
X44172375Y-74069139D01*
X44165933Y-74074082D01*
X44165928Y-74074085D01*
X44063821Y-74152435D01*
X44063817Y-74152438D01*
X44057379Y-74157379D01*
X44052438Y-74163817D01*
X44052435Y-74163821D01*
X43974085Y-74265928D01*
X43974082Y-74265933D01*
X43969139Y-74272375D01*
X43966029Y-74279883D01*
X43966028Y-74279885D01*
X43916782Y-74398776D01*
X43916780Y-74398781D01*
X43913670Y-74406291D01*
X43912609Y-74414348D01*
X43912608Y-74414353D01*
X43909605Y-74437167D01*
X43894750Y-74550000D01*
X38605250Y-74550000D01*
X38586330Y-74406291D01*
X38530861Y-74272375D01*
X38442621Y-74157379D01*
X38415190Y-74136330D01*
X38334071Y-74074085D01*
X38334069Y-74074084D01*
X38327625Y-74069139D01*
X38291592Y-74054214D01*
X38201223Y-74016782D01*
X38201220Y-74016781D01*
X38193709Y-74013670D01*
X38185649Y-74012608D01*
X38185646Y-74012608D01*
X38058059Y-73995811D01*
X38050000Y-73994750D01*
X38041941Y-73995811D01*
X37914353Y-74012608D01*
X37914348Y-74012609D01*
X37906291Y-74013670D01*
X37898781Y-74016780D01*
X37898776Y-74016782D01*
X37779885Y-74066028D01*
X37779883Y-74066029D01*
X37772375Y-74069139D01*
X37765933Y-74074082D01*
X37765928Y-74074085D01*
X37663821Y-74152435D01*
X37663817Y-74152438D01*
X37657379Y-74157379D01*
X37652438Y-74163817D01*
X37652435Y-74163821D01*
X37574085Y-74265928D01*
X37574082Y-74265933D01*
X37569139Y-74272375D01*
X37566029Y-74279883D01*
X37566028Y-74279885D01*
X37516782Y-74398776D01*
X37516780Y-74398781D01*
X37513670Y-74406291D01*
X37512609Y-74414348D01*
X37512608Y-74414353D01*
X37509605Y-74437167D01*
X37494750Y-74550000D01*
X35500500Y-74550000D01*
X35500499Y-72155136D01*
X35497585Y-72130009D01*
X35452206Y-72027235D01*
X35372765Y-71947794D01*
X35357833Y-71941201D01*
X35278522Y-71906181D01*
X35278517Y-71906179D01*
X35269991Y-71902415D01*
X35260726Y-71901340D01*
X35248414Y-71899911D01*
X35248401Y-71899910D01*
X35244865Y-71899500D01*
X35241290Y-71899500D01*
X31358714Y-71899500D01*
X31358696Y-71899500D01*
X31355136Y-71899501D01*
X31351589Y-71899912D01*
X31351577Y-71899913D01*
X31339277Y-71901340D01*
X31339275Y-71901340D01*
X31330009Y-71902415D01*
X31321479Y-71906180D01*
X31321476Y-71906182D01*
X31237745Y-71943153D01*
X31237743Y-71943154D01*
X31227235Y-71947794D01*
X31219112Y-71955916D01*
X31219109Y-71955919D01*
X31155919Y-72019109D01*
X31155916Y-72019112D01*
X31147794Y-72027235D01*
X31143154Y-72037743D01*
X31143153Y-72037745D01*
X31106181Y-72121477D01*
X31106179Y-72121484D01*
X31102415Y-72130009D01*
X31101340Y-72139271D01*
X31101340Y-72139273D01*
X31099911Y-72151585D01*
X31099910Y-72151599D01*
X31099500Y-72155135D01*
X31099500Y-72158708D01*
X31099500Y-72158709D01*
X31099500Y-76041285D01*
X31099500Y-76041302D01*
X25007784Y-76041302D01*
X25008148Y-73842422D01*
X25013390Y-73806776D01*
X25028659Y-73774141D01*
X25128655Y-73622657D01*
X25342533Y-73240700D01*
X25528014Y-72844175D01*
X25684112Y-72435191D01*
X25809998Y-72015920D01*
X25905003Y-71588593D01*
X25968621Y-71155479D01*
X25999703Y-70730000D01*
X38324750Y-70730000D01*
X38325811Y-70738059D01*
X38341376Y-70856291D01*
X38343670Y-70873709D01*
X38346781Y-70881220D01*
X38346782Y-70881223D01*
X38375270Y-70950000D01*
X38399139Y-71007625D01*
X38487379Y-71122621D01*
X38602375Y-71210861D01*
X38736291Y-71266330D01*
X38880000Y-71285250D01*
X39023709Y-71266330D01*
X39157625Y-71210861D01*
X39272621Y-71122621D01*
X39360861Y-71007625D01*
X39416330Y-70873709D01*
X39435250Y-70730000D01*
X39416330Y-70586291D01*
X39360861Y-70452375D01*
X39272621Y-70337379D01*
X39157625Y-70249139D01*
X39082933Y-70218201D01*
X39031223Y-70196782D01*
X39031220Y-70196781D01*
X39023709Y-70193670D01*
X39015649Y-70192608D01*
X39015646Y-70192608D01*
X38888059Y-70175811D01*
X38880000Y-70174750D01*
X38871941Y-70175811D01*
X38744353Y-70192608D01*
X38744348Y-70192609D01*
X38736291Y-70193670D01*
X38728781Y-70196780D01*
X38728776Y-70196782D01*
X38609885Y-70246028D01*
X38609883Y-70246029D01*
X38602375Y-70249139D01*
X38595933Y-70254082D01*
X38595928Y-70254085D01*
X38493821Y-70332435D01*
X38493817Y-70332438D01*
X38487379Y-70337379D01*
X38482438Y-70343817D01*
X38482435Y-70343821D01*
X38404085Y-70445928D01*
X38404082Y-70445933D01*
X38399139Y-70452375D01*
X38396029Y-70459883D01*
X38396028Y-70459885D01*
X38346782Y-70578776D01*
X38346780Y-70578781D01*
X38343670Y-70586291D01*
X38342609Y-70594348D01*
X38342608Y-70594353D01*
X38326510Y-70716628D01*
X38324750Y-70730000D01*
X25999703Y-70730000D01*
X26000515Y-70718881D01*
X26000500Y-70500000D01*
X26000500Y-70499500D01*
X26000500Y-53172551D01*
X27772688Y-53172551D01*
X27773056Y-53183780D01*
X27825168Y-53378263D01*
X27828856Y-53388397D01*
X27924113Y-53592676D01*
X27929501Y-53602008D01*
X28058784Y-53786643D01*
X28065721Y-53794909D01*
X28225090Y-53954278D01*
X28233356Y-53961215D01*
X28417991Y-54090498D01*
X28427327Y-54095888D01*
X28621571Y-54186465D01*
X28666565Y-54222104D01*
X28690690Y-54274186D01*
X28688776Y-54331553D01*
X28661234Y-54381911D01*
X28613965Y-54414472D01*
X28590328Y-54423629D01*
X28590313Y-54423636D01*
X28584981Y-54425702D01*
X28580114Y-54428715D01*
X28580109Y-54428718D01*
X28408564Y-54534934D01*
X28408555Y-54534940D01*
X28403698Y-54537948D01*
X28399475Y-54541797D01*
X28399468Y-54541803D01*
X28250360Y-54677734D01*
X28250354Y-54677739D01*
X28246128Y-54681593D01*
X28242681Y-54686156D01*
X28242675Y-54686164D01*
X28121086Y-54847173D01*
X28121083Y-54847177D01*
X28117634Y-54851745D01*
X28115082Y-54856870D01*
X28115079Y-54856875D01*
X28025153Y-55037473D01*
X28022595Y-55042611D01*
X28021027Y-55048119D01*
X28021024Y-55048129D01*
X27965814Y-55242168D01*
X27965811Y-55242179D01*
X27964244Y-55247690D01*
X27963714Y-55253400D01*
X27963714Y-55253405D01*
X27945100Y-55454291D01*
X27944571Y-55460000D01*
X27964244Y-55672310D01*
X27965812Y-55677821D01*
X27965814Y-55677831D01*
X28021024Y-55871870D01*
X28021026Y-55871876D01*
X28022595Y-55877389D01*
X28117634Y-56068255D01*
X28246128Y-56238407D01*
X28403698Y-56382052D01*
X28584981Y-56494298D01*
X28783802Y-56571321D01*
X28976694Y-56607379D01*
X28980610Y-56608111D01*
X29041363Y-56638363D01*
X29077091Y-56696066D01*
X29077091Y-56763934D01*
X29041363Y-56821637D01*
X28980610Y-56851889D01*
X28789439Y-56887625D01*
X28789436Y-56887625D01*
X28783802Y-56888679D01*
X28778461Y-56890747D01*
X28778454Y-56890750D01*
X28590322Y-56963632D01*
X28590313Y-56963636D01*
X28584981Y-56965702D01*
X28580114Y-56968715D01*
X28580109Y-56968718D01*
X28408564Y-57074934D01*
X28408555Y-57074940D01*
X28403698Y-57077948D01*
X28399475Y-57081797D01*
X28399468Y-57081803D01*
X28250360Y-57217734D01*
X28250354Y-57217739D01*
X28246128Y-57221593D01*
X28242681Y-57226156D01*
X28242675Y-57226164D01*
X28121086Y-57387173D01*
X28121083Y-57387177D01*
X28117634Y-57391745D01*
X28115082Y-57396870D01*
X28115079Y-57396875D01*
X28045640Y-57536330D01*
X28022595Y-57582611D01*
X28021027Y-57588119D01*
X28021024Y-57588129D01*
X27965814Y-57782168D01*
X27965811Y-57782179D01*
X27964244Y-57787690D01*
X27963714Y-57793400D01*
X27963714Y-57793405D01*
X27953837Y-57900000D01*
X27944571Y-58000000D01*
X27964244Y-58212310D01*
X27965812Y-58217821D01*
X27965814Y-58217831D01*
X28021024Y-58411870D01*
X28021026Y-58411876D01*
X28022595Y-58417389D01*
X28117634Y-58608255D01*
X28246128Y-58778407D01*
X28403698Y-58922052D01*
X28584981Y-59034298D01*
X28783802Y-59111321D01*
X28980611Y-59148111D01*
X29041363Y-59178362D01*
X29077091Y-59236064D01*
X29077092Y-59303933D01*
X29041364Y-59361636D01*
X28980611Y-59391888D01*
X28789437Y-59427625D01*
X28789430Y-59427626D01*
X28783802Y-59428679D01*
X28778461Y-59430747D01*
X28778454Y-59430750D01*
X28590322Y-59503632D01*
X28590313Y-59503636D01*
X28584981Y-59505702D01*
X28580114Y-59508715D01*
X28580109Y-59508718D01*
X28408564Y-59614934D01*
X28408555Y-59614940D01*
X28403698Y-59617948D01*
X28399475Y-59621797D01*
X28399468Y-59621803D01*
X28250360Y-59757734D01*
X28250354Y-59757739D01*
X28246128Y-59761593D01*
X28242681Y-59766156D01*
X28242675Y-59766164D01*
X28121086Y-59927173D01*
X28121083Y-59927177D01*
X28117634Y-59931745D01*
X28115082Y-59936870D01*
X28115079Y-59936875D01*
X28025153Y-60117473D01*
X28022595Y-60122611D01*
X28021027Y-60128119D01*
X28021024Y-60128129D01*
X27965814Y-60322168D01*
X27965811Y-60322179D01*
X27964244Y-60327690D01*
X27963714Y-60333400D01*
X27963714Y-60333405D01*
X27953153Y-60447381D01*
X27944571Y-60540000D01*
X27964244Y-60752310D01*
X27965812Y-60757821D01*
X27965814Y-60757831D01*
X28021024Y-60951870D01*
X28021026Y-60951876D01*
X28022595Y-60957389D01*
X28117634Y-61148255D01*
X28246128Y-61318407D01*
X28403698Y-61462052D01*
X28584981Y-61574298D01*
X28783802Y-61651321D01*
X28978321Y-61687683D01*
X28980610Y-61688111D01*
X29041363Y-61718363D01*
X29077091Y-61776066D01*
X29077091Y-61843934D01*
X29041363Y-61901637D01*
X28980610Y-61931889D01*
X28789439Y-61967625D01*
X28789436Y-61967625D01*
X28783802Y-61968679D01*
X28778461Y-61970747D01*
X28778454Y-61970750D01*
X28590322Y-62043632D01*
X28590313Y-62043636D01*
X28584981Y-62045702D01*
X28580114Y-62048715D01*
X28580109Y-62048718D01*
X28408564Y-62154934D01*
X28408555Y-62154940D01*
X28403698Y-62157948D01*
X28399475Y-62161797D01*
X28399468Y-62161803D01*
X28250360Y-62297734D01*
X28250354Y-62297739D01*
X28246128Y-62301593D01*
X28242681Y-62306156D01*
X28242675Y-62306164D01*
X28121086Y-62467173D01*
X28121083Y-62467177D01*
X28117634Y-62471745D01*
X28115082Y-62476870D01*
X28115079Y-62476875D01*
X28037802Y-62632071D01*
X28022595Y-62662611D01*
X28021027Y-62668119D01*
X28021024Y-62668129D01*
X27965814Y-62862168D01*
X27965811Y-62862179D01*
X27964244Y-62867690D01*
X27963714Y-62873400D01*
X27963714Y-62873405D01*
X27958227Y-62932621D01*
X27944571Y-63080000D01*
X27964244Y-63292310D01*
X27965812Y-63297821D01*
X27965814Y-63297831D01*
X28021024Y-63491870D01*
X28021026Y-63491876D01*
X28022595Y-63497389D01*
X28117634Y-63688255D01*
X28246128Y-63858407D01*
X28403698Y-64002052D01*
X28584981Y-64114298D01*
X28783802Y-64191321D01*
X28978321Y-64227683D01*
X28980610Y-64228111D01*
X29041363Y-64258363D01*
X29077091Y-64316066D01*
X29077091Y-64383934D01*
X29041363Y-64441637D01*
X28980610Y-64471889D01*
X28789439Y-64507625D01*
X28789436Y-64507625D01*
X28783802Y-64508679D01*
X28778461Y-64510747D01*
X28778454Y-64510750D01*
X28590322Y-64583632D01*
X28590313Y-64583636D01*
X28584981Y-64585702D01*
X28580114Y-64588715D01*
X28580109Y-64588718D01*
X28408564Y-64694934D01*
X28408555Y-64694940D01*
X28403698Y-64697948D01*
X28399475Y-64701797D01*
X28399468Y-64701803D01*
X28250360Y-64837734D01*
X28250354Y-64837739D01*
X28246128Y-64841593D01*
X28242681Y-64846156D01*
X28242675Y-64846164D01*
X28121086Y-65007173D01*
X28121083Y-65007177D01*
X28117634Y-65011745D01*
X28115082Y-65016870D01*
X28115079Y-65016875D01*
X28113952Y-65019139D01*
X28022595Y-65202611D01*
X28021027Y-65208119D01*
X28021024Y-65208129D01*
X27965814Y-65402168D01*
X27965811Y-65402179D01*
X27964244Y-65407690D01*
X27944571Y-65620000D01*
X27964244Y-65832310D01*
X27965812Y-65837821D01*
X27965814Y-65837831D01*
X28021024Y-66031870D01*
X28021026Y-66031876D01*
X28022595Y-66037389D01*
X28117634Y-66228255D01*
X28246128Y-66398407D01*
X28403698Y-66542052D01*
X28584981Y-66654298D01*
X28783802Y-66731321D01*
X28956541Y-66763611D01*
X29011493Y-66788894D01*
X29047947Y-66837166D01*
X29057226Y-66896941D01*
X29037122Y-66953993D01*
X28992419Y-66994745D01*
X28933755Y-67009500D01*
X28208714Y-67009500D01*
X28208696Y-67009500D01*
X28205136Y-67009501D01*
X28201589Y-67009912D01*
X28201577Y-67009913D01*
X28189277Y-67011340D01*
X28189275Y-67011340D01*
X28180009Y-67012415D01*
X28171479Y-67016180D01*
X28171476Y-67016182D01*
X28087745Y-67053153D01*
X28087743Y-67053154D01*
X28077235Y-67057794D01*
X28069112Y-67065916D01*
X28069109Y-67065919D01*
X28005919Y-67129109D01*
X28005916Y-67129112D01*
X27997794Y-67137235D01*
X27993154Y-67147743D01*
X27993153Y-67147745D01*
X27956181Y-67231477D01*
X27956179Y-67231484D01*
X27952415Y-67240009D01*
X27951340Y-67249271D01*
X27951340Y-67249273D01*
X27949911Y-67261585D01*
X27949910Y-67261599D01*
X27949500Y-67265135D01*
X27949500Y-67268708D01*
X27949500Y-67268709D01*
X27949500Y-69051285D01*
X27949500Y-69051302D01*
X27949501Y-69054864D01*
X27949912Y-69058411D01*
X27949913Y-69058422D01*
X27951340Y-69070722D01*
X27952415Y-69079991D01*
X27997794Y-69182765D01*
X28077235Y-69262206D01*
X28148111Y-69293501D01*
X28171477Y-69303818D01*
X28171478Y-69303818D01*
X28180009Y-69307585D01*
X28205135Y-69310500D01*
X29994864Y-69310499D01*
X30019991Y-69307585D01*
X30122765Y-69262206D01*
X30202206Y-69182765D01*
X30247585Y-69079991D01*
X30250500Y-69054865D01*
X30250499Y-67265136D01*
X30247585Y-67240009D01*
X30202206Y-67137235D01*
X30122765Y-67057794D01*
X30107833Y-67051201D01*
X30028522Y-67016181D01*
X30028517Y-67016179D01*
X30019991Y-67012415D01*
X30010726Y-67011340D01*
X29998414Y-67009911D01*
X29998401Y-67009910D01*
X29994865Y-67009500D01*
X29991290Y-67009500D01*
X29266245Y-67009500D01*
X29207581Y-66994745D01*
X29162878Y-66953993D01*
X29142774Y-66896941D01*
X29152053Y-66837166D01*
X29188507Y-66788894D01*
X29243458Y-66763611D01*
X29416198Y-66731321D01*
X29615019Y-66654298D01*
X29796302Y-66542052D01*
X29953872Y-66398407D01*
X30082366Y-66228255D01*
X30177405Y-66037389D01*
X30235756Y-65832310D01*
X30255429Y-65620000D01*
X30235756Y-65407690D01*
X30221131Y-65356291D01*
X30178975Y-65208129D01*
X30177405Y-65202611D01*
X30082366Y-65011745D01*
X29953872Y-64841593D01*
X29796302Y-64697948D01*
X29791438Y-64694936D01*
X29791435Y-64694934D01*
X29619890Y-64588718D01*
X29619889Y-64588717D01*
X29615019Y-64585702D01*
X29609681Y-64583634D01*
X29609677Y-64583632D01*
X29421545Y-64510750D01*
X29421540Y-64510748D01*
X29416198Y-64508679D01*
X29219388Y-64471888D01*
X29158636Y-64441637D01*
X29122908Y-64383934D01*
X29122908Y-64316066D01*
X29158636Y-64258363D01*
X29219388Y-64228111D01*
X29416198Y-64191321D01*
X29615019Y-64114298D01*
X29796302Y-64002052D01*
X29953872Y-63858407D01*
X30082366Y-63688255D01*
X30177405Y-63497389D01*
X30235756Y-63292310D01*
X30255429Y-63080000D01*
X30235756Y-62867690D01*
X30177405Y-62662611D01*
X30082366Y-62471745D01*
X29953872Y-62301593D01*
X29796302Y-62157948D01*
X29791438Y-62154936D01*
X29791435Y-62154934D01*
X29619890Y-62048718D01*
X29619889Y-62048717D01*
X29615019Y-62045702D01*
X29609681Y-62043634D01*
X29609677Y-62043632D01*
X29421545Y-61970750D01*
X29421540Y-61970748D01*
X29416198Y-61968679D01*
X29219388Y-61931888D01*
X29175431Y-61910000D01*
X44754750Y-61910000D01*
X44755811Y-61918059D01*
X44762336Y-61967625D01*
X44773670Y-62053709D01*
X44829139Y-62187625D01*
X44834084Y-62194069D01*
X44834085Y-62194071D01*
X44886497Y-62262375D01*
X44917379Y-62302621D01*
X45032375Y-62390861D01*
X45166291Y-62446330D01*
X45310000Y-62465250D01*
X45453709Y-62446330D01*
X45587625Y-62390861D01*
X45702621Y-62302621D01*
X45790861Y-62187625D01*
X45846330Y-62053709D01*
X45865250Y-61910000D01*
X45846330Y-61766291D01*
X45790861Y-61632375D01*
X45702621Y-61517379D01*
X45641263Y-61470297D01*
X45594071Y-61434085D01*
X45594069Y-61434084D01*
X45587625Y-61429139D01*
X45551592Y-61414214D01*
X45461223Y-61376782D01*
X45461220Y-61376781D01*
X45453709Y-61373670D01*
X45445649Y-61372608D01*
X45445646Y-61372608D01*
X45318059Y-61355811D01*
X45310000Y-61354750D01*
X45301941Y-61355811D01*
X45174353Y-61372608D01*
X45174348Y-61372609D01*
X45166291Y-61373670D01*
X45158781Y-61376780D01*
X45158776Y-61376782D01*
X45039885Y-61426028D01*
X45039883Y-61426029D01*
X45032375Y-61429139D01*
X45025933Y-61434082D01*
X45025928Y-61434085D01*
X44923821Y-61512435D01*
X44923817Y-61512438D01*
X44917379Y-61517379D01*
X44912438Y-61523817D01*
X44912435Y-61523821D01*
X44834085Y-61625928D01*
X44834082Y-61625933D01*
X44829139Y-61632375D01*
X44826029Y-61639883D01*
X44826028Y-61639885D01*
X44776782Y-61758776D01*
X44776780Y-61758781D01*
X44773670Y-61766291D01*
X44772609Y-61774348D01*
X44772608Y-61774353D01*
X44763973Y-61839947D01*
X44754750Y-61910000D01*
X29175431Y-61910000D01*
X29158636Y-61901637D01*
X29122908Y-61843934D01*
X29122908Y-61776066D01*
X29158636Y-61718363D01*
X29219388Y-61688111D01*
X29416198Y-61651321D01*
X29615019Y-61574298D01*
X29796302Y-61462052D01*
X29953872Y-61318407D01*
X30082366Y-61148255D01*
X30177405Y-60957389D01*
X30235756Y-60752310D01*
X30255429Y-60540000D01*
X30235756Y-60327690D01*
X30177405Y-60122611D01*
X30082366Y-59931745D01*
X29953872Y-59761593D01*
X29796302Y-59617948D01*
X29791438Y-59614936D01*
X29791435Y-59614934D01*
X29619890Y-59508718D01*
X29619889Y-59508717D01*
X29615019Y-59505702D01*
X29609681Y-59503634D01*
X29609677Y-59503632D01*
X29421545Y-59430750D01*
X29421540Y-59430748D01*
X29416198Y-59428679D01*
X29410566Y-59427626D01*
X29410562Y-59427625D01*
X29219388Y-59391888D01*
X29158635Y-59361636D01*
X29122907Y-59303933D01*
X29122908Y-59236064D01*
X29158636Y-59178361D01*
X29219386Y-59148111D01*
X29416198Y-59111321D01*
X29615019Y-59034298D01*
X29796302Y-58922052D01*
X29953872Y-58778407D01*
X30082366Y-58608255D01*
X30177405Y-58417389D01*
X30235756Y-58212310D01*
X30255429Y-58000000D01*
X30235756Y-57787690D01*
X30177405Y-57582611D01*
X30082366Y-57391745D01*
X29953872Y-57221593D01*
X29796302Y-57077948D01*
X29791438Y-57074936D01*
X29791435Y-57074934D01*
X29619890Y-56968718D01*
X29619889Y-56968717D01*
X29615019Y-56965702D01*
X29609681Y-56963634D01*
X29609677Y-56963632D01*
X29421545Y-56890750D01*
X29421540Y-56890748D01*
X29416198Y-56888679D01*
X29219388Y-56851888D01*
X29158636Y-56821637D01*
X29122908Y-56763934D01*
X29122908Y-56696066D01*
X29158636Y-56638363D01*
X29219388Y-56608111D01*
X29416198Y-56571321D01*
X29615019Y-56494298D01*
X29796302Y-56382052D01*
X29953872Y-56238407D01*
X30082366Y-56068255D01*
X30177405Y-55877389D01*
X30235756Y-55672310D01*
X30255429Y-55460000D01*
X30235756Y-55247690D01*
X30177405Y-55042611D01*
X30082366Y-54851745D01*
X29953872Y-54681593D01*
X29934212Y-54663670D01*
X29800531Y-54541803D01*
X29800529Y-54541801D01*
X29796302Y-54537948D01*
X29791438Y-54534936D01*
X29791435Y-54534934D01*
X29619890Y-54428718D01*
X29619889Y-54428717D01*
X29615019Y-54425702D01*
X29609677Y-54423632D01*
X29609674Y-54423631D01*
X29586036Y-54414473D01*
X29538766Y-54381912D01*
X29511223Y-54331553D01*
X29509309Y-54274186D01*
X29533434Y-54222104D01*
X29578428Y-54186465D01*
X29772672Y-54095888D01*
X29782008Y-54090498D01*
X29966643Y-53961215D01*
X29974909Y-53954278D01*
X30134278Y-53794909D01*
X30141215Y-53786643D01*
X30270498Y-53602008D01*
X30275886Y-53592676D01*
X30371143Y-53388397D01*
X30374831Y-53378263D01*
X30426943Y-53183780D01*
X30427311Y-53172551D01*
X30416369Y-53170000D01*
X27783631Y-53170000D01*
X27772688Y-53172551D01*
X26000500Y-53172551D01*
X26000500Y-52667448D01*
X27772688Y-52667448D01*
X27783631Y-52670000D01*
X30416369Y-52670000D01*
X30427311Y-52667448D01*
X30426943Y-52656219D01*
X30374831Y-52461736D01*
X30371143Y-52451602D01*
X30275889Y-52247332D01*
X30270491Y-52237982D01*
X30141215Y-52053357D01*
X30134280Y-52045092D01*
X29974909Y-51885721D01*
X29966643Y-51878784D01*
X29782008Y-51749501D01*
X29772676Y-51744113D01*
X29578427Y-51653534D01*
X29533433Y-51617895D01*
X29509309Y-51565811D01*
X29511224Y-51508443D01*
X29538768Y-51458085D01*
X29586039Y-51425525D01*
X29591304Y-51423484D01*
X29615019Y-51414298D01*
X29796302Y-51302052D01*
X29953872Y-51158407D01*
X30082366Y-50988255D01*
X30177405Y-50797389D01*
X30235756Y-50592310D01*
X30255429Y-50380000D01*
X30235756Y-50167690D01*
X30177405Y-49962611D01*
X30082366Y-49771745D01*
X29953872Y-49601593D01*
X29825469Y-49484537D01*
X29800531Y-49461803D01*
X29800529Y-49461801D01*
X29796302Y-49457948D01*
X29791438Y-49454936D01*
X29791435Y-49454934D01*
X29619890Y-49348718D01*
X29619889Y-49348717D01*
X29615019Y-49345702D01*
X29609681Y-49343634D01*
X29609677Y-49343632D01*
X29421545Y-49270750D01*
X29421540Y-49270748D01*
X29416198Y-49268679D01*
X29219388Y-49231888D01*
X29158636Y-49201637D01*
X29122908Y-49143934D01*
X29122908Y-49076066D01*
X29158636Y-49018363D01*
X29219388Y-48988111D01*
X29416198Y-48951321D01*
X29615019Y-48874298D01*
X29796302Y-48762052D01*
X29805482Y-48753683D01*
X44065740Y-48753683D01*
X44075755Y-48938407D01*
X44077552Y-48944882D01*
X44077553Y-48944883D01*
X44123446Y-49110179D01*
X44123448Y-49110186D01*
X44125246Y-49116659D01*
X44128392Y-49122594D01*
X44128395Y-49122600D01*
X44208750Y-49274164D01*
X44208753Y-49274169D01*
X44211900Y-49280104D01*
X44216248Y-49285224D01*
X44216251Y-49285227D01*
X44278465Y-49358471D01*
X44331663Y-49421100D01*
X44478936Y-49533054D01*
X44646833Y-49610732D01*
X44827503Y-49650500D01*
X44962754Y-49650500D01*
X44966113Y-49650500D01*
X45103910Y-49635514D01*
X45279221Y-49576444D01*
X45437736Y-49481070D01*
X45572041Y-49353849D01*
X45675858Y-49200730D01*
X45744331Y-49028875D01*
X45774260Y-48846317D01*
X45764245Y-48661593D01*
X45714754Y-48483341D01*
X45698576Y-48452826D01*
X45631249Y-48325835D01*
X45631247Y-48325832D01*
X45628100Y-48319896D01*
X45565460Y-48246151D01*
X45512691Y-48184026D01*
X45508337Y-48178900D01*
X45361064Y-48066946D01*
X45193167Y-47989268D01*
X45012497Y-47949500D01*
X44873887Y-47949500D01*
X44870552Y-47949862D01*
X44870546Y-47949863D01*
X44742772Y-47963759D01*
X44742769Y-47963759D01*
X44736090Y-47964486D01*
X44729729Y-47966629D01*
X44729721Y-47966631D01*
X44567152Y-48021408D01*
X44567146Y-48021410D01*
X44560779Y-48023556D01*
X44555026Y-48027017D01*
X44555016Y-48027022D01*
X44408027Y-48115462D01*
X44408023Y-48115464D01*
X44402264Y-48118930D01*
X44397386Y-48123550D01*
X44397379Y-48123556D01*
X44272839Y-48241528D01*
X44267959Y-48246151D01*
X44264191Y-48251707D01*
X44264187Y-48251713D01*
X44167914Y-48393706D01*
X44164142Y-48399270D01*
X44161654Y-48405513D01*
X44161653Y-48405516D01*
X44098159Y-48564874D01*
X44098157Y-48564879D01*
X44095669Y-48571125D01*
X44065740Y-48753683D01*
X29805482Y-48753683D01*
X29953872Y-48618407D01*
X30082366Y-48448255D01*
X30177405Y-48257389D01*
X30235756Y-48052310D01*
X30255429Y-47840000D01*
X30235756Y-47627690D01*
X30177405Y-47422611D01*
X30082366Y-47231745D01*
X29953872Y-47061593D01*
X29796302Y-46917948D01*
X29791438Y-46914936D01*
X29791435Y-46914934D01*
X29619890Y-46808718D01*
X29619889Y-46808717D01*
X29615019Y-46805702D01*
X29609681Y-46803634D01*
X29609677Y-46803632D01*
X29421545Y-46730750D01*
X29421540Y-46730748D01*
X29416198Y-46728679D01*
X29410560Y-46727625D01*
X29212239Y-46690552D01*
X29212236Y-46690551D01*
X29206610Y-46689500D01*
X28993390Y-46689500D01*
X28987764Y-46690551D01*
X28987760Y-46690552D01*
X28789439Y-46727625D01*
X28789436Y-46727625D01*
X28783802Y-46728679D01*
X28778461Y-46730747D01*
X28778454Y-46730750D01*
X28590322Y-46803632D01*
X28590313Y-46803636D01*
X28584981Y-46805702D01*
X28580114Y-46808715D01*
X28580109Y-46808718D01*
X28408564Y-46914934D01*
X28408555Y-46914940D01*
X28403698Y-46917948D01*
X28399475Y-46921797D01*
X28399468Y-46921803D01*
X28250360Y-47057734D01*
X28250354Y-47057739D01*
X28246128Y-47061593D01*
X28242681Y-47066156D01*
X28242675Y-47066164D01*
X28121086Y-47227173D01*
X28121083Y-47227177D01*
X28117634Y-47231745D01*
X28115082Y-47236870D01*
X28115079Y-47236875D01*
X28048310Y-47370967D01*
X28022595Y-47422611D01*
X28021027Y-47428119D01*
X28021024Y-47428129D01*
X27965814Y-47622168D01*
X27965811Y-47622179D01*
X27964244Y-47627690D01*
X27944571Y-47840000D01*
X27945100Y-47845709D01*
X27961900Y-48027022D01*
X27964244Y-48052310D01*
X27965812Y-48057821D01*
X27965814Y-48057831D01*
X28021024Y-48251870D01*
X28021026Y-48251876D01*
X28022595Y-48257389D01*
X28117634Y-48448255D01*
X28246128Y-48618407D01*
X28403698Y-48762052D01*
X28584981Y-48874298D01*
X28783802Y-48951321D01*
X28978321Y-48987683D01*
X28980610Y-48988111D01*
X29041363Y-49018363D01*
X29077091Y-49076066D01*
X29077091Y-49143934D01*
X29041363Y-49201637D01*
X28980610Y-49231889D01*
X28789439Y-49267625D01*
X28789436Y-49267625D01*
X28783802Y-49268679D01*
X28778461Y-49270747D01*
X28778454Y-49270750D01*
X28590322Y-49343632D01*
X28590313Y-49343636D01*
X28584981Y-49345702D01*
X28580114Y-49348715D01*
X28580109Y-49348718D01*
X28408564Y-49454934D01*
X28408555Y-49454940D01*
X28403698Y-49457948D01*
X28399475Y-49461797D01*
X28399468Y-49461803D01*
X28250360Y-49597734D01*
X28250354Y-49597739D01*
X28246128Y-49601593D01*
X28242681Y-49606156D01*
X28242675Y-49606164D01*
X28121086Y-49767173D01*
X28121083Y-49767177D01*
X28117634Y-49771745D01*
X28115082Y-49776870D01*
X28115079Y-49776875D01*
X28025153Y-49957473D01*
X28022595Y-49962611D01*
X28021027Y-49968119D01*
X28021024Y-49968129D01*
X27965814Y-50162168D01*
X27965811Y-50162179D01*
X27964244Y-50167690D01*
X27944571Y-50380000D01*
X27964244Y-50592310D01*
X27965812Y-50597821D01*
X27965814Y-50597831D01*
X28021024Y-50791870D01*
X28021026Y-50791876D01*
X28022595Y-50797389D01*
X28117634Y-50988255D01*
X28246128Y-51158407D01*
X28403698Y-51302052D01*
X28584981Y-51414298D01*
X28590327Y-51416369D01*
X28590331Y-51416371D01*
X28613961Y-51425526D01*
X28661232Y-51458085D01*
X28688775Y-51508444D01*
X28690690Y-51565811D01*
X28666566Y-51617894D01*
X28621572Y-51653534D01*
X28427332Y-51744110D01*
X28417982Y-51749508D01*
X28233357Y-51878784D01*
X28225092Y-51885719D01*
X28065719Y-52045092D01*
X28058784Y-52053357D01*
X27929508Y-52237982D01*
X27924110Y-52247332D01*
X27828856Y-52451602D01*
X27825168Y-52461736D01*
X27773056Y-52656219D01*
X27772688Y-52667448D01*
X26000500Y-52667448D01*
X26000500Y-45499901D01*
X26000499Y-45499885D01*
X26000514Y-45281119D01*
X25980273Y-45004043D01*
X47745437Y-45004043D01*
X47764197Y-45290271D01*
X47765253Y-45298293D01*
X47821210Y-45579608D01*
X47823307Y-45587436D01*
X47915505Y-45859038D01*
X47918607Y-45866528D01*
X48045466Y-46123774D01*
X48049516Y-46130788D01*
X48208866Y-46369271D01*
X48213806Y-46375709D01*
X48229188Y-46393249D01*
X48240580Y-46400682D01*
X48252437Y-46394008D01*
X49634904Y-45011542D01*
X49641568Y-45000000D01*
X49634904Y-44988457D01*
X48252437Y-43605990D01*
X48240581Y-43599316D01*
X48229188Y-43606750D01*
X48213801Y-43624296D01*
X48208869Y-43630723D01*
X48049516Y-43869211D01*
X48045466Y-43876225D01*
X47918607Y-44133471D01*
X47915505Y-44140961D01*
X47823307Y-44412563D01*
X47821210Y-44420391D01*
X47765253Y-44701706D01*
X47764197Y-44709728D01*
X47745437Y-44995957D01*
X47745437Y-45004043D01*
X25980273Y-45004043D01*
X25968620Y-44844522D01*
X25905002Y-44411408D01*
X25809997Y-43984080D01*
X25684111Y-43564810D01*
X25528013Y-43155825D01*
X25342532Y-42759301D01*
X25128654Y-42377343D01*
X25028613Y-42225789D01*
X25013365Y-42193227D01*
X25008100Y-42157660D01*
X25004155Y-39480734D01*
X25002848Y-38593683D01*
X44065740Y-38593683D01*
X44075755Y-38778407D01*
X44077552Y-38784882D01*
X44077553Y-38784883D01*
X44123446Y-38950179D01*
X44123448Y-38950186D01*
X44125246Y-38956659D01*
X44128392Y-38962594D01*
X44128395Y-38962600D01*
X44208750Y-39114164D01*
X44208753Y-39114169D01*
X44211900Y-39120104D01*
X44216248Y-39125224D01*
X44216251Y-39125227D01*
X44278465Y-39198471D01*
X44331663Y-39261100D01*
X44478936Y-39373054D01*
X44646833Y-39450732D01*
X44827503Y-39490500D01*
X44962754Y-39490500D01*
X44966113Y-39490500D01*
X45103910Y-39475514D01*
X45279221Y-39416444D01*
X45437736Y-39321070D01*
X45572041Y-39193849D01*
X45675858Y-39040730D01*
X45744331Y-38868875D01*
X45774260Y-38686317D01*
X45764245Y-38501593D01*
X45714754Y-38323341D01*
X45689125Y-38275000D01*
X45631249Y-38165835D01*
X45631247Y-38165832D01*
X45628100Y-38159896D01*
X45565460Y-38086151D01*
X45512691Y-38024026D01*
X45508337Y-38018900D01*
X45361064Y-37906946D01*
X45193167Y-37829268D01*
X45012497Y-37789500D01*
X44873887Y-37789500D01*
X44870552Y-37789862D01*
X44870546Y-37789863D01*
X44742772Y-37803759D01*
X44742769Y-37803759D01*
X44736090Y-37804486D01*
X44729729Y-37806629D01*
X44729721Y-37806631D01*
X44567152Y-37861408D01*
X44567146Y-37861410D01*
X44560779Y-37863556D01*
X44555026Y-37867017D01*
X44555016Y-37867022D01*
X44408027Y-37955462D01*
X44408023Y-37955464D01*
X44402264Y-37958930D01*
X44397386Y-37963550D01*
X44397379Y-37963556D01*
X44272839Y-38081528D01*
X44267959Y-38086151D01*
X44264191Y-38091707D01*
X44264187Y-38091713D01*
X44167914Y-38233706D01*
X44164142Y-38239270D01*
X44161654Y-38245513D01*
X44161653Y-38245516D01*
X44098159Y-38404874D01*
X44098157Y-38404879D01*
X44095669Y-38411125D01*
X44065740Y-38593683D01*
X25002848Y-38593683D01*
X25000506Y-37004147D01*
X25000771Y-36995860D01*
X25005989Y-36916244D01*
X25018709Y-36738405D01*
X25020770Y-36723103D01*
X25042959Y-36611552D01*
X25043364Y-36609607D01*
X25073788Y-36469749D01*
X25077519Y-36456305D01*
X25116243Y-36342230D01*
X25117404Y-36338967D01*
X25165068Y-36211177D01*
X25170017Y-36199713D01*
X25224481Y-36089272D01*
X25226777Y-36084851D01*
X25290855Y-35967501D01*
X25296562Y-35958075D01*
X25365639Y-35854694D01*
X25369425Y-35849344D01*
X25448850Y-35743246D01*
X25454823Y-35735878D01*
X25537161Y-35641989D01*
X25542648Y-35636131D01*
X25636131Y-35542648D01*
X25641989Y-35537161D01*
X25735878Y-35454823D01*
X25743246Y-35448850D01*
X25849344Y-35369425D01*
X25854694Y-35365639D01*
X25958075Y-35296562D01*
X25967501Y-35290855D01*
X26084851Y-35226777D01*
X26089272Y-35224481D01*
X26199713Y-35170017D01*
X26211177Y-35165068D01*
X26338967Y-35117404D01*
X26342230Y-35116243D01*
X26456305Y-35077519D01*
X26469749Y-35073788D01*
X26609606Y-35043364D01*
X26611573Y-35042955D01*
X26723099Y-35020771D01*
X26738407Y-35018709D01*
X26916193Y-35005992D01*
X26995957Y-35000764D01*
X27004065Y-35000500D01*
X35204252Y-35000500D01*
X35206822Y-35000500D01*
X35619054Y-34966341D01*
X36027057Y-34898258D01*
X36428044Y-34796714D01*
X36819276Y-34662404D01*
X37198080Y-34496245D01*
X37561869Y-34299372D01*
X37908159Y-34073130D01*
X38234582Y-33819064D01*
X38538910Y-33538910D01*
X38819064Y-33234582D01*
X39073130Y-32908159D01*
X39299372Y-32561869D01*
X39496245Y-32198080D01*
X39662404Y-31819276D01*
X39796714Y-31428044D01*
X39898258Y-31027057D01*
X39966341Y-30619054D01*
X40000500Y-30206822D01*
X40000500Y-30000000D01*
X40000500Y-29999500D01*
X40000500Y-27004065D01*
X40000765Y-26995956D01*
X40005992Y-26916193D01*
X40018709Y-26738407D01*
X40020771Y-26723099D01*
X40042955Y-26611573D01*
X40043364Y-26609606D01*
X40073788Y-26469749D01*
X40077519Y-26456305D01*
X40116243Y-26342230D01*
X40117404Y-26338967D01*
X40165068Y-26211177D01*
X40170017Y-26199713D01*
X40224481Y-26089272D01*
X40226777Y-26084851D01*
X40290855Y-25967501D01*
X40296562Y-25958075D01*
X40365639Y-25854694D01*
X40369425Y-25849344D01*
X40448850Y-25743246D01*
X40454823Y-25735878D01*
X40537161Y-25641989D01*
X40542648Y-25636131D01*
X40636131Y-25542648D01*
X40641989Y-25537161D01*
X40735878Y-25454823D01*
X40743246Y-25448850D01*
X40849344Y-25369425D01*
X40854694Y-25365639D01*
X40958075Y-25296562D01*
X40967501Y-25290855D01*
X41084851Y-25226777D01*
X41089272Y-25224481D01*
X41199713Y-25170017D01*
X41211177Y-25165068D01*
X41338967Y-25117404D01*
X41342230Y-25116243D01*
X41456305Y-25077519D01*
X41469749Y-25073788D01*
X41609606Y-25043364D01*
X41611573Y-25042955D01*
X41723099Y-25020771D01*
X41738407Y-25018709D01*
X41916193Y-25005992D01*
X41995957Y-25000764D01*
X42004065Y-25000500D01*
X49876000Y-25000500D01*
X49938000Y-25017113D01*
G37*
%TD.AperFunction*%
%TD*%
M02*
