M48
; DRILL file {KiCad (7.0.0)} date Tue Jun 27 20:49:37 2023
; FORMAT={-:-/ absolute / inch / decimal}
; #@! TF.CreationDate,2023-06-27T20:49:37+12:00
; #@! TF.GenerationSoftware,Kicad,Pcbnew,(7.0.0)
; #@! TF.FileFunction,Plated,1,4,PTH
FMAT,2
INCH
; #@! TA.AperFunction,Plated,PTH,ViaDrill
T1C0.0118
; #@! TA.AperFunction,Plated,PTH,ViaDrill
T2C0.0157
; #@! TA.AperFunction,Plated,PTH,ComponentDrill
T3C0.0197
; #@! TA.AperFunction,Plated,PTH,ComponentDrill
T4C0.0276
; #@! TA.AperFunction,Plated,PTH,ComponentDrill
T5C0.0315
; #@! TA.AperFunction,Plated,PTH,ComponentDrill
T6C0.0394
; #@! TA.AperFunction,Plated,PTH,ComponentDrill
T7C0.0472
; #@! TA.AperFunction,Plated,PTH,ComponentDrill
T8C0.0866
; #@! TA.AperFunction,Plated,PTH,ComponentDrill
T9C0.1063
; #@! TA.AperFunction,Plated,PTH,ComponentDrill
T10C0.1260
%
G90
G05
T1
X1.3413Y-3.3756
X1.3413Y-3.5055
X1.3559Y-3.6657
X1.3827Y-3.7791
X1.3839Y-3.7165
X1.4173Y-3.6654
X1.4437Y-3.5059
X1.4441Y-3.376
X1.4587Y-3.1654
X1.498Y-2.935
X1.4988Y-3.1055
X1.5004Y-3.3913
X1.5016Y-3.5059
X1.502Y-3.3343
X1.5307Y-2.7846
X1.6291Y-2.9346
X1.6323Y-3.1634
X1.6882Y-3.1634
X1.6886Y-2.9343
X1.6886Y-3.3925
X1.7051Y-3.5858
X1.728Y-2.2602
X1.7382Y-2.5201
X1.7496Y-3.0685
X1.75Y-2.935
X1.75Y-3.1654
X1.75Y-3.298
X1.75Y-3.3937
X1.7839Y-2.4374
X1.7943Y-2.3675
X2.3854Y-3.5748
X2.4213Y-3.5748
X2.7031Y-3.5343
X2.8169Y-3.6398
X2.9803Y-3.7244
X3.0197Y-2.8012
X3.0213Y-3.4823
X3.0276Y-3.7402
X3.1201Y-2.8012
X3.1201Y-3.5394
X3.1378Y-3.6378
X3.374Y-2.8071
X3.374Y-2.8976
X3.5433Y-2.8337
X3.6638Y-3.5039
X3.6831Y-3.6398
X3.8071Y-3.5039
X3.8346Y-2.8661
X3.8465Y-2.7795
X3.8465Y-2.8071
X4.0354Y-3.8661
X4.3264Y-3.7445
X4.3272Y-4.0535
X4.361Y-3.6165
X4.361Y-3.6665
X4.361Y-4.026
X4.3614Y-3.9256
X4.3614Y-3.9756
X4.3618Y-3.7169
X4.4291Y-4.2673
X4.4882Y-4.2673
X4.5142Y-3.685
X4.5169Y-3.9921
X4.5472Y-4.2677
X4.5783Y-3.5575
X4.5945Y-3.4882
X4.5965Y-2.8287
X4.622Y-2.0669
X4.6378Y-2.5787
X4.6654Y-4.2677
X4.6929Y-2.2795
X4.6969Y-3.4882
X4.7047Y-2.126
X4.7047Y-3.7165
X4.7209Y-3.8039
X4.7244Y-4.2677
X4.7591Y-3.4878
X4.7638Y-4.1693
X4.7717Y-2.5787
X4.7795Y-3.6457
X4.7811Y-3.5843
X4.7874Y-2.1732
X4.7874Y-2.2441
X4.8071Y-2.7953
X4.8685Y-2.4622
T2
X2.3701Y-3.752
X2.4094Y-3.752
X2.4488Y-3.752
X2.5197Y-2.4843
X2.5197Y-3.9685
X2.5354Y-3.9193
X2.5709Y-3.5787
X2.5748Y-2.4843
X2.626Y-4.0394
X2.6378Y-1.3839
X2.6378Y-1.4331
X2.6378Y-1.4823
X2.6378Y-1.5315
X3.7972Y-2.9134
T3
X1.0866Y-4.7244
X1.1143Y-4.6576
X1.1143Y-4.7912
X1.1811Y-4.6299
X1.1811Y-4.8189
X1.2479Y-4.6576
X1.2479Y-4.7912
X1.2756Y-4.7244
X4.6299Y-4.7244
X4.6576Y-4.6576
X4.6576Y-4.7912
X4.7244Y-4.6299
X4.7244Y-4.8189
X4.7912Y-4.6576
X4.7912Y-4.7912
X4.8189Y-4.7244
T4
X3.7008Y-3.0568
X3.7008Y-3.1568
X3.7008Y-3.2568
X3.7008Y-3.3568
T5
X1.55Y-3.7165
X1.65Y-3.7165
X1.75Y-3.7165
X4.5472Y-2.2425
X4.5472Y-2.3425
X4.5472Y-2.4425
T6
X1.1457Y-1.8835
X1.1457Y-1.9835
X1.1457Y-2.0835
X1.1457Y-2.1835
X1.1457Y-2.2835
X1.1457Y-2.3835
X1.1457Y-2.4835
X1.1457Y-2.5835
X1.1457Y-2.6835
T7
X2.9358Y-3.9898
X2.9358Y-4.2398
X3.1008Y-3.9898
X3.1008Y-4.2398
X3.2657Y-3.9898
X3.2657Y-4.2398
X3.4311Y-3.9898
X3.4311Y-4.2398
X3.5961Y-3.9898
X3.5961Y-4.2398
X3.761Y-3.9898
X3.761Y-4.2398
T8
X1.9685Y-1.7717
X3.3465Y-1.7717
X4.3307Y-1.7717
T9
X1.311Y-2.9173
X1.311Y-3.1142
T10
X1.1811Y-4.7244
X4.7244Y-4.7244
T0
M30
