%TF.GenerationSoftware,KiCad,Pcbnew,(7.0.0)*%
%TF.CreationDate,2023-08-02T13:30:23+12:00*%
%TF.ProjectId,VehicleJunctionBoxMotherboard_PCB,56656869-636c-4654-9a75-6e6374696f6e,V1.0*%
%TF.SameCoordinates,Original*%
%TF.FileFunction,Paste,Top*%
%TF.FilePolarity,Positive*%
%FSLAX46Y46*%
G04 Gerber Fmt 4.6, Leading zero omitted, Abs format (unit mm)*
G04 Created by KiCad (PCBNEW (7.0.0)) date 2023-08-02 13:30:23*
%MOMM*%
%LPD*%
G01*
G04 APERTURE LIST*
G04 Aperture macros list*
%AMRoundRect*
0 Rectangle with rounded corners*
0 $1 Rounding radius*
0 $2 $3 $4 $5 $6 $7 $8 $9 X,Y pos of 4 corners*
0 Add a 4 corners polygon primitive as box body*
4,1,4,$2,$3,$4,$5,$6,$7,$8,$9,$2,$3,0*
0 Add four circle primitives for the rounded corners*
1,1,$1+$1,$2,$3*
1,1,$1+$1,$4,$5*
1,1,$1+$1,$6,$7*
1,1,$1+$1,$8,$9*
0 Add four rect primitives between the rounded corners*
20,1,$1+$1,$2,$3,$4,$5,0*
20,1,$1+$1,$4,$5,$6,$7,0*
20,1,$1+$1,$6,$7,$8,$9,0*
20,1,$1+$1,$8,$9,$2,$3,0*%
G04 Aperture macros list end*
%ADD10RoundRect,0.200000X0.275000X-0.200000X0.275000X0.200000X-0.275000X0.200000X-0.275000X-0.200000X0*%
%ADD11R,2.000000X1.500000*%
%ADD12R,2.000000X3.800000*%
%ADD13RoundRect,0.249999X-0.450001X-1.425001X0.450001X-1.425001X0.450001X1.425001X-0.450001X1.425001X0*%
%ADD14RoundRect,0.225000X-0.225000X-0.250000X0.225000X-0.250000X0.225000X0.250000X-0.225000X0.250000X0*%
%ADD15RoundRect,0.200000X-0.275000X0.200000X-0.275000X-0.200000X0.275000X-0.200000X0.275000X0.200000X0*%
%ADD16RoundRect,0.225000X0.225000X0.250000X-0.225000X0.250000X-0.225000X-0.250000X0.225000X-0.250000X0*%
%ADD17RoundRect,0.250000X0.625000X-0.312500X0.625000X0.312500X-0.625000X0.312500X-0.625000X-0.312500X0*%
%ADD18R,3.200000X1.600000*%
%ADD19RoundRect,0.225000X-0.225000X-0.375000X0.225000X-0.375000X0.225000X0.375000X-0.225000X0.375000X0*%
%ADD20RoundRect,0.200000X0.200000X0.275000X-0.200000X0.275000X-0.200000X-0.275000X0.200000X-0.275000X0*%
%ADD21RoundRect,0.250000X0.625000X-0.375000X0.625000X0.375000X-0.625000X0.375000X-0.625000X-0.375000X0*%
%ADD22RoundRect,0.150000X-0.150000X0.512500X-0.150000X-0.512500X0.150000X-0.512500X0.150000X0.512500X0*%
%ADD23RoundRect,0.150000X-0.512500X-0.150000X0.512500X-0.150000X0.512500X0.150000X-0.512500X0.150000X0*%
%ADD24RoundRect,0.200000X-0.200000X-0.275000X0.200000X-0.275000X0.200000X0.275000X-0.200000X0.275000X0*%
%ADD25R,1.500000X1.500000*%
%ADD26R,0.750000X0.500000*%
%ADD27R,0.750000X0.400000*%
%ADD28RoundRect,0.218750X0.218750X0.256250X-0.218750X0.256250X-0.218750X-0.256250X0.218750X-0.256250X0*%
%ADD29RoundRect,0.250001X1.074999X-0.462499X1.074999X0.462499X-1.074999X0.462499X-1.074999X-0.462499X0*%
%ADD30RoundRect,0.225000X-0.250000X0.225000X-0.250000X-0.225000X0.250000X-0.225000X0.250000X0.225000X0*%
%ADD31RoundRect,0.218750X-0.218750X-0.256250X0.218750X-0.256250X0.218750X0.256250X-0.218750X0.256250X0*%
%ADD32R,0.640000X2.000000*%
%ADD33RoundRect,0.218750X-0.256250X0.218750X-0.256250X-0.218750X0.256250X-0.218750X0.256250X0.218750X0*%
%ADD34RoundRect,0.150000X0.150000X-0.587500X0.150000X0.587500X-0.150000X0.587500X-0.150000X-0.587500X0*%
%ADD35RoundRect,0.661019X-1.288981X-1.988981X1.288981X-1.988981X1.288981X1.988981X-1.288981X1.988981X0*%
%ADD36RoundRect,0.218750X0.256250X-0.218750X0.256250X0.218750X-0.256250X0.218750X-0.256250X-0.218750X0*%
%ADD37RoundRect,0.150000X-0.150000X0.587500X-0.150000X-0.587500X0.150000X-0.587500X0.150000X0.587500X0*%
%ADD38RoundRect,0.150000X0.512500X0.150000X-0.512500X0.150000X-0.512500X-0.150000X0.512500X-0.150000X0*%
%ADD39R,1.600000X3.200000*%
%ADD40RoundRect,0.150000X-0.587500X-0.150000X0.587500X-0.150000X0.587500X0.150000X-0.587500X0.150000X0*%
%ADD41RoundRect,0.225000X0.250000X-0.225000X0.250000X0.225000X-0.250000X0.225000X-0.250000X-0.225000X0*%
%ADD42RoundRect,0.250000X-0.850000X-0.350000X0.850000X-0.350000X0.850000X0.350000X-0.850000X0.350000X0*%
%ADD43RoundRect,0.250000X-1.275000X-1.125000X1.275000X-1.125000X1.275000X1.125000X-1.275000X1.125000X0*%
%ADD44RoundRect,0.100000X0.100000X-0.637500X0.100000X0.637500X-0.100000X0.637500X-0.100000X-0.637500X0*%
%ADD45RoundRect,0.150000X-0.150000X0.825000X-0.150000X-0.825000X0.150000X-0.825000X0.150000X0.825000X0*%
%ADD46R,1.905000X0.640000*%
%ADD47RoundRect,0.250000X-1.500000X-0.550000X1.500000X-0.550000X1.500000X0.550000X-1.500000X0.550000X0*%
%ADD48RoundRect,0.200000X-4.800000X0.800000X-4.800000X-0.800000X4.800000X-0.800000X4.800000X0.800000X0*%
G04 APERTURE END LIST*
D10*
%TO.C,R22*%
X118500000Y-107500000D03*
X118500000Y-105850000D03*
%TD*%
D11*
%TO.C,U1*%
X64399999Y-97549999D03*
X64399999Y-95249999D03*
D12*
X58099999Y-95249999D03*
D11*
X64399999Y-92949999D03*
%TD*%
D13*
%TO.C,R9*%
X70950000Y-45000000D03*
X77050000Y-45000000D03*
%TD*%
D14*
%TO.C,C11*%
X119225000Y-57000000D03*
X120775000Y-57000000D03*
%TD*%
D15*
%TO.C,R37*%
X76700000Y-71925000D03*
X76700000Y-73575000D03*
%TD*%
D16*
%TO.C,C6*%
X95575000Y-89000000D03*
X94025000Y-89000000D03*
%TD*%
D17*
%TO.C,R15*%
X119500000Y-47962500D03*
X119500000Y-45037500D03*
%TD*%
D18*
%TO.C,TP4*%
X120249999Y-59489999D03*
%TD*%
D17*
%TO.C,R13*%
X119500000Y-37962500D03*
X119500000Y-35037500D03*
%TD*%
D19*
%TO.C,D10*%
X81350000Y-71250000D03*
X84650000Y-71250000D03*
%TD*%
D16*
%TO.C,C12*%
X120275000Y-65490000D03*
X118725000Y-65490000D03*
%TD*%
D20*
%TO.C,R25*%
X113825000Y-90600000D03*
X112175000Y-90600000D03*
%TD*%
D15*
%TO.C,R18*%
X116750000Y-72675000D03*
X116750000Y-74325000D03*
%TD*%
D21*
%TO.C,F2*%
X67700000Y-97950000D03*
X67700000Y-95150000D03*
%TD*%
D22*
%TO.C,U8*%
X118950000Y-90362500D03*
X118000000Y-90362500D03*
X117050000Y-90362500D03*
X117050000Y-92637500D03*
X118950000Y-92637500D03*
%TD*%
D23*
%TO.C,U10*%
X43012500Y-63050000D03*
X43012500Y-64000000D03*
X43012500Y-64950000D03*
X45287500Y-64950000D03*
X45287500Y-63050000D03*
%TD*%
D15*
%TO.C,R27*%
X102500000Y-91675000D03*
X102500000Y-93325000D03*
%TD*%
%TO.C,R28*%
X102500000Y-99525000D03*
X102500000Y-101175000D03*
%TD*%
D24*
%TO.C,R17*%
X121425000Y-70980000D03*
X123075000Y-70980000D03*
%TD*%
D25*
%TO.C,Q4*%
X107199999Y-101199999D03*
X107199999Y-99499999D03*
X105499999Y-101199999D03*
X105499999Y-99499999D03*
D26*
X104094999Y-102254999D03*
X104094999Y-100984999D03*
X104094999Y-99714999D03*
X104094999Y-98444999D03*
D27*
X109899999Y-102254999D03*
X109899999Y-100984999D03*
X109899999Y-99714999D03*
X109899999Y-98444999D03*
%TD*%
D23*
%TO.C,U13*%
X42162500Y-88600000D03*
X42162500Y-89550000D03*
X42162500Y-90500000D03*
X44437500Y-90500000D03*
X44437500Y-88600000D03*
%TD*%
D20*
%TO.C,R26*%
X113825000Y-98400000D03*
X112175000Y-98400000D03*
%TD*%
D28*
%TO.C,D4*%
X123037500Y-69480000D03*
X121462500Y-69480000D03*
%TD*%
D17*
%TO.C,R16*%
X119500000Y-52962500D03*
X119500000Y-50037500D03*
%TD*%
D29*
%TO.C,L1*%
X93950000Y-73925000D03*
X93950000Y-70950000D03*
%TD*%
D20*
%TO.C,R43*%
X40512500Y-77350000D03*
X38862500Y-77350000D03*
%TD*%
D18*
%TO.C,TP3*%
X48999999Y-94499999D03*
%TD*%
D30*
%TO.C,C10*%
X117400000Y-50025000D03*
X117400000Y-51575000D03*
%TD*%
D10*
%TO.C,R23*%
X117000000Y-107500000D03*
X117000000Y-105850000D03*
%TD*%
D31*
%TO.C,D9*%
X112212500Y-99900000D03*
X113787500Y-99900000D03*
%TD*%
D30*
%TO.C,C19*%
X36000000Y-94425000D03*
X36000000Y-95975000D03*
%TD*%
D13*
%TO.C,R6*%
X95950000Y-45000000D03*
X102050000Y-45000000D03*
%TD*%
D18*
%TO.C,TP1*%
X122499999Y-50099999D03*
%TD*%
D15*
%TO.C,R10*%
X89950000Y-71175000D03*
X89950000Y-72825000D03*
%TD*%
D32*
%TO.C,U20*%
X79269999Y-78349999D03*
X76729999Y-78349999D03*
X76729999Y-84649999D03*
X77999999Y-84649999D03*
X79269999Y-84649999D03*
%TD*%
D30*
%TO.C,C15*%
X112500000Y-105900000D03*
X112500000Y-107450000D03*
%TD*%
D14*
%TO.C,C13*%
X119325000Y-87600000D03*
X120875000Y-87600000D03*
%TD*%
D24*
%TO.C,R30*%
X38887500Y-89050000D03*
X40537500Y-89050000D03*
%TD*%
%TO.C,R11*%
X72362500Y-92450000D03*
X74012500Y-92450000D03*
%TD*%
D10*
%TO.C,R7*%
X53750000Y-96075000D03*
X53750000Y-94425000D03*
%TD*%
D24*
%TO.C,R42*%
X38875000Y-74400000D03*
X40525000Y-74400000D03*
%TD*%
D20*
%TO.C,R39*%
X40525000Y-75850000D03*
X38875000Y-75850000D03*
%TD*%
D33*
%TO.C,D1*%
X55250000Y-94462500D03*
X55250000Y-96037500D03*
%TD*%
D14*
%TO.C,C2*%
X58100000Y-90800000D03*
X59650000Y-90800000D03*
%TD*%
D16*
%TO.C,C1*%
X63950000Y-90800000D03*
X62400000Y-90800000D03*
%TD*%
D34*
%TO.C,D3*%
X121550000Y-53937500D03*
X123450000Y-53937500D03*
X122500000Y-52062500D03*
%TD*%
D33*
%TO.C,D12*%
X92100000Y-93712500D03*
X92100000Y-95287500D03*
%TD*%
D35*
%TO.C,R3*%
X93300000Y-55750000D03*
X103300000Y-55750000D03*
%TD*%
D28*
%TO.C,D6*%
X81350000Y-93900000D03*
X79775000Y-93900000D03*
%TD*%
D14*
%TO.C,C4*%
X72412500Y-95350000D03*
X73962500Y-95350000D03*
%TD*%
D36*
%TO.C,D2*%
X91450000Y-72787500D03*
X91450000Y-71212500D03*
%TD*%
D35*
%TO.C,R1*%
X79300000Y-55750000D03*
X89300000Y-55750000D03*
%TD*%
%TO.C,R4*%
X93300000Y-63250000D03*
X103300000Y-63250000D03*
%TD*%
D37*
%TO.C,Q5*%
X68650000Y-91025000D03*
X66750000Y-91025000D03*
X67700000Y-92900000D03*
%TD*%
D17*
%TO.C,R12*%
X119500000Y-32962500D03*
X119500000Y-30037500D03*
%TD*%
D24*
%TO.C,R20*%
X116975000Y-94400000D03*
X118625000Y-94400000D03*
%TD*%
D10*
%TO.C,R5*%
X93550000Y-95350000D03*
X93550000Y-93700000D03*
%TD*%
D20*
%TO.C,R31*%
X43062500Y-57400000D03*
X41412500Y-57400000D03*
%TD*%
D30*
%TO.C,C16*%
X120000000Y-105900000D03*
X120000000Y-107450000D03*
%TD*%
D20*
%TO.C,R32*%
X46825000Y-58900000D03*
X45175000Y-58900000D03*
%TD*%
D17*
%TO.C,R14*%
X119500000Y-42962500D03*
X119500000Y-40037500D03*
%TD*%
D20*
%TO.C,R33*%
X74012500Y-93900000D03*
X72362500Y-93900000D03*
%TD*%
D24*
%TO.C,R24*%
X112175000Y-101400000D03*
X113825000Y-101400000D03*
%TD*%
D38*
%TO.C,U6*%
X77987500Y-95350000D03*
X77987500Y-94400000D03*
X77987500Y-93450000D03*
X75712500Y-93450000D03*
X75712500Y-95350000D03*
%TD*%
D39*
%TO.C,TP2*%
X43049999Y-68099999D03*
%TD*%
D14*
%TO.C,C25*%
X79225000Y-88900000D03*
X80775000Y-88900000D03*
%TD*%
D15*
%TO.C,R49*%
X79250000Y-71925000D03*
X79250000Y-73575000D03*
%TD*%
D31*
%TO.C,D5*%
X41450000Y-58900000D03*
X43025000Y-58900000D03*
%TD*%
D19*
%TO.C,D8*%
X81350000Y-73600000D03*
X84650000Y-73600000D03*
%TD*%
D14*
%TO.C,C5*%
X42887500Y-87050000D03*
X44437500Y-87050000D03*
%TD*%
D31*
%TO.C,D7*%
X112212500Y-92100000D03*
X113787500Y-92100000D03*
%TD*%
D16*
%TO.C,C3*%
X40487500Y-86150000D03*
X38937500Y-86150000D03*
%TD*%
D38*
%TO.C,U2*%
X122500000Y-63490000D03*
X122500000Y-62540000D03*
X122500000Y-61590000D03*
X120225000Y-61590000D03*
X120225000Y-63490000D03*
%TD*%
D32*
%TO.C,U7*%
X119269999Y-78349999D03*
X116729999Y-78349999D03*
X116729999Y-84649999D03*
X117999999Y-84649999D03*
X119269999Y-84649999D03*
%TD*%
D25*
%TO.C,Q3*%
X107199999Y-93349999D03*
X107199999Y-91649999D03*
X105499999Y-93349999D03*
X105499999Y-91649999D03*
D26*
X104094999Y-94404999D03*
X104094999Y-93134999D03*
X104094999Y-91864999D03*
X104094999Y-90594999D03*
D27*
X109899999Y-94404999D03*
X109899999Y-93134999D03*
X109899999Y-91864999D03*
X109899999Y-90594999D03*
%TD*%
D16*
%TO.C,C18*%
X36000000Y-92150000D03*
X34450000Y-92150000D03*
%TD*%
D24*
%TO.C,R29*%
X38887500Y-90500000D03*
X40537500Y-90500000D03*
%TD*%
D40*
%TO.C,D11*%
X53425000Y-101650000D03*
X53425000Y-103550000D03*
X55300000Y-102600000D03*
%TD*%
D41*
%TO.C,C20*%
X47050000Y-63470000D03*
X47050000Y-61920000D03*
%TD*%
D42*
%TO.C,Q1*%
X65000000Y-57220000D03*
D43*
X69625000Y-57975000D03*
X69625000Y-61025000D03*
X72975000Y-57975000D03*
X72975000Y-61025000D03*
D42*
X65000000Y-61780000D03*
%TD*%
D41*
%TO.C,C14*%
X120500000Y-92600000D03*
X120500000Y-91050000D03*
%TD*%
D24*
%TO.C,R8*%
X38887500Y-87600000D03*
X40537500Y-87600000D03*
%TD*%
%TO.C,R35*%
X79737500Y-95400000D03*
X81387500Y-95400000D03*
%TD*%
D44*
%TO.C,U12*%
X30825000Y-90262500D03*
X31475000Y-90262500D03*
X32125000Y-90262500D03*
X32775000Y-90262500D03*
X33425000Y-90262500D03*
X34075000Y-90262500D03*
X34725000Y-90262500D03*
X35375000Y-90262500D03*
X36025000Y-90262500D03*
X36675000Y-90262500D03*
X36675000Y-84537500D03*
X36025000Y-84537500D03*
X35375000Y-84537500D03*
X34725000Y-84537500D03*
X34075000Y-84537500D03*
X33425000Y-84537500D03*
X32775000Y-84537500D03*
X32125000Y-84537500D03*
X31475000Y-84537500D03*
X30825000Y-84537500D03*
%TD*%
D45*
%TO.C,U9*%
X119905000Y-98025000D03*
X118635000Y-98025000D03*
X117365000Y-98025000D03*
X116095000Y-98025000D03*
X116095000Y-102975000D03*
X117365000Y-102975000D03*
X118635000Y-102975000D03*
X119905000Y-102975000D03*
%TD*%
D46*
%TO.C,U15*%
X51152499Y-57594999D03*
X51152499Y-58864999D03*
X51152499Y-60134999D03*
X51152499Y-61404999D03*
X61847499Y-61404999D03*
X61847499Y-60134999D03*
X61847499Y-58864999D03*
X61847499Y-57594999D03*
%TD*%
D47*
%TO.C,C8*%
X58400000Y-102600000D03*
X64000000Y-102600000D03*
%TD*%
D30*
%TO.C,C7*%
X96450000Y-71225000D03*
X96450000Y-72775000D03*
%TD*%
%TO.C,C17*%
X114000000Y-105900000D03*
X114000000Y-107450000D03*
%TD*%
D10*
%TO.C,R21*%
X115500000Y-107500000D03*
X115500000Y-105850000D03*
%TD*%
D24*
%TO.C,R19*%
X112175000Y-93600000D03*
X113825000Y-93600000D03*
%TD*%
D35*
%TO.C,R2*%
X79300000Y-63250000D03*
X89300000Y-63250000D03*
%TD*%
D48*
%TO.C,HS1*%
X71300000Y-65700000D03*
X71300000Y-53300000D03*
%TD*%
D24*
%TO.C,R41*%
X38862500Y-78800000D03*
X40512500Y-78800000D03*
%TD*%
M02*
