%TF.GenerationSoftware,KiCad,Pcbnew,(7.0.0)*%
%TF.CreationDate,2023-06-27T20:18:47+12:00*%
%TF.ProjectId,VehicleCurrentSense_PCB,56656869-636c-4654-9375-7272656e7453,V1.0*%
%TF.SameCoordinates,Original*%
%TF.FileFunction,Other,Comment*%
%FSLAX46Y46*%
G04 Gerber Fmt 4.6, Leading zero omitted, Abs format (unit mm)*
G04 Created by KiCad (PCBNEW (7.0.0)) date 2023-06-27 20:18:47*
%MOMM*%
%LPD*%
G01*
G04 APERTURE LIST*
%ADD10C,0.150000*%
G04 APERTURE END LIST*
D10*
%TO.C,U7*%
X156238095Y-102166666D02*
X156714285Y-102166666D01*
X156142857Y-102452380D02*
X156476190Y-101452380D01*
X156476190Y-101452380D02*
X156809523Y-102452380D01*
X157142857Y-101785714D02*
X157142857Y-102452380D01*
X157142857Y-101880952D02*
X157190476Y-101833333D01*
X157190476Y-101833333D02*
X157285714Y-101785714D01*
X157285714Y-101785714D02*
X157428571Y-101785714D01*
X157428571Y-101785714D02*
X157523809Y-101833333D01*
X157523809Y-101833333D02*
X157571428Y-101928571D01*
X157571428Y-101928571D02*
X157571428Y-102452380D01*
X157904762Y-101785714D02*
X158285714Y-101785714D01*
X158047619Y-101452380D02*
X158047619Y-102309523D01*
X158047619Y-102309523D02*
X158095238Y-102404761D01*
X158095238Y-102404761D02*
X158190476Y-102452380D01*
X158190476Y-102452380D02*
X158285714Y-102452380D01*
X159000000Y-102404761D02*
X158904762Y-102452380D01*
X158904762Y-102452380D02*
X158714286Y-102452380D01*
X158714286Y-102452380D02*
X158619048Y-102404761D01*
X158619048Y-102404761D02*
X158571429Y-102309523D01*
X158571429Y-102309523D02*
X158571429Y-101928571D01*
X158571429Y-101928571D02*
X158619048Y-101833333D01*
X158619048Y-101833333D02*
X158714286Y-101785714D01*
X158714286Y-101785714D02*
X158904762Y-101785714D01*
X158904762Y-101785714D02*
X159000000Y-101833333D01*
X159000000Y-101833333D02*
X159047619Y-101928571D01*
X159047619Y-101928571D02*
X159047619Y-102023809D01*
X159047619Y-102023809D02*
X158571429Y-102119047D01*
X159476191Y-101785714D02*
X159476191Y-102452380D01*
X159476191Y-101880952D02*
X159523810Y-101833333D01*
X159523810Y-101833333D02*
X159619048Y-101785714D01*
X159619048Y-101785714D02*
X159761905Y-101785714D01*
X159761905Y-101785714D02*
X159857143Y-101833333D01*
X159857143Y-101833333D02*
X159904762Y-101928571D01*
X159904762Y-101928571D02*
X159904762Y-102452380D01*
X160380953Y-101785714D02*
X160380953Y-102452380D01*
X160380953Y-101880952D02*
X160428572Y-101833333D01*
X160428572Y-101833333D02*
X160523810Y-101785714D01*
X160523810Y-101785714D02*
X160666667Y-101785714D01*
X160666667Y-101785714D02*
X160761905Y-101833333D01*
X160761905Y-101833333D02*
X160809524Y-101928571D01*
X160809524Y-101928571D02*
X160809524Y-102452380D01*
X161714286Y-102452380D02*
X161714286Y-101928571D01*
X161714286Y-101928571D02*
X161666667Y-101833333D01*
X161666667Y-101833333D02*
X161571429Y-101785714D01*
X161571429Y-101785714D02*
X161380953Y-101785714D01*
X161380953Y-101785714D02*
X161285715Y-101833333D01*
X161714286Y-102404761D02*
X161619048Y-102452380D01*
X161619048Y-102452380D02*
X161380953Y-102452380D01*
X161380953Y-102452380D02*
X161285715Y-102404761D01*
X161285715Y-102404761D02*
X161238096Y-102309523D01*
X161238096Y-102309523D02*
X161238096Y-102214285D01*
X161238096Y-102214285D02*
X161285715Y-102119047D01*
X161285715Y-102119047D02*
X161380953Y-102071428D01*
X161380953Y-102071428D02*
X161619048Y-102071428D01*
X161619048Y-102071428D02*
X161714286Y-102023809D01*
%TO.C,H2*%
X118300000Y-87500000D02*
G75*
G03*
X118300000Y-87500000I-3200000J0D01*
G01*
%TD*%
M02*
