M48
; DRILL file {KiCad (7.0.0)} date Tue Jun 27 20:18:47 2023
; FORMAT={-:-/ absolute / inch / decimal}
; #@! TF.CreationDate,2023-06-27T20:18:47+12:00
; #@! TF.GenerationSoftware,Kicad,Pcbnew,(7.0.0)
; #@! TF.FileFunction,Plated,1,4,PTH
FMAT,2
INCH
; #@! TA.AperFunction,Plated,PTH,ComponentDrill
T1C0.0079
; #@! TA.AperFunction,Plated,PTH,ViaDrill
T2C0.0118
; #@! TA.AperFunction,Plated,PTH,ViaDrill
T3C0.0157
; #@! TA.AperFunction,Plated,PTH,ComponentDrill
T4C0.0197
; #@! TA.AperFunction,Plated,PTH,ComponentDrill
T5C0.0236
; #@! TA.AperFunction,Plated,PTH,ComponentDrill
T6C0.0315
; #@! TA.AperFunction,Plated,PTH,ComponentDrill
T7C0.0320
; #@! TA.AperFunction,Plated,PTH,ComponentDrill
T8C0.0335
; #@! TA.AperFunction,Plated,PTH,ComponentDrill
T9C0.0394
; #@! TA.AperFunction,Plated,PTH,ComponentDrill
T10C0.0630
; #@! TA.AperFunction,Plated,PTH,ComponentDrill
T11C0.1260
%
G90
G05
T1
X6.2266Y-3.5131
X6.2266Y-3.5731
X6.2566Y-3.4831
X6.2566Y-3.5431
X6.2566Y-3.6031
X6.2866Y-3.5131
X6.2866Y-3.5731
X6.3166Y-3.4831
X6.3166Y-3.5431
X6.3166Y-3.6031
X6.3467Y-3.5131
X6.3467Y-3.5731
T2
X4.9213Y-3.6122
X4.9921Y-3.6122
X5.1693Y-3.5768
X5.311Y-3.5748
X5.3583Y-3.9114
X5.3661Y-3.7953
X5.3937Y-3.6969
X5.4075Y-3.5374
X5.4213Y-3.3406
X5.4744Y-3.2677
X5.498Y-3.5394
X5.498Y-3.5984
X5.5472Y-3.374
X5.5512Y-3.7008
X5.5748Y-3.3012
X5.626Y-3.4803
X5.626Y-3.5394
X5.628Y-3.5984
X5.6398Y-3.374
X5.6496Y-3.6811
X5.6693Y-2.9862
X5.7126Y-3.1555
X5.7205Y-2.9843
X5.7697Y-2.7874
X5.7756Y-3.1555
X5.7795Y-3.563
X5.8346Y-3.8957
X5.8661Y-3.8327
X5.9154Y-3.878
X5.9213Y-2.9783
X5.9626Y-3.6339
X5.9626Y-3.6811
X5.9626Y-3.8327
X5.9646Y-3.1831
X5.9902Y-3.8642
X5.9921Y-3.0177
X6.0138Y-3.2421
X6.0866Y-3.7598
X6.1457Y-3.7618
X6.1457Y-3.8937
X6.4843Y-3.0827
X6.5571Y-3.8327
X6.6043Y-3.8681
X6.6516Y-3.8307
X6.6614Y-3.5315
X6.6634Y-3.5827
X6.7028Y-3.5571
X6.7303Y-3.378
X6.7303Y-3.439
X6.7402Y-3.0551
X6.7402Y-3.8228
X6.7461Y-2.9961
X6.7697Y-3.7323
X6.7717Y-3.8346
X6.8839Y-3.9193
X6.9409Y-3.2677
X6.9547Y-3.8346
X6.9744Y-3.2323
X7.0571Y-3.7264
X7.0571Y-3.7756
X7.0571Y-3.8268
X7.1122Y-3.5039
X7.1181Y-3.063
X7.1713Y-3.876
X7.1791Y-3.4094
X7.2224Y-3.876
X7.2382Y-3.7795
X7.2421Y-3.6929
X7.2539Y-3.061
X7.313Y-2.9567
X7.3307Y-3.6241
X7.3583Y-3.5591
X7.6319Y-2.7795
X7.6319Y-2.9449
T3
X6.7854Y-3.9154
X7.0079Y-2.9921
X7.0079Y-3.0315
X7.0472Y-2.9921
X7.0472Y-3.0315
X7.5315Y-2.8209
X7.5315Y-2.8563
X7.5315Y-2.8917
X7.7224Y-4.0118
T4
X4.437Y-3.4449
X4.4647Y-3.3781
X4.4647Y-3.5117
X4.5315Y-3.3504
X4.5315Y-3.5394
X4.5983Y-3.3781
X4.5983Y-3.5117
X4.626Y-3.4449
T6
X5.4961Y-4.0079
X5.5961Y-4.0079
X5.6961Y-4.0079
T7
X4.9213Y-3.4449
X4.9921Y-3.4449
X5.063Y-3.4449
X5.1339Y-3.4449
T8
X6.7598Y-3.97
X6.9567Y-3.97
T9
X5.4803Y-2.899
X5.4803Y-2.999
X7.4764Y-3.0449
X7.4764Y-3.1449
X7.4764Y-3.2449
X7.4764Y-3.3449
X7.4764Y-3.4449
X7.4764Y-3.5449
X7.4764Y-3.6449
X7.4764Y-3.7449
X7.4764Y-3.8449
T10
X4.811Y-3.0118
X5.0669Y-4.0157
T11
X4.5315Y-3.4449
T5
G00X6.7205Y-4.0901
M15
G01X6.7205Y-4.0625
M16
G05
G00X6.9961Y-4.0625
M15
G01X6.9961Y-4.0901
M16
G05
T0
M30
