%TF.GenerationSoftware,KiCad,Pcbnew,(7.0.0)*%
%TF.CreationDate,2023-06-27T20:18:46+12:00*%
%TF.ProjectId,VehicleCurrentSense_PCB,56656869-636c-4654-9375-7272656e7453,V1.0*%
%TF.SameCoordinates,Original*%
%TF.FileFunction,Paste,Top*%
%TF.FilePolarity,Positive*%
%FSLAX46Y46*%
G04 Gerber Fmt 4.6, Leading zero omitted, Abs format (unit mm)*
G04 Created by KiCad (PCBNEW (7.0.0)) date 2023-06-27 20:18:46*
%MOMM*%
%LPD*%
G01*
G04 APERTURE LIST*
G04 Aperture macros list*
%AMRoundRect*
0 Rectangle with rounded corners*
0 $1 Rounding radius*
0 $2 $3 $4 $5 $6 $7 $8 $9 X,Y pos of 4 corners*
0 Add a 4 corners polygon primitive as box body*
4,1,4,$2,$3,$4,$5,$6,$7,$8,$9,$2,$3,0*
0 Add four circle primitives for the rounded corners*
1,1,$1+$1,$2,$3*
1,1,$1+$1,$4,$5*
1,1,$1+$1,$6,$7*
1,1,$1+$1,$8,$9*
0 Add four rect primitives between the rounded corners*
20,1,$1+$1,$2,$3,$4,$5,0*
20,1,$1+$1,$4,$5,$6,$7,0*
20,1,$1+$1,$6,$7,$8,$9,0*
20,1,$1+$1,$8,$9,$2,$3,0*%
G04 Aperture macros list end*
%ADD10RoundRect,0.225000X-0.225000X-0.250000X0.225000X-0.250000X0.225000X0.250000X-0.225000X0.250000X0*%
%ADD11RoundRect,0.225000X-0.250000X0.225000X-0.250000X-0.225000X0.250000X-0.225000X0.250000X0.225000X0*%
%ADD12RoundRect,0.200000X0.200000X0.275000X-0.200000X0.275000X-0.200000X-0.275000X0.200000X-0.275000X0*%
%ADD13RoundRect,0.200000X-0.275000X0.200000X-0.275000X-0.200000X0.275000X-0.200000X0.275000X0.200000X0*%
%ADD14RoundRect,0.150000X0.150000X-0.825000X0.150000X0.825000X-0.150000X0.825000X-0.150000X-0.825000X0*%
%ADD15R,0.400000X0.650000*%
%ADD16RoundRect,0.150000X0.512500X0.150000X-0.512500X0.150000X-0.512500X-0.150000X0.512500X-0.150000X0*%
%ADD17RoundRect,0.250000X-1.000000X-0.650000X1.000000X-0.650000X1.000000X0.650000X-1.000000X0.650000X0*%
%ADD18R,1.500000X0.900000*%
%ADD19R,0.900000X1.500000*%
%ADD20R,1.050000X1.050000*%
%ADD21RoundRect,0.225000X0.225000X0.250000X-0.225000X0.250000X-0.225000X-0.250000X0.225000X-0.250000X0*%
%ADD22RoundRect,0.200000X-0.200000X-0.275000X0.200000X-0.275000X0.200000X0.275000X-0.200000X0.275000X0*%
%ADD23RoundRect,0.150000X-0.512500X-0.150000X0.512500X-0.150000X0.512500X0.150000X-0.512500X0.150000X0*%
%ADD24RoundRect,0.200000X0.275000X-0.200000X0.275000X0.200000X-0.275000X0.200000X-0.275000X-0.200000X0*%
%ADD25RoundRect,0.218750X0.218750X0.256250X-0.218750X0.256250X-0.218750X-0.256250X0.218750X-0.256250X0*%
%ADD26R,1.600000X3.200000*%
%ADD27RoundRect,0.218750X-0.256250X0.218750X-0.256250X-0.218750X0.256250X-0.218750X0.256250X0.218750X0*%
%ADD28RoundRect,0.150000X-0.825000X-0.150000X0.825000X-0.150000X0.825000X0.150000X-0.825000X0.150000X0*%
%ADD29RoundRect,0.250000X0.375000X0.625000X-0.375000X0.625000X-0.375000X-0.625000X0.375000X-0.625000X0*%
%ADD30RoundRect,0.218750X-0.218750X-0.256250X0.218750X-0.256250X0.218750X0.256250X-0.218750X0.256250X0*%
%ADD31R,3.200000X1.600000*%
%ADD32RoundRect,0.225000X0.250000X-0.225000X0.250000X0.225000X-0.250000X0.225000X-0.250000X-0.225000X0*%
%ADD33R,2.000000X1.500000*%
%ADD34R,2.000000X3.800000*%
%ADD35RoundRect,0.150000X0.587500X0.150000X-0.587500X0.150000X-0.587500X-0.150000X0.587500X-0.150000X0*%
%ADD36R,0.400000X1.350000*%
%ADD37R,1.500000X1.900000*%
G04 APERTURE END LIST*
D10*
%TO.C,C6*%
X140525000Y-89900000D03*
X142075000Y-89900000D03*
%TD*%
D11*
%TO.C,C12*%
X186900000Y-91325000D03*
X186900000Y-92875000D03*
%TD*%
D12*
%TO.C,R27*%
X146000000Y-92000000D03*
X144350000Y-92000000D03*
%TD*%
D13*
%TO.C,R1*%
X136200000Y-85675000D03*
X136200000Y-87325000D03*
%TD*%
D12*
%TO.C,R25*%
X142125000Y-96500000D03*
X140475000Y-96500000D03*
%TD*%
%TO.C,R9*%
X168625000Y-74600000D03*
X166975000Y-74600000D03*
%TD*%
D14*
%TO.C,U2*%
X143995000Y-77275000D03*
X145265000Y-77275000D03*
X146535000Y-77275000D03*
X147805000Y-77275000D03*
X147805000Y-72325000D03*
X146535000Y-72325000D03*
X145265000Y-72325000D03*
X143995000Y-72325000D03*
%TD*%
D13*
%TO.C,R16*%
X149400000Y-75675000D03*
X149400000Y-77325000D03*
%TD*%
D15*
%TO.C,Q1*%
X182649999Y-93049999D03*
X183299999Y-93049999D03*
X183949999Y-93049999D03*
X183949999Y-91149999D03*
X183299999Y-91149999D03*
X182649999Y-91149999D03*
%TD*%
D16*
%TO.C,U11*%
X142037500Y-86650000D03*
X142037500Y-85700000D03*
X142037500Y-84750000D03*
X139762500Y-84750000D03*
X139762500Y-86650000D03*
%TD*%
D17*
%TO.C,D2*%
X189900000Y-101900000D03*
X193900000Y-101900000D03*
%TD*%
D10*
%TO.C,C10*%
X169625000Y-93300000D03*
X171175000Y-93300000D03*
%TD*%
D18*
%TO.C,U7*%
X167749999Y-97334999D03*
X167749999Y-96064999D03*
X167749999Y-94794999D03*
X167749999Y-93524999D03*
X167749999Y-92254999D03*
X167749999Y-90984999D03*
X167749999Y-89714999D03*
X167749999Y-88444999D03*
X167749999Y-87174999D03*
X167749999Y-85904999D03*
X167749999Y-84634999D03*
X167749999Y-83364999D03*
X167749999Y-82094999D03*
X167749999Y-80824999D03*
D19*
X164709999Y-79574999D03*
X163439999Y-79574999D03*
X162169999Y-79574999D03*
X160899999Y-79574999D03*
X159629999Y-79574999D03*
X158359999Y-79574999D03*
X157089999Y-79574999D03*
X155819999Y-79574999D03*
X154549999Y-79574999D03*
X153279999Y-79574999D03*
D18*
X150249999Y-80824999D03*
X150249999Y-82094999D03*
X150249999Y-83364999D03*
X150249999Y-84634999D03*
X150249999Y-85904999D03*
X150249999Y-87174999D03*
X150249999Y-88444999D03*
X150249999Y-89714999D03*
X150249999Y-90984999D03*
X150249999Y-92254999D03*
X150249999Y-93524999D03*
X150249999Y-94794999D03*
X150249999Y-96064999D03*
X150249999Y-97334999D03*
D20*
X161204999Y-91519999D03*
X161204999Y-89994999D03*
X161204999Y-88469999D03*
X159679999Y-91519999D03*
X159679999Y-89994999D03*
X159679999Y-88469999D03*
X158154999Y-91519999D03*
X158154999Y-89994999D03*
X158154999Y-88469999D03*
%TD*%
D11*
%TO.C,C13*%
X171850000Y-85790000D03*
X171850000Y-87340000D03*
%TD*%
D21*
%TO.C,C7*%
X181875000Y-71150000D03*
X180325000Y-71150000D03*
%TD*%
D22*
%TO.C,R10*%
X169575000Y-94800000D03*
X171225000Y-94800000D03*
%TD*%
D10*
%TO.C,C20*%
X140525000Y-88400000D03*
X142075000Y-88400000D03*
%TD*%
D23*
%TO.C,U6*%
X136225000Y-88900000D03*
X136225000Y-89850000D03*
X136225000Y-90800000D03*
X138500000Y-90800000D03*
X138500000Y-88900000D03*
%TD*%
D22*
%TO.C,R21*%
X172275000Y-74600000D03*
X173925000Y-74600000D03*
%TD*%
D13*
%TO.C,R15*%
X149400000Y-72275000D03*
X149400000Y-73925000D03*
%TD*%
%TO.C,R13*%
X181150000Y-91275000D03*
X181150000Y-92925000D03*
%TD*%
D24*
%TO.C,R29*%
X140100000Y-83025000D03*
X140100000Y-81375000D03*
%TD*%
D21*
%TO.C,C15*%
X173875000Y-77600000D03*
X172325000Y-77600000D03*
%TD*%
D25*
%TO.C,D5*%
X173887500Y-76100000D03*
X172312500Y-76100000D03*
%TD*%
D12*
%TO.C,R11*%
X178825000Y-83000000D03*
X177175000Y-83000000D03*
%TD*%
D22*
%TO.C,R26*%
X144350000Y-95000000D03*
X146000000Y-95000000D03*
%TD*%
D26*
%TO.C,TP1*%
X193849999Y-72699999D03*
%TD*%
D21*
%TO.C,C17*%
X145950000Y-93500000D03*
X144400000Y-93500000D03*
%TD*%
D10*
%TO.C,C18*%
X144400000Y-90500000D03*
X145950000Y-90500000D03*
%TD*%
D27*
%TO.C,D6*%
X141600000Y-81412500D03*
X141600000Y-82987500D03*
%TD*%
D24*
%TO.C,R28*%
X148200000Y-101825000D03*
X148200000Y-100175000D03*
%TD*%
D28*
%TO.C,U9*%
X173900000Y-84660000D03*
X173900000Y-85930000D03*
X173900000Y-87200000D03*
X173900000Y-88470000D03*
X178850000Y-88470000D03*
X178850000Y-87200000D03*
X178850000Y-85930000D03*
X178850000Y-84660000D03*
%TD*%
D12*
%TO.C,R24*%
X137925000Y-93900000D03*
X136275000Y-93900000D03*
%TD*%
%TO.C,R22*%
X137925000Y-95400000D03*
X136275000Y-95400000D03*
%TD*%
D29*
%TO.C,F1*%
X189700000Y-73150000D03*
X186900000Y-73150000D03*
%TD*%
D30*
%TO.C,D3*%
X167012500Y-76100000D03*
X168587500Y-76100000D03*
%TD*%
D11*
%TO.C,C14*%
X184800000Y-73550000D03*
X184800000Y-75100000D03*
%TD*%
D23*
%TO.C,U10*%
X139837500Y-93050000D03*
X139837500Y-94000000D03*
X139837500Y-94950000D03*
X142112500Y-94950000D03*
X142112500Y-93050000D03*
%TD*%
D31*
%TO.C,TP4*%
X145699999Y-83099999D03*
%TD*%
%TO.C,TP3*%
X145699999Y-87699999D03*
%TD*%
D24*
%TO.C,R12*%
X185450000Y-92925000D03*
X185450000Y-91275000D03*
%TD*%
D21*
%TO.C,C16*%
X142075000Y-91400000D03*
X140525000Y-91400000D03*
%TD*%
D23*
%TO.C,U5*%
X173062500Y-96450000D03*
X173062500Y-97400000D03*
X173062500Y-98350000D03*
X175337500Y-98350000D03*
X175337500Y-97400000D03*
X175337500Y-96450000D03*
%TD*%
D32*
%TO.C,C19*%
X136080000Y-101775000D03*
X136080000Y-100225000D03*
%TD*%
D33*
%TO.C,U3*%
X182549999Y-77799999D03*
X182549999Y-75499999D03*
D34*
X176249999Y-75499999D03*
D33*
X182549999Y-73199999D03*
%TD*%
D21*
%TO.C,C4*%
X146675000Y-79300000D03*
X145125000Y-79300000D03*
%TD*%
D32*
%TO.C,C5*%
X137700000Y-87275000D03*
X137700000Y-85725000D03*
%TD*%
D21*
%TO.C,C11*%
X171175000Y-96200000D03*
X169625000Y-96200000D03*
%TD*%
D24*
%TO.C,R14*%
X184912500Y-87425000D03*
X184912500Y-85775000D03*
%TD*%
D35*
%TO.C,D4*%
X183100000Y-87550000D03*
X183100000Y-85650000D03*
X181225000Y-86600000D03*
%TD*%
D12*
%TO.C,R23*%
X137925000Y-92400000D03*
X136275000Y-92400000D03*
%TD*%
D36*
%TO.C,J2*%
X172899999Y-100837499D03*
X173549999Y-100837499D03*
X174199999Y-100837499D03*
X174849999Y-100837499D03*
X175499999Y-100837499D03*
D37*
X173199999Y-103537499D03*
X175199999Y-103537499D03*
%TD*%
D28*
%TO.C,U8*%
X180750000Y-94660000D03*
X180750000Y-95930000D03*
X180750000Y-97200000D03*
X180750000Y-98470000D03*
X180750000Y-99740000D03*
X180750000Y-101010000D03*
X180750000Y-102280000D03*
X180750000Y-103550000D03*
X185700000Y-103550000D03*
X185700000Y-102280000D03*
X185700000Y-101010000D03*
X185700000Y-99740000D03*
X185700000Y-98470000D03*
X185700000Y-97200000D03*
X185700000Y-95930000D03*
X185700000Y-94660000D03*
%TD*%
M02*
