%TF.GenerationSoftware,KiCad,Pcbnew,(7.0.0)*%
%TF.CreationDate,2023-06-27T20:18:47+12:00*%
%TF.ProjectId,VehicleCurrentSense_PCB,56656869-636c-4654-9375-7272656e7453,V1.0*%
%TF.SameCoordinates,Original*%
%TF.FileFunction,Copper,L4,Bot*%
%TF.FilePolarity,Positive*%
%FSLAX46Y46*%
G04 Gerber Fmt 4.6, Leading zero omitted, Abs format (unit mm)*
G04 Created by KiCad (PCBNEW (7.0.0)) date 2023-06-27 20:18:47*
%MOMM*%
%LPD*%
G01*
G04 APERTURE LIST*
G04 Aperture macros list*
%AMRoundRect*
0 Rectangle with rounded corners*
0 $1 Rounding radius*
0 $2 $3 $4 $5 $6 $7 $8 $9 X,Y pos of 4 corners*
0 Add a 4 corners polygon primitive as box body*
4,1,4,$2,$3,$4,$5,$6,$7,$8,$9,$2,$3,0*
0 Add four circle primitives for the rounded corners*
1,1,$1+$1,$2,$3*
1,1,$1+$1,$4,$5*
1,1,$1+$1,$6,$7*
1,1,$1+$1,$8,$9*
0 Add four rect primitives between the rounded corners*
20,1,$1+$1,$2,$3,$4,$5,0*
20,1,$1+$1,$4,$5,$6,$7,0*
20,1,$1+$1,$6,$7,$8,$9,0*
20,1,$1+$1,$8,$9,$2,$3,0*%
G04 Aperture macros list end*
%TA.AperFunction,ComponentPad*%
%ADD10R,1.700000X1.700000*%
%TD*%
%TA.AperFunction,ComponentPad*%
%ADD11O,1.700000X1.700000*%
%TD*%
%TA.AperFunction,HeatsinkPad*%
%ADD12C,0.600000*%
%TD*%
%TA.AperFunction,ComponentPad*%
%ADD13C,1.320800*%
%TD*%
%TA.AperFunction,ComponentPad*%
%ADD14C,2.108200*%
%TD*%
%TA.AperFunction,ComponentPad*%
%ADD15C,1.440000*%
%TD*%
%TA.AperFunction,ComponentPad*%
%ADD16O,1.200000X1.900000*%
%TD*%
%TA.AperFunction,ComponentPad*%
%ADD17C,1.450000*%
%TD*%
%TA.AperFunction,ComponentPad*%
%ADD18C,0.800000*%
%TD*%
%TA.AperFunction,ComponentPad*%
%ADD19C,6.400000*%
%TD*%
%TA.AperFunction,SMDPad,CuDef*%
%ADD20RoundRect,0.225000X-0.250000X0.225000X-0.250000X-0.225000X0.250000X-0.225000X0.250000X0.225000X0*%
%TD*%
%TA.AperFunction,SMDPad,CuDef*%
%ADD21RoundRect,0.200000X-0.275000X0.200000X-0.275000X-0.200000X0.275000X-0.200000X0.275000X0.200000X0*%
%TD*%
%TA.AperFunction,SMDPad,CuDef*%
%ADD22RoundRect,0.200000X0.275000X-0.200000X0.275000X0.200000X-0.275000X0.200000X-0.275000X-0.200000X0*%
%TD*%
%TA.AperFunction,ViaPad*%
%ADD23C,0.500000*%
%TD*%
%TA.AperFunction,ViaPad*%
%ADD24C,0.600000*%
%TD*%
%TA.AperFunction,ViaPad*%
%ADD25C,0.800000*%
%TD*%
%TA.AperFunction,Conductor*%
%ADD26C,0.300000*%
%TD*%
%TA.AperFunction,Conductor*%
%ADD27C,0.500000*%
%TD*%
%TA.AperFunction,Conductor*%
%ADD28C,0.200000*%
%TD*%
%TA.AperFunction,Conductor*%
%ADD29C,1.200000*%
%TD*%
G04 APERTURE END LIST*
D10*
%TO.P,J3,1,Pin_1*%
%TO.N,BSPD Test Current +*%
X139199999Y-76174999D03*
D11*
%TO.P,J3,2,Pin_2*%
%TO.N,BSPD Test Current -*%
X139199999Y-73634999D03*
%TD*%
D12*
%TO.P,U7,39,GND*%
%TO.N,GND*%
X161205000Y-90757500D03*
X161205000Y-89232500D03*
X160442500Y-91520000D03*
X160442500Y-89995000D03*
X160442500Y-88470000D03*
X159680000Y-90757500D03*
X159680000Y-89232500D03*
X158917500Y-91520000D03*
X158917500Y-89995000D03*
X158917500Y-88470000D03*
X158155000Y-90757500D03*
X158155000Y-89232500D03*
%TD*%
D13*
%TO.P,U1,1,+5V*%
%TO.N,+5V*%
X130399999Y-87500000D03*
%TO.P,U1,2,GND*%
%TO.N,GND*%
X128600000Y-87500000D03*
%TO.P,U1,3,OUTPUT*%
%TO.N,Net-(U1-OUTPUT)*%
X126799999Y-87500000D03*
%TO.P,U1,4,VREF*%
%TO.N,VREF*%
X125000000Y-87500000D03*
D14*
%TO.P,U1,5,CORE*%
%TO.N,GND*%
X122200000Y-76499999D03*
%TO.P,U1,6,NC*%
%TO.N,unconnected-(U1-NC-Pad6)*%
X128699999Y-101999999D03*
%TD*%
D10*
%TO.P,J1,1,Pin_1*%
%TO.N,+5V*%
X189899999Y-97659999D03*
D11*
%TO.P,J1,2,Pin_2*%
%TO.N,Local*%
X189899999Y-95119999D03*
%TO.P,J1,3,Pin_3*%
%TO.N,Upstream*%
X189899999Y-92579999D03*
%TO.P,J1,4,Pin_4*%
%TO.N,CAN-*%
X189899999Y-90039999D03*
%TO.P,J1,5,Pin_5*%
%TO.N,CAN+*%
X189899999Y-87499999D03*
%TO.P,J1,6,Pin_6*%
%TO.N,BSPD*%
X189899999Y-84959999D03*
%TO.P,J1,7,Pin_7*%
%TO.N,GND*%
X189899999Y-82419999D03*
%TO.P,J1,8,Pin_8*%
%TO.N,BSPD Test Current +*%
X189899999Y-79879999D03*
%TO.P,J1,9,Pin_9*%
%TO.N,BSPD Test Current -*%
X189899999Y-77339999D03*
%TD*%
D15*
%TO.P,RV2,1,1*%
%TO.N,Net-(R28-Pad1)*%
X144680000Y-101800000D03*
%TO.P,RV2,2,2*%
%TO.N,BSPD Threshold*%
X142140000Y-101800000D03*
%TO.P,RV2,3,3*%
%TO.N,+5V*%
X139600000Y-101800000D03*
%TD*%
D16*
%TO.P,J2,6*%
%TO.N,N/C*%
X170699999Y-103537499D03*
D17*
X171700000Y-100837500D03*
X176700000Y-100837500D03*
D16*
X177699999Y-103537499D03*
%TD*%
D18*
%TO.P,H2,1,1*%
%TO.N,GND*%
X112700000Y-87500000D03*
X113402944Y-85802944D03*
X113402944Y-89197056D03*
X115100000Y-85100000D03*
D19*
X115100000Y-87500000D03*
D18*
X115100000Y-89900000D03*
X116797056Y-85802944D03*
X116797056Y-89197056D03*
X117500000Y-87500000D03*
%TD*%
D20*
%TO.P,C3,1*%
%TO.N,+5V*%
X130400000Y-89325000D03*
%TO.P,C3,2*%
%TO.N,GND*%
X130400000Y-90875000D03*
%TD*%
D21*
%TO.P,R20,1*%
%TO.N,3V3 VREF*%
X156070000Y-96475000D03*
%TO.P,R20,2*%
%TO.N,GND*%
X156070000Y-98125000D03*
%TD*%
D22*
%TO.P,R19,1*%
%TO.N,VREF*%
X157580000Y-98125000D03*
%TO.P,R19,2*%
%TO.N,3V3 VREF*%
X157580000Y-96475000D03*
%TD*%
D20*
%TO.P,C2,1*%
%TO.N,Net-(U1-OUTPUT)*%
X126800000Y-89325000D03*
%TO.P,C2,2*%
%TO.N,GND*%
X126800000Y-90875000D03*
%TD*%
%TO.P,C1,1*%
%TO.N,VREF*%
X125000000Y-89325000D03*
%TO.P,C1,2*%
%TO.N,GND*%
X125000000Y-90875000D03*
%TD*%
D21*
%TO.P,R18,1*%
%TO.N,3V3 LEM_OUT*%
X153100000Y-96475000D03*
%TO.P,R18,2*%
%TO.N,GND*%
X153100000Y-98125000D03*
%TD*%
D22*
%TO.P,R17,1*%
%TO.N,LEM_OUT*%
X154580000Y-98125000D03*
%TO.P,R17,2*%
%TO.N,3V3 LEM_OUT*%
X154580000Y-96475000D03*
%TD*%
D23*
%TO.N,GND*%
X166550000Y-97350000D03*
X139650000Y-91400000D03*
X193850000Y-74800000D03*
X179250000Y-94650000D03*
X184250000Y-77750000D03*
X126800000Y-91750000D03*
X186900000Y-90400000D03*
X176300000Y-83000000D03*
X137000000Y-93900000D03*
X125000000Y-91750000D03*
X170250000Y-90350000D03*
X171200000Y-77600000D03*
X193850000Y-70600000D03*
X180800000Y-77800000D03*
X180650000Y-89000000D03*
X183450000Y-98450000D03*
X146800000Y-90500000D03*
X145300000Y-75800000D03*
X143250000Y-85700000D03*
X172000000Y-97400000D03*
X167750000Y-98250000D03*
X142900000Y-88400000D03*
X177150000Y-82100000D03*
X137700000Y-84850000D03*
X168950000Y-97300000D03*
X149000000Y-97350000D03*
X143500000Y-93500000D03*
X145100000Y-80150000D03*
X137350000Y-89850000D03*
X174850000Y-99550000D03*
X152750000Y-82350000D03*
X142900000Y-89900000D03*
X170950000Y-85800000D03*
X164700000Y-78300000D03*
X146550000Y-70800000D03*
X171200000Y-97100000D03*
X152200000Y-76650000D03*
X148200000Y-98950000D03*
X156100000Y-98900000D03*
X152150000Y-98150000D03*
X150250000Y-98500000D03*
X140900000Y-85700000D03*
X131300000Y-90850000D03*
X141000000Y-94000000D03*
X185750000Y-75100000D03*
X183850000Y-96000000D03*
X151450000Y-97350000D03*
X136100000Y-99350000D03*
X182350000Y-86600000D03*
%TO.N,VREF*%
X136300000Y-96400000D03*
%TO.N,LEM_OUT*%
X134900000Y-90800000D03*
X144000000Y-75850000D03*
D24*
%TO.N,+5V*%
X191300000Y-73450000D03*
X191300000Y-71650000D03*
D23*
X142950000Y-91400000D03*
X141600000Y-83850000D03*
X176650000Y-97400000D03*
X146700000Y-80150000D03*
D24*
X191300000Y-72550000D03*
D23*
X139650000Y-89900000D03*
D25*
%TO.N,+3V3*%
X179000000Y-76000000D03*
D23*
X171350000Y-76100000D03*
X182150000Y-98450000D03*
X150400000Y-75650000D03*
D25*
X178000000Y-77000000D03*
D23*
X171950000Y-94800000D03*
X186198783Y-92051352D03*
X170950000Y-87350000D03*
D25*
X179000000Y-77000000D03*
X178000000Y-76000000D03*
D24*
%TO.N,Net-(D2-A)*%
X172350000Y-99450000D03*
X196150000Y-101900000D03*
D23*
%TO.N,BSPD*%
X139050000Y-83000000D03*
%TO.N,Upstream*%
X169200000Y-89700000D03*
%TO.N,Local*%
X169250000Y-91000000D03*
%TO.N,IO0*%
X151500000Y-80850000D03*
X183950000Y-93800000D03*
%TO.N,3V3 LEM_OUT*%
X154600000Y-95500000D03*
%TO.N,3V3 VREF*%
X156100000Y-95550000D03*
%TO.N,TxD*%
X179250000Y-95900000D03*
X151450000Y-92300000D03*
%TO.N,RxD*%
X179250000Y-97200000D03*
X151450000Y-93500000D03*
%TD*%
D26*
%TO.N,VREF*%
X140350000Y-100450000D02*
X136300000Y-96400000D01*
X125000000Y-89325000D02*
X125000000Y-87500000D01*
X157580000Y-99920000D02*
X157050000Y-100450000D01*
X157050000Y-100450000D02*
X140350000Y-100450000D01*
X157580000Y-98125000D02*
X157580000Y-99920000D01*
%TO.N,LEM_OUT*%
X154580000Y-98820000D02*
X154580000Y-98125000D01*
X134900000Y-93800000D02*
X140650000Y-99550000D01*
X140650000Y-99550000D02*
X153850000Y-99550000D01*
X153850000Y-99550000D02*
X154580000Y-98820000D01*
X134900000Y-90800000D02*
X134900000Y-93800000D01*
X134900000Y-90800000D02*
X134900000Y-84950000D01*
X134900000Y-84950000D02*
X144000000Y-75850000D01*
%TO.N,+5V*%
X130400000Y-89325000D02*
X130399999Y-87500000D01*
D27*
%TO.N,Net-(D2-A)*%
X172350000Y-99450000D02*
X174950000Y-102050000D01*
X191540000Y-101900000D02*
X196150000Y-101900000D01*
X191390000Y-102050000D02*
X191540000Y-101900000D01*
X174950000Y-102050000D02*
X191390000Y-102050000D01*
D26*
%TO.N,BSPD*%
X187610000Y-84960000D02*
X189900000Y-84960000D01*
X147950000Y-83000000D02*
X151000000Y-79950000D01*
X139050000Y-83000000D02*
X147950000Y-83000000D01*
X182600000Y-79950000D02*
X187610000Y-84960000D01*
X151000000Y-79950000D02*
X182600000Y-79950000D01*
%TO.N,Upstream*%
X176975000Y-89700000D02*
X169200000Y-89700000D01*
X189900000Y-92580000D02*
X188080000Y-94400000D01*
X181675000Y-94400000D02*
X176975000Y-89700000D01*
X188080000Y-94400000D02*
X181675000Y-94400000D01*
%TO.N,Local*%
X189900000Y-95120000D02*
X181320000Y-95120000D01*
X181320000Y-95120000D02*
X177200000Y-91000000D01*
X177200000Y-91000000D02*
X169250000Y-91000000D01*
D28*
%TO.N,IO0*%
X183950000Y-93800000D02*
X183950000Y-82600000D01*
X182200000Y-80850000D02*
X151500000Y-80850000D01*
X183950000Y-82600000D02*
X182200000Y-80850000D01*
D26*
%TO.N,3V3 LEM_OUT*%
X154580000Y-95520000D02*
X154600000Y-95500000D01*
X154580000Y-96475000D02*
X154580000Y-95520000D01*
X153100000Y-96475000D02*
X154580000Y-96475000D01*
%TO.N,3V3 VREF*%
X156070000Y-96475000D02*
X157580000Y-96475000D01*
X156070000Y-96475000D02*
X156070000Y-95580000D01*
X156070000Y-95580000D02*
X156100000Y-95550000D01*
D29*
%TO.N,BSPD Test Current +*%
X141375000Y-74000000D02*
X139200000Y-76175000D01*
X185000000Y-80000000D02*
X179000000Y-74000000D01*
X189780000Y-80000000D02*
X185000000Y-80000000D01*
X179000000Y-74000000D02*
X141375000Y-74000000D01*
X189900000Y-79880000D02*
X189780000Y-80000000D01*
D26*
%TO.N,TxD*%
X151450000Y-92300000D02*
X175650000Y-92300000D01*
X175650000Y-92300000D02*
X179250000Y-95900000D01*
%TO.N,RxD*%
X175550000Y-93500000D02*
X151450000Y-93500000D01*
X179250000Y-97200000D02*
X175550000Y-93500000D01*
D29*
%TO.N,BSPD Test Current -*%
X180000000Y-72000000D02*
X140835000Y-72000000D01*
X189900000Y-77340000D02*
X185340000Y-77340000D01*
X185340000Y-77340000D02*
X180000000Y-72000000D01*
X140835000Y-72000000D02*
X139200000Y-73635000D01*
D26*
%TO.N,Net-(U1-OUTPUT)*%
X126800000Y-89325000D02*
X126799999Y-87500000D01*
%TD*%
%TA.AperFunction,Conductor*%
%TO.N,GND*%
G36*
X156258000Y-97891613D02*
G01*
X156303387Y-97937000D01*
X156320000Y-97999000D01*
X156320000Y-99008673D01*
X156323450Y-99021548D01*
X156336326Y-99024999D01*
X156398753Y-99024999D01*
X156404386Y-99024743D01*
X156465570Y-99019184D01*
X156478369Y-99016638D01*
X156627232Y-98970251D01*
X156640820Y-98964135D01*
X156741350Y-98903364D01*
X156803627Y-98885495D01*
X156866416Y-98901475D01*
X156912574Y-98946941D01*
X156929500Y-99009481D01*
X156929500Y-99599192D01*
X156920061Y-99646645D01*
X156893181Y-99686873D01*
X156816873Y-99763181D01*
X156776645Y-99790061D01*
X156729192Y-99799500D01*
X154819808Y-99799500D01*
X154763513Y-99785985D01*
X154719490Y-99748385D01*
X154697335Y-99694898D01*
X154701877Y-99637182D01*
X154732127Y-99587819D01*
X154982646Y-99337299D01*
X154991289Y-99329434D01*
X154991349Y-99329384D01*
X154997940Y-99325202D01*
X155045897Y-99274131D01*
X155048515Y-99271429D01*
X155068911Y-99251035D01*
X155071610Y-99247554D01*
X155079174Y-99238695D01*
X155110448Y-99205393D01*
X155120674Y-99186790D01*
X155131346Y-99170542D01*
X155144362Y-99153764D01*
X155162492Y-99111866D01*
X155167632Y-99101375D01*
X155171369Y-99094578D01*
X155189627Y-99061368D01*
X155194906Y-99040803D01*
X155201208Y-99022399D01*
X155209636Y-99002926D01*
X155211700Y-98989892D01*
X155235189Y-98934598D01*
X155281916Y-98896834D01*
X155340911Y-98885467D01*
X155398324Y-98903167D01*
X155499179Y-98964135D01*
X155512767Y-98970251D01*
X155661627Y-99016638D01*
X155674431Y-99019184D01*
X155735615Y-99024744D01*
X155741244Y-99025000D01*
X155803674Y-99025000D01*
X155816549Y-99021549D01*
X155820000Y-99008674D01*
X155820000Y-97999000D01*
X155836613Y-97937000D01*
X155882000Y-97891613D01*
X155944000Y-97875000D01*
X156196000Y-97875000D01*
X156258000Y-97891613D01*
G37*
%TD.AperFunction*%
%TA.AperFunction,Conductor*%
G36*
X184712818Y-83001877D02*
G01*
X184762181Y-83032127D01*
X187092694Y-85362640D01*
X187100554Y-85371277D01*
X187100619Y-85371356D01*
X187104798Y-85377940D01*
X187110481Y-85383277D01*
X187110483Y-85383279D01*
X187155832Y-85425864D01*
X187158626Y-85428572D01*
X187178965Y-85448911D01*
X187182036Y-85451293D01*
X187182437Y-85451604D01*
X187191323Y-85459192D01*
X187224607Y-85490448D01*
X187231438Y-85494203D01*
X187231439Y-85494204D01*
X187243204Y-85500672D01*
X187259469Y-85511356D01*
X187270069Y-85519579D01*
X187270072Y-85519581D01*
X187276236Y-85524362D01*
X187318128Y-85542490D01*
X187328620Y-85547630D01*
X187368632Y-85569627D01*
X187388455Y-85574716D01*
X187389193Y-85574906D01*
X187407594Y-85581205D01*
X187427074Y-85589635D01*
X187434780Y-85590855D01*
X187434782Y-85590856D01*
X187449211Y-85593141D01*
X187472166Y-85596776D01*
X187483582Y-85599140D01*
X187527823Y-85610500D01*
X187549046Y-85610500D01*
X187568444Y-85612026D01*
X187589405Y-85615347D01*
X187634859Y-85611050D01*
X187646530Y-85610500D01*
X188642278Y-85610500D01*
X188699535Y-85624511D01*
X188743853Y-85663377D01*
X188858395Y-85826961D01*
X188858401Y-85826968D01*
X188861505Y-85831401D01*
X189028599Y-85998495D01*
X189033032Y-86001599D01*
X189033038Y-86001604D01*
X189214158Y-86128425D01*
X189253024Y-86172743D01*
X189267035Y-86230000D01*
X189253024Y-86287257D01*
X189214159Y-86331575D01*
X189033041Y-86458395D01*
X189028599Y-86461505D01*
X189024775Y-86465328D01*
X189024769Y-86465334D01*
X188865334Y-86624769D01*
X188865328Y-86624775D01*
X188861505Y-86628599D01*
X188858402Y-86633029D01*
X188858399Y-86633034D01*
X188729073Y-86817731D01*
X188729068Y-86817738D01*
X188725965Y-86822171D01*
X188723677Y-86827077D01*
X188723675Y-86827081D01*
X188628386Y-87031427D01*
X188628383Y-87031432D01*
X188626097Y-87036337D01*
X188624698Y-87041557D01*
X188624694Y-87041569D01*
X188566337Y-87259365D01*
X188566335Y-87259371D01*
X188564937Y-87264592D01*
X188564465Y-87269977D01*
X188564465Y-87269982D01*
X188545351Y-87488457D01*
X188544341Y-87500000D01*
X188544813Y-87505395D01*
X188563442Y-87718327D01*
X188564937Y-87735408D01*
X188566336Y-87740630D01*
X188566337Y-87740634D01*
X188624694Y-87958430D01*
X188624697Y-87958438D01*
X188626097Y-87963663D01*
X188628385Y-87968570D01*
X188628386Y-87968572D01*
X188723678Y-88172927D01*
X188723681Y-88172933D01*
X188725965Y-88177830D01*
X188729064Y-88182257D01*
X188729066Y-88182259D01*
X188858399Y-88366966D01*
X188858402Y-88366970D01*
X188861505Y-88371401D01*
X189028599Y-88538495D01*
X189033032Y-88541599D01*
X189033038Y-88541604D01*
X189214158Y-88668425D01*
X189253024Y-88712743D01*
X189267035Y-88770000D01*
X189253024Y-88827257D01*
X189214159Y-88871575D01*
X189033041Y-88998395D01*
X189028599Y-89001505D01*
X189024775Y-89005328D01*
X189024769Y-89005334D01*
X188865334Y-89164769D01*
X188865328Y-89164775D01*
X188861505Y-89168599D01*
X188858402Y-89173029D01*
X188858399Y-89173034D01*
X188729073Y-89357731D01*
X188729068Y-89357738D01*
X188725965Y-89362171D01*
X188723677Y-89367077D01*
X188723675Y-89367081D01*
X188628386Y-89571427D01*
X188628383Y-89571432D01*
X188626097Y-89576337D01*
X188624698Y-89581557D01*
X188624694Y-89581569D01*
X188566337Y-89799365D01*
X188566335Y-89799371D01*
X188564937Y-89804592D01*
X188564465Y-89809977D01*
X188564465Y-89809982D01*
X188548112Y-89996896D01*
X188544341Y-90040000D01*
X188544813Y-90045395D01*
X188561277Y-90233581D01*
X188564937Y-90275408D01*
X188566336Y-90280630D01*
X188566337Y-90280634D01*
X188624694Y-90498430D01*
X188624697Y-90498438D01*
X188626097Y-90503663D01*
X188628385Y-90508570D01*
X188628386Y-90508572D01*
X188723678Y-90712927D01*
X188723681Y-90712933D01*
X188725965Y-90717830D01*
X188729064Y-90722257D01*
X188729066Y-90722259D01*
X188858399Y-90906966D01*
X188858402Y-90906970D01*
X188861505Y-90911401D01*
X189028599Y-91078495D01*
X189033032Y-91081599D01*
X189033038Y-91081604D01*
X189214158Y-91208425D01*
X189253024Y-91252743D01*
X189267035Y-91310000D01*
X189253024Y-91367257D01*
X189214159Y-91411575D01*
X189033041Y-91538395D01*
X189028599Y-91541505D01*
X189024775Y-91545328D01*
X189024769Y-91545334D01*
X188865334Y-91704769D01*
X188865328Y-91704775D01*
X188861505Y-91708599D01*
X188858402Y-91713029D01*
X188858399Y-91713034D01*
X188729073Y-91897731D01*
X188729068Y-91897738D01*
X188725965Y-91902171D01*
X188723677Y-91907077D01*
X188723675Y-91907081D01*
X188628386Y-92111427D01*
X188628383Y-92111432D01*
X188626097Y-92116337D01*
X188624698Y-92121557D01*
X188624694Y-92121569D01*
X188566337Y-92339365D01*
X188566335Y-92339371D01*
X188564937Y-92344592D01*
X188564465Y-92349977D01*
X188564465Y-92349982D01*
X188549394Y-92522242D01*
X188544341Y-92580000D01*
X188544813Y-92585395D01*
X188562509Y-92787665D01*
X188564937Y-92815408D01*
X188566334Y-92820625D01*
X188566337Y-92820637D01*
X188584384Y-92887989D01*
X188584384Y-92952175D01*
X188552290Y-93007762D01*
X187846873Y-93713181D01*
X187806645Y-93740061D01*
X187759192Y-93749500D01*
X184810372Y-93749500D01*
X184752433Y-93735131D01*
X184707921Y-93695355D01*
X184689408Y-93645471D01*
X184688641Y-93645647D01*
X184687310Y-93639816D01*
X184687152Y-93639390D01*
X184686313Y-93631941D01*
X184630456Y-93472310D01*
X184569505Y-93375308D01*
X184550500Y-93309337D01*
X184550500Y-92051352D01*
X185443534Y-92051352D01*
X185444314Y-92058275D01*
X185461689Y-92212487D01*
X185461690Y-92212494D01*
X185462470Y-92219411D01*
X185464769Y-92225982D01*
X185464770Y-92225985D01*
X185508158Y-92349982D01*
X185518327Y-92379042D01*
X185569910Y-92461135D01*
X185594644Y-92500500D01*
X185608306Y-92522242D01*
X185727893Y-92641829D01*
X185871093Y-92731808D01*
X186030724Y-92787665D01*
X186198783Y-92806601D01*
X186366842Y-92787665D01*
X186526473Y-92731808D01*
X186669673Y-92641829D01*
X186789260Y-92522242D01*
X186879239Y-92379042D01*
X186935096Y-92219411D01*
X186954032Y-92051352D01*
X186935096Y-91883293D01*
X186879239Y-91723662D01*
X186789260Y-91580462D01*
X186669673Y-91460875D01*
X186526473Y-91370896D01*
X186519907Y-91368598D01*
X186519904Y-91368597D01*
X186373416Y-91317339D01*
X186373413Y-91317338D01*
X186366842Y-91315039D01*
X186359925Y-91314259D01*
X186359918Y-91314258D01*
X186205706Y-91296883D01*
X186198783Y-91296103D01*
X186191860Y-91296883D01*
X186037647Y-91314258D01*
X186037638Y-91314259D01*
X186030724Y-91315039D01*
X186024154Y-91317337D01*
X186024149Y-91317339D01*
X185877661Y-91368597D01*
X185877655Y-91368599D01*
X185871093Y-91370896D01*
X185865202Y-91374597D01*
X185865201Y-91374598D01*
X185733793Y-91457167D01*
X185733788Y-91457170D01*
X185727893Y-91460875D01*
X185722968Y-91465799D01*
X185722964Y-91465803D01*
X185613234Y-91575533D01*
X185613230Y-91575537D01*
X185608306Y-91580462D01*
X185604601Y-91586357D01*
X185604598Y-91586362D01*
X185523653Y-91715186D01*
X185518327Y-91723662D01*
X185516030Y-91730224D01*
X185516028Y-91730230D01*
X185464770Y-91876718D01*
X185464770Y-91876719D01*
X185462470Y-91883293D01*
X185461690Y-91890207D01*
X185461689Y-91890216D01*
X185452440Y-91972310D01*
X185443534Y-92051352D01*
X184550500Y-92051352D01*
X184550500Y-83119808D01*
X184564015Y-83063513D01*
X184601615Y-83019490D01*
X184655102Y-82997335D01*
X184712818Y-83001877D01*
G37*
%TD.AperFunction*%
%TA.AperFunction,Conductor*%
G36*
X149697556Y-75117697D02*
G01*
X149743083Y-75164519D01*
X149758506Y-75227977D01*
X149739549Y-75290472D01*
X149723246Y-75316417D01*
X149723243Y-75316422D01*
X149719544Y-75322310D01*
X149717247Y-75328872D01*
X149717245Y-75328878D01*
X149665987Y-75475366D01*
X149665985Y-75475371D01*
X149663687Y-75481941D01*
X149662907Y-75488855D01*
X149662906Y-75488864D01*
X149650495Y-75599017D01*
X149644751Y-75650000D01*
X149645531Y-75656923D01*
X149662906Y-75811135D01*
X149662907Y-75811142D01*
X149663687Y-75818059D01*
X149665986Y-75824630D01*
X149665987Y-75824633D01*
X149703535Y-75931941D01*
X149719544Y-75977690D01*
X149809523Y-76120890D01*
X149929110Y-76240477D01*
X150072310Y-76330456D01*
X150231941Y-76386313D01*
X150400000Y-76405249D01*
X150568059Y-76386313D01*
X150727690Y-76330456D01*
X150870890Y-76240477D01*
X150990477Y-76120890D01*
X151003603Y-76100000D01*
X170594751Y-76100000D01*
X170595531Y-76106923D01*
X170612906Y-76261135D01*
X170612907Y-76261142D01*
X170613687Y-76268059D01*
X170615986Y-76274630D01*
X170615987Y-76274633D01*
X170661691Y-76405249D01*
X170669544Y-76427690D01*
X170759523Y-76570890D01*
X170879110Y-76690477D01*
X171022310Y-76780456D01*
X171181941Y-76836313D01*
X171350000Y-76855249D01*
X171518059Y-76836313D01*
X171677690Y-76780456D01*
X171820890Y-76690477D01*
X171940477Y-76570890D01*
X172030456Y-76427690D01*
X172086313Y-76268059D01*
X172105249Y-76100000D01*
X172086313Y-75931941D01*
X172030456Y-75772310D01*
X171940477Y-75629110D01*
X171820890Y-75509523D01*
X171677690Y-75419544D01*
X171671124Y-75417246D01*
X171671121Y-75417245D01*
X171524633Y-75365987D01*
X171524630Y-75365986D01*
X171518059Y-75363687D01*
X171511142Y-75362907D01*
X171511135Y-75362906D01*
X171376350Y-75347720D01*
X171349999Y-75337661D01*
X171323650Y-75347720D01*
X171188864Y-75362906D01*
X171188855Y-75362907D01*
X171181941Y-75363687D01*
X171175371Y-75365985D01*
X171175366Y-75365987D01*
X171028878Y-75417245D01*
X171028872Y-75417247D01*
X171022310Y-75419544D01*
X171016419Y-75423245D01*
X171016418Y-75423246D01*
X170885010Y-75505815D01*
X170885005Y-75505818D01*
X170879110Y-75509523D01*
X170874185Y-75514447D01*
X170874181Y-75514451D01*
X170764451Y-75624181D01*
X170764447Y-75624185D01*
X170759523Y-75629110D01*
X170755818Y-75635005D01*
X170755815Y-75635010D01*
X170673246Y-75766418D01*
X170669544Y-75772310D01*
X170667247Y-75778872D01*
X170667245Y-75778878D01*
X170615987Y-75925366D01*
X170615985Y-75925371D01*
X170613687Y-75931941D01*
X170612907Y-75938855D01*
X170612906Y-75938864D01*
X170603426Y-76023007D01*
X170594751Y-76100000D01*
X151003603Y-76100000D01*
X151080456Y-75977690D01*
X151136313Y-75818059D01*
X151155249Y-75650000D01*
X151136313Y-75481941D01*
X151080456Y-75322310D01*
X151060451Y-75290472D01*
X151041494Y-75227977D01*
X151056917Y-75164519D01*
X151102444Y-75117697D01*
X151165445Y-75100500D01*
X171309766Y-75100500D01*
X171350000Y-75110878D01*
X171390234Y-75100500D01*
X177324401Y-75100500D01*
X177384137Y-75115837D01*
X177429096Y-75158055D01*
X177448156Y-75216709D01*
X177436602Y-75277291D01*
X177403137Y-75317747D01*
X177404215Y-75318945D01*
X177399386Y-75323292D01*
X177394129Y-75327112D01*
X177389784Y-75331937D01*
X177389779Y-75331942D01*
X177271813Y-75462956D01*
X177271808Y-75462962D01*
X177267467Y-75467784D01*
X177264222Y-75473404D01*
X177264218Y-75473410D01*
X177176069Y-75626089D01*
X177176066Y-75626094D01*
X177172821Y-75631716D01*
X177170815Y-75637888D01*
X177170813Y-75637894D01*
X177116333Y-75805564D01*
X177116331Y-75805573D01*
X177114326Y-75811744D01*
X177113648Y-75818194D01*
X177113646Y-75818204D01*
X177102384Y-75925366D01*
X177094540Y-76000000D01*
X177095219Y-76006460D01*
X177113646Y-76181795D01*
X177113647Y-76181803D01*
X177114326Y-76188256D01*
X177116331Y-76194428D01*
X177116333Y-76194435D01*
X177165100Y-76344522D01*
X177172821Y-76368284D01*
X177176068Y-76373908D01*
X177176069Y-76373910D01*
X177213071Y-76437999D01*
X177229684Y-76499998D01*
X177213072Y-76561997D01*
X177176071Y-76626085D01*
X177176067Y-76626092D01*
X177172821Y-76631716D01*
X177170814Y-76637890D01*
X177170811Y-76637899D01*
X177116333Y-76805564D01*
X177116331Y-76805573D01*
X177114326Y-76811744D01*
X177113648Y-76818194D01*
X177113646Y-76818204D01*
X177106987Y-76881569D01*
X177094540Y-77000000D01*
X177095219Y-77006460D01*
X177113646Y-77181795D01*
X177113647Y-77181803D01*
X177114326Y-77188256D01*
X177116331Y-77194428D01*
X177116333Y-77194435D01*
X177137318Y-77259019D01*
X177172821Y-77368284D01*
X177176068Y-77373908D01*
X177176069Y-77373910D01*
X177263589Y-77525500D01*
X177267467Y-77532216D01*
X177394129Y-77672888D01*
X177547270Y-77784151D01*
X177720197Y-77861144D01*
X177905354Y-77900500D01*
X178088143Y-77900500D01*
X178094646Y-77900500D01*
X178279803Y-77861144D01*
X178449566Y-77785559D01*
X178500000Y-77774839D01*
X178550433Y-77785559D01*
X178720197Y-77861144D01*
X178905354Y-77900500D01*
X179088143Y-77900500D01*
X179094646Y-77900500D01*
X179279803Y-77861144D01*
X179452730Y-77784151D01*
X179605871Y-77672888D01*
X179732533Y-77532216D01*
X179827179Y-77368284D01*
X179885674Y-77188256D01*
X179905460Y-77000000D01*
X179885674Y-76811744D01*
X179867326Y-76755277D01*
X179864244Y-76689913D01*
X179894865Y-76632079D01*
X179950663Y-76597886D01*
X180016095Y-76596858D01*
X180072939Y-76629281D01*
X182531477Y-79087819D01*
X182561727Y-79137182D01*
X182566269Y-79194898D01*
X182544114Y-79248385D01*
X182500091Y-79285985D01*
X182443796Y-79299500D01*
X151081072Y-79299500D01*
X151069403Y-79298950D01*
X151069316Y-79298941D01*
X151061703Y-79297240D01*
X151053905Y-79297485D01*
X150991737Y-79299439D01*
X150987842Y-79299500D01*
X150959075Y-79299500D01*
X150955207Y-79299988D01*
X150955198Y-79299989D01*
X150954676Y-79300055D01*
X150943059Y-79300968D01*
X150905224Y-79302157D01*
X150905216Y-79302158D01*
X150897430Y-79302403D01*
X150889942Y-79304578D01*
X150889943Y-79304578D01*
X150877048Y-79308324D01*
X150858009Y-79312266D01*
X150844683Y-79313950D01*
X150844676Y-79313951D01*
X150836942Y-79314929D01*
X150829694Y-79317798D01*
X150829692Y-79317799D01*
X150794489Y-79331736D01*
X150783443Y-79335517D01*
X150747098Y-79346077D01*
X150747091Y-79346079D01*
X150739601Y-79348256D01*
X150732888Y-79352225D01*
X150732883Y-79352228D01*
X150721329Y-79359061D01*
X150703866Y-79367616D01*
X150691381Y-79372559D01*
X150691370Y-79372564D01*
X150684129Y-79375432D01*
X150677824Y-79380012D01*
X150677825Y-79380012D01*
X150647201Y-79402261D01*
X150637444Y-79408670D01*
X150604848Y-79427948D01*
X150604843Y-79427951D01*
X150598135Y-79431919D01*
X150592619Y-79437434D01*
X150592616Y-79437437D01*
X150583122Y-79446930D01*
X150568338Y-79459557D01*
X150557475Y-79467449D01*
X150557466Y-79467457D01*
X150551163Y-79472037D01*
X150546196Y-79478039D01*
X150546185Y-79478051D01*
X150522055Y-79507219D01*
X150514195Y-79515857D01*
X147716873Y-82313181D01*
X147676645Y-82340061D01*
X147629192Y-82349500D01*
X139461088Y-82349500D01*
X139395115Y-82330493D01*
X139383584Y-82323247D01*
X139383580Y-82323245D01*
X139377690Y-82319544D01*
X139371124Y-82317246D01*
X139371121Y-82317245D01*
X139224633Y-82265987D01*
X139224630Y-82265986D01*
X139218059Y-82263687D01*
X139211142Y-82262907D01*
X139211135Y-82262906D01*
X139056923Y-82245531D01*
X139050000Y-82244751D01*
X139043077Y-82245531D01*
X138888864Y-82262906D01*
X138888855Y-82262907D01*
X138881941Y-82263687D01*
X138875371Y-82265985D01*
X138875366Y-82265987D01*
X138816835Y-82286468D01*
X138751007Y-82290906D01*
X138692221Y-82260952D01*
X138657120Y-82205088D01*
X138655640Y-82139128D01*
X138688199Y-82081746D01*
X140619945Y-80150000D01*
X145944751Y-80150000D01*
X145945531Y-80156923D01*
X145962906Y-80311135D01*
X145962907Y-80311142D01*
X145963687Y-80318059D01*
X145965986Y-80324630D01*
X145965987Y-80324633D01*
X145995923Y-80410187D01*
X146019544Y-80477690D01*
X146109523Y-80620890D01*
X146229110Y-80740477D01*
X146372310Y-80830456D01*
X146531941Y-80886313D01*
X146700000Y-80905249D01*
X146868059Y-80886313D01*
X147027690Y-80830456D01*
X147170890Y-80740477D01*
X147290477Y-80620890D01*
X147380456Y-80477690D01*
X147436313Y-80318059D01*
X147455249Y-80150000D01*
X147436313Y-79981941D01*
X147380456Y-79822310D01*
X147290477Y-79679110D01*
X147170890Y-79559523D01*
X147027690Y-79469544D01*
X147021124Y-79467246D01*
X147021121Y-79467245D01*
X146874633Y-79415987D01*
X146874630Y-79415986D01*
X146868059Y-79413687D01*
X146861142Y-79412907D01*
X146861135Y-79412906D01*
X146706923Y-79395531D01*
X146700000Y-79394751D01*
X146693077Y-79395531D01*
X146538864Y-79412906D01*
X146538855Y-79412907D01*
X146531941Y-79413687D01*
X146525371Y-79415985D01*
X146525366Y-79415987D01*
X146378878Y-79467245D01*
X146378872Y-79467247D01*
X146372310Y-79469544D01*
X146366419Y-79473245D01*
X146366418Y-79473246D01*
X146235010Y-79555815D01*
X146235005Y-79555818D01*
X146229110Y-79559523D01*
X146224185Y-79564447D01*
X146224181Y-79564451D01*
X146114451Y-79674181D01*
X146114447Y-79674185D01*
X146109523Y-79679110D01*
X146105818Y-79685005D01*
X146105815Y-79685010D01*
X146097603Y-79698080D01*
X146019544Y-79822310D01*
X146017247Y-79828872D01*
X146017245Y-79828878D01*
X145965987Y-79975366D01*
X145965985Y-79975371D01*
X145963687Y-79981941D01*
X145962907Y-79988855D01*
X145962906Y-79988864D01*
X145948060Y-80120634D01*
X145944751Y-80150000D01*
X140619945Y-80150000D01*
X144172003Y-76597941D01*
X144218727Y-76568583D01*
X144327690Y-76530456D01*
X144470890Y-76440477D01*
X144590477Y-76320890D01*
X144680456Y-76177690D01*
X144736313Y-76018059D01*
X144755249Y-75850000D01*
X144736313Y-75681941D01*
X144680456Y-75522310D01*
X144590477Y-75379110D01*
X144523548Y-75312180D01*
X144493298Y-75262818D01*
X144488756Y-75205102D01*
X144510911Y-75151615D01*
X144554934Y-75114015D01*
X144611229Y-75100500D01*
X149634555Y-75100500D01*
X149697556Y-75117697D01*
G37*
%TD.AperFunction*%
%TA.AperFunction,Conductor*%
G36*
X195002562Y-70000605D02*
G01*
X195217600Y-70009500D01*
X195413455Y-70018052D01*
X195423330Y-70018881D01*
X195636706Y-70045479D01*
X195636793Y-70045490D01*
X195834945Y-70071577D01*
X195844192Y-70073153D01*
X196053521Y-70117044D01*
X196054765Y-70117312D01*
X196250386Y-70160680D01*
X196258901Y-70162889D01*
X196463665Y-70223850D01*
X196465325Y-70224359D01*
X196656696Y-70284698D01*
X196664453Y-70287431D01*
X196863363Y-70365046D01*
X196865513Y-70365911D01*
X197051024Y-70442752D01*
X197057972Y-70445886D01*
X197225903Y-70527982D01*
X197249587Y-70539561D01*
X197252383Y-70540972D01*
X197430420Y-70633652D01*
X197436636Y-70637118D01*
X197619793Y-70746255D01*
X197622929Y-70748187D01*
X197686491Y-70788681D01*
X197792282Y-70856078D01*
X197797710Y-70859741D01*
X197971184Y-70983599D01*
X197974616Y-70986140D01*
X198133912Y-71108372D01*
X198138567Y-71112126D01*
X198301226Y-71249891D01*
X198304838Y-71253072D01*
X198452925Y-71388769D01*
X198456807Y-71392486D01*
X198607512Y-71543191D01*
X198611232Y-71547076D01*
X198746921Y-71695155D01*
X198750107Y-71698772D01*
X198887872Y-71861431D01*
X198891626Y-71866086D01*
X199013858Y-72025382D01*
X199016399Y-72028814D01*
X199140257Y-72202288D01*
X199143920Y-72207716D01*
X199251800Y-72377052D01*
X199253743Y-72380205D01*
X199362880Y-72563362D01*
X199366346Y-72569578D01*
X199459026Y-72747615D01*
X199460437Y-72750411D01*
X199554099Y-72941997D01*
X199557260Y-72949005D01*
X199634051Y-73134395D01*
X199635008Y-73136774D01*
X199712559Y-73335523D01*
X199715302Y-73343309D01*
X199775602Y-73534554D01*
X199776186Y-73536460D01*
X199837105Y-73741084D01*
X199839321Y-73749627D01*
X199882671Y-73945166D01*
X199882971Y-73946559D01*
X199926844Y-74155802D01*
X199928422Y-74165062D01*
X199954459Y-74362829D01*
X199954568Y-74363677D01*
X199981114Y-74576641D01*
X199981948Y-74586570D01*
X199990513Y-74782728D01*
X199990525Y-74783013D01*
X199999394Y-74997438D01*
X199999500Y-75002562D01*
X199999500Y-99997438D01*
X199999394Y-100002563D01*
X199990525Y-100216987D01*
X199990513Y-100217271D01*
X199981948Y-100413428D01*
X199981114Y-100423357D01*
X199954568Y-100636321D01*
X199954459Y-100637169D01*
X199928422Y-100834936D01*
X199926844Y-100844196D01*
X199882971Y-101053439D01*
X199882671Y-101054832D01*
X199839321Y-101250371D01*
X199837105Y-101258914D01*
X199776186Y-101463538D01*
X199775602Y-101465444D01*
X199715302Y-101656689D01*
X199712559Y-101664475D01*
X199635008Y-101863224D01*
X199634051Y-101865603D01*
X199557260Y-102050993D01*
X199554099Y-102058001D01*
X199460437Y-102249587D01*
X199459026Y-102252383D01*
X199366346Y-102430420D01*
X199362880Y-102436636D01*
X199253743Y-102619793D01*
X199251800Y-102622946D01*
X199143920Y-102792282D01*
X199140257Y-102797710D01*
X199016399Y-102971184D01*
X199013858Y-102974616D01*
X198891626Y-103133912D01*
X198887872Y-103138567D01*
X198750107Y-103301226D01*
X198746908Y-103304858D01*
X198611254Y-103452899D01*
X198607512Y-103456807D01*
X198456807Y-103607512D01*
X198452899Y-103611254D01*
X198304858Y-103746908D01*
X198301226Y-103750107D01*
X198138567Y-103887872D01*
X198133912Y-103891626D01*
X197974616Y-104013858D01*
X197971184Y-104016399D01*
X197797710Y-104140257D01*
X197792282Y-104143920D01*
X197622946Y-104251800D01*
X197619793Y-104253743D01*
X197436636Y-104362880D01*
X197430420Y-104366346D01*
X197252383Y-104459026D01*
X197249587Y-104460437D01*
X197058001Y-104554099D01*
X197050993Y-104557260D01*
X196865603Y-104634051D01*
X196863224Y-104635008D01*
X196664475Y-104712559D01*
X196656689Y-104715302D01*
X196465444Y-104775602D01*
X196463538Y-104776186D01*
X196258914Y-104837105D01*
X196250371Y-104839321D01*
X196054832Y-104882671D01*
X196053439Y-104882971D01*
X195844196Y-104926844D01*
X195834936Y-104928422D01*
X195637169Y-104954459D01*
X195636321Y-104954568D01*
X195423357Y-104981114D01*
X195413428Y-104981948D01*
X195217381Y-104990508D01*
X195217097Y-104990520D01*
X195002563Y-104999394D01*
X194997438Y-104999500D01*
X178423547Y-104999500D01*
X178363603Y-104984048D01*
X178318598Y-104941543D01*
X178299749Y-104882579D01*
X178311754Y-104821850D01*
X178351617Y-104774495D01*
X178423952Y-104722986D01*
X178568986Y-104570878D01*
X178682613Y-104394072D01*
X178760725Y-104198957D01*
X178800500Y-103992585D01*
X178800500Y-103135075D01*
X178785528Y-102978282D01*
X178779994Y-102959435D01*
X178776941Y-102902483D01*
X178799704Y-102850190D01*
X178843466Y-102813616D01*
X178898971Y-102800500D01*
X191326293Y-102800500D01*
X191344264Y-102801809D01*
X191348160Y-102802379D01*
X191368023Y-102805289D01*
X191417368Y-102800972D01*
X191428176Y-102800500D01*
X191430100Y-102800500D01*
X191433709Y-102800500D01*
X191464550Y-102796894D01*
X191468031Y-102796539D01*
X191542797Y-102789999D01*
X191549653Y-102787726D01*
X191553043Y-102787027D01*
X191553375Y-102786973D01*
X191553728Y-102786873D01*
X191557071Y-102786080D01*
X191564255Y-102785241D01*
X191634760Y-102759579D01*
X191638118Y-102758412D01*
X191709334Y-102734814D01*
X191715486Y-102731018D01*
X191718607Y-102729564D01*
X191718929Y-102729430D01*
X191719238Y-102729258D01*
X191722315Y-102727712D01*
X191729117Y-102725237D01*
X191791806Y-102684005D01*
X191794780Y-102682110D01*
X191816101Y-102668959D01*
X191881195Y-102650500D01*
X195850028Y-102650500D01*
X195890982Y-102657457D01*
X195970745Y-102685368D01*
X196150000Y-102705565D01*
X196329255Y-102685368D01*
X196499522Y-102625789D01*
X196652262Y-102529816D01*
X196779816Y-102402262D01*
X196875789Y-102249522D01*
X196935368Y-102079255D01*
X196955565Y-101900000D01*
X196935368Y-101720745D01*
X196875789Y-101550478D01*
X196779816Y-101397738D01*
X196652262Y-101270184D01*
X196645555Y-101265970D01*
X196505412Y-101177912D01*
X196499522Y-101174211D01*
X196492959Y-101171914D01*
X196492956Y-101171913D01*
X196335824Y-101116930D01*
X196335819Y-101116928D01*
X196329255Y-101114632D01*
X196322335Y-101113852D01*
X196322334Y-101113852D01*
X196156923Y-101095215D01*
X196150000Y-101094435D01*
X196143077Y-101095215D01*
X195977665Y-101113852D01*
X195977662Y-101113852D01*
X195970745Y-101114632D01*
X195964182Y-101116928D01*
X195964175Y-101116930D01*
X195890983Y-101142542D01*
X195850028Y-101149500D01*
X191603707Y-101149500D01*
X191585736Y-101148191D01*
X191569126Y-101145758D01*
X191569124Y-101145757D01*
X191561977Y-101144711D01*
X191554784Y-101145340D01*
X191554778Y-101145340D01*
X191512631Y-101149028D01*
X191501824Y-101149500D01*
X191496291Y-101149500D01*
X191492730Y-101149916D01*
X191492715Y-101149917D01*
X191465501Y-101153098D01*
X191461916Y-101153464D01*
X191394393Y-101159371D01*
X191394385Y-101159372D01*
X191387203Y-101160001D01*
X191380352Y-101162270D01*
X191376935Y-101162976D01*
X191376619Y-101163027D01*
X191376295Y-101163119D01*
X191372913Y-101163920D01*
X191365745Y-101164759D01*
X191358968Y-101167225D01*
X191358957Y-101167228D01*
X191295231Y-101190421D01*
X191291831Y-101191603D01*
X191267425Y-101199691D01*
X191220666Y-101215186D01*
X191214526Y-101218972D01*
X191211356Y-101220450D01*
X191211061Y-101220571D01*
X191210780Y-101220729D01*
X191207663Y-101222294D01*
X191200883Y-101224763D01*
X191194855Y-101228727D01*
X191194852Y-101228729D01*
X191138228Y-101265970D01*
X191135193Y-101267903D01*
X191113905Y-101281035D01*
X191048803Y-101299500D01*
X178006539Y-101299500D01*
X177951695Y-101286712D01*
X177908163Y-101250987D01*
X177884922Y-101199691D01*
X177886764Y-101143407D01*
X177910089Y-101056354D01*
X177910090Y-101056351D01*
X177911492Y-101051119D01*
X177930181Y-100837500D01*
X177911492Y-100623881D01*
X177855992Y-100416753D01*
X177765368Y-100222410D01*
X177642373Y-100046755D01*
X177490745Y-99895127D01*
X177486314Y-99892024D01*
X177486310Y-99892021D01*
X177319520Y-99775233D01*
X177319518Y-99775231D01*
X177315091Y-99772132D01*
X177310194Y-99769848D01*
X177310188Y-99769845D01*
X177125653Y-99683795D01*
X177125646Y-99683792D01*
X177120747Y-99681508D01*
X177115520Y-99680107D01*
X177115519Y-99680107D01*
X176918851Y-99627409D01*
X176918841Y-99627407D01*
X176913619Y-99626008D01*
X176908227Y-99625536D01*
X176908220Y-99625535D01*
X176705395Y-99607791D01*
X176700000Y-99607319D01*
X176694605Y-99607791D01*
X176491779Y-99625535D01*
X176491770Y-99625536D01*
X176486381Y-99626008D01*
X176481160Y-99627406D01*
X176481148Y-99627409D01*
X176284480Y-99680107D01*
X176284475Y-99680108D01*
X176279253Y-99681508D01*
X176274357Y-99683790D01*
X176274346Y-99683795D01*
X176089820Y-99769842D01*
X176089816Y-99769844D01*
X176084910Y-99772132D01*
X176080477Y-99775235D01*
X176080470Y-99775240D01*
X175913690Y-99892021D01*
X175913685Y-99892024D01*
X175909255Y-99895127D01*
X175905431Y-99898950D01*
X175905425Y-99898956D01*
X175761456Y-100042925D01*
X175761450Y-100042931D01*
X175757627Y-100046755D01*
X175754524Y-100051185D01*
X175754521Y-100051190D01*
X175637740Y-100217970D01*
X175637735Y-100217977D01*
X175634632Y-100222410D01*
X175632344Y-100227316D01*
X175632342Y-100227320D01*
X175546295Y-100411846D01*
X175546290Y-100411857D01*
X175544008Y-100416753D01*
X175542608Y-100421975D01*
X175542607Y-100421980D01*
X175489909Y-100618648D01*
X175489906Y-100618660D01*
X175488508Y-100623881D01*
X175488036Y-100629270D01*
X175488035Y-100629279D01*
X175478488Y-100738412D01*
X175469819Y-100837500D01*
X175470291Y-100842895D01*
X175488035Y-101045720D01*
X175488036Y-101045727D01*
X175488508Y-101051119D01*
X175489908Y-101056346D01*
X175489910Y-101056354D01*
X175513236Y-101143407D01*
X175515078Y-101199691D01*
X175491837Y-101250987D01*
X175448305Y-101286712D01*
X175393461Y-101299500D01*
X175312230Y-101299500D01*
X175264777Y-101290061D01*
X175224549Y-101263181D01*
X173101970Y-99140602D01*
X173078016Y-99106843D01*
X173075789Y-99100478D01*
X172979816Y-98947738D01*
X172852262Y-98820184D01*
X172699522Y-98724211D01*
X172692959Y-98721914D01*
X172692956Y-98721913D01*
X172535824Y-98666930D01*
X172535819Y-98666928D01*
X172529255Y-98664632D01*
X172522335Y-98663852D01*
X172522334Y-98663852D01*
X172356923Y-98645215D01*
X172350000Y-98644435D01*
X172343077Y-98645215D01*
X172177665Y-98663852D01*
X172177662Y-98663852D01*
X172170745Y-98664632D01*
X172164182Y-98666928D01*
X172164175Y-98666930D01*
X172007043Y-98721913D01*
X172007036Y-98721915D01*
X172000478Y-98724211D01*
X171994590Y-98727910D01*
X171994587Y-98727912D01*
X171853638Y-98816476D01*
X171853633Y-98816479D01*
X171847738Y-98820184D01*
X171842813Y-98825108D01*
X171842809Y-98825112D01*
X171725112Y-98942809D01*
X171725108Y-98942813D01*
X171720184Y-98947738D01*
X171716479Y-98953633D01*
X171716476Y-98953638D01*
X171627912Y-99094587D01*
X171627910Y-99094590D01*
X171624211Y-99100478D01*
X171621915Y-99107036D01*
X171621913Y-99107043D01*
X171566930Y-99264175D01*
X171566928Y-99264182D01*
X171564632Y-99270745D01*
X171544435Y-99450000D01*
X171550036Y-99499712D01*
X171542799Y-99557454D01*
X171510017Y-99605536D01*
X171458909Y-99633368D01*
X171284480Y-99680107D01*
X171284475Y-99680108D01*
X171279253Y-99681508D01*
X171274357Y-99683790D01*
X171274346Y-99683795D01*
X171089820Y-99769842D01*
X171089816Y-99769844D01*
X171084910Y-99772132D01*
X171080477Y-99775235D01*
X171080470Y-99775240D01*
X170913690Y-99892021D01*
X170913685Y-99892024D01*
X170909255Y-99895127D01*
X170905431Y-99898950D01*
X170905425Y-99898956D01*
X170761456Y-100042925D01*
X170761450Y-100042931D01*
X170757627Y-100046755D01*
X170754524Y-100051185D01*
X170754521Y-100051190D01*
X170637740Y-100217970D01*
X170637735Y-100217977D01*
X170634632Y-100222410D01*
X170632344Y-100227316D01*
X170632342Y-100227320D01*
X170546295Y-100411846D01*
X170546290Y-100411857D01*
X170544008Y-100416753D01*
X170542608Y-100421975D01*
X170542607Y-100421980D01*
X170489909Y-100618648D01*
X170489906Y-100618660D01*
X170488508Y-100623881D01*
X170488036Y-100629270D01*
X170488035Y-100629279D01*
X170478488Y-100738412D01*
X170469819Y-100837500D01*
X170470291Y-100842895D01*
X170488035Y-101045720D01*
X170488036Y-101045727D01*
X170488508Y-101051119D01*
X170489907Y-101056341D01*
X170489909Y-101056351D01*
X170542063Y-101250987D01*
X170544008Y-101258247D01*
X170546292Y-101263146D01*
X170546295Y-101263153D01*
X170632345Y-101447688D01*
X170632348Y-101447694D01*
X170634632Y-101452591D01*
X170637731Y-101457018D01*
X170637733Y-101457020D01*
X170754521Y-101623810D01*
X170754524Y-101623814D01*
X170757627Y-101628245D01*
X170909255Y-101779873D01*
X171073310Y-101894746D01*
X171112016Y-101938761D01*
X171126183Y-101995638D01*
X171112643Y-102052667D01*
X171074422Y-102097106D01*
X171020060Y-102119025D01*
X170972424Y-102114536D01*
X170971953Y-102116480D01*
X170966212Y-102115087D01*
X170960633Y-102113156D01*
X170954794Y-102112316D01*
X170954788Y-102112315D01*
X170758441Y-102084085D01*
X170758435Y-102084084D01*
X170752602Y-102083246D01*
X170746716Y-102083526D01*
X170746710Y-102083526D01*
X170548567Y-102092965D01*
X170548565Y-102092965D01*
X170542670Y-102093246D01*
X170536942Y-102094635D01*
X170536932Y-102094637D01*
X170344160Y-102141404D01*
X170344155Y-102141405D01*
X170338424Y-102142796D01*
X170333054Y-102145247D01*
X170333052Y-102145249D01*
X170152621Y-102227649D01*
X170152614Y-102227652D01*
X170147247Y-102230104D01*
X170142437Y-102233528D01*
X170142432Y-102233532D01*
X169980865Y-102348583D01*
X169980859Y-102348587D01*
X169976048Y-102352014D01*
X169971974Y-102356286D01*
X169971969Y-102356291D01*
X169835088Y-102499848D01*
X169835082Y-102499855D01*
X169831014Y-102504122D01*
X169827822Y-102509088D01*
X169827821Y-102509090D01*
X169720582Y-102675955D01*
X169720578Y-102675962D01*
X169717387Y-102680928D01*
X169715195Y-102686403D01*
X169715190Y-102686413D01*
X169641469Y-102870560D01*
X169641466Y-102870569D01*
X169639275Y-102876043D01*
X169638158Y-102881834D01*
X169638156Y-102881844D01*
X169601747Y-103070756D01*
X169599500Y-103082415D01*
X169599500Y-103939925D01*
X169599779Y-103942854D01*
X169599780Y-103942860D01*
X169612219Y-104073130D01*
X169614472Y-104096718D01*
X169673684Y-104298375D01*
X169769989Y-104485182D01*
X169773642Y-104489827D01*
X169887814Y-104635008D01*
X169899908Y-104650386D01*
X169971659Y-104712559D01*
X170051552Y-104781787D01*
X170085900Y-104830512D01*
X170093541Y-104889635D01*
X170072707Y-104945491D01*
X170028216Y-104985170D01*
X169970349Y-104999500D01*
X125002562Y-104999500D01*
X124997437Y-104999394D01*
X124782901Y-104990520D01*
X124782617Y-104990508D01*
X124586570Y-104981948D01*
X124576641Y-104981114D01*
X124363677Y-104954568D01*
X124362829Y-104954459D01*
X124165062Y-104928422D01*
X124155802Y-104926844D01*
X123946559Y-104882971D01*
X123945166Y-104882671D01*
X123749627Y-104839321D01*
X123741084Y-104837105D01*
X123536460Y-104776186D01*
X123534554Y-104775602D01*
X123343309Y-104715302D01*
X123335523Y-104712559D01*
X123206985Y-104662404D01*
X123136734Y-104634991D01*
X123134395Y-104634051D01*
X122949005Y-104557260D01*
X122941997Y-104554099D01*
X122750411Y-104460437D01*
X122747615Y-104459026D01*
X122569578Y-104366346D01*
X122563362Y-104362880D01*
X122380205Y-104253743D01*
X122377052Y-104251800D01*
X122207716Y-104143920D01*
X122202288Y-104140257D01*
X122028814Y-104016399D01*
X122025382Y-104013858D01*
X121866086Y-103891626D01*
X121861431Y-103887872D01*
X121698772Y-103750107D01*
X121695155Y-103746921D01*
X121547076Y-103611232D01*
X121543191Y-103607512D01*
X121392486Y-103456807D01*
X121388769Y-103452925D01*
X121253072Y-103304838D01*
X121249891Y-103301226D01*
X121112126Y-103138567D01*
X121108372Y-103133912D01*
X120986140Y-102974616D01*
X120983599Y-102971184D01*
X120859741Y-102797710D01*
X120856078Y-102792282D01*
X120781969Y-102675955D01*
X120748187Y-102622929D01*
X120746255Y-102619793D01*
X120637118Y-102436636D01*
X120633652Y-102430420D01*
X120540972Y-102252383D01*
X120539561Y-102249587D01*
X120515563Y-102200498D01*
X120445886Y-102057972D01*
X120442752Y-102051024D01*
X120421617Y-101999999D01*
X127140592Y-101999999D01*
X127140974Y-102004853D01*
X127158971Y-102233532D01*
X127159791Y-102243944D01*
X127160926Y-102248673D01*
X127160927Y-102248677D01*
X127215777Y-102477145D01*
X127215779Y-102477153D01*
X127216915Y-102481882D01*
X127310557Y-102707955D01*
X127313104Y-102712112D01*
X127313105Y-102712113D01*
X127435865Y-102912440D01*
X127435870Y-102912447D01*
X127438412Y-102916595D01*
X127441572Y-102920294D01*
X127441575Y-102920299D01*
X127515240Y-103006549D01*
X127597332Y-103102666D01*
X127783403Y-103261586D01*
X127787553Y-103264129D01*
X127787557Y-103264132D01*
X127854016Y-103304858D01*
X127992043Y-103389441D01*
X128218116Y-103483083D01*
X128456054Y-103540207D01*
X128699999Y-103559406D01*
X128943944Y-103540207D01*
X129181882Y-103483083D01*
X129407955Y-103389441D01*
X129616595Y-103261586D01*
X129802666Y-103102666D01*
X129961586Y-102916595D01*
X130089441Y-102707955D01*
X130183083Y-102481882D01*
X130240207Y-102243944D01*
X130259406Y-101999999D01*
X130240207Y-101756054D01*
X130183083Y-101518116D01*
X130089441Y-101292043D01*
X130010380Y-101163027D01*
X129964132Y-101087557D01*
X129964129Y-101087553D01*
X129961586Y-101083403D01*
X129946817Y-101066111D01*
X129828827Y-100927963D01*
X129802666Y-100897332D01*
X129787224Y-100884143D01*
X129620299Y-100741575D01*
X129620294Y-100741572D01*
X129616595Y-100738412D01*
X129612447Y-100735870D01*
X129612440Y-100735865D01*
X129412113Y-100613105D01*
X129412112Y-100613104D01*
X129407955Y-100610557D01*
X129181882Y-100516915D01*
X129177153Y-100515779D01*
X129177145Y-100515777D01*
X128948677Y-100460927D01*
X128948673Y-100460926D01*
X128943944Y-100459791D01*
X128939091Y-100459409D01*
X128704853Y-100440974D01*
X128699999Y-100440592D01*
X128695145Y-100440974D01*
X128460906Y-100459409D01*
X128460904Y-100459409D01*
X128456054Y-100459791D01*
X128451326Y-100460925D01*
X128451320Y-100460927D01*
X128222852Y-100515777D01*
X128222840Y-100515780D01*
X128218116Y-100516915D01*
X128213619Y-100518777D01*
X128213615Y-100518779D01*
X127996547Y-100608691D01*
X127996542Y-100608693D01*
X127992043Y-100610557D01*
X127987890Y-100613101D01*
X127987884Y-100613105D01*
X127787557Y-100735865D01*
X127787544Y-100735874D01*
X127783403Y-100738412D01*
X127779708Y-100741567D01*
X127779698Y-100741575D01*
X127601032Y-100894171D01*
X127601025Y-100894177D01*
X127597332Y-100897332D01*
X127594177Y-100901025D01*
X127594171Y-100901032D01*
X127441575Y-101079698D01*
X127441567Y-101079708D01*
X127438412Y-101083403D01*
X127435874Y-101087544D01*
X127435865Y-101087557D01*
X127313105Y-101287884D01*
X127313101Y-101287890D01*
X127310557Y-101292043D01*
X127308693Y-101296542D01*
X127308691Y-101296547D01*
X127238732Y-101465444D01*
X127216915Y-101518116D01*
X127215780Y-101522840D01*
X127215777Y-101522852D01*
X127160927Y-101751320D01*
X127160925Y-101751326D01*
X127159791Y-101756054D01*
X127159409Y-101760904D01*
X127159409Y-101760906D01*
X127147917Y-101906923D01*
X127140592Y-101999999D01*
X120421617Y-101999999D01*
X120365911Y-101865513D01*
X120365046Y-101863363D01*
X120287431Y-101664453D01*
X120284696Y-101656689D01*
X120224359Y-101465325D01*
X120223850Y-101463665D01*
X120162889Y-101258901D01*
X120160680Y-101250386D01*
X120117312Y-101054765D01*
X120117027Y-101053439D01*
X120114407Y-101040945D01*
X120073153Y-100844192D01*
X120071576Y-100834936D01*
X120045490Y-100636793D01*
X120045483Y-100636743D01*
X120018881Y-100423330D01*
X120018052Y-100413455D01*
X120009486Y-100217271D01*
X120000605Y-100002562D01*
X120000500Y-99997439D01*
X120000500Y-97295748D01*
X120000500Y-97293178D01*
X119966341Y-96880946D01*
X119898258Y-96472943D01*
X119796714Y-96071956D01*
X119662404Y-95680724D01*
X119496245Y-95301920D01*
X119429658Y-95178878D01*
X119300592Y-94940385D01*
X119300589Y-94940381D01*
X119299372Y-94938131D01*
X119073130Y-94591841D01*
X118819064Y-94265418D01*
X118817331Y-94263535D01*
X118817323Y-94263526D01*
X118540636Y-93962965D01*
X118538910Y-93961090D01*
X118522480Y-93945965D01*
X118236473Y-93682676D01*
X118236462Y-93682666D01*
X118234582Y-93680936D01*
X118180524Y-93638861D01*
X117910187Y-93428448D01*
X117910179Y-93428442D01*
X117908159Y-93426870D01*
X117906012Y-93425467D01*
X117906006Y-93425463D01*
X117641919Y-93252927D01*
X117561869Y-93200628D01*
X117559625Y-93199414D01*
X117559614Y-93199407D01*
X117200324Y-93004969D01*
X117200316Y-93004965D01*
X117198080Y-93003755D01*
X117195742Y-93002729D01*
X117195737Y-93002727D01*
X116821614Y-92838621D01*
X116821602Y-92838616D01*
X116819276Y-92837596D01*
X116816868Y-92836769D01*
X116816857Y-92836765D01*
X116430468Y-92704118D01*
X116430464Y-92704116D01*
X116428044Y-92703286D01*
X116425570Y-92702659D01*
X116425565Y-92702658D01*
X116029533Y-92602369D01*
X116029532Y-92602368D01*
X116027057Y-92601742D01*
X116024543Y-92601322D01*
X116024536Y-92601321D01*
X115621587Y-92534081D01*
X115621570Y-92534079D01*
X115619054Y-92533659D01*
X115616490Y-92533446D01*
X115616486Y-92533446D01*
X115209388Y-92499712D01*
X115209372Y-92499711D01*
X115206822Y-92499500D01*
X115204252Y-92499500D01*
X115002706Y-92499500D01*
X114997297Y-92499382D01*
X114599784Y-92482025D01*
X114599629Y-92482018D01*
X114569083Y-92480646D01*
X114558462Y-92479710D01*
X114279730Y-92443014D01*
X114279271Y-92442953D01*
X114130470Y-92422798D01*
X114120280Y-92420981D01*
X114079429Y-92411925D01*
X113869016Y-92365277D01*
X113868263Y-92365107D01*
X113698699Y-92326406D01*
X113689003Y-92323776D01*
X113453323Y-92249465D01*
X113452293Y-92249135D01*
X113277161Y-92192232D01*
X113268026Y-92188862D01*
X113044945Y-92096459D01*
X113043732Y-92095949D01*
X112869152Y-92021330D01*
X112860649Y-92017306D01*
X112649634Y-91907458D01*
X112648131Y-91906663D01*
X112477902Y-91815059D01*
X112470037Y-91810445D01*
X112271378Y-91683885D01*
X112269691Y-91682792D01*
X112106420Y-91575017D01*
X112099246Y-91569906D01*
X111913783Y-91427596D01*
X111911956Y-91426167D01*
X111757625Y-91303092D01*
X111751165Y-91297568D01*
X111579674Y-91140424D01*
X111577885Y-91138749D01*
X111491803Y-91056446D01*
X111434259Y-91001428D01*
X111428529Y-90995575D01*
X111272148Y-90824916D01*
X111270189Y-90822727D01*
X111138829Y-90672373D01*
X111133837Y-90666279D01*
X111125373Y-90655249D01*
X110993385Y-90483239D01*
X110991446Y-90480641D01*
X110873662Y-90318525D01*
X110869400Y-90312265D01*
X110854327Y-90288606D01*
X112670305Y-90288606D01*
X112678191Y-90299869D01*
X112919684Y-90495425D01*
X112924938Y-90499242D01*
X113244733Y-90706920D01*
X113250354Y-90710166D01*
X113590116Y-90883283D01*
X113596040Y-90885920D01*
X113952044Y-91022578D01*
X113958197Y-91024577D01*
X114326537Y-91123273D01*
X114332879Y-91124621D01*
X114709508Y-91184273D01*
X114715951Y-91184950D01*
X115096756Y-91204908D01*
X115103244Y-91204908D01*
X115484048Y-91184950D01*
X115490491Y-91184273D01*
X115737410Y-91145165D01*
X124025001Y-91145165D01*
X124025321Y-91151447D01*
X124034455Y-91240867D01*
X124037274Y-91254036D01*
X124086180Y-91401625D01*
X124092246Y-91414633D01*
X124173632Y-91546580D01*
X124182537Y-91557842D01*
X124292157Y-91667462D01*
X124303419Y-91676367D01*
X124435366Y-91757753D01*
X124448374Y-91763819D01*
X124595969Y-91812727D01*
X124609125Y-91815543D01*
X124698555Y-91824680D01*
X124704832Y-91825000D01*
X124733674Y-91825000D01*
X124746549Y-91821549D01*
X124750000Y-91808674D01*
X124750000Y-91808673D01*
X125250000Y-91808673D01*
X125253450Y-91821548D01*
X125266326Y-91824999D01*
X125295165Y-91824999D01*
X125301447Y-91824678D01*
X125390867Y-91815544D01*
X125404036Y-91812725D01*
X125551625Y-91763819D01*
X125564633Y-91757753D01*
X125696580Y-91676367D01*
X125707842Y-91667462D01*
X125812319Y-91562986D01*
X125867906Y-91530892D01*
X125932094Y-91530892D01*
X125987681Y-91562986D01*
X126092157Y-91667462D01*
X126103419Y-91676367D01*
X126235366Y-91757753D01*
X126248374Y-91763819D01*
X126395969Y-91812727D01*
X126409125Y-91815543D01*
X126498555Y-91824680D01*
X126504832Y-91825000D01*
X126533674Y-91825000D01*
X126546549Y-91821549D01*
X126550000Y-91808674D01*
X126550000Y-91808673D01*
X127050000Y-91808673D01*
X127053450Y-91821548D01*
X127066326Y-91824999D01*
X127095165Y-91824999D01*
X127101447Y-91824678D01*
X127190867Y-91815544D01*
X127204036Y-91812725D01*
X127351625Y-91763819D01*
X127364633Y-91757753D01*
X127496580Y-91676367D01*
X127507842Y-91667462D01*
X127617462Y-91557842D01*
X127626367Y-91546580D01*
X127707753Y-91414633D01*
X127713819Y-91401625D01*
X127762727Y-91254030D01*
X127765543Y-91240874D01*
X127774680Y-91151444D01*
X127775000Y-91145168D01*
X127775000Y-91145165D01*
X129425001Y-91145165D01*
X129425321Y-91151447D01*
X129434455Y-91240867D01*
X129437274Y-91254036D01*
X129486180Y-91401625D01*
X129492246Y-91414633D01*
X129573632Y-91546580D01*
X129582537Y-91557842D01*
X129692157Y-91667462D01*
X129703419Y-91676367D01*
X129835366Y-91757753D01*
X129848374Y-91763819D01*
X129995969Y-91812727D01*
X130009125Y-91815543D01*
X130098555Y-91824680D01*
X130104832Y-91825000D01*
X130133674Y-91825000D01*
X130146549Y-91821549D01*
X130150000Y-91808674D01*
X130150000Y-91808673D01*
X130650000Y-91808673D01*
X130653450Y-91821548D01*
X130666326Y-91824999D01*
X130695165Y-91824999D01*
X130701447Y-91824678D01*
X130790867Y-91815544D01*
X130804036Y-91812725D01*
X130951625Y-91763819D01*
X130964633Y-91757753D01*
X131096580Y-91676367D01*
X131107842Y-91667462D01*
X131217462Y-91557842D01*
X131226367Y-91546580D01*
X131307753Y-91414633D01*
X131313819Y-91401625D01*
X131362727Y-91254030D01*
X131365543Y-91240874D01*
X131374680Y-91151444D01*
X131375000Y-91145168D01*
X131375000Y-91141326D01*
X131371549Y-91128450D01*
X131358674Y-91125000D01*
X130666326Y-91125000D01*
X130653450Y-91128450D01*
X130650000Y-91141326D01*
X130650000Y-91808673D01*
X130150000Y-91808673D01*
X130150000Y-91141326D01*
X130146549Y-91128450D01*
X130133674Y-91125000D01*
X129441327Y-91125000D01*
X129428451Y-91128450D01*
X129425001Y-91141326D01*
X129425001Y-91145165D01*
X127775000Y-91145165D01*
X127775000Y-91141326D01*
X127771549Y-91128450D01*
X127758674Y-91125000D01*
X127066326Y-91125000D01*
X127053450Y-91128450D01*
X127050000Y-91141326D01*
X127050000Y-91808673D01*
X126550000Y-91808673D01*
X126550000Y-91141326D01*
X126546549Y-91128450D01*
X126533674Y-91125000D01*
X125266326Y-91125000D01*
X125253450Y-91128450D01*
X125250000Y-91141326D01*
X125250000Y-91808673D01*
X124750000Y-91808673D01*
X124750000Y-91141326D01*
X124746549Y-91128450D01*
X124733674Y-91125000D01*
X124041327Y-91125000D01*
X124028451Y-91128450D01*
X124025001Y-91141326D01*
X124025001Y-91145165D01*
X115737410Y-91145165D01*
X115867120Y-91124621D01*
X115873462Y-91123273D01*
X116241802Y-91024577D01*
X116247955Y-91022578D01*
X116603959Y-90885920D01*
X116609883Y-90883283D01*
X116773335Y-90800000D01*
X134144751Y-90800000D01*
X134145531Y-90806923D01*
X134162906Y-90961135D01*
X134162907Y-90961142D01*
X134163687Y-90968059D01*
X134165986Y-90974630D01*
X134165987Y-90974633D01*
X134213608Y-91110728D01*
X134219544Y-91127690D01*
X134223245Y-91133580D01*
X134223247Y-91133584D01*
X134230493Y-91145115D01*
X134249500Y-91211088D01*
X134249500Y-93718927D01*
X134248950Y-93730596D01*
X134248941Y-93730682D01*
X134247240Y-93738296D01*
X134247485Y-93746092D01*
X134247485Y-93746093D01*
X134249439Y-93808262D01*
X134249500Y-93812157D01*
X134249500Y-93840925D01*
X134249987Y-93844785D01*
X134249989Y-93844808D01*
X134250054Y-93845320D01*
X134250968Y-93856941D01*
X134252157Y-93894775D01*
X134252158Y-93894782D01*
X134252403Y-93902569D01*
X134254577Y-93910055D01*
X134254578Y-93910056D01*
X134258323Y-93922947D01*
X134262268Y-93941997D01*
X134263950Y-93955317D01*
X134263951Y-93955324D01*
X134264929Y-93963058D01*
X134267800Y-93970309D01*
X134267802Y-93970317D01*
X134281737Y-94005515D01*
X134285520Y-94016562D01*
X134298256Y-94060398D01*
X134302225Y-94067109D01*
X134302228Y-94067116D01*
X134309062Y-94078672D01*
X134317620Y-94096141D01*
X134325432Y-94115871D01*
X134330016Y-94122180D01*
X134352267Y-94152808D01*
X134358677Y-94162567D01*
X134377945Y-94195146D01*
X134381919Y-94201865D01*
X134387438Y-94207383D01*
X134387438Y-94207384D01*
X134396926Y-94216872D01*
X134409563Y-94231668D01*
X134417449Y-94242523D01*
X134417451Y-94242525D01*
X134422037Y-94248837D01*
X134428047Y-94253808D01*
X134428049Y-94253811D01*
X134457212Y-94277936D01*
X134465853Y-94285799D01*
X135821662Y-95641608D01*
X135853756Y-95697195D01*
X135853756Y-95761382D01*
X135821663Y-95816969D01*
X135709523Y-95929110D01*
X135705818Y-95935005D01*
X135705815Y-95935010D01*
X135626566Y-96061135D01*
X135619544Y-96072310D01*
X135617247Y-96078872D01*
X135617245Y-96078878D01*
X135565987Y-96225366D01*
X135565985Y-96225371D01*
X135563687Y-96231941D01*
X135562907Y-96238855D01*
X135562906Y-96238864D01*
X135548908Y-96363105D01*
X135544751Y-96400000D01*
X135545531Y-96406923D01*
X135562906Y-96561135D01*
X135562907Y-96561142D01*
X135563687Y-96568059D01*
X135565986Y-96574630D01*
X135565987Y-96574633D01*
X135616693Y-96719544D01*
X135619544Y-96727690D01*
X135709523Y-96870890D01*
X135829110Y-96990477D01*
X135972310Y-97080456D01*
X136081271Y-97118582D01*
X136127997Y-97147943D01*
X139382276Y-100402222D01*
X139414370Y-100457809D01*
X139414370Y-100521996D01*
X139382277Y-100577584D01*
X139326689Y-100609678D01*
X139186200Y-100647322D01*
X139186193Y-100647324D01*
X139180970Y-100648724D01*
X139176065Y-100651010D01*
X139176060Y-100651013D01*
X138992329Y-100736689D01*
X138992325Y-100736691D01*
X138987419Y-100738979D01*
X138982986Y-100742082D01*
X138982979Y-100742087D01*
X138816916Y-100858365D01*
X138816911Y-100858368D01*
X138812481Y-100861471D01*
X138808657Y-100865294D01*
X138808651Y-100865300D01*
X138665300Y-101008651D01*
X138665294Y-101008657D01*
X138661471Y-101012481D01*
X138658368Y-101016911D01*
X138658365Y-101016916D01*
X138542087Y-101182979D01*
X138542082Y-101182986D01*
X138538979Y-101187419D01*
X138536691Y-101192325D01*
X138536689Y-101192329D01*
X138451013Y-101376060D01*
X138451010Y-101376065D01*
X138448724Y-101380970D01*
X138447325Y-101386190D01*
X138447321Y-101386202D01*
X138426121Y-101465325D01*
X138393451Y-101587253D01*
X138392979Y-101592638D01*
X138392979Y-101592643D01*
X138379097Y-101751320D01*
X138374838Y-101800000D01*
X138375310Y-101805395D01*
X138392335Y-101999999D01*
X138393451Y-102012747D01*
X138405577Y-102058001D01*
X138447321Y-102213797D01*
X138447324Y-102213805D01*
X138448724Y-102219030D01*
X138451012Y-102223937D01*
X138451013Y-102223939D01*
X138459881Y-102242956D01*
X138538979Y-102412581D01*
X138542086Y-102417018D01*
X138542087Y-102417020D01*
X138550657Y-102429259D01*
X138661471Y-102587519D01*
X138812481Y-102738529D01*
X138987419Y-102861021D01*
X139180970Y-102951276D01*
X139387253Y-103006549D01*
X139600000Y-103025162D01*
X139812747Y-103006549D01*
X140019030Y-102951276D01*
X140212581Y-102861021D01*
X140387519Y-102738529D01*
X140538529Y-102587519D01*
X140661021Y-102412581D01*
X140751276Y-102219030D01*
X140752676Y-102213801D01*
X140753478Y-102211601D01*
X140787027Y-102161860D01*
X140840001Y-102133693D01*
X140899999Y-102133693D01*
X140952973Y-102161860D01*
X140986522Y-102211601D01*
X140987323Y-102213803D01*
X140988724Y-102219030D01*
X140991008Y-102223929D01*
X140991010Y-102223933D01*
X141002973Y-102249587D01*
X141078979Y-102412581D01*
X141082086Y-102417018D01*
X141082087Y-102417020D01*
X141090657Y-102429259D01*
X141201471Y-102587519D01*
X141352481Y-102738529D01*
X141527419Y-102861021D01*
X141720970Y-102951276D01*
X141927253Y-103006549D01*
X142140000Y-103025162D01*
X142352747Y-103006549D01*
X142559030Y-102951276D01*
X142752581Y-102861021D01*
X142927519Y-102738529D01*
X143078529Y-102587519D01*
X143201021Y-102412581D01*
X143291276Y-102219030D01*
X143292676Y-102213801D01*
X143293478Y-102211601D01*
X143327027Y-102161860D01*
X143380001Y-102133693D01*
X143439999Y-102133693D01*
X143492973Y-102161860D01*
X143526522Y-102211601D01*
X143527323Y-102213803D01*
X143528724Y-102219030D01*
X143531008Y-102223929D01*
X143531010Y-102223933D01*
X143542973Y-102249587D01*
X143618979Y-102412581D01*
X143622086Y-102417018D01*
X143622087Y-102417020D01*
X143630657Y-102429259D01*
X143741471Y-102587519D01*
X143892481Y-102738529D01*
X144067419Y-102861021D01*
X144260970Y-102951276D01*
X144467253Y-103006549D01*
X144680000Y-103025162D01*
X144892747Y-103006549D01*
X145099030Y-102951276D01*
X145292581Y-102861021D01*
X145467519Y-102738529D01*
X145618529Y-102587519D01*
X145741021Y-102412581D01*
X145831276Y-102219030D01*
X145886549Y-102012747D01*
X145905162Y-101800000D01*
X145886549Y-101587253D01*
X145831276Y-101380970D01*
X145782748Y-101276903D01*
X145771396Y-101216391D01*
X145790550Y-101157875D01*
X145835488Y-101115786D01*
X145895131Y-101100500D01*
X156968927Y-101100500D01*
X156980596Y-101101050D01*
X156980681Y-101101058D01*
X156988296Y-101102760D01*
X157058262Y-101100560D01*
X157062157Y-101100500D01*
X157087025Y-101100500D01*
X157090925Y-101100500D01*
X157095294Y-101099947D01*
X157106939Y-101099030D01*
X157152569Y-101097597D01*
X157172951Y-101091674D01*
X157191991Y-101087731D01*
X157213058Y-101085071D01*
X157230306Y-101078241D01*
X157255508Y-101068264D01*
X157266557Y-101064480D01*
X157310398Y-101051744D01*
X157328660Y-101040942D01*
X157346136Y-101032380D01*
X157365871Y-101024568D01*
X157402816Y-100997725D01*
X157412558Y-100991326D01*
X157451865Y-100968081D01*
X157466869Y-100953076D01*
X157481664Y-100940438D01*
X157498837Y-100927963D01*
X157527947Y-100892772D01*
X157535790Y-100884154D01*
X157982656Y-100437288D01*
X157991291Y-100429432D01*
X157991347Y-100429385D01*
X157997940Y-100425202D01*
X158045897Y-100374131D01*
X158048515Y-100371429D01*
X158068911Y-100351035D01*
X158071610Y-100347554D01*
X158079174Y-100338695D01*
X158110448Y-100305393D01*
X158120674Y-100286790D01*
X158131346Y-100270542D01*
X158144362Y-100253764D01*
X158162495Y-100211857D01*
X158167625Y-100201386D01*
X158189627Y-100161368D01*
X158194906Y-100140802D01*
X158201210Y-100122395D01*
X158202785Y-100118753D01*
X158209635Y-100102927D01*
X158216777Y-100057829D01*
X158219139Y-100046422D01*
X158230500Y-100002177D01*
X158230500Y-99980948D01*
X158232027Y-99961550D01*
X158234125Y-99948303D01*
X158235346Y-99940595D01*
X158231050Y-99895147D01*
X158230500Y-99883478D01*
X158230500Y-98986460D01*
X158243012Y-98932178D01*
X158278025Y-98888851D01*
X158283767Y-98884351D01*
X158290185Y-98880472D01*
X158410472Y-98760185D01*
X158498478Y-98614606D01*
X158549086Y-98452196D01*
X158549286Y-98450000D01*
X181394751Y-98450000D01*
X181395531Y-98456923D01*
X181412906Y-98611135D01*
X181412907Y-98611142D01*
X181413687Y-98618059D01*
X181415986Y-98624630D01*
X181415987Y-98624633D01*
X181463418Y-98760185D01*
X181469544Y-98777690D01*
X181506444Y-98836416D01*
X181544407Y-98896834D01*
X181559523Y-98920890D01*
X181679110Y-99040477D01*
X181822310Y-99130456D01*
X181981941Y-99186313D01*
X182150000Y-99205249D01*
X182318059Y-99186313D01*
X182477690Y-99130456D01*
X182620890Y-99040477D01*
X182740477Y-98920890D01*
X182830456Y-98777690D01*
X182886313Y-98618059D01*
X182905249Y-98450000D01*
X182886313Y-98281941D01*
X182830456Y-98122310D01*
X182740477Y-97979110D01*
X182620890Y-97859523D01*
X182477690Y-97769544D01*
X182471124Y-97767246D01*
X182471121Y-97767245D01*
X182324633Y-97715987D01*
X182324630Y-97715986D01*
X182318059Y-97713687D01*
X182311142Y-97712907D01*
X182311135Y-97712906D01*
X182156923Y-97695531D01*
X182150000Y-97694751D01*
X182143077Y-97695531D01*
X181988864Y-97712906D01*
X181988855Y-97712907D01*
X181981941Y-97713687D01*
X181975371Y-97715985D01*
X181975366Y-97715987D01*
X181828878Y-97767245D01*
X181828872Y-97767247D01*
X181822310Y-97769544D01*
X181816419Y-97773245D01*
X181816418Y-97773246D01*
X181685010Y-97855815D01*
X181685005Y-97855818D01*
X181679110Y-97859523D01*
X181674185Y-97864447D01*
X181674181Y-97864451D01*
X181564451Y-97974181D01*
X181564447Y-97974185D01*
X181559523Y-97979110D01*
X181555818Y-97985005D01*
X181555815Y-97985010D01*
X181473246Y-98116418D01*
X181469544Y-98122310D01*
X181467247Y-98128872D01*
X181467245Y-98128878D01*
X181415987Y-98275366D01*
X181415985Y-98275371D01*
X181413687Y-98281941D01*
X181412907Y-98288855D01*
X181412906Y-98288864D01*
X181401640Y-98388856D01*
X181394751Y-98450000D01*
X158549286Y-98450000D01*
X158555500Y-98381616D01*
X158555500Y-97868384D01*
X158549086Y-97797804D01*
X158498478Y-97635394D01*
X158410472Y-97489815D01*
X158320657Y-97400000D01*
X175894751Y-97400000D01*
X175895531Y-97406923D01*
X175912906Y-97561135D01*
X175912907Y-97561142D01*
X175913687Y-97568059D01*
X175915986Y-97574630D01*
X175915987Y-97574633D01*
X175964370Y-97712906D01*
X175969544Y-97727690D01*
X176017764Y-97804431D01*
X176053398Y-97861143D01*
X176059523Y-97870890D01*
X176179110Y-97990477D01*
X176322310Y-98080456D01*
X176481941Y-98136313D01*
X176650000Y-98155249D01*
X176818059Y-98136313D01*
X176977690Y-98080456D01*
X177120890Y-97990477D01*
X177240477Y-97870890D01*
X177330456Y-97727690D01*
X177386313Y-97568059D01*
X177405249Y-97400000D01*
X177402488Y-97375500D01*
X177387093Y-97238864D01*
X177386313Y-97231941D01*
X177330456Y-97072310D01*
X177240477Y-96929110D01*
X177120890Y-96809523D01*
X176977690Y-96719544D01*
X176971124Y-96717246D01*
X176971121Y-96717245D01*
X176824633Y-96665987D01*
X176824630Y-96665986D01*
X176818059Y-96663687D01*
X176811142Y-96662907D01*
X176811135Y-96662906D01*
X176656923Y-96645531D01*
X176650000Y-96644751D01*
X176643077Y-96645531D01*
X176488864Y-96662906D01*
X176488855Y-96662907D01*
X176481941Y-96663687D01*
X176475371Y-96665985D01*
X176475366Y-96665987D01*
X176328878Y-96717245D01*
X176328872Y-96717247D01*
X176322310Y-96719544D01*
X176316419Y-96723245D01*
X176316418Y-96723246D01*
X176185010Y-96805815D01*
X176185005Y-96805818D01*
X176179110Y-96809523D01*
X176174185Y-96814447D01*
X176174181Y-96814451D01*
X176064451Y-96924181D01*
X176064447Y-96924185D01*
X176059523Y-96929110D01*
X176055818Y-96935005D01*
X176055815Y-96935010D01*
X175973246Y-97066418D01*
X175969544Y-97072310D01*
X175967247Y-97078872D01*
X175967245Y-97078878D01*
X175915987Y-97225366D01*
X175915985Y-97225371D01*
X175913687Y-97231941D01*
X175912907Y-97238855D01*
X175912906Y-97238864D01*
X175896139Y-97387681D01*
X175894751Y-97400000D01*
X158320657Y-97400000D01*
X158308338Y-97387681D01*
X158276244Y-97332094D01*
X158276244Y-97267906D01*
X158308338Y-97212319D01*
X158335000Y-97185657D01*
X158410472Y-97110185D01*
X158498478Y-96964606D01*
X158549086Y-96802196D01*
X158555500Y-96731616D01*
X158555500Y-96218384D01*
X158549086Y-96147804D01*
X158498478Y-95985394D01*
X158410472Y-95839815D01*
X158290185Y-95719528D01*
X158280377Y-95713599D01*
X158151021Y-95635400D01*
X158151020Y-95635399D01*
X158144606Y-95631522D01*
X158079688Y-95611293D01*
X157988457Y-95582864D01*
X157988448Y-95582862D01*
X157982196Y-95580914D01*
X157975662Y-95580320D01*
X157975661Y-95580320D01*
X157914425Y-95574755D01*
X157914419Y-95574754D01*
X157911616Y-95574500D01*
X157248384Y-95574500D01*
X157245581Y-95574754D01*
X157245574Y-95574755D01*
X157184338Y-95580320D01*
X157184335Y-95580320D01*
X157177804Y-95580914D01*
X157171553Y-95582861D01*
X157171542Y-95582864D01*
X157015394Y-95631522D01*
X157014805Y-95629633D01*
X156970114Y-95638120D01*
X156914620Y-95621999D01*
X156872458Y-95582480D01*
X156852786Y-95528143D01*
X156851179Y-95513884D01*
X156836313Y-95381941D01*
X156780456Y-95222310D01*
X156690477Y-95079110D01*
X156570890Y-94959523D01*
X156427690Y-94869544D01*
X156421124Y-94867246D01*
X156421121Y-94867245D01*
X156274633Y-94815987D01*
X156274630Y-94815986D01*
X156268059Y-94813687D01*
X156261142Y-94812907D01*
X156261135Y-94812906D01*
X156106923Y-94795531D01*
X156100000Y-94794751D01*
X156093077Y-94795531D01*
X155938864Y-94812906D01*
X155938855Y-94812907D01*
X155931941Y-94813687D01*
X155925371Y-94815985D01*
X155925366Y-94815987D01*
X155778878Y-94867245D01*
X155778872Y-94867247D01*
X155772310Y-94869544D01*
X155766419Y-94873245D01*
X155766418Y-94873246D01*
X155635010Y-94955815D01*
X155635005Y-94955818D01*
X155629110Y-94959523D01*
X155624185Y-94964447D01*
X155624181Y-94964451D01*
X155514451Y-95074181D01*
X155514447Y-95074185D01*
X155509523Y-95079110D01*
X155505817Y-95085006D01*
X155505816Y-95085009D01*
X155470701Y-95140893D01*
X155425688Y-95183447D01*
X155365707Y-95198919D01*
X155305727Y-95183447D01*
X155260714Y-95140891D01*
X155194184Y-95035010D01*
X155190477Y-95029110D01*
X155070890Y-94909523D01*
X154927690Y-94819544D01*
X154921124Y-94817246D01*
X154921121Y-94817245D01*
X154774633Y-94765987D01*
X154774630Y-94765986D01*
X154768059Y-94763687D01*
X154761142Y-94762907D01*
X154761135Y-94762906D01*
X154606923Y-94745531D01*
X154600000Y-94744751D01*
X154593077Y-94745531D01*
X154438864Y-94762906D01*
X154438855Y-94762907D01*
X154431941Y-94763687D01*
X154425371Y-94765985D01*
X154425366Y-94765987D01*
X154278878Y-94817245D01*
X154278872Y-94817247D01*
X154272310Y-94819544D01*
X154266419Y-94823245D01*
X154266418Y-94823246D01*
X154135010Y-94905815D01*
X154135005Y-94905818D01*
X154129110Y-94909523D01*
X154124185Y-94914447D01*
X154124181Y-94914451D01*
X154014451Y-95024181D01*
X154014447Y-95024185D01*
X154009523Y-95029110D01*
X154005818Y-95035005D01*
X154005815Y-95035010D01*
X153932270Y-95152056D01*
X153919544Y-95172310D01*
X153917247Y-95178872D01*
X153917245Y-95178878D01*
X153865987Y-95325366D01*
X153865985Y-95325371D01*
X153863687Y-95331941D01*
X153862907Y-95338855D01*
X153862906Y-95338864D01*
X153847370Y-95476753D01*
X153844751Y-95500000D01*
X153845531Y-95506923D01*
X153845733Y-95508716D01*
X153845531Y-95510043D01*
X153845531Y-95513884D01*
X153844946Y-95513884D01*
X153836021Y-95572510D01*
X153795569Y-95622787D01*
X153735332Y-95645929D01*
X153671623Y-95635671D01*
X153671021Y-95635400D01*
X153664606Y-95631522D01*
X153612210Y-95615195D01*
X153508457Y-95582864D01*
X153508448Y-95582862D01*
X153502196Y-95580914D01*
X153495662Y-95580320D01*
X153495661Y-95580320D01*
X153434425Y-95574755D01*
X153434419Y-95574754D01*
X153431616Y-95574500D01*
X152768384Y-95574500D01*
X152765581Y-95574754D01*
X152765574Y-95574755D01*
X152704338Y-95580320D01*
X152704335Y-95580320D01*
X152697804Y-95580914D01*
X152691553Y-95582861D01*
X152691542Y-95582864D01*
X152542550Y-95629292D01*
X152535394Y-95631522D01*
X152528982Y-95635398D01*
X152528978Y-95635400D01*
X152396232Y-95715648D01*
X152396227Y-95715651D01*
X152389815Y-95719528D01*
X152384515Y-95724827D01*
X152384511Y-95724831D01*
X152274831Y-95834511D01*
X152274827Y-95834515D01*
X152269528Y-95839815D01*
X152265651Y-95846227D01*
X152265648Y-95846232D01*
X152185400Y-95978978D01*
X152185398Y-95978982D01*
X152181522Y-95985394D01*
X152179292Y-95992548D01*
X152179292Y-95992550D01*
X152132864Y-96141542D01*
X152132861Y-96141553D01*
X152130914Y-96147804D01*
X152124500Y-96218384D01*
X152124500Y-96731616D01*
X152124754Y-96734419D01*
X152124755Y-96734425D01*
X152130320Y-96795661D01*
X152130914Y-96802196D01*
X152132862Y-96808448D01*
X152132864Y-96808457D01*
X152155453Y-96880946D01*
X152181522Y-96964606D01*
X152185399Y-96971020D01*
X152185400Y-96971021D01*
X152249317Y-97076753D01*
X152269528Y-97110185D01*
X152274831Y-97115488D01*
X152372016Y-97212673D01*
X152404110Y-97268260D01*
X152404110Y-97332448D01*
X152372016Y-97388035D01*
X152275228Y-97484822D01*
X152266045Y-97496543D01*
X152185864Y-97629179D01*
X152179748Y-97642767D01*
X152133361Y-97791627D01*
X152130815Y-97804431D01*
X152125661Y-97861143D01*
X152128450Y-97871549D01*
X152141326Y-97875000D01*
X153226000Y-97875000D01*
X153288000Y-97891613D01*
X153333387Y-97937000D01*
X153350000Y-97999000D01*
X153350000Y-98251000D01*
X153333387Y-98313000D01*
X153288000Y-98358387D01*
X153226000Y-98375000D01*
X152141327Y-98375000D01*
X152128451Y-98378450D01*
X152125662Y-98388856D01*
X152130815Y-98445570D01*
X152133361Y-98458369D01*
X152179748Y-98607232D01*
X152185864Y-98620820D01*
X152240591Y-98711350D01*
X152258460Y-98773627D01*
X152242480Y-98836416D01*
X152197014Y-98882574D01*
X152134474Y-98899500D01*
X140970808Y-98899500D01*
X140923355Y-98890061D01*
X140883127Y-98863181D01*
X135586819Y-93566873D01*
X135559939Y-93526645D01*
X135550500Y-93479192D01*
X135550500Y-91400000D01*
X142194751Y-91400000D01*
X142195531Y-91406923D01*
X142212906Y-91561135D01*
X142212907Y-91561142D01*
X142213687Y-91568059D01*
X142215986Y-91574630D01*
X142215987Y-91574633D01*
X142266072Y-91717770D01*
X142269544Y-91727690D01*
X142359523Y-91870890D01*
X142479110Y-91990477D01*
X142622310Y-92080456D01*
X142781941Y-92136313D01*
X142950000Y-92155249D01*
X143118059Y-92136313D01*
X143277690Y-92080456D01*
X143420890Y-91990477D01*
X143540477Y-91870890D01*
X143630456Y-91727690D01*
X143686313Y-91568059D01*
X143705249Y-91400000D01*
X143686313Y-91231941D01*
X143630456Y-91072310D01*
X143540477Y-90929110D01*
X143420890Y-90809523D01*
X143394716Y-90793077D01*
X143349114Y-90764423D01*
X157350718Y-90764423D01*
X157369342Y-90929719D01*
X157372423Y-90943217D01*
X157427364Y-91100231D01*
X157432015Y-91109889D01*
X157438782Y-91116656D01*
X157448217Y-91110728D01*
X157789904Y-90769042D01*
X157796568Y-90757500D01*
X158513431Y-90757500D01*
X158520095Y-90769042D01*
X158905957Y-91154904D01*
X158917500Y-91161568D01*
X158929042Y-91154904D01*
X159314904Y-90769042D01*
X159321568Y-90757500D01*
X160038431Y-90757500D01*
X160045095Y-90769042D01*
X160430957Y-91154904D01*
X160442500Y-91161568D01*
X160454042Y-91154904D01*
X160839904Y-90769042D01*
X160846568Y-90757500D01*
X161563431Y-90757500D01*
X161570095Y-90769042D01*
X161911781Y-91110728D01*
X161921216Y-91116656D01*
X161927984Y-91109888D01*
X161932634Y-91100233D01*
X161987576Y-90943217D01*
X161990657Y-90929719D01*
X162009282Y-90764423D01*
X162009282Y-90750577D01*
X161990657Y-90585280D01*
X161987576Y-90571782D01*
X161932634Y-90414765D01*
X161927984Y-90405111D01*
X161921216Y-90398342D01*
X161911780Y-90404271D01*
X161570096Y-90745956D01*
X161563431Y-90757500D01*
X160846568Y-90757500D01*
X160839904Y-90745957D01*
X160454042Y-90360095D01*
X160442500Y-90353431D01*
X160430957Y-90360095D01*
X160045095Y-90745957D01*
X160038431Y-90757500D01*
X159321568Y-90757500D01*
X159314904Y-90745957D01*
X158929042Y-90360095D01*
X158917500Y-90353431D01*
X158905957Y-90360095D01*
X158520095Y-90745957D01*
X158513431Y-90757500D01*
X157796568Y-90757500D01*
X157789904Y-90745957D01*
X157448219Y-90404272D01*
X157438783Y-90398343D01*
X157432013Y-90405113D01*
X157427366Y-90414764D01*
X157372423Y-90571782D01*
X157369342Y-90585280D01*
X157350718Y-90750577D01*
X157350718Y-90764423D01*
X143349114Y-90764423D01*
X143327078Y-90750577D01*
X143277690Y-90719544D01*
X143271124Y-90717246D01*
X143271121Y-90717245D01*
X143124633Y-90665987D01*
X143124630Y-90665986D01*
X143118059Y-90663687D01*
X143111142Y-90662907D01*
X143111135Y-90662906D01*
X142956923Y-90645531D01*
X142950000Y-90644751D01*
X142943077Y-90645531D01*
X142788864Y-90662906D01*
X142788855Y-90662907D01*
X142781941Y-90663687D01*
X142775371Y-90665985D01*
X142775366Y-90665987D01*
X142628878Y-90717245D01*
X142628872Y-90717247D01*
X142622310Y-90719544D01*
X142616419Y-90723245D01*
X142616418Y-90723246D01*
X142485010Y-90805815D01*
X142485005Y-90805818D01*
X142479110Y-90809523D01*
X142474185Y-90814447D01*
X142474181Y-90814451D01*
X142364451Y-90924181D01*
X142364447Y-90924185D01*
X142359523Y-90929110D01*
X142355818Y-90935005D01*
X142355815Y-90935010D01*
X142292874Y-91035180D01*
X142269544Y-91072310D01*
X142267247Y-91078872D01*
X142267245Y-91078878D01*
X142215987Y-91225366D01*
X142215985Y-91225371D01*
X142213687Y-91231941D01*
X142212907Y-91238855D01*
X142212906Y-91238864D01*
X142198440Y-91367257D01*
X142194751Y-91400000D01*
X135550500Y-91400000D01*
X135550500Y-91211088D01*
X135569507Y-91145115D01*
X135576752Y-91133584D01*
X135580456Y-91127690D01*
X135636313Y-90968059D01*
X135655249Y-90800000D01*
X135636313Y-90631941D01*
X135580456Y-90472310D01*
X135569507Y-90454885D01*
X135550500Y-90388912D01*
X135550500Y-89900000D01*
X138894751Y-89900000D01*
X138895531Y-89906923D01*
X138912906Y-90061135D01*
X138912907Y-90061142D01*
X138913687Y-90068059D01*
X138915986Y-90074630D01*
X138915987Y-90074633D01*
X138964054Y-90212003D01*
X138969544Y-90227690D01*
X139059523Y-90370890D01*
X139179110Y-90490477D01*
X139322310Y-90580456D01*
X139481941Y-90636313D01*
X139650000Y-90655249D01*
X139818059Y-90636313D01*
X139977690Y-90580456D01*
X140120890Y-90490477D01*
X140240477Y-90370890D01*
X140330456Y-90227690D01*
X140386313Y-90068059D01*
X140389424Y-90040450D01*
X157795319Y-90040450D01*
X157801772Y-90050719D01*
X158143457Y-90392404D01*
X158155000Y-90399068D01*
X158166542Y-90392404D01*
X158552404Y-90006542D01*
X158559068Y-89995000D01*
X158559067Y-89994999D01*
X159275931Y-89994999D01*
X159282595Y-90006542D01*
X159668457Y-90392404D01*
X159680000Y-90399068D01*
X159691542Y-90392404D01*
X160077404Y-90006542D01*
X160084068Y-89995000D01*
X160084067Y-89994999D01*
X160800931Y-89994999D01*
X160807595Y-90006542D01*
X161193457Y-90392404D01*
X161205000Y-90399068D01*
X161216542Y-90392404D01*
X161558228Y-90050717D01*
X161564679Y-90040451D01*
X161563106Y-90035955D01*
X161556147Y-89995001D01*
X161563105Y-89954047D01*
X161564679Y-89949547D01*
X161558228Y-89939281D01*
X161216542Y-89597595D01*
X161204999Y-89590931D01*
X161193457Y-89597595D01*
X160807595Y-89983457D01*
X160800931Y-89994999D01*
X160084067Y-89994999D01*
X160077404Y-89983457D01*
X159691542Y-89597595D01*
X159679999Y-89590931D01*
X159668457Y-89597595D01*
X159282595Y-89983457D01*
X159275931Y-89994999D01*
X158559067Y-89994999D01*
X158552404Y-89983457D01*
X158166542Y-89597595D01*
X158155000Y-89590931D01*
X158143456Y-89597596D01*
X157801771Y-89939280D01*
X157795320Y-89949547D01*
X157796894Y-89954046D01*
X157803852Y-89995000D01*
X157796893Y-90035954D01*
X157795319Y-90040450D01*
X140389424Y-90040450D01*
X140405249Y-89900000D01*
X140386313Y-89731941D01*
X140330456Y-89572310D01*
X140240477Y-89429110D01*
X140120890Y-89309523D01*
X140009327Y-89239423D01*
X157350718Y-89239423D01*
X157369342Y-89404719D01*
X157372423Y-89418217D01*
X157427364Y-89575231D01*
X157432015Y-89584889D01*
X157438782Y-89591656D01*
X157448217Y-89585728D01*
X157789904Y-89244042D01*
X157796568Y-89232500D01*
X158513431Y-89232500D01*
X158520095Y-89244042D01*
X158905957Y-89629904D01*
X158917499Y-89636568D01*
X158929042Y-89629904D01*
X159314904Y-89244042D01*
X159321568Y-89232500D01*
X160038431Y-89232500D01*
X160045095Y-89244042D01*
X160430957Y-89629904D01*
X160442499Y-89636568D01*
X160454042Y-89629904D01*
X160839904Y-89244042D01*
X160846568Y-89232500D01*
X161563431Y-89232500D01*
X161570095Y-89244042D01*
X161911781Y-89585728D01*
X161921216Y-89591656D01*
X161927984Y-89584888D01*
X161932634Y-89575233D01*
X161987576Y-89418217D01*
X161990657Y-89404719D01*
X162009282Y-89239423D01*
X162009282Y-89225577D01*
X161990657Y-89060280D01*
X161987576Y-89046782D01*
X161932634Y-88889765D01*
X161927984Y-88880111D01*
X161921216Y-88873342D01*
X161911780Y-88879271D01*
X161570096Y-89220956D01*
X161563431Y-89232500D01*
X160846568Y-89232500D01*
X160839904Y-89220957D01*
X160454042Y-88835095D01*
X160442500Y-88828431D01*
X160430957Y-88835095D01*
X160045095Y-89220957D01*
X160038431Y-89232500D01*
X159321568Y-89232500D01*
X159314904Y-89220957D01*
X158929042Y-88835095D01*
X158917500Y-88828431D01*
X158905957Y-88835095D01*
X158520095Y-89220957D01*
X158513431Y-89232500D01*
X157796568Y-89232500D01*
X157789904Y-89220957D01*
X157448219Y-88879272D01*
X157438783Y-88873343D01*
X157432013Y-88880113D01*
X157427366Y-88889764D01*
X157372423Y-89046782D01*
X157369342Y-89060280D01*
X157350718Y-89225577D01*
X157350718Y-89239423D01*
X140009327Y-89239423D01*
X139977690Y-89219544D01*
X139971124Y-89217246D01*
X139971121Y-89217245D01*
X139824633Y-89165987D01*
X139824630Y-89165986D01*
X139818059Y-89163687D01*
X139811142Y-89162907D01*
X139811135Y-89162906D01*
X139656923Y-89145531D01*
X139650000Y-89144751D01*
X139643077Y-89145531D01*
X139488864Y-89162906D01*
X139488855Y-89162907D01*
X139481941Y-89163687D01*
X139475371Y-89165985D01*
X139475366Y-89165987D01*
X139328878Y-89217245D01*
X139328872Y-89217247D01*
X139322310Y-89219544D01*
X139316419Y-89223245D01*
X139316418Y-89223246D01*
X139185010Y-89305815D01*
X139185005Y-89305818D01*
X139179110Y-89309523D01*
X139174185Y-89314447D01*
X139174181Y-89314451D01*
X139064451Y-89424181D01*
X139064447Y-89424185D01*
X139059523Y-89429110D01*
X139055818Y-89435005D01*
X139055815Y-89435010D01*
X138989000Y-89541346D01*
X138969544Y-89572310D01*
X138967247Y-89578872D01*
X138967245Y-89578878D01*
X138915987Y-89725366D01*
X138915985Y-89725371D01*
X138913687Y-89731941D01*
X138912907Y-89738855D01*
X138912906Y-89738864D01*
X138904759Y-89811174D01*
X138894751Y-89900000D01*
X135550500Y-89900000D01*
X135550500Y-88516283D01*
X157795843Y-88516283D01*
X157801772Y-88525719D01*
X158143457Y-88867404D01*
X158155000Y-88874068D01*
X158166542Y-88867404D01*
X158552404Y-88481542D01*
X158559068Y-88470000D01*
X159275931Y-88470000D01*
X159282595Y-88481542D01*
X159668457Y-88867404D01*
X159680000Y-88874068D01*
X159691542Y-88867404D01*
X160077404Y-88481542D01*
X160084068Y-88470000D01*
X160800931Y-88470000D01*
X160807595Y-88481542D01*
X161193457Y-88867404D01*
X161205000Y-88874068D01*
X161216542Y-88867404D01*
X161558228Y-88525717D01*
X161564156Y-88516282D01*
X161557389Y-88509515D01*
X161547731Y-88504864D01*
X161390717Y-88449923D01*
X161377219Y-88446843D01*
X161341513Y-88442819D01*
X161289425Y-88424591D01*
X161250404Y-88385569D01*
X161232178Y-88333481D01*
X161228155Y-88297771D01*
X161225077Y-88284284D01*
X161170134Y-88127265D01*
X161165484Y-88117611D01*
X161158716Y-88110842D01*
X161149280Y-88116771D01*
X160807596Y-88458456D01*
X160800931Y-88470000D01*
X160084068Y-88470000D01*
X160077404Y-88458457D01*
X159735719Y-88116772D01*
X159725450Y-88110319D01*
X159720954Y-88111893D01*
X159680000Y-88118852D01*
X159639046Y-88111894D01*
X159634547Y-88110320D01*
X159624280Y-88116771D01*
X159282596Y-88458456D01*
X159275931Y-88470000D01*
X158559068Y-88470000D01*
X158552404Y-88458457D01*
X158210719Y-88116772D01*
X158201283Y-88110843D01*
X158194513Y-88117613D01*
X158189866Y-88127264D01*
X158134923Y-88284282D01*
X158131843Y-88297779D01*
X158127819Y-88333486D01*
X158109592Y-88385572D01*
X158070572Y-88424592D01*
X158018486Y-88442819D01*
X157982779Y-88446843D01*
X157969282Y-88449923D01*
X157812264Y-88504866D01*
X157802613Y-88509513D01*
X157795843Y-88516283D01*
X135550500Y-88516283D01*
X135550500Y-87753783D01*
X158558343Y-87753783D01*
X158564272Y-87763219D01*
X158905957Y-88104904D01*
X158917500Y-88111568D01*
X158929042Y-88104904D01*
X159270728Y-87763217D01*
X159276655Y-87753783D01*
X160083343Y-87753783D01*
X160089272Y-87763219D01*
X160430957Y-88104904D01*
X160442500Y-88111568D01*
X160454042Y-88104904D01*
X160795728Y-87763217D01*
X160801656Y-87753782D01*
X160794889Y-87747015D01*
X160785231Y-87742364D01*
X160628217Y-87687423D01*
X160614719Y-87684342D01*
X160449423Y-87665718D01*
X160435577Y-87665718D01*
X160270280Y-87684342D01*
X160256782Y-87687423D01*
X160099764Y-87742366D01*
X160090113Y-87747013D01*
X160083343Y-87753783D01*
X159276655Y-87753783D01*
X159276656Y-87753782D01*
X159269889Y-87747015D01*
X159260231Y-87742364D01*
X159103217Y-87687423D01*
X159089719Y-87684342D01*
X158924423Y-87665718D01*
X158910577Y-87665718D01*
X158745280Y-87684342D01*
X158731782Y-87687423D01*
X158574764Y-87742366D01*
X158565113Y-87747013D01*
X158558343Y-87753783D01*
X135550500Y-87753783D01*
X135550500Y-87350000D01*
X170194751Y-87350000D01*
X170195531Y-87356923D01*
X170212906Y-87511135D01*
X170212907Y-87511142D01*
X170213687Y-87518059D01*
X170215986Y-87524630D01*
X170215987Y-87524633D01*
X170265354Y-87665718D01*
X170269544Y-87677690D01*
X170359523Y-87820890D01*
X170479110Y-87940477D01*
X170622310Y-88030456D01*
X170781941Y-88086313D01*
X170950000Y-88105249D01*
X171118059Y-88086313D01*
X171277690Y-88030456D01*
X171420890Y-87940477D01*
X171540477Y-87820890D01*
X171630456Y-87677690D01*
X171686313Y-87518059D01*
X171705249Y-87350000D01*
X171686313Y-87181941D01*
X171630456Y-87022310D01*
X171540477Y-86879110D01*
X171420890Y-86759523D01*
X171277690Y-86669544D01*
X171271124Y-86667246D01*
X171271121Y-86667245D01*
X171124633Y-86615987D01*
X171124630Y-86615986D01*
X171118059Y-86613687D01*
X171111142Y-86612907D01*
X171111135Y-86612906D01*
X170956923Y-86595531D01*
X170950000Y-86594751D01*
X170943077Y-86595531D01*
X170788864Y-86612906D01*
X170788855Y-86612907D01*
X170781941Y-86613687D01*
X170775371Y-86615985D01*
X170775366Y-86615987D01*
X170628878Y-86667245D01*
X170628872Y-86667247D01*
X170622310Y-86669544D01*
X170616419Y-86673245D01*
X170616418Y-86673246D01*
X170485010Y-86755815D01*
X170485005Y-86755818D01*
X170479110Y-86759523D01*
X170474185Y-86764447D01*
X170474181Y-86764451D01*
X170364451Y-86874181D01*
X170364447Y-86874185D01*
X170359523Y-86879110D01*
X170355818Y-86885005D01*
X170355815Y-86885010D01*
X170273246Y-87016418D01*
X170269544Y-87022310D01*
X170267247Y-87028872D01*
X170267245Y-87028878D01*
X170215987Y-87175366D01*
X170215985Y-87175371D01*
X170213687Y-87181941D01*
X170212907Y-87188855D01*
X170212906Y-87188864D01*
X170201988Y-87285771D01*
X170194751Y-87350000D01*
X135550500Y-87350000D01*
X135550500Y-85270808D01*
X135559939Y-85223355D01*
X135586819Y-85183127D01*
X136851547Y-83918399D01*
X138131746Y-82638199D01*
X138189128Y-82605640D01*
X138255088Y-82607120D01*
X138310952Y-82642221D01*
X138340906Y-82701007D01*
X138336468Y-82766835D01*
X138315987Y-82825366D01*
X138315985Y-82825371D01*
X138313687Y-82831941D01*
X138312907Y-82838855D01*
X138312906Y-82838864D01*
X138297152Y-82978688D01*
X138294751Y-83000000D01*
X138295531Y-83006923D01*
X138312906Y-83161135D01*
X138312907Y-83161142D01*
X138313687Y-83168059D01*
X138315986Y-83174630D01*
X138315987Y-83174633D01*
X138352367Y-83278603D01*
X138369544Y-83327690D01*
X138459523Y-83470890D01*
X138579110Y-83590477D01*
X138722310Y-83680456D01*
X138881941Y-83736313D01*
X139050000Y-83755249D01*
X139218059Y-83736313D01*
X139377690Y-83680456D01*
X139395114Y-83669507D01*
X139461088Y-83650500D01*
X140728474Y-83650500D01*
X140794446Y-83669506D01*
X140840194Y-83720699D01*
X140851693Y-83788383D01*
X140844751Y-83850000D01*
X140845531Y-83856923D01*
X140862906Y-84011135D01*
X140862907Y-84011142D01*
X140863687Y-84018059D01*
X140865986Y-84024630D01*
X140865987Y-84024633D01*
X140897285Y-84114079D01*
X140919544Y-84177690D01*
X141009523Y-84320890D01*
X141129110Y-84440477D01*
X141272310Y-84530456D01*
X141431941Y-84586313D01*
X141438864Y-84587093D01*
X141548657Y-84599464D01*
X141600000Y-84605249D01*
X141768059Y-84586313D01*
X141927690Y-84530456D01*
X142070890Y-84440477D01*
X142190477Y-84320890D01*
X142280456Y-84177690D01*
X142336313Y-84018059D01*
X142355249Y-83850000D01*
X142348306Y-83788383D01*
X142359806Y-83720699D01*
X142405554Y-83669506D01*
X142471526Y-83650500D01*
X147868927Y-83650500D01*
X147880596Y-83651050D01*
X147880681Y-83651058D01*
X147888296Y-83652760D01*
X147958262Y-83650560D01*
X147962157Y-83650500D01*
X147987025Y-83650500D01*
X147990925Y-83650500D01*
X147995294Y-83649947D01*
X148006939Y-83649030D01*
X148052569Y-83647597D01*
X148072951Y-83641674D01*
X148091991Y-83637731D01*
X148113058Y-83635071D01*
X148138653Y-83624937D01*
X148155508Y-83618264D01*
X148166557Y-83614480D01*
X148210398Y-83601744D01*
X148228660Y-83590942D01*
X148246136Y-83582380D01*
X148265871Y-83574568D01*
X148302816Y-83547725D01*
X148312558Y-83541326D01*
X148351865Y-83518081D01*
X148366869Y-83503076D01*
X148381664Y-83490438D01*
X148398837Y-83477963D01*
X148427947Y-83442772D01*
X148435790Y-83434154D01*
X150660479Y-81209465D01*
X150707203Y-81180106D01*
X150762042Y-81173928D01*
X150814130Y-81192154D01*
X150853151Y-81231175D01*
X150909523Y-81320890D01*
X151029110Y-81440477D01*
X151172310Y-81530456D01*
X151331941Y-81586313D01*
X151500000Y-81605249D01*
X151668059Y-81586313D01*
X151827690Y-81530456D01*
X151924691Y-81469505D01*
X151990663Y-81450500D01*
X181899903Y-81450500D01*
X181947356Y-81459939D01*
X181987584Y-81486819D01*
X183313181Y-82812416D01*
X183340061Y-82852644D01*
X183349500Y-82900097D01*
X183349500Y-93309337D01*
X183330494Y-93375308D01*
X183269544Y-93472310D01*
X183267247Y-93478872D01*
X183267245Y-93478878D01*
X183215987Y-93625366D01*
X183215985Y-93625371D01*
X183213687Y-93631941D01*
X183212907Y-93638858D01*
X183212907Y-93638861D01*
X183212848Y-93639390D01*
X183212689Y-93639816D01*
X183211359Y-93645647D01*
X183210591Y-93645471D01*
X183192079Y-93695355D01*
X183147567Y-93735131D01*
X183089628Y-93749500D01*
X181995808Y-93749500D01*
X181948355Y-93740061D01*
X181908127Y-93713181D01*
X177492299Y-89297353D01*
X177484436Y-89288712D01*
X177484382Y-89288647D01*
X177480202Y-89282060D01*
X177429166Y-89234134D01*
X177426369Y-89231423D01*
X177408789Y-89213843D01*
X177408789Y-89213842D01*
X177406035Y-89211089D01*
X177402956Y-89208701D01*
X177402951Y-89208696D01*
X177402548Y-89208383D01*
X177393669Y-89200799D01*
X177366085Y-89174896D01*
X177366079Y-89174892D01*
X177360393Y-89169552D01*
X177353557Y-89165794D01*
X177353556Y-89165793D01*
X177341794Y-89159327D01*
X177325531Y-89148644D01*
X177314924Y-89140416D01*
X177314922Y-89140415D01*
X177308764Y-89135638D01*
X177301612Y-89132543D01*
X177301607Y-89132540D01*
X177266869Y-89117508D01*
X177256379Y-89112369D01*
X177223207Y-89094132D01*
X177223202Y-89094130D01*
X177216368Y-89090373D01*
X177195796Y-89085090D01*
X177177397Y-89078790D01*
X177165087Y-89073463D01*
X177165081Y-89073461D01*
X177157926Y-89070365D01*
X177150227Y-89069145D01*
X177150222Y-89069144D01*
X177112837Y-89063223D01*
X177101399Y-89060854D01*
X177064735Y-89051440D01*
X177064730Y-89051439D01*
X177057177Y-89049500D01*
X177049375Y-89049500D01*
X177035954Y-89049500D01*
X177016555Y-89047973D01*
X177003302Y-89045873D01*
X177003296Y-89045872D01*
X176995595Y-89044653D01*
X176987829Y-89045387D01*
X176987827Y-89045387D01*
X176950140Y-89048950D01*
X176938470Y-89049500D01*
X169611088Y-89049500D01*
X169545115Y-89030493D01*
X169533584Y-89023247D01*
X169533580Y-89023245D01*
X169527690Y-89019544D01*
X169521124Y-89017246D01*
X169521121Y-89017245D01*
X169374633Y-88965987D01*
X169374630Y-88965986D01*
X169368059Y-88963687D01*
X169361142Y-88962907D01*
X169361135Y-88962906D01*
X169206923Y-88945531D01*
X169200000Y-88944751D01*
X169193077Y-88945531D01*
X169038864Y-88962906D01*
X169038855Y-88962907D01*
X169031941Y-88963687D01*
X169025371Y-88965985D01*
X169025366Y-88965987D01*
X168878878Y-89017245D01*
X168878872Y-89017247D01*
X168872310Y-89019544D01*
X168866419Y-89023245D01*
X168866418Y-89023246D01*
X168735010Y-89105815D01*
X168735005Y-89105818D01*
X168729110Y-89109523D01*
X168724185Y-89114447D01*
X168724181Y-89114451D01*
X168614451Y-89224181D01*
X168614447Y-89224185D01*
X168609523Y-89229110D01*
X168605818Y-89235005D01*
X168605815Y-89235010D01*
X168525915Y-89362171D01*
X168519544Y-89372310D01*
X168517247Y-89378872D01*
X168517245Y-89378878D01*
X168465987Y-89525366D01*
X168465985Y-89525371D01*
X168463687Y-89531941D01*
X168462907Y-89538855D01*
X168462906Y-89538864D01*
X168454567Y-89612880D01*
X168444751Y-89700000D01*
X168445531Y-89706923D01*
X168462906Y-89861135D01*
X168462907Y-89861142D01*
X168463687Y-89868059D01*
X168465986Y-89874630D01*
X168465987Y-89874633D01*
X168514288Y-90012671D01*
X168519544Y-90027690D01*
X168609523Y-90170890D01*
X168614451Y-90175818D01*
X168725952Y-90287319D01*
X168758046Y-90342906D01*
X168758046Y-90407094D01*
X168725952Y-90462681D01*
X168664451Y-90524181D01*
X168664447Y-90524185D01*
X168659523Y-90529110D01*
X168655818Y-90535005D01*
X168655815Y-90535010D01*
X168573246Y-90666418D01*
X168569544Y-90672310D01*
X168567247Y-90678872D01*
X168567245Y-90678878D01*
X168515987Y-90825366D01*
X168515985Y-90825371D01*
X168513687Y-90831941D01*
X168512907Y-90838855D01*
X168512906Y-90838864D01*
X168501149Y-90943217D01*
X168494751Y-91000000D01*
X168495531Y-91006923D01*
X168512906Y-91161135D01*
X168512907Y-91161142D01*
X168513687Y-91168059D01*
X168515986Y-91174630D01*
X168515987Y-91174633D01*
X168560936Y-91303092D01*
X168569544Y-91327690D01*
X168650900Y-91457167D01*
X168652384Y-91459528D01*
X168671341Y-91522022D01*
X168655918Y-91585481D01*
X168610391Y-91632303D01*
X168547390Y-91649500D01*
X161678223Y-91649500D01*
X161621310Y-91635668D01*
X161577094Y-91597257D01*
X161555441Y-91542836D01*
X161561180Y-91484549D01*
X161564679Y-91474547D01*
X161558228Y-91464281D01*
X161216542Y-91122595D01*
X161205000Y-91115931D01*
X161193457Y-91122595D01*
X160702872Y-91613181D01*
X160662644Y-91640061D01*
X160615191Y-91649500D01*
X160269809Y-91649500D01*
X160222356Y-91640061D01*
X160182128Y-91613181D01*
X159691542Y-91122595D01*
X159680000Y-91115931D01*
X159668457Y-91122595D01*
X159177872Y-91613181D01*
X159137644Y-91640061D01*
X159090191Y-91649500D01*
X158744809Y-91649500D01*
X158697356Y-91640061D01*
X158657128Y-91613181D01*
X158166542Y-91122595D01*
X158155000Y-91115931D01*
X158143456Y-91122596D01*
X157801771Y-91464280D01*
X157795320Y-91474547D01*
X157798819Y-91484547D01*
X157804559Y-91542835D01*
X157782906Y-91597256D01*
X157738690Y-91635667D01*
X157681777Y-91649500D01*
X151861088Y-91649500D01*
X151795115Y-91630493D01*
X151783584Y-91623247D01*
X151783580Y-91623245D01*
X151777690Y-91619544D01*
X151771124Y-91617246D01*
X151771121Y-91617245D01*
X151624633Y-91565987D01*
X151624630Y-91565986D01*
X151618059Y-91563687D01*
X151611142Y-91562907D01*
X151611135Y-91562906D01*
X151456923Y-91545531D01*
X151450000Y-91544751D01*
X151443077Y-91545531D01*
X151288864Y-91562906D01*
X151288855Y-91562907D01*
X151281941Y-91563687D01*
X151275371Y-91565985D01*
X151275366Y-91565987D01*
X151128878Y-91617245D01*
X151128872Y-91617247D01*
X151122310Y-91619544D01*
X151116419Y-91623245D01*
X151116418Y-91623246D01*
X150985010Y-91705815D01*
X150985005Y-91705818D01*
X150979110Y-91709523D01*
X150974185Y-91714447D01*
X150974181Y-91714451D01*
X150864451Y-91824181D01*
X150864447Y-91824185D01*
X150859523Y-91829110D01*
X150855818Y-91835005D01*
X150855815Y-91835010D01*
X150816405Y-91897731D01*
X150769544Y-91972310D01*
X150767247Y-91978872D01*
X150767245Y-91978878D01*
X150715987Y-92125366D01*
X150715985Y-92125371D01*
X150713687Y-92131941D01*
X150712907Y-92138855D01*
X150712906Y-92138864D01*
X150700482Y-92249135D01*
X150694751Y-92300000D01*
X150695531Y-92306923D01*
X150712906Y-92461135D01*
X150712907Y-92461142D01*
X150713687Y-92468059D01*
X150715986Y-92474630D01*
X150715987Y-92474633D01*
X150760683Y-92602369D01*
X150769544Y-92627690D01*
X150859523Y-92770890D01*
X150864450Y-92775817D01*
X150864451Y-92775818D01*
X150900952Y-92812319D01*
X150933046Y-92867906D01*
X150933046Y-92932094D01*
X150900952Y-92987681D01*
X150864451Y-93024181D01*
X150864447Y-93024185D01*
X150859523Y-93029110D01*
X150855818Y-93035005D01*
X150855815Y-93035010D01*
X150813050Y-93103071D01*
X150769544Y-93172310D01*
X150767247Y-93178872D01*
X150767245Y-93178878D01*
X150715987Y-93325366D01*
X150715985Y-93325371D01*
X150713687Y-93331941D01*
X150712907Y-93338855D01*
X150712906Y-93338864D01*
X150695531Y-93493077D01*
X150694751Y-93500000D01*
X150695531Y-93506923D01*
X150712906Y-93661135D01*
X150712907Y-93661142D01*
X150713687Y-93668059D01*
X150715986Y-93674630D01*
X150715987Y-93674633D01*
X150764108Y-93812157D01*
X150769544Y-93827690D01*
X150784253Y-93851099D01*
X150843861Y-93945965D01*
X150859523Y-93970890D01*
X150979110Y-94090477D01*
X151122310Y-94180456D01*
X151281941Y-94236313D01*
X151356989Y-94244769D01*
X151437237Y-94253811D01*
X151450000Y-94255249D01*
X151462763Y-94253811D01*
X151543011Y-94244769D01*
X151618059Y-94236313D01*
X151777690Y-94180456D01*
X151795114Y-94169507D01*
X151861088Y-94150500D01*
X171247390Y-94150500D01*
X171310391Y-94167697D01*
X171355918Y-94214519D01*
X171371341Y-94277978D01*
X171352384Y-94340472D01*
X171285397Y-94447081D01*
X171269544Y-94472310D01*
X171267247Y-94478872D01*
X171267245Y-94478878D01*
X171215987Y-94625366D01*
X171215985Y-94625371D01*
X171213687Y-94631941D01*
X171212907Y-94638855D01*
X171212906Y-94638864D01*
X171198583Y-94765987D01*
X171194751Y-94800000D01*
X171195531Y-94806923D01*
X171212906Y-94961135D01*
X171212907Y-94961142D01*
X171213687Y-94968059D01*
X171215986Y-94974630D01*
X171215987Y-94974633D01*
X171254609Y-95085010D01*
X171269544Y-95127690D01*
X171359523Y-95270890D01*
X171479110Y-95390477D01*
X171622310Y-95480456D01*
X171781941Y-95536313D01*
X171788864Y-95537093D01*
X171903414Y-95550000D01*
X171950000Y-95555249D01*
X172118059Y-95536313D01*
X172277690Y-95480456D01*
X172420890Y-95390477D01*
X172540477Y-95270890D01*
X172630456Y-95127690D01*
X172686313Y-94968059D01*
X172705249Y-94800000D01*
X172686313Y-94631941D01*
X172630456Y-94472310D01*
X172547615Y-94340471D01*
X172528659Y-94277978D01*
X172544082Y-94214519D01*
X172589609Y-94167697D01*
X172652610Y-94150500D01*
X175229192Y-94150500D01*
X175276645Y-94159939D01*
X175316873Y-94186819D01*
X178502056Y-97372002D01*
X178531416Y-97418728D01*
X178569544Y-97527690D01*
X178573245Y-97533581D01*
X178573248Y-97533586D01*
X178641852Y-97642767D01*
X178659523Y-97670890D01*
X178779110Y-97790477D01*
X178922310Y-97880456D01*
X179081941Y-97936313D01*
X179250000Y-97955249D01*
X179418059Y-97936313D01*
X179577690Y-97880456D01*
X179720890Y-97790477D01*
X179840477Y-97670890D01*
X179930456Y-97527690D01*
X179986313Y-97368059D01*
X180005249Y-97200000D01*
X179999383Y-97147943D01*
X179987093Y-97038864D01*
X179986313Y-97031941D01*
X179930456Y-96872310D01*
X179840477Y-96729110D01*
X179749048Y-96637680D01*
X179716954Y-96582094D01*
X179716954Y-96517906D01*
X179749048Y-96462319D01*
X179764226Y-96447141D01*
X179840477Y-96370890D01*
X179930456Y-96227690D01*
X179986313Y-96068059D01*
X180005249Y-95900000D01*
X179986313Y-95731941D01*
X179930456Y-95572310D01*
X179840477Y-95429110D01*
X179720890Y-95309523D01*
X179705217Y-95299675D01*
X179583586Y-95223248D01*
X179583581Y-95223245D01*
X179577690Y-95219544D01*
X179556736Y-95212211D01*
X179468728Y-95181416D01*
X179422002Y-95152056D01*
X176167299Y-91897353D01*
X176159436Y-91888712D01*
X176159382Y-91888646D01*
X176155202Y-91882060D01*
X176149517Y-91876721D01*
X176149515Y-91876719D01*
X176136920Y-91864892D01*
X176104873Y-91815769D01*
X176098987Y-91757414D01*
X176120578Y-91702881D01*
X176164816Y-91664371D01*
X176221804Y-91650500D01*
X176879192Y-91650500D01*
X176926645Y-91659939D01*
X176966873Y-91686819D01*
X180802694Y-95522640D01*
X180810554Y-95531277D01*
X180810619Y-95531356D01*
X180814798Y-95537940D01*
X180820481Y-95543277D01*
X180820483Y-95543279D01*
X180865832Y-95585864D01*
X180868626Y-95588572D01*
X180888965Y-95608911D01*
X180892036Y-95611293D01*
X180892437Y-95611604D01*
X180901323Y-95619192D01*
X180934607Y-95650448D01*
X180953201Y-95660670D01*
X180969460Y-95671351D01*
X180980065Y-95679577D01*
X180980069Y-95679579D01*
X180986236Y-95684363D01*
X180993399Y-95687462D01*
X180993398Y-95687462D01*
X181028136Y-95702494D01*
X181038628Y-95707634D01*
X181078632Y-95729627D01*
X181099191Y-95734905D01*
X181117598Y-95741208D01*
X181129910Y-95746536D01*
X181129911Y-95746536D01*
X181137074Y-95749636D01*
X181182174Y-95756778D01*
X181193605Y-95759146D01*
X181237823Y-95770500D01*
X181259046Y-95770500D01*
X181278443Y-95772026D01*
X181299405Y-95775347D01*
X181344859Y-95771050D01*
X181356530Y-95770500D01*
X188642278Y-95770500D01*
X188699535Y-95784511D01*
X188743853Y-95823377D01*
X188858395Y-95986961D01*
X188858401Y-95986968D01*
X188861505Y-95991401D01*
X188865335Y-95995231D01*
X188865336Y-95995232D01*
X188983430Y-96113326D01*
X189014726Y-96166072D01*
X189016915Y-96227365D01*
X188989462Y-96282210D01*
X188939083Y-96317189D01*
X188823702Y-96360223D01*
X188807669Y-96366204D01*
X188800572Y-96371516D01*
X188800568Y-96371519D01*
X188699550Y-96447141D01*
X188699546Y-96447144D01*
X188692454Y-96452454D01*
X188687144Y-96459546D01*
X188687141Y-96459550D01*
X188611519Y-96560568D01*
X188611516Y-96560572D01*
X188606204Y-96567669D01*
X188603104Y-96575978D01*
X188603104Y-96575980D01*
X188558620Y-96695247D01*
X188558619Y-96695250D01*
X188555909Y-96702517D01*
X188555079Y-96710227D01*
X188555079Y-96710232D01*
X188549855Y-96758819D01*
X188549854Y-96758831D01*
X188549500Y-96762127D01*
X188549500Y-96765448D01*
X188549500Y-96765449D01*
X188549500Y-98554560D01*
X188549500Y-98554578D01*
X188549501Y-98557872D01*
X188549853Y-98561150D01*
X188549854Y-98561161D01*
X188555079Y-98609768D01*
X188555080Y-98609773D01*
X188555909Y-98617483D01*
X188558619Y-98624749D01*
X188558620Y-98624753D01*
X188590919Y-98711350D01*
X188606204Y-98752331D01*
X188611518Y-98759430D01*
X188611519Y-98759431D01*
X188612083Y-98760185D01*
X188692454Y-98867546D01*
X188807669Y-98953796D01*
X188942517Y-99004091D01*
X189002127Y-99010500D01*
X190797872Y-99010499D01*
X190857483Y-99004091D01*
X190992331Y-98953796D01*
X191107546Y-98867546D01*
X191193796Y-98752331D01*
X191244091Y-98617483D01*
X191250500Y-98557873D01*
X191250499Y-96762128D01*
X191244091Y-96702517D01*
X191193796Y-96567669D01*
X191107546Y-96452454D01*
X190992331Y-96366204D01*
X190922359Y-96340106D01*
X190860916Y-96317189D01*
X190810537Y-96282210D01*
X190783084Y-96227365D01*
X190785273Y-96166072D01*
X190816566Y-96113329D01*
X190938495Y-95991401D01*
X191074035Y-95797830D01*
X191173903Y-95583663D01*
X191235063Y-95355408D01*
X191255659Y-95120000D01*
X191235063Y-94884592D01*
X191173903Y-94656337D01*
X191074035Y-94442171D01*
X190938495Y-94248599D01*
X190771401Y-94081505D01*
X190766970Y-94078402D01*
X190766966Y-94078399D01*
X190585841Y-93951574D01*
X190546976Y-93907256D01*
X190532965Y-93849999D01*
X190546976Y-93792742D01*
X190585839Y-93748426D01*
X190771401Y-93618495D01*
X190938495Y-93451401D01*
X191074035Y-93257830D01*
X191173903Y-93043663D01*
X191235063Y-92815408D01*
X191255659Y-92580000D01*
X191235063Y-92344592D01*
X191179939Y-92138864D01*
X191175305Y-92121569D01*
X191175304Y-92121567D01*
X191173903Y-92116337D01*
X191074035Y-91902171D01*
X190938495Y-91708599D01*
X190771401Y-91541505D01*
X190766968Y-91538401D01*
X190766961Y-91538395D01*
X190585842Y-91411575D01*
X190546976Y-91367257D01*
X190532965Y-91310000D01*
X190546976Y-91252743D01*
X190585842Y-91208425D01*
X190766961Y-91081604D01*
X190766961Y-91081603D01*
X190771401Y-91078495D01*
X190938495Y-90911401D01*
X191074035Y-90717830D01*
X191173903Y-90503663D01*
X191235063Y-90275408D01*
X191255659Y-90040000D01*
X191235063Y-89804592D01*
X191176419Y-89585728D01*
X191175305Y-89581569D01*
X191175304Y-89581567D01*
X191173903Y-89576337D01*
X191074035Y-89362171D01*
X190938495Y-89168599D01*
X190771401Y-89001505D01*
X190766968Y-88998401D01*
X190766961Y-88998395D01*
X190585842Y-88871575D01*
X190546976Y-88827257D01*
X190532965Y-88770000D01*
X190546976Y-88712743D01*
X190585842Y-88668425D01*
X190766961Y-88541604D01*
X190766961Y-88541603D01*
X190771401Y-88538495D01*
X190938495Y-88371401D01*
X191074035Y-88177830D01*
X191173903Y-87963663D01*
X191235063Y-87735408D01*
X191255659Y-87500000D01*
X191235063Y-87264592D01*
X191173903Y-87036337D01*
X191074035Y-86822171D01*
X190938495Y-86628599D01*
X190771401Y-86461505D01*
X190766968Y-86458401D01*
X190766961Y-86458395D01*
X190585842Y-86331575D01*
X190546976Y-86287257D01*
X190532965Y-86230000D01*
X190546976Y-86172743D01*
X190585842Y-86128425D01*
X190766961Y-86001604D01*
X190766961Y-86001603D01*
X190771401Y-85998495D01*
X190938495Y-85831401D01*
X191074035Y-85637830D01*
X191173903Y-85423663D01*
X191235063Y-85195408D01*
X191255659Y-84960000D01*
X191235063Y-84724592D01*
X191180794Y-84522056D01*
X191175305Y-84501569D01*
X191175304Y-84501567D01*
X191173903Y-84496337D01*
X191074035Y-84282171D01*
X190938495Y-84088599D01*
X190771401Y-83921505D01*
X190766970Y-83918402D01*
X190766966Y-83918399D01*
X190585405Y-83791269D01*
X190546540Y-83746951D01*
X190532529Y-83689694D01*
X190546540Y-83632437D01*
X190585406Y-83588119D01*
X190766638Y-83461219D01*
X190774909Y-83454278D01*
X190934278Y-83294909D01*
X190941215Y-83286643D01*
X191070498Y-83102008D01*
X191075886Y-83092676D01*
X191171143Y-82888397D01*
X191174831Y-82878263D01*
X191226943Y-82683780D01*
X191227311Y-82672551D01*
X191216369Y-82670000D01*
X188583631Y-82670000D01*
X188572688Y-82672551D01*
X188573056Y-82683780D01*
X188625168Y-82878263D01*
X188628856Y-82888397D01*
X188724113Y-83092676D01*
X188729501Y-83102008D01*
X188858784Y-83286643D01*
X188865721Y-83294909D01*
X189025090Y-83454278D01*
X189033356Y-83461215D01*
X189214595Y-83588120D01*
X189253460Y-83632438D01*
X189267471Y-83689695D01*
X189253460Y-83746952D01*
X189214594Y-83791270D01*
X189033034Y-83918399D01*
X189033029Y-83918402D01*
X189028599Y-83921505D01*
X189024775Y-83925328D01*
X189024769Y-83925334D01*
X188865334Y-84084769D01*
X188865328Y-84084775D01*
X188861505Y-84088599D01*
X188858402Y-84093029D01*
X188858399Y-84093034D01*
X188743854Y-84256623D01*
X188699536Y-84295489D01*
X188642279Y-84309500D01*
X187930808Y-84309500D01*
X187883355Y-84300061D01*
X187843127Y-84273181D01*
X184886299Y-81316353D01*
X184855868Y-81266427D01*
X184851697Y-81208107D01*
X184874714Y-81154359D01*
X184919802Y-81117134D01*
X184973706Y-81105409D01*
X184973691Y-81105192D01*
X185034876Y-81100816D01*
X185043723Y-81100500D01*
X189037511Y-81100500D01*
X189097627Y-81116047D01*
X189142669Y-81158790D01*
X189161341Y-81218010D01*
X189148961Y-81278858D01*
X189108635Y-81326075D01*
X189033352Y-81378788D01*
X189025092Y-81385719D01*
X188865719Y-81545092D01*
X188858784Y-81553357D01*
X188729508Y-81737982D01*
X188724110Y-81747332D01*
X188628856Y-81951602D01*
X188625168Y-81961736D01*
X188573056Y-82156219D01*
X188572688Y-82167448D01*
X188583631Y-82170000D01*
X191216369Y-82170000D01*
X191227311Y-82167448D01*
X191226943Y-82156219D01*
X191174831Y-81961736D01*
X191171143Y-81951602D01*
X191075889Y-81747332D01*
X191070491Y-81737982D01*
X190941215Y-81553357D01*
X190934280Y-81545092D01*
X190774909Y-81385721D01*
X190766643Y-81378784D01*
X190585405Y-81251880D01*
X190546540Y-81207562D01*
X190532529Y-81150305D01*
X190546540Y-81093048D01*
X190585406Y-81048730D01*
X190596966Y-81040636D01*
X190771401Y-80918495D01*
X190938495Y-80751401D01*
X191074035Y-80557830D01*
X191173903Y-80343663D01*
X191235063Y-80115408D01*
X191255659Y-79880000D01*
X191235063Y-79644592D01*
X191173903Y-79416337D01*
X191074035Y-79202171D01*
X190938495Y-79008599D01*
X190771401Y-78841505D01*
X190766968Y-78838401D01*
X190766961Y-78838395D01*
X190585842Y-78711575D01*
X190546976Y-78667257D01*
X190532965Y-78610000D01*
X190546976Y-78552743D01*
X190585842Y-78508425D01*
X190766961Y-78381604D01*
X190766961Y-78381603D01*
X190771401Y-78378495D01*
X190938495Y-78211401D01*
X191074035Y-78017830D01*
X191173903Y-77803663D01*
X191235063Y-77575408D01*
X191255659Y-77340000D01*
X191235063Y-77104592D01*
X191173903Y-76876337D01*
X191074035Y-76662171D01*
X190938495Y-76468599D01*
X190771401Y-76301505D01*
X190766970Y-76298402D01*
X190766966Y-76298399D01*
X190582259Y-76169066D01*
X190582257Y-76169064D01*
X190577830Y-76165965D01*
X190572933Y-76163681D01*
X190572927Y-76163678D01*
X190368572Y-76068386D01*
X190368570Y-76068385D01*
X190363663Y-76066097D01*
X190358438Y-76064697D01*
X190358430Y-76064694D01*
X190140634Y-76006337D01*
X190140630Y-76006336D01*
X190135408Y-76004937D01*
X190130020Y-76004465D01*
X190130017Y-76004465D01*
X189905395Y-75984813D01*
X189900000Y-75984341D01*
X189894605Y-75984813D01*
X189669982Y-76004465D01*
X189669977Y-76004465D01*
X189664592Y-76004937D01*
X189659371Y-76006335D01*
X189659365Y-76006337D01*
X189441569Y-76064694D01*
X189441557Y-76064698D01*
X189436337Y-76066097D01*
X189431432Y-76068383D01*
X189431427Y-76068386D01*
X189227081Y-76163675D01*
X189227077Y-76163677D01*
X189222171Y-76165965D01*
X189217738Y-76169068D01*
X189217731Y-76169073D01*
X189149178Y-76217075D01*
X189115342Y-76233761D01*
X189078055Y-76239500D01*
X185847204Y-76239500D01*
X185799751Y-76230061D01*
X185759523Y-76203181D01*
X183006342Y-73450000D01*
X190494435Y-73450000D01*
X190514632Y-73629255D01*
X190516928Y-73635819D01*
X190516930Y-73635824D01*
X190571913Y-73792956D01*
X190574211Y-73799522D01*
X190670184Y-73952262D01*
X190797738Y-74079816D01*
X190950478Y-74175789D01*
X191120745Y-74235368D01*
X191300000Y-74255565D01*
X191479255Y-74235368D01*
X191649522Y-74175789D01*
X191802262Y-74079816D01*
X191929816Y-73952262D01*
X192025789Y-73799522D01*
X192085368Y-73629255D01*
X192105565Y-73450000D01*
X192085368Y-73270745D01*
X192025789Y-73100478D01*
X192022082Y-73094579D01*
X192004108Y-73065973D01*
X191985101Y-73000000D01*
X192004108Y-72934027D01*
X192022086Y-72905415D01*
X192025789Y-72899522D01*
X192085368Y-72729255D01*
X192105565Y-72550000D01*
X192085368Y-72370745D01*
X192025789Y-72200478D01*
X192004106Y-72165969D01*
X191985101Y-72099998D01*
X192004107Y-72034027D01*
X192025789Y-71999522D01*
X192085368Y-71829255D01*
X192105565Y-71650000D01*
X192085368Y-71470745D01*
X192025789Y-71300478D01*
X191929816Y-71147738D01*
X191802262Y-71020184D01*
X191649522Y-70924211D01*
X191642959Y-70921914D01*
X191642956Y-70921913D01*
X191485824Y-70866930D01*
X191485819Y-70866928D01*
X191479255Y-70864632D01*
X191472335Y-70863852D01*
X191472334Y-70863852D01*
X191306923Y-70845215D01*
X191300000Y-70844435D01*
X191293077Y-70845215D01*
X191127665Y-70863852D01*
X191127662Y-70863852D01*
X191120745Y-70864632D01*
X191114182Y-70866928D01*
X191114175Y-70866930D01*
X190957043Y-70921913D01*
X190957036Y-70921915D01*
X190950478Y-70924211D01*
X190944590Y-70927910D01*
X190944587Y-70927912D01*
X190803638Y-71016476D01*
X190803633Y-71016479D01*
X190797738Y-71020184D01*
X190792813Y-71025108D01*
X190792809Y-71025112D01*
X190675112Y-71142809D01*
X190675108Y-71142813D01*
X190670184Y-71147738D01*
X190666479Y-71153633D01*
X190666476Y-71153638D01*
X190577912Y-71294587D01*
X190577910Y-71294590D01*
X190574211Y-71300478D01*
X190571915Y-71307036D01*
X190571913Y-71307043D01*
X190516930Y-71464175D01*
X190516928Y-71464182D01*
X190514632Y-71470745D01*
X190513852Y-71477662D01*
X190513852Y-71477665D01*
X190498499Y-71613931D01*
X190494435Y-71650000D01*
X190514632Y-71829255D01*
X190516928Y-71835819D01*
X190516930Y-71835824D01*
X190571913Y-71992955D01*
X190574211Y-71999522D01*
X190577909Y-72005408D01*
X190577911Y-72005411D01*
X190595893Y-72034029D01*
X190614898Y-72099999D01*
X190595893Y-72165969D01*
X190577919Y-72194574D01*
X190577913Y-72194585D01*
X190574211Y-72200478D01*
X190571913Y-72207043D01*
X190571910Y-72207051D01*
X190516930Y-72364175D01*
X190516928Y-72364182D01*
X190514632Y-72370745D01*
X190513852Y-72377662D01*
X190513852Y-72377665D01*
X190495215Y-72543077D01*
X190494435Y-72550000D01*
X190495215Y-72556923D01*
X190495940Y-72563362D01*
X190514632Y-72729255D01*
X190516928Y-72735819D01*
X190516930Y-72735824D01*
X190571913Y-72892956D01*
X190574211Y-72899522D01*
X190577912Y-72905412D01*
X190595892Y-72934027D01*
X190614898Y-72999997D01*
X190595893Y-73065968D01*
X190577916Y-73094579D01*
X190577914Y-73094584D01*
X190574211Y-73100478D01*
X190571915Y-73107036D01*
X190571913Y-73107043D01*
X190516930Y-73264175D01*
X190516928Y-73264182D01*
X190514632Y-73270745D01*
X190513852Y-73277662D01*
X190513852Y-73277665D01*
X190499507Y-73404982D01*
X190494435Y-73450000D01*
X183006342Y-73450000D01*
X180850465Y-71294123D01*
X180842919Y-71285202D01*
X180842780Y-71285323D01*
X180838911Y-71280858D01*
X180835486Y-71276048D01*
X180769967Y-71213576D01*
X180767856Y-71211514D01*
X180743187Y-71186845D01*
X180743186Y-71186844D01*
X180741101Y-71184759D01*
X180738827Y-71182881D01*
X180738820Y-71182875D01*
X180734382Y-71179210D01*
X180727776Y-71173347D01*
X180683378Y-71131014D01*
X180656342Y-71113638D01*
X180644441Y-71104948D01*
X180624205Y-71088240D01*
X180624198Y-71088235D01*
X180619645Y-71084476D01*
X180565788Y-71055067D01*
X180558179Y-71050553D01*
X180553323Y-71047432D01*
X180506572Y-71017387D01*
X180476730Y-71005440D01*
X180463399Y-70999159D01*
X180435183Y-70983752D01*
X180429559Y-70981954D01*
X180429554Y-70981952D01*
X180376733Y-70965067D01*
X180368405Y-70962073D01*
X180316937Y-70941468D01*
X180316929Y-70941465D01*
X180311457Y-70939275D01*
X180279895Y-70933191D01*
X180265614Y-70929546D01*
X180248923Y-70924211D01*
X180240618Y-70921556D01*
X180240614Y-70921555D01*
X180234992Y-70919758D01*
X180229127Y-70919056D01*
X180229124Y-70919056D01*
X180174063Y-70912472D01*
X180165323Y-70911109D01*
X180110878Y-70900616D01*
X180110873Y-70900615D01*
X180105085Y-70899500D01*
X180099182Y-70899500D01*
X180072939Y-70899500D01*
X180058219Y-70898623D01*
X180032177Y-70895509D01*
X180032170Y-70895508D01*
X180026309Y-70894808D01*
X180020420Y-70895229D01*
X180020415Y-70895229D01*
X179965119Y-70899184D01*
X179956274Y-70899500D01*
X140937237Y-70899500D01*
X140925596Y-70898527D01*
X140925583Y-70898712D01*
X140919689Y-70898290D01*
X140913866Y-70897311D01*
X140907967Y-70897451D01*
X140907961Y-70897451D01*
X140823386Y-70899465D01*
X140820435Y-70899500D01*
X140782575Y-70899500D01*
X140779642Y-70899779D01*
X140779640Y-70899780D01*
X140778123Y-70899924D01*
X140773904Y-70900327D01*
X140765089Y-70900852D01*
X140709653Y-70902172D01*
X140709647Y-70902172D01*
X140703755Y-70902313D01*
X140697992Y-70903566D01*
X140697980Y-70903568D01*
X140672339Y-70909145D01*
X140657777Y-70911416D01*
X140631662Y-70913910D01*
X140631657Y-70913910D01*
X140625782Y-70914472D01*
X140620122Y-70916133D01*
X140620116Y-70916135D01*
X140566915Y-70931756D01*
X140558343Y-70933944D01*
X140504159Y-70945731D01*
X140504153Y-70945732D01*
X140498388Y-70946987D01*
X140492962Y-70949310D01*
X140492957Y-70949312D01*
X140468828Y-70959644D01*
X140454962Y-70964628D01*
X140429791Y-70972020D01*
X140429789Y-70972020D01*
X140424125Y-70973684D01*
X140418882Y-70976386D01*
X140418874Y-70976390D01*
X140369583Y-71001800D01*
X140361581Y-71005570D01*
X140310617Y-71027395D01*
X140310611Y-71027397D01*
X140305187Y-71029721D01*
X140278560Y-71047741D01*
X140265894Y-71055256D01*
X140242572Y-71067279D01*
X140242562Y-71067285D01*
X140237318Y-71069989D01*
X140232676Y-71073639D01*
X140232672Y-71073642D01*
X140189090Y-71107915D01*
X140181945Y-71113132D01*
X140136025Y-71144212D01*
X140136016Y-71144219D01*
X140131135Y-71147523D01*
X140126970Y-71151687D01*
X140126954Y-71151701D01*
X140108400Y-71170255D01*
X140097379Y-71180037D01*
X140076753Y-71196258D01*
X140076742Y-71196267D01*
X140072114Y-71199908D01*
X140068255Y-71204360D01*
X140068250Y-71204366D01*
X140031932Y-71246278D01*
X140025902Y-71252754D01*
X139007385Y-72271271D01*
X138951797Y-72303365D01*
X138741569Y-72359694D01*
X138741557Y-72359698D01*
X138736337Y-72361097D01*
X138731432Y-72363383D01*
X138731427Y-72363386D01*
X138527081Y-72458675D01*
X138527077Y-72458677D01*
X138522171Y-72460965D01*
X138517738Y-72464068D01*
X138517731Y-72464073D01*
X138333034Y-72593399D01*
X138333029Y-72593402D01*
X138328599Y-72596505D01*
X138324775Y-72600328D01*
X138324769Y-72600334D01*
X138165334Y-72759769D01*
X138165328Y-72759775D01*
X138161505Y-72763599D01*
X138158402Y-72768029D01*
X138158399Y-72768034D01*
X138029073Y-72952731D01*
X138029068Y-72952738D01*
X138025965Y-72957171D01*
X138023677Y-72962077D01*
X138023675Y-72962081D01*
X137928386Y-73166427D01*
X137928383Y-73166432D01*
X137926097Y-73171337D01*
X137924698Y-73176557D01*
X137924694Y-73176569D01*
X137866337Y-73394365D01*
X137866335Y-73394371D01*
X137864937Y-73399592D01*
X137864465Y-73404977D01*
X137864465Y-73404982D01*
X137852962Y-73536460D01*
X137844341Y-73635000D01*
X137844813Y-73640395D01*
X137858160Y-73792956D01*
X137864937Y-73870408D01*
X137866336Y-73875630D01*
X137866337Y-73875634D01*
X137924694Y-74093430D01*
X137924697Y-74093438D01*
X137926097Y-74098663D01*
X137928385Y-74103570D01*
X137928386Y-74103572D01*
X138023678Y-74307927D01*
X138023681Y-74307933D01*
X138025965Y-74312830D01*
X138029064Y-74317257D01*
X138029066Y-74317259D01*
X138158399Y-74501966D01*
X138158402Y-74501970D01*
X138161505Y-74506401D01*
X138165335Y-74510231D01*
X138165336Y-74510232D01*
X138283430Y-74628326D01*
X138314726Y-74681072D01*
X138316915Y-74742365D01*
X138289462Y-74797210D01*
X138239083Y-74832189D01*
X138123702Y-74875223D01*
X138107669Y-74881204D01*
X138100572Y-74886516D01*
X138100568Y-74886519D01*
X137999550Y-74962141D01*
X137999546Y-74962144D01*
X137992454Y-74967454D01*
X137987144Y-74974546D01*
X137987141Y-74974550D01*
X137911519Y-75075568D01*
X137911516Y-75075572D01*
X137906204Y-75082669D01*
X137903104Y-75090978D01*
X137903104Y-75090980D01*
X137858620Y-75210247D01*
X137858619Y-75210250D01*
X137855909Y-75217517D01*
X137855079Y-75225227D01*
X137855079Y-75225232D01*
X137849855Y-75273819D01*
X137849854Y-75273831D01*
X137849500Y-75277127D01*
X137849500Y-75280448D01*
X137849500Y-75280449D01*
X137849500Y-77069560D01*
X137849500Y-77069578D01*
X137849501Y-77072872D01*
X137849853Y-77076150D01*
X137849854Y-77076161D01*
X137855079Y-77124768D01*
X137855080Y-77124773D01*
X137855909Y-77132483D01*
X137858619Y-77139749D01*
X137858620Y-77139753D01*
X137882293Y-77203223D01*
X137906204Y-77267331D01*
X137992454Y-77382546D01*
X138107669Y-77468796D01*
X138242517Y-77519091D01*
X138302127Y-77525500D01*
X140097872Y-77525499D01*
X140157483Y-77519091D01*
X140292331Y-77468796D01*
X140407546Y-77382546D01*
X140493796Y-77267331D01*
X140544091Y-77132483D01*
X140550500Y-77072873D01*
X140550499Y-76432202D01*
X140559938Y-76384750D01*
X140586815Y-76344525D01*
X141794522Y-75136819D01*
X141834751Y-75109939D01*
X141882204Y-75100500D01*
X143388771Y-75100500D01*
X143445066Y-75114015D01*
X143489089Y-75151615D01*
X143511244Y-75205102D01*
X143506702Y-75262818D01*
X143476452Y-75312181D01*
X143414451Y-75374181D01*
X143414447Y-75374185D01*
X143409523Y-75379110D01*
X143405818Y-75385005D01*
X143405815Y-75385010D01*
X143323248Y-75516413D01*
X143323246Y-75516418D01*
X143319544Y-75522310D01*
X143317246Y-75528878D01*
X143317244Y-75528883D01*
X143281416Y-75631271D01*
X143252056Y-75677996D01*
X134497354Y-84432698D01*
X134488719Y-84440556D01*
X134488639Y-84440621D01*
X134482060Y-84444798D01*
X134476727Y-84450476D01*
X134476722Y-84450481D01*
X134434132Y-84495834D01*
X134431428Y-84498625D01*
X134411089Y-84518965D01*
X134408712Y-84522028D01*
X134408688Y-84522056D01*
X134408363Y-84522476D01*
X134400807Y-84531321D01*
X134374892Y-84558919D01*
X134374887Y-84558924D01*
X134369552Y-84564607D01*
X134365797Y-84571436D01*
X134365789Y-84571448D01*
X134359321Y-84583213D01*
X134348647Y-84599464D01*
X134335638Y-84616236D01*
X134332541Y-84623391D01*
X134332540Y-84623394D01*
X134317506Y-84658133D01*
X134312370Y-84668616D01*
X134294130Y-84701796D01*
X134294127Y-84701802D01*
X134290373Y-84708632D01*
X134288434Y-84716180D01*
X134288431Y-84716190D01*
X134285089Y-84729204D01*
X134278792Y-84747596D01*
X134273464Y-84759910D01*
X134273462Y-84759916D01*
X134270365Y-84767074D01*
X134269145Y-84774772D01*
X134269144Y-84774778D01*
X134263223Y-84812162D01*
X134260855Y-84823593D01*
X134249500Y-84867823D01*
X134249500Y-84875625D01*
X134249500Y-84889046D01*
X134247973Y-84908445D01*
X134245873Y-84921697D01*
X134245872Y-84921704D01*
X134244653Y-84929405D01*
X134245387Y-84937170D01*
X134245387Y-84937172D01*
X134248950Y-84974860D01*
X134249500Y-84986530D01*
X134249500Y-90388912D01*
X134230493Y-90454885D01*
X134223247Y-90466415D01*
X134223243Y-90466422D01*
X134219544Y-90472310D01*
X134217247Y-90478872D01*
X134217245Y-90478878D01*
X134165987Y-90625366D01*
X134165985Y-90625371D01*
X134163687Y-90631941D01*
X134162907Y-90638855D01*
X134162906Y-90638864D01*
X134148239Y-90769042D01*
X134144751Y-90800000D01*
X116773335Y-90800000D01*
X116949645Y-90710166D01*
X116955266Y-90706920D01*
X117275061Y-90499242D01*
X117280315Y-90495425D01*
X117521806Y-90299870D01*
X117529693Y-90288606D01*
X117523027Y-90276580D01*
X115111542Y-87865095D01*
X115100000Y-87858431D01*
X115088457Y-87865095D01*
X112676971Y-90276580D01*
X112670305Y-90288606D01*
X110854327Y-90288606D01*
X110800055Y-90203416D01*
X110745767Y-90118200D01*
X110743915Y-90115200D01*
X110640818Y-89942644D01*
X110637277Y-89936302D01*
X110600079Y-89864845D01*
X110531226Y-89732580D01*
X110529537Y-89729210D01*
X110442109Y-89547664D01*
X110439292Y-89541367D01*
X110351534Y-89329500D01*
X110350022Y-89325669D01*
X110279110Y-89136726D01*
X110276965Y-89130508D01*
X110208083Y-88912041D01*
X110206813Y-88907743D01*
X110201851Y-88889764D01*
X110153070Y-88713010D01*
X110151566Y-88706963D01*
X110102017Y-88483465D01*
X110101074Y-88478780D01*
X110064971Y-88279836D01*
X110064057Y-88273994D01*
X110034195Y-88047169D01*
X110033640Y-88042163D01*
X110015502Y-87840627D01*
X110015126Y-87835002D01*
X110005152Y-87606568D01*
X110005035Y-87601161D01*
X110005035Y-87503244D01*
X111395092Y-87503244D01*
X111415049Y-87884048D01*
X111415726Y-87890491D01*
X111475378Y-88267120D01*
X111476726Y-88273462D01*
X111575422Y-88641802D01*
X111577421Y-88647955D01*
X111714079Y-89003959D01*
X111716716Y-89009883D01*
X111889833Y-89349645D01*
X111893079Y-89355266D01*
X112100757Y-89675061D01*
X112104574Y-89680315D01*
X112300129Y-89921807D01*
X112311392Y-89929693D01*
X112323418Y-89923027D01*
X114734904Y-87511542D01*
X114741568Y-87500000D01*
X115458431Y-87500000D01*
X115465095Y-87511542D01*
X117876580Y-89923027D01*
X117888606Y-89929693D01*
X117899870Y-89921806D01*
X118095425Y-89680315D01*
X118099242Y-89675061D01*
X118306920Y-89355266D01*
X118310166Y-89349645D01*
X118483283Y-89009883D01*
X118485920Y-89003959D01*
X118622578Y-88647955D01*
X118624577Y-88641802D01*
X118723273Y-88273462D01*
X118724621Y-88267120D01*
X118784273Y-87890491D01*
X118784950Y-87884048D01*
X118804908Y-87503244D01*
X118804908Y-87500000D01*
X123834127Y-87500000D01*
X123834656Y-87505709D01*
X123849983Y-87671121D01*
X123853978Y-87714229D01*
X123855547Y-87719743D01*
X123911286Y-87915647D01*
X123911288Y-87915651D01*
X123912856Y-87921162D01*
X123915408Y-87926288D01*
X123915410Y-87926292D01*
X124006200Y-88108623D01*
X124006202Y-88108627D01*
X124008755Y-88113753D01*
X124012205Y-88118321D01*
X124012209Y-88118328D01*
X124100000Y-88234582D01*
X124138409Y-88285444D01*
X124251757Y-88388774D01*
X124286946Y-88444640D01*
X124288472Y-88510652D01*
X124255899Y-88568089D01*
X124182138Y-88641849D01*
X124182134Y-88641853D01*
X124177032Y-88646956D01*
X124173241Y-88653101D01*
X124173237Y-88653107D01*
X124091789Y-88785154D01*
X124091786Y-88785159D01*
X124087997Y-88791303D01*
X124085726Y-88798154D01*
X124085725Y-88798158D01*
X124036891Y-88945531D01*
X124034651Y-88952292D01*
X124033963Y-88959022D01*
X124033962Y-88959029D01*
X124029232Y-89005334D01*
X124024500Y-89051655D01*
X124024500Y-89054802D01*
X124024500Y-89054803D01*
X124024500Y-89595194D01*
X124024500Y-89595213D01*
X124024501Y-89598344D01*
X124024820Y-89601476D01*
X124024821Y-89601477D01*
X124033962Y-89690972D01*
X124033963Y-89690980D01*
X124034651Y-89697708D01*
X124036779Y-89704131D01*
X124036780Y-89704134D01*
X124085725Y-89851841D01*
X124087997Y-89858697D01*
X124091788Y-89864843D01*
X124091789Y-89864845D01*
X124172069Y-89994999D01*
X124177032Y-90003044D01*
X124182141Y-90008153D01*
X124182142Y-90008154D01*
X124186659Y-90012671D01*
X124218752Y-90068254D01*
X124218755Y-90132437D01*
X124186669Y-90188024D01*
X124182536Y-90192157D01*
X124173634Y-90203416D01*
X124092246Y-90335366D01*
X124086180Y-90348374D01*
X124037272Y-90495969D01*
X124034456Y-90509125D01*
X124025319Y-90598555D01*
X124025000Y-90604832D01*
X124025000Y-90608674D01*
X124028450Y-90621549D01*
X124041326Y-90625000D01*
X127758673Y-90625000D01*
X127771548Y-90621549D01*
X127774999Y-90608674D01*
X127774999Y-90604835D01*
X127774678Y-90598552D01*
X127765544Y-90509132D01*
X127762725Y-90495963D01*
X127713819Y-90348374D01*
X127707753Y-90335366D01*
X127626367Y-90203419D01*
X127617462Y-90192157D01*
X127613339Y-90188034D01*
X127581244Y-90132442D01*
X127581247Y-90068251D01*
X127613346Y-90012665D01*
X127622968Y-90003044D01*
X127712003Y-89858697D01*
X127765349Y-89697708D01*
X127775500Y-89598345D01*
X127775499Y-89051656D01*
X127765349Y-88952292D01*
X127712003Y-88791303D01*
X127622968Y-88646956D01*
X127544100Y-88568088D01*
X127511527Y-88510653D01*
X127512290Y-88477652D01*
X127979425Y-88477652D01*
X127987360Y-88485497D01*
X128075675Y-88540179D01*
X128085897Y-88545269D01*
X128275732Y-88618811D01*
X128286714Y-88621937D01*
X128486843Y-88659347D01*
X128498202Y-88660400D01*
X128701798Y-88660400D01*
X128713156Y-88659347D01*
X128913285Y-88621937D01*
X128924267Y-88618811D01*
X129114102Y-88545269D01*
X129124324Y-88540179D01*
X129212637Y-88485497D01*
X129220573Y-88477652D01*
X129214643Y-88468197D01*
X128611542Y-87865095D01*
X128600000Y-87858431D01*
X128588457Y-87865095D01*
X127985355Y-88468197D01*
X127979425Y-88477652D01*
X127512290Y-88477652D01*
X127513053Y-88444641D01*
X127548241Y-88388774D01*
X127661590Y-88285444D01*
X127791244Y-88113753D01*
X127887143Y-87921162D01*
X127902930Y-87865673D01*
X127934515Y-87811928D01*
X128234904Y-87511539D01*
X128241567Y-87500000D01*
X128958431Y-87500000D01*
X128965095Y-87511542D01*
X129265482Y-87811928D01*
X129297067Y-87865674D01*
X129312855Y-87921162D01*
X129315410Y-87926294D01*
X129315412Y-87926298D01*
X129406199Y-88108623D01*
X129406201Y-88108627D01*
X129408754Y-88113753D01*
X129412204Y-88118321D01*
X129412208Y-88118328D01*
X129499999Y-88234582D01*
X129538408Y-88285444D01*
X129542642Y-88289304D01*
X129542645Y-88289307D01*
X129651754Y-88388772D01*
X129686946Y-88444642D01*
X129688471Y-88510654D01*
X129655898Y-88568090D01*
X129582138Y-88641849D01*
X129582134Y-88641853D01*
X129577032Y-88646956D01*
X129573241Y-88653101D01*
X129573237Y-88653107D01*
X129491789Y-88785154D01*
X129491786Y-88785159D01*
X129487997Y-88791303D01*
X129485726Y-88798154D01*
X129485725Y-88798158D01*
X129436891Y-88945531D01*
X129434651Y-88952292D01*
X129433963Y-88959022D01*
X129433962Y-88959029D01*
X129429232Y-89005334D01*
X129424500Y-89051655D01*
X129424500Y-89054802D01*
X129424500Y-89054803D01*
X129424500Y-89595194D01*
X129424500Y-89595213D01*
X129424501Y-89598344D01*
X129424820Y-89601476D01*
X129424821Y-89601477D01*
X129433962Y-89690972D01*
X129433963Y-89690980D01*
X129434651Y-89697708D01*
X129436779Y-89704131D01*
X129436780Y-89704134D01*
X129485725Y-89851841D01*
X129487997Y-89858697D01*
X129491788Y-89864843D01*
X129491789Y-89864845D01*
X129572069Y-89994999D01*
X129577032Y-90003044D01*
X129582141Y-90008153D01*
X129582142Y-90008154D01*
X129586659Y-90012671D01*
X129618752Y-90068254D01*
X129618755Y-90132437D01*
X129586669Y-90188024D01*
X129582536Y-90192157D01*
X129573634Y-90203416D01*
X129492246Y-90335366D01*
X129486180Y-90348374D01*
X129437272Y-90495969D01*
X129434456Y-90509125D01*
X129425319Y-90598555D01*
X129425000Y-90604832D01*
X129425000Y-90608674D01*
X129428450Y-90621549D01*
X129441326Y-90625000D01*
X131358673Y-90625000D01*
X131371548Y-90621549D01*
X131374999Y-90608674D01*
X131374999Y-90604835D01*
X131374678Y-90598552D01*
X131365544Y-90509132D01*
X131362725Y-90495963D01*
X131313819Y-90348374D01*
X131307753Y-90335366D01*
X131226367Y-90203419D01*
X131217462Y-90192157D01*
X131213339Y-90188034D01*
X131181244Y-90132442D01*
X131181247Y-90068251D01*
X131213346Y-90012665D01*
X131222968Y-90003044D01*
X131312003Y-89858697D01*
X131365349Y-89697708D01*
X131375500Y-89598345D01*
X131375499Y-89051656D01*
X131365349Y-88952292D01*
X131312003Y-88791303D01*
X131222968Y-88646956D01*
X131144100Y-88568088D01*
X131111527Y-88510653D01*
X131113053Y-88444641D01*
X131148241Y-88388774D01*
X131261590Y-88285444D01*
X131391244Y-88113753D01*
X131487143Y-87921162D01*
X131546021Y-87714229D01*
X131565872Y-87500000D01*
X131546021Y-87285771D01*
X131487143Y-87078838D01*
X131426886Y-86957825D01*
X131393798Y-86891376D01*
X131393797Y-86891375D01*
X131391244Y-86886247D01*
X131387791Y-86881675D01*
X131387789Y-86881671D01*
X131292747Y-86755815D01*
X131261590Y-86714556D01*
X131257355Y-86710695D01*
X131257352Y-86710692D01*
X131106829Y-86573473D01*
X131106824Y-86573469D01*
X131102594Y-86569613D01*
X131097728Y-86566600D01*
X131097724Y-86566597D01*
X130924544Y-86459369D01*
X130919673Y-86456353D01*
X130914335Y-86454285D01*
X130914331Y-86454283D01*
X130724401Y-86380704D01*
X130724400Y-86380703D01*
X130719055Y-86378633D01*
X130713417Y-86377579D01*
X130513201Y-86340152D01*
X130513198Y-86340151D01*
X130507572Y-86339100D01*
X130292426Y-86339100D01*
X130286800Y-86340151D01*
X130286796Y-86340152D01*
X130086580Y-86377579D01*
X130086577Y-86377579D01*
X130080943Y-86378633D01*
X130075600Y-86380702D01*
X130075596Y-86380704D01*
X129885666Y-86454283D01*
X129885658Y-86454286D01*
X129880325Y-86456353D01*
X129875458Y-86459366D01*
X129875453Y-86459369D01*
X129702273Y-86566597D01*
X129702263Y-86566603D01*
X129697404Y-86569613D01*
X129693178Y-86573465D01*
X129693168Y-86573473D01*
X129542645Y-86710692D01*
X129542636Y-86710700D01*
X129538408Y-86714556D01*
X129534954Y-86719128D01*
X129534951Y-86719133D01*
X129412208Y-86881671D01*
X129412200Y-86881682D01*
X129408754Y-86886247D01*
X129406204Y-86891367D01*
X129406199Y-86891376D01*
X129315412Y-87073701D01*
X129315410Y-87073707D01*
X129312855Y-87078838D01*
X129311288Y-87084346D01*
X129311285Y-87084355D01*
X129297067Y-87134325D01*
X129265482Y-87188070D01*
X128965095Y-87488457D01*
X128958431Y-87500000D01*
X128241567Y-87500000D01*
X128234903Y-87488457D01*
X127934515Y-87188069D01*
X127902929Y-87134321D01*
X127897702Y-87115951D01*
X127887143Y-87078838D01*
X127791244Y-86886247D01*
X127787791Y-86881675D01*
X127787789Y-86881671D01*
X127692747Y-86755815D01*
X127661590Y-86714556D01*
X127657355Y-86710695D01*
X127657352Y-86710692D01*
X127506829Y-86573473D01*
X127506824Y-86573469D01*
X127502594Y-86569613D01*
X127497728Y-86566600D01*
X127497724Y-86566597D01*
X127426256Y-86522346D01*
X127979425Y-86522346D01*
X127985355Y-86531801D01*
X128588457Y-87134903D01*
X128600000Y-87141567D01*
X128611542Y-87134903D01*
X129214643Y-86531801D01*
X129220573Y-86522346D01*
X129212636Y-86514500D01*
X129124327Y-86459822D01*
X129114101Y-86454730D01*
X128924267Y-86381188D01*
X128913285Y-86378062D01*
X128713156Y-86340652D01*
X128701798Y-86339600D01*
X128498202Y-86339600D01*
X128486843Y-86340652D01*
X128286714Y-86378062D01*
X128275732Y-86381188D01*
X128085898Y-86454730D01*
X128075672Y-86459822D01*
X127987362Y-86514500D01*
X127979425Y-86522346D01*
X127426256Y-86522346D01*
X127324544Y-86459369D01*
X127319673Y-86456353D01*
X127314335Y-86454285D01*
X127314331Y-86454283D01*
X127124401Y-86380704D01*
X127124400Y-86380703D01*
X127119055Y-86378633D01*
X127113417Y-86377579D01*
X126913201Y-86340152D01*
X126913198Y-86340151D01*
X126907572Y-86339100D01*
X126692426Y-86339100D01*
X126686800Y-86340151D01*
X126686796Y-86340152D01*
X126486580Y-86377579D01*
X126486577Y-86377579D01*
X126480943Y-86378633D01*
X126475600Y-86380702D01*
X126475596Y-86380704D01*
X126285666Y-86454283D01*
X126285658Y-86454286D01*
X126280325Y-86456353D01*
X126275458Y-86459366D01*
X126275453Y-86459369D01*
X126102273Y-86566597D01*
X126102263Y-86566603D01*
X126097404Y-86569613D01*
X126027834Y-86633034D01*
X125983537Y-86673416D01*
X125930244Y-86702033D01*
X125869754Y-86702033D01*
X125816461Y-86673415D01*
X125706830Y-86573473D01*
X125706825Y-86573469D01*
X125702595Y-86569613D01*
X125697729Y-86566600D01*
X125697725Y-86566597D01*
X125524545Y-86459369D01*
X125519674Y-86456353D01*
X125514336Y-86454285D01*
X125514332Y-86454283D01*
X125324402Y-86380704D01*
X125324401Y-86380703D01*
X125319056Y-86378633D01*
X125313418Y-86377579D01*
X125113202Y-86340152D01*
X125113199Y-86340151D01*
X125107573Y-86339100D01*
X124892427Y-86339100D01*
X124886801Y-86340151D01*
X124886797Y-86340152D01*
X124686581Y-86377579D01*
X124686578Y-86377579D01*
X124680944Y-86378633D01*
X124675601Y-86380702D01*
X124675597Y-86380704D01*
X124485667Y-86454283D01*
X124485659Y-86454286D01*
X124480326Y-86456353D01*
X124475459Y-86459366D01*
X124475454Y-86459369D01*
X124302274Y-86566597D01*
X124302264Y-86566603D01*
X124297405Y-86569613D01*
X124293179Y-86573465D01*
X124293169Y-86573473D01*
X124142646Y-86710692D01*
X124142637Y-86710700D01*
X124138409Y-86714556D01*
X124134955Y-86719128D01*
X124134952Y-86719133D01*
X124012209Y-86881671D01*
X124012201Y-86881682D01*
X124008755Y-86886247D01*
X124006205Y-86891367D01*
X124006200Y-86891376D01*
X123915410Y-87073707D01*
X123915409Y-87073710D01*
X123912856Y-87078838D01*
X123911290Y-87084341D01*
X123911286Y-87084352D01*
X123861491Y-87259365D01*
X123853978Y-87285771D01*
X123834127Y-87500000D01*
X118804908Y-87500000D01*
X118804908Y-87496756D01*
X118784950Y-87115951D01*
X118784273Y-87109508D01*
X118724621Y-86732879D01*
X118723273Y-86726537D01*
X118624577Y-86358197D01*
X118622578Y-86352044D01*
X118485920Y-85996040D01*
X118483283Y-85990116D01*
X118310166Y-85650354D01*
X118306920Y-85644733D01*
X118099242Y-85324938D01*
X118095425Y-85319684D01*
X117899869Y-85078191D01*
X117888606Y-85070305D01*
X117876580Y-85076971D01*
X115465095Y-87488457D01*
X115458431Y-87500000D01*
X114741568Y-87500000D01*
X114734904Y-87488457D01*
X112323418Y-85076971D01*
X112311393Y-85070305D01*
X112300127Y-85078194D01*
X112104578Y-85319678D01*
X112100756Y-85324939D01*
X111893079Y-85644733D01*
X111889833Y-85650354D01*
X111716716Y-85990116D01*
X111714079Y-85996040D01*
X111577421Y-86352044D01*
X111575422Y-86358197D01*
X111476726Y-86726537D01*
X111475378Y-86732879D01*
X111415726Y-87109508D01*
X111415049Y-87115951D01*
X111395092Y-87496756D01*
X111395092Y-87503244D01*
X110005035Y-87503244D01*
X110005035Y-87398839D01*
X110005153Y-87393431D01*
X110007049Y-87350000D01*
X110015127Y-87164991D01*
X110015501Y-87159378D01*
X110033641Y-86957825D01*
X110034194Y-86952841D01*
X110064059Y-86725992D01*
X110064969Y-86720176D01*
X110101082Y-86521177D01*
X110102013Y-86516554D01*
X110151570Y-86293017D01*
X110153065Y-86287007D01*
X110206821Y-86092227D01*
X110208074Y-86087984D01*
X110276972Y-85869468D01*
X110279102Y-85863295D01*
X110350037Y-85674289D01*
X110351517Y-85670540D01*
X110439303Y-85458605D01*
X110442097Y-85452361D01*
X110529562Y-85270738D01*
X110531199Y-85267471D01*
X110637292Y-85063667D01*
X110640809Y-85057368D01*
X110743950Y-84884740D01*
X110745726Y-84881863D01*
X110854327Y-84711393D01*
X112670305Y-84711393D01*
X112676971Y-84723418D01*
X115088457Y-87134904D01*
X115100000Y-87141568D01*
X115111542Y-87134904D01*
X117523027Y-84723418D01*
X117529693Y-84711392D01*
X117521807Y-84700129D01*
X117280315Y-84504574D01*
X117275061Y-84500757D01*
X116955266Y-84293079D01*
X116949645Y-84289833D01*
X116609883Y-84116716D01*
X116603959Y-84114079D01*
X116247955Y-83977421D01*
X116241802Y-83975422D01*
X115873462Y-83876726D01*
X115867120Y-83875378D01*
X115490491Y-83815726D01*
X115484048Y-83815049D01*
X115103244Y-83795092D01*
X115096756Y-83795092D01*
X114715951Y-83815049D01*
X114709508Y-83815726D01*
X114332879Y-83875378D01*
X114326537Y-83876726D01*
X113958197Y-83975422D01*
X113952044Y-83977421D01*
X113596040Y-84114079D01*
X113590116Y-84116716D01*
X113250354Y-84289833D01*
X113244733Y-84293079D01*
X112924939Y-84500756D01*
X112919678Y-84504578D01*
X112678194Y-84700127D01*
X112670305Y-84711393D01*
X110854327Y-84711393D01*
X110869418Y-84687705D01*
X110873643Y-84681500D01*
X110991503Y-84519280D01*
X110993329Y-84516833D01*
X111133865Y-84333683D01*
X111138803Y-84327656D01*
X111270264Y-84177186D01*
X111272068Y-84175170D01*
X111428551Y-84004399D01*
X111434236Y-83998592D01*
X111577986Y-83861153D01*
X111579568Y-83859672D01*
X111751204Y-83702395D01*
X111757601Y-83696926D01*
X111912058Y-83573750D01*
X111913673Y-83572487D01*
X112099260Y-83430081D01*
X112106393Y-83424999D01*
X112269868Y-83317090D01*
X112271330Y-83316143D01*
X112470052Y-83189543D01*
X112477867Y-83184959D01*
X112648297Y-83093246D01*
X112649430Y-83092647D01*
X112860690Y-82982672D01*
X112869108Y-82978688D01*
X113044018Y-82903928D01*
X113044597Y-82903684D01*
X113268068Y-82811120D01*
X113277130Y-82807777D01*
X113452406Y-82750826D01*
X113453203Y-82750571D01*
X113689045Y-82676210D01*
X113698661Y-82673602D01*
X113868516Y-82634833D01*
X113868645Y-82634804D01*
X114120326Y-82579007D01*
X114130422Y-82577208D01*
X114279249Y-82557047D01*
X114558484Y-82520286D01*
X114569061Y-82519353D01*
X114599034Y-82518006D01*
X114997297Y-82500617D01*
X115002706Y-82500500D01*
X115204252Y-82500500D01*
X115206822Y-82500500D01*
X115619054Y-82466341D01*
X116027057Y-82398258D01*
X116428044Y-82296714D01*
X116819276Y-82162404D01*
X117198080Y-81996245D01*
X117561869Y-81799372D01*
X117908159Y-81573130D01*
X118234582Y-81319064D01*
X118538910Y-81038910D01*
X118819064Y-80734582D01*
X119073130Y-80408159D01*
X119299372Y-80061869D01*
X119496245Y-79698080D01*
X119662404Y-79319276D01*
X119796714Y-78928044D01*
X119898258Y-78527057D01*
X119966341Y-78119054D01*
X119995762Y-77764001D01*
X121293087Y-77764001D01*
X121301064Y-77771822D01*
X121488112Y-77886445D01*
X121496775Y-77890859D01*
X121713771Y-77980742D01*
X121723008Y-77983744D01*
X121951399Y-78038575D01*
X121960985Y-78040093D01*
X122195146Y-78058523D01*
X122204854Y-78058523D01*
X122439014Y-78040093D01*
X122448600Y-78038575D01*
X122676991Y-77983744D01*
X122686228Y-77980742D01*
X122903224Y-77890859D01*
X122911887Y-77886445D01*
X123098934Y-77771822D01*
X123106911Y-77764001D01*
X123100980Y-77754533D01*
X122211542Y-76865094D01*
X122200000Y-76858430D01*
X122188457Y-76865094D01*
X121299018Y-77754533D01*
X121293087Y-77764001D01*
X119995762Y-77764001D01*
X120000500Y-77706822D01*
X120000500Y-77500000D01*
X120000500Y-77499500D01*
X120000500Y-76504853D01*
X120641476Y-76504853D01*
X120659905Y-76739013D01*
X120661423Y-76748599D01*
X120716254Y-76976990D01*
X120719256Y-76986227D01*
X120809139Y-77203223D01*
X120813553Y-77211886D01*
X120928175Y-77398933D01*
X120935996Y-77406910D01*
X120945464Y-77400979D01*
X121834903Y-76511540D01*
X121841567Y-76499998D01*
X122558431Y-76499998D01*
X122565095Y-76511540D01*
X123454534Y-77400979D01*
X123464002Y-77406910D01*
X123471823Y-77398933D01*
X123586446Y-77211886D01*
X123590860Y-77203223D01*
X123680743Y-76986227D01*
X123683745Y-76976990D01*
X123738576Y-76748599D01*
X123740094Y-76739013D01*
X123758524Y-76504853D01*
X123758524Y-76495145D01*
X123740094Y-76260984D01*
X123738576Y-76251398D01*
X123683745Y-76023007D01*
X123680743Y-76013770D01*
X123590860Y-75796774D01*
X123586446Y-75788111D01*
X123471823Y-75601063D01*
X123464002Y-75593086D01*
X123454534Y-75599017D01*
X122565095Y-76488455D01*
X122558431Y-76499998D01*
X121841567Y-76499998D01*
X121834903Y-76488455D01*
X120945464Y-75599017D01*
X120935996Y-75593086D01*
X120928175Y-75601062D01*
X120813548Y-75788119D01*
X120809141Y-75796767D01*
X120719256Y-76013770D01*
X120716254Y-76023007D01*
X120661423Y-76251398D01*
X120659905Y-76260984D01*
X120641476Y-76495145D01*
X120641476Y-76504853D01*
X120000500Y-76504853D01*
X120000500Y-75235995D01*
X121293087Y-75235995D01*
X121299018Y-75245463D01*
X122188457Y-76134902D01*
X122200000Y-76141566D01*
X122211542Y-76134902D01*
X123100980Y-75245463D01*
X123106911Y-75235995D01*
X123098934Y-75228174D01*
X122911887Y-75113552D01*
X122903224Y-75109138D01*
X122686228Y-75019255D01*
X122676991Y-75016253D01*
X122448600Y-74961422D01*
X122439014Y-74959904D01*
X122204854Y-74941475D01*
X122195146Y-74941475D01*
X121960985Y-74959904D01*
X121951399Y-74961422D01*
X121723008Y-75016253D01*
X121713771Y-75019255D01*
X121496768Y-75109140D01*
X121488120Y-75113547D01*
X121301063Y-75228174D01*
X121293087Y-75235995D01*
X120000500Y-75235995D01*
X120000500Y-75002561D01*
X120000606Y-74997437D01*
X120002066Y-74962141D01*
X120009488Y-74782687D01*
X120018052Y-74586540D01*
X120018881Y-74576673D01*
X120045491Y-74363195D01*
X120071578Y-74165045D01*
X120073151Y-74155816D01*
X120117062Y-73946392D01*
X120117297Y-73945302D01*
X120160684Y-73749599D01*
X120162885Y-73741111D01*
X120223875Y-73536253D01*
X120224337Y-73534743D01*
X120284704Y-73343284D01*
X120287423Y-73335565D01*
X120365074Y-73136564D01*
X120365883Y-73134553D01*
X120442762Y-72948951D01*
X120445874Y-72942051D01*
X120539587Y-72750357D01*
X120540945Y-72747667D01*
X120633667Y-72569551D01*
X120637118Y-72563362D01*
X120645080Y-72550000D01*
X120746295Y-72380139D01*
X120748150Y-72377129D01*
X120856090Y-72207697D01*
X120859721Y-72202316D01*
X120983635Y-72028764D01*
X120986102Y-72025433D01*
X121108401Y-71866048D01*
X121112114Y-71861445D01*
X121249903Y-71698758D01*
X121253027Y-71695211D01*
X121388811Y-71547028D01*
X121392440Y-71543238D01*
X121543238Y-71392440D01*
X121547028Y-71388811D01*
X121695211Y-71253027D01*
X121698758Y-71249903D01*
X121861445Y-71112114D01*
X121866048Y-71108401D01*
X122025433Y-70986102D01*
X122028764Y-70983635D01*
X122202316Y-70859721D01*
X122207697Y-70856090D01*
X122377129Y-70748150D01*
X122380139Y-70746295D01*
X122563373Y-70637111D01*
X122569551Y-70633667D01*
X122747667Y-70540945D01*
X122750357Y-70539587D01*
X122942051Y-70445874D01*
X122948951Y-70442762D01*
X123134553Y-70365883D01*
X123136564Y-70365074D01*
X123335565Y-70287423D01*
X123343284Y-70284704D01*
X123534743Y-70224337D01*
X123536253Y-70223875D01*
X123741111Y-70162885D01*
X123749599Y-70160684D01*
X123945302Y-70117297D01*
X123946392Y-70117062D01*
X124155816Y-70073151D01*
X124165045Y-70071578D01*
X124363195Y-70045491D01*
X124576673Y-70018881D01*
X124586540Y-70018052D01*
X124782628Y-70009490D01*
X124997437Y-70000605D01*
X125002561Y-70000500D01*
X194997439Y-70000500D01*
X195002562Y-70000605D01*
G37*
%TD.AperFunction*%
%TD*%
M02*
