%TF.GenerationSoftware,KiCad,Pcbnew,(7.0.0)*%
%TF.CreationDate,2023-08-02T13:28:58+12:00*%
%TF.ProjectId,VehicleCurrentSense_PCB,56656869-636c-4654-9375-7272656e7453,V1.0*%
%TF.SameCoordinates,Original*%
%TF.FileFunction,Legend,Bot*%
%TF.FilePolarity,Positive*%
%FSLAX46Y46*%
G04 Gerber Fmt 4.6, Leading zero omitted, Abs format (unit mm)*
G04 Created by KiCad (PCBNEW (7.0.0)) date 2023-08-02 13:28:58*
%MOMM*%
%LPD*%
G01*
G04 APERTURE LIST*
G04 Aperture macros list*
%AMRoundRect*
0 Rectangle with rounded corners*
0 $1 Rounding radius*
0 $2 $3 $4 $5 $6 $7 $8 $9 X,Y pos of 4 corners*
0 Add a 4 corners polygon primitive as box body*
4,1,4,$2,$3,$4,$5,$6,$7,$8,$9,$2,$3,0*
0 Add four circle primitives for the rounded corners*
1,1,$1+$1,$2,$3*
1,1,$1+$1,$4,$5*
1,1,$1+$1,$6,$7*
1,1,$1+$1,$8,$9*
0 Add four rect primitives between the rounded corners*
20,1,$1+$1,$2,$3,$4,$5,0*
20,1,$1+$1,$4,$5,$6,$7,0*
20,1,$1+$1,$6,$7,$8,$9,0*
20,1,$1+$1,$8,$9,$2,$3,0*%
G04 Aperture macros list end*
%ADD10C,0.508000*%
%ADD11C,0.120000*%
%ADD12R,0.840000X0.840000*%
%ADD13C,0.840000*%
%ADD14O,0.850000X1.850000*%
%ADD15O,1.700000X1.700000*%
%ADD16R,1.700000X1.700000*%
%ADD17C,1.320800*%
%ADD18C,2.108200*%
%ADD19C,1.440000*%
%ADD20C,0.800000*%
%ADD21C,6.400000*%
%ADD22RoundRect,0.225000X-0.250000X0.225000X-0.250000X-0.225000X0.250000X-0.225000X0.250000X0.225000X0*%
G04 APERTURE END LIST*
D10*
%TO.C,U1*%
X130780999Y-70240700D02*
G75*
G03*
X130780999Y-70240700I-381000J0D01*
G01*
D11*
%TO.C,C3*%
X130910000Y-89959420D02*
X130910000Y-90240580D01*
X129890000Y-89959420D02*
X129890000Y-90240580D01*
%TO.C,C2*%
X127310000Y-89959420D02*
X127310000Y-90240580D01*
X126290000Y-89959420D02*
X126290000Y-90240580D01*
%TO.C,C1*%
X125510000Y-89959420D02*
X125510000Y-90240580D01*
X124490000Y-89959420D02*
X124490000Y-90240580D01*
%TD*%
%LPC*%
D12*
%TO.C,J4*%
X172824999Y-102679999D03*
D13*
X173475000Y-103680000D03*
X174125000Y-102680000D03*
X174775000Y-103680000D03*
X175425000Y-102680000D03*
D14*
X170549999Y-102899999D03*
X177699999Y-102899999D03*
%TD*%
D15*
%TO.C,J3*%
X139199999Y-73634999D03*
D16*
X139199999Y-76174999D03*
%TD*%
D17*
%TO.C,U1*%
X130399999Y-87500000D03*
X128600000Y-87500000D03*
X126799999Y-87500000D03*
X125000000Y-87500000D03*
D18*
X122200000Y-76499999D03*
X128699999Y-101999999D03*
%TD*%
D16*
%TO.C,J1*%
X189899999Y-97659999D03*
D15*
X189899999Y-95119999D03*
X189899999Y-92579999D03*
X189899999Y-90039999D03*
X189899999Y-87499999D03*
X189899999Y-84959999D03*
X189899999Y-82419999D03*
X189899999Y-79879999D03*
X189899999Y-77339999D03*
%TD*%
D19*
%TO.C,RV2*%
X144680000Y-101800000D03*
X142140000Y-101800000D03*
X139600000Y-101800000D03*
%TD*%
D20*
%TO.C,H2*%
X112700000Y-87500000D03*
X113402944Y-85802944D03*
X113402944Y-89197056D03*
X115100000Y-85100000D03*
D21*
X115100000Y-87500000D03*
D20*
X115100000Y-89900000D03*
X116797056Y-85802944D03*
X116797056Y-89197056D03*
X117500000Y-87500000D03*
%TD*%
D22*
%TO.C,C3*%
X130400000Y-89325000D03*
X130400000Y-90875000D03*
%TD*%
%TO.C,C2*%
X126800000Y-89325000D03*
X126800000Y-90875000D03*
%TD*%
%TO.C,C1*%
X125000000Y-89325000D03*
X125000000Y-90875000D03*
%TD*%
M02*
