%TF.GenerationSoftware,KiCad,Pcbnew,(7.0.0)*%
%TF.CreationDate,2023-08-02T13:28:58+12:00*%
%TF.ProjectId,VehicleCurrentSense_PCB,56656869-636c-4654-9375-7272656e7453,V1.0*%
%TF.SameCoordinates,Original*%
%TF.FileFunction,Copper,L2,Inr*%
%TF.FilePolarity,Positive*%
%FSLAX46Y46*%
G04 Gerber Fmt 4.6, Leading zero omitted, Abs format (unit mm)*
G04 Created by KiCad (PCBNEW (7.0.0)) date 2023-08-02 13:28:58*
%MOMM*%
%LPD*%
G01*
G04 APERTURE LIST*
%TA.AperFunction,ComponentPad*%
%ADD10R,0.840000X0.840000*%
%TD*%
%TA.AperFunction,ComponentPad*%
%ADD11C,0.840000*%
%TD*%
%TA.AperFunction,ComponentPad*%
%ADD12O,0.850000X1.850000*%
%TD*%
%TA.AperFunction,ComponentPad*%
%ADD13O,1.700000X1.700000*%
%TD*%
%TA.AperFunction,ComponentPad*%
%ADD14R,1.700000X1.700000*%
%TD*%
%TA.AperFunction,HeatsinkPad*%
%ADD15C,0.600000*%
%TD*%
%TA.AperFunction,ComponentPad*%
%ADD16C,1.320800*%
%TD*%
%TA.AperFunction,ComponentPad*%
%ADD17C,2.108200*%
%TD*%
%TA.AperFunction,ComponentPad*%
%ADD18C,1.440000*%
%TD*%
%TA.AperFunction,ComponentPad*%
%ADD19C,0.800000*%
%TD*%
%TA.AperFunction,ComponentPad*%
%ADD20C,6.400000*%
%TD*%
%TA.AperFunction,ViaPad*%
%ADD21C,0.500000*%
%TD*%
%TA.AperFunction,ViaPad*%
%ADD22C,0.600000*%
%TD*%
%TA.AperFunction,ViaPad*%
%ADD23C,0.800000*%
%TD*%
G04 APERTURE END LIST*
D10*
%TO.N,Net-(D2-A)*%
%TO.C,J4*%
X172824999Y-102679999D03*
D11*
%TO.N,D-*%
X173475000Y-103680000D03*
%TO.N,D+*%
X174125000Y-102680000D03*
%TO.N,unconnected-(J4-ID-Pad4)*%
X174775000Y-103680000D03*
%TO.N,GND*%
X175425000Y-102680000D03*
D12*
%TO.N,unconnected-(J4-Shield-Pad6)*%
X170549999Y-102899999D03*
X177699999Y-102899999D03*
%TD*%
D13*
%TO.N,BSPD Test Current -*%
%TO.C,J3*%
X139199999Y-73634999D03*
D14*
%TO.N,BSPD Test Current +*%
X139199999Y-76174999D03*
%TD*%
D15*
%TO.N,GND*%
%TO.C,U7*%
X161205000Y-90757500D03*
X161205000Y-89232500D03*
X160442500Y-91520000D03*
X160442500Y-89995000D03*
X160442500Y-88470000D03*
X159680000Y-90757500D03*
X159680000Y-89232500D03*
X158917500Y-91520000D03*
X158917500Y-89995000D03*
X158917500Y-88470000D03*
X158155000Y-90757500D03*
X158155000Y-89232500D03*
%TD*%
D16*
%TO.N,+5V*%
%TO.C,U1*%
X130399999Y-87500000D03*
%TO.N,GND*%
X128600000Y-87500000D03*
%TO.N,Net-(U1-OUTPUT)*%
X126799999Y-87500000D03*
%TO.N,VREF*%
X125000000Y-87500000D03*
D17*
%TO.N,GND*%
X122200000Y-76499999D03*
%TO.N,unconnected-(U1-NC-Pad6)*%
X128699999Y-101999999D03*
%TD*%
D14*
%TO.N,+5V*%
%TO.C,J1*%
X189899999Y-97659999D03*
D13*
%TO.N,Upstream*%
X189899999Y-95119999D03*
%TO.N,Local*%
X189899999Y-92579999D03*
%TO.N,CAN-*%
X189899999Y-90039999D03*
%TO.N,CAN+*%
X189899999Y-87499999D03*
%TO.N,BSPD*%
X189899999Y-84959999D03*
%TO.N,GND*%
X189899999Y-82419999D03*
%TO.N,BSPD Test Current +*%
X189899999Y-79879999D03*
%TO.N,BSPD Test Current -*%
X189899999Y-77339999D03*
%TD*%
D18*
%TO.N,Net-(R28-Pad1)*%
%TO.C,RV2*%
X144680000Y-101800000D03*
%TO.N,BSPD Threshold*%
X142140000Y-101800000D03*
%TO.N,+5V*%
X139600000Y-101800000D03*
%TD*%
D19*
%TO.N,GND*%
%TO.C,H2*%
X112700000Y-87500000D03*
X113402944Y-85802944D03*
X113402944Y-89197056D03*
X115100000Y-85100000D03*
D20*
X115100000Y-87500000D03*
D19*
X115100000Y-89900000D03*
X116797056Y-85802944D03*
X116797056Y-89197056D03*
X117500000Y-87500000D03*
%TD*%
D21*
%TO.N,BSPD Threshold*%
X148300000Y-79699500D03*
%TO.N,D-*%
X172050000Y-98350000D03*
X176650000Y-98350000D03*
%TO.N,GND*%
X145100000Y-95300000D03*
X145100000Y-92300000D03*
%TO.N,VREF*%
X134500000Y-91200000D03*
%TO.N,GND*%
X189200000Y-72200000D03*
X188400000Y-72200000D03*
%TO.N,LEM_OUT*%
X143500000Y-90800000D03*
%TO.N,VREF_OUT*%
X143500000Y-93800000D03*
X136200000Y-92000000D03*
%TO.N,GND*%
X138700000Y-94700000D03*
X142100000Y-94700000D03*
%TO.N,+5V*%
X136200000Y-95600000D03*
%TO.N,VREF*%
X143000000Y-92300000D03*
%TO.N,GND*%
X137500000Y-92200000D03*
X166550000Y-97350000D03*
X139650000Y-85700000D03*
X193850000Y-74800000D03*
X179250000Y-94650000D03*
X184250000Y-77750000D03*
X126800000Y-91750000D03*
X186900000Y-90400000D03*
X176300000Y-83000000D03*
X137000000Y-88200000D03*
X125000000Y-91750000D03*
X170250000Y-90350000D03*
X171200000Y-77600000D03*
X193850000Y-70600000D03*
X180800000Y-77800000D03*
X180650000Y-89000000D03*
X183450000Y-98450000D03*
X146800000Y-84800000D03*
X143250000Y-80000000D03*
X172000000Y-97400000D03*
X167750000Y-98250000D03*
X142900000Y-82700000D03*
X177150000Y-82100000D03*
X137700000Y-79150000D03*
X168950000Y-97300000D03*
X149000000Y-97350000D03*
X143500000Y-87800000D03*
X137350000Y-84150000D03*
X142900000Y-84200000D03*
X170950000Y-85800000D03*
X164700000Y-78300000D03*
X171200000Y-97100000D03*
X148200000Y-98950000D03*
X150250000Y-98500000D03*
X140900000Y-80000000D03*
X131300000Y-90850000D03*
X138774500Y-88300000D03*
X185750000Y-75100000D03*
X183850000Y-96000000D03*
X151450000Y-97350000D03*
X136100000Y-99350000D03*
X182350000Y-86600000D03*
%TO.N,LEM_OUT*%
X134900000Y-85100000D03*
D22*
%TO.N,+5V*%
X191300000Y-73450000D03*
X191300000Y-71650000D03*
D21*
X142950000Y-85700000D03*
X176650000Y-97400000D03*
D22*
X191300000Y-72550000D03*
D21*
X139650000Y-84200000D03*
D23*
%TO.N,+3V3*%
X179000000Y-76000000D03*
D21*
X171350000Y-76100000D03*
X182150000Y-98450000D03*
D23*
X178000000Y-77000000D03*
D21*
X171950000Y-94800000D03*
X186198783Y-92051352D03*
X170950000Y-87350000D03*
D23*
X179000000Y-77000000D03*
X178000000Y-76000000D03*
D22*
%TO.N,Net-(D2-A)*%
X196150000Y-101900000D03*
D21*
%TO.N,BSPD*%
X139762500Y-78300000D03*
%TO.N,Local*%
X169200000Y-89700000D03*
%TO.N,Upstream*%
X169250000Y-91000000D03*
%TO.N,IO0*%
X151500000Y-80850000D03*
X183950000Y-93800000D03*
%TO.N,TxD*%
X179250000Y-95900000D03*
X151450000Y-92300000D03*
%TO.N,RxD*%
X179250000Y-97200000D03*
X151450000Y-93500000D03*
%TD*%
%TA.AperFunction,Conductor*%
%TO.N,GND*%
G36*
X195002562Y-70000605D02*
G01*
X195217600Y-70009500D01*
X195413455Y-70018052D01*
X195423330Y-70018881D01*
X195636706Y-70045479D01*
X195636793Y-70045490D01*
X195834945Y-70071577D01*
X195844192Y-70073153D01*
X196053521Y-70117044D01*
X196054765Y-70117312D01*
X196250386Y-70160680D01*
X196258901Y-70162889D01*
X196463665Y-70223850D01*
X196465325Y-70224359D01*
X196656696Y-70284698D01*
X196664453Y-70287431D01*
X196863363Y-70365046D01*
X196865513Y-70365911D01*
X197051024Y-70442752D01*
X197057972Y-70445886D01*
X197225903Y-70527982D01*
X197249587Y-70539561D01*
X197252383Y-70540972D01*
X197430420Y-70633652D01*
X197436636Y-70637118D01*
X197619793Y-70746255D01*
X197622929Y-70748187D01*
X197686491Y-70788681D01*
X197792282Y-70856078D01*
X197797710Y-70859741D01*
X197971184Y-70983599D01*
X197974616Y-70986140D01*
X198133912Y-71108372D01*
X198138567Y-71112126D01*
X198301226Y-71249891D01*
X198304838Y-71253072D01*
X198452925Y-71388769D01*
X198456807Y-71392486D01*
X198607512Y-71543191D01*
X198611232Y-71547076D01*
X198746921Y-71695155D01*
X198750107Y-71698772D01*
X198887872Y-71861431D01*
X198891626Y-71866086D01*
X199013858Y-72025382D01*
X199016399Y-72028814D01*
X199140257Y-72202288D01*
X199143920Y-72207716D01*
X199251800Y-72377052D01*
X199253743Y-72380205D01*
X199362880Y-72563362D01*
X199366346Y-72569578D01*
X199459026Y-72747615D01*
X199460437Y-72750411D01*
X199554099Y-72941997D01*
X199557260Y-72949005D01*
X199634051Y-73134395D01*
X199635008Y-73136774D01*
X199712559Y-73335523D01*
X199715302Y-73343309D01*
X199775602Y-73534554D01*
X199776186Y-73536460D01*
X199837105Y-73741084D01*
X199839321Y-73749627D01*
X199882671Y-73945166D01*
X199882971Y-73946559D01*
X199926844Y-74155802D01*
X199928422Y-74165062D01*
X199954459Y-74362829D01*
X199954568Y-74363677D01*
X199981114Y-74576641D01*
X199981948Y-74586570D01*
X199990513Y-74782728D01*
X199990525Y-74783013D01*
X199999394Y-74997438D01*
X199999500Y-75002562D01*
X199999500Y-99997438D01*
X199999394Y-100002563D01*
X199990525Y-100216987D01*
X199990513Y-100217271D01*
X199981948Y-100413428D01*
X199981114Y-100423357D01*
X199954568Y-100636321D01*
X199954459Y-100637169D01*
X199928422Y-100834936D01*
X199926844Y-100844196D01*
X199882971Y-101053439D01*
X199882671Y-101054832D01*
X199839321Y-101250371D01*
X199837105Y-101258914D01*
X199776186Y-101463538D01*
X199775602Y-101465444D01*
X199715302Y-101656689D01*
X199712559Y-101664475D01*
X199635008Y-101863224D01*
X199634051Y-101865603D01*
X199557260Y-102050993D01*
X199554099Y-102058001D01*
X199460437Y-102249587D01*
X199459026Y-102252383D01*
X199366346Y-102430420D01*
X199362880Y-102436636D01*
X199253743Y-102619793D01*
X199251800Y-102622946D01*
X199143920Y-102792282D01*
X199140257Y-102797710D01*
X199016399Y-102971184D01*
X199013858Y-102974616D01*
X198891626Y-103133912D01*
X198887872Y-103138567D01*
X198750107Y-103301226D01*
X198746908Y-103304858D01*
X198611254Y-103452899D01*
X198607512Y-103456807D01*
X198456807Y-103607512D01*
X198452899Y-103611254D01*
X198304858Y-103746908D01*
X198301226Y-103750107D01*
X198138567Y-103887872D01*
X198133912Y-103891626D01*
X197974616Y-104013858D01*
X197971184Y-104016399D01*
X197797710Y-104140257D01*
X197792282Y-104143920D01*
X197622946Y-104251800D01*
X197619793Y-104253743D01*
X197436636Y-104362880D01*
X197430420Y-104366346D01*
X197252383Y-104459026D01*
X197249587Y-104460437D01*
X197058001Y-104554099D01*
X197050993Y-104557260D01*
X196865603Y-104634051D01*
X196863224Y-104635008D01*
X196664475Y-104712559D01*
X196656689Y-104715302D01*
X196465444Y-104775602D01*
X196463538Y-104776186D01*
X196258914Y-104837105D01*
X196250371Y-104839321D01*
X196054832Y-104882671D01*
X196053439Y-104882971D01*
X195844196Y-104926844D01*
X195834936Y-104928422D01*
X195637169Y-104954459D01*
X195636321Y-104954568D01*
X195423357Y-104981114D01*
X195413428Y-104981948D01*
X195217381Y-104990508D01*
X195217097Y-104990520D01*
X195002563Y-104999394D01*
X194997438Y-104999500D01*
X125002562Y-104999500D01*
X124997437Y-104999394D01*
X124782901Y-104990520D01*
X124782617Y-104990508D01*
X124586570Y-104981948D01*
X124576641Y-104981114D01*
X124363677Y-104954568D01*
X124362829Y-104954459D01*
X124165062Y-104928422D01*
X124155802Y-104926844D01*
X123946559Y-104882971D01*
X123945166Y-104882671D01*
X123749627Y-104839321D01*
X123741084Y-104837105D01*
X123536460Y-104776186D01*
X123534554Y-104775602D01*
X123343309Y-104715302D01*
X123335523Y-104712559D01*
X123206985Y-104662404D01*
X123136734Y-104634991D01*
X123134395Y-104634051D01*
X122949005Y-104557260D01*
X122941997Y-104554099D01*
X122750411Y-104460437D01*
X122747615Y-104459026D01*
X122569578Y-104366346D01*
X122563362Y-104362880D01*
X122380205Y-104253743D01*
X122377052Y-104251800D01*
X122207716Y-104143920D01*
X122202288Y-104140257D01*
X122028814Y-104016399D01*
X122025382Y-104013858D01*
X121866086Y-103891626D01*
X121861431Y-103887872D01*
X121698772Y-103750107D01*
X121695155Y-103746921D01*
X121547076Y-103611232D01*
X121543191Y-103607512D01*
X121392486Y-103456807D01*
X121388769Y-103452925D01*
X121253072Y-103304838D01*
X121249891Y-103301226D01*
X121112126Y-103138567D01*
X121108372Y-103133912D01*
X120986140Y-102974616D01*
X120983599Y-102971184D01*
X120859741Y-102797710D01*
X120856078Y-102792282D01*
X120777191Y-102668456D01*
X120748187Y-102622929D01*
X120746255Y-102619793D01*
X120637118Y-102436636D01*
X120633652Y-102430420D01*
X120540972Y-102252383D01*
X120539561Y-102249587D01*
X120520991Y-102211601D01*
X120445886Y-102057972D01*
X120442752Y-102051024D01*
X120421617Y-101999999D01*
X127140592Y-101999999D01*
X127140974Y-102004853D01*
X127157245Y-102211601D01*
X127159791Y-102243944D01*
X127160926Y-102248673D01*
X127160927Y-102248677D01*
X127215777Y-102477145D01*
X127215779Y-102477153D01*
X127216915Y-102481882D01*
X127310557Y-102707955D01*
X127313104Y-102712112D01*
X127313105Y-102712113D01*
X127435865Y-102912440D01*
X127435870Y-102912447D01*
X127438412Y-102916595D01*
X127441572Y-102920294D01*
X127441575Y-102920299D01*
X127515240Y-103006549D01*
X127597332Y-103102666D01*
X127601032Y-103105826D01*
X127728568Y-103214753D01*
X127783403Y-103261586D01*
X127787553Y-103264129D01*
X127787557Y-103264132D01*
X127854016Y-103304858D01*
X127992043Y-103389441D01*
X128218116Y-103483083D01*
X128456054Y-103540207D01*
X128699999Y-103559406D01*
X128943944Y-103540207D01*
X129181882Y-103483083D01*
X129265364Y-103448504D01*
X169624500Y-103448504D01*
X169624837Y-103451715D01*
X169624838Y-103451724D01*
X169639058Y-103587020D01*
X169639059Y-103587027D01*
X169639738Y-103593482D01*
X169641745Y-103599660D01*
X169641746Y-103599663D01*
X169689588Y-103746908D01*
X169699856Y-103778508D01*
X169703103Y-103784132D01*
X169703104Y-103784134D01*
X169765164Y-103891626D01*
X169797130Y-103946992D01*
X169801474Y-103951817D01*
X169801476Y-103951819D01*
X169859624Y-104016399D01*
X169927308Y-104091569D01*
X170084701Y-104205922D01*
X170262429Y-104285051D01*
X170268787Y-104286402D01*
X170268789Y-104286403D01*
X170306880Y-104294499D01*
X170452726Y-104325500D01*
X170640771Y-104325500D01*
X170647274Y-104325500D01*
X170837571Y-104285051D01*
X171015299Y-104205922D01*
X171172692Y-104091569D01*
X171302870Y-103946992D01*
X171400144Y-103778508D01*
X171460262Y-103593482D01*
X171475500Y-103448504D01*
X171475500Y-103144578D01*
X171904500Y-103144578D01*
X171904501Y-103147872D01*
X171904853Y-103151150D01*
X171904854Y-103151161D01*
X171910079Y-103199768D01*
X171910080Y-103199773D01*
X171910909Y-103207483D01*
X171913619Y-103214749D01*
X171913620Y-103214753D01*
X171945873Y-103301226D01*
X171961204Y-103342331D01*
X171966518Y-103349430D01*
X171966519Y-103349431D01*
X171996470Y-103389441D01*
X172047454Y-103457546D01*
X172162669Y-103543796D01*
X172297517Y-103594091D01*
X172357127Y-103600500D01*
X172429423Y-103600499D01*
X172487636Y-103615013D01*
X172532223Y-103655158D01*
X172552744Y-103711537D01*
X172568976Y-103865975D01*
X172568977Y-103865982D01*
X172569656Y-103872437D01*
X172571663Y-103878616D01*
X172571664Y-103878617D01*
X172615606Y-104013858D01*
X172629450Y-104056463D01*
X172632697Y-104062087D01*
X172632698Y-104062089D01*
X172703899Y-104185414D01*
X172726198Y-104224036D01*
X172855673Y-104367833D01*
X173012215Y-104481567D01*
X173018150Y-104484209D01*
X173018151Y-104484210D01*
X173182224Y-104557260D01*
X173188983Y-104560269D01*
X173378252Y-104600500D01*
X173565245Y-104600500D01*
X173571748Y-104600500D01*
X173761017Y-104560269D01*
X173937785Y-104481567D01*
X174052119Y-104398498D01*
X174099219Y-104377529D01*
X174150781Y-104377529D01*
X174197880Y-104398498D01*
X174312215Y-104481567D01*
X174318150Y-104484209D01*
X174318151Y-104484210D01*
X174482224Y-104557260D01*
X174488983Y-104560269D01*
X174678252Y-104600500D01*
X174865245Y-104600500D01*
X174871748Y-104600500D01*
X175061017Y-104560269D01*
X175237785Y-104481567D01*
X175394327Y-104367833D01*
X175523802Y-104224036D01*
X175620550Y-104056463D01*
X175680344Y-103872437D01*
X175700570Y-103680000D01*
X175699891Y-103673540D01*
X175699891Y-103673535D01*
X175698378Y-103659143D01*
X175703766Y-103607862D01*
X175729548Y-103563206D01*
X175771263Y-103532898D01*
X175863402Y-103491875D01*
X175872426Y-103484856D01*
X175866517Y-103475070D01*
X175839951Y-103448504D01*
X176774500Y-103448504D01*
X176774837Y-103451715D01*
X176774838Y-103451724D01*
X176789058Y-103587020D01*
X176789059Y-103587027D01*
X176789738Y-103593482D01*
X176791745Y-103599660D01*
X176791746Y-103599663D01*
X176839588Y-103746908D01*
X176849856Y-103778508D01*
X176853103Y-103784132D01*
X176853104Y-103784134D01*
X176915164Y-103891626D01*
X176947130Y-103946992D01*
X176951474Y-103951817D01*
X176951476Y-103951819D01*
X177009624Y-104016399D01*
X177077308Y-104091569D01*
X177234701Y-104205922D01*
X177412429Y-104285051D01*
X177418787Y-104286402D01*
X177418789Y-104286403D01*
X177456880Y-104294499D01*
X177602726Y-104325500D01*
X177790771Y-104325500D01*
X177797274Y-104325500D01*
X177987571Y-104285051D01*
X178165299Y-104205922D01*
X178322692Y-104091569D01*
X178452870Y-103946992D01*
X178550144Y-103778508D01*
X178610262Y-103593482D01*
X178625500Y-103448504D01*
X178625500Y-102351496D01*
X178610262Y-102206518D01*
X178550144Y-102021492D01*
X178480001Y-101900000D01*
X195344435Y-101900000D01*
X195345215Y-101906923D01*
X195361447Y-102050993D01*
X195364632Y-102079255D01*
X195366928Y-102085819D01*
X195366930Y-102085824D01*
X195411424Y-102212979D01*
X195424211Y-102249522D01*
X195427912Y-102255412D01*
X195488285Y-102351496D01*
X195520184Y-102402262D01*
X195647738Y-102529816D01*
X195800478Y-102625789D01*
X195970745Y-102685368D01*
X196150000Y-102705565D01*
X196329255Y-102685368D01*
X196499522Y-102625789D01*
X196652262Y-102529816D01*
X196779816Y-102402262D01*
X196875789Y-102249522D01*
X196935368Y-102079255D01*
X196955565Y-101900000D01*
X196935368Y-101720745D01*
X196875789Y-101550478D01*
X196779816Y-101397738D01*
X196652262Y-101270184D01*
X196499522Y-101174211D01*
X196492959Y-101171914D01*
X196492956Y-101171913D01*
X196335824Y-101116930D01*
X196335819Y-101116928D01*
X196329255Y-101114632D01*
X196322335Y-101113852D01*
X196322334Y-101113852D01*
X196156923Y-101095215D01*
X196150000Y-101094435D01*
X196143077Y-101095215D01*
X195977665Y-101113852D01*
X195977662Y-101113852D01*
X195970745Y-101114632D01*
X195964182Y-101116928D01*
X195964175Y-101116930D01*
X195807043Y-101171913D01*
X195807036Y-101171915D01*
X195800478Y-101174211D01*
X195794590Y-101177910D01*
X195794587Y-101177912D01*
X195653638Y-101266476D01*
X195653633Y-101266479D01*
X195647738Y-101270184D01*
X195642813Y-101275108D01*
X195642809Y-101275112D01*
X195525112Y-101392809D01*
X195525108Y-101392813D01*
X195520184Y-101397738D01*
X195516479Y-101403633D01*
X195516476Y-101403638D01*
X195427912Y-101544587D01*
X195427910Y-101544590D01*
X195424211Y-101550478D01*
X195421915Y-101557036D01*
X195421913Y-101557043D01*
X195366930Y-101714175D01*
X195366928Y-101714182D01*
X195364632Y-101720745D01*
X195363852Y-101727662D01*
X195363852Y-101727665D01*
X195353277Y-101821521D01*
X195344435Y-101900000D01*
X178480001Y-101900000D01*
X178452870Y-101853008D01*
X178419731Y-101816204D01*
X178327041Y-101713261D01*
X178327040Y-101713260D01*
X178322692Y-101708431D01*
X178317434Y-101704610D01*
X178317432Y-101704609D01*
X178170557Y-101597898D01*
X178170555Y-101597897D01*
X178165299Y-101594078D01*
X178111588Y-101570164D01*
X177993509Y-101517592D01*
X177993502Y-101517589D01*
X177987571Y-101514949D01*
X177981218Y-101513598D01*
X177981210Y-101513596D01*
X177803636Y-101475852D01*
X177803633Y-101475851D01*
X177797274Y-101474500D01*
X177602726Y-101474500D01*
X177596367Y-101475851D01*
X177596363Y-101475852D01*
X177418789Y-101513596D01*
X177418778Y-101513599D01*
X177412429Y-101514949D01*
X177406499Y-101517588D01*
X177406490Y-101517592D01*
X177250030Y-101587253D01*
X177234701Y-101594078D01*
X177229448Y-101597894D01*
X177229442Y-101597898D01*
X177082567Y-101704609D01*
X177082560Y-101704614D01*
X177077308Y-101708431D01*
X177072963Y-101713256D01*
X177072958Y-101713261D01*
X176951476Y-101848180D01*
X176951471Y-101848186D01*
X176947130Y-101853008D01*
X176943885Y-101858628D01*
X176943881Y-101858634D01*
X176853104Y-102015865D01*
X176853101Y-102015870D01*
X176849856Y-102021492D01*
X176847850Y-102027664D01*
X176847848Y-102027670D01*
X176791746Y-102200336D01*
X176791744Y-102200341D01*
X176789738Y-102206518D01*
X176789059Y-102212970D01*
X176789058Y-102212979D01*
X176774838Y-102348275D01*
X176774837Y-102348285D01*
X176774500Y-102351496D01*
X176774500Y-103448504D01*
X175839951Y-103448504D01*
X175493474Y-103102027D01*
X175489005Y-103097318D01*
X175398676Y-102996997D01*
X175398675Y-102996996D01*
X175394327Y-102992167D01*
X175389069Y-102988347D01*
X175389067Y-102988345D01*
X175363046Y-102969440D01*
X175348250Y-102956803D01*
X175159128Y-102767681D01*
X175127034Y-102712094D01*
X175127034Y-102680000D01*
X175783431Y-102680000D01*
X175790095Y-102691542D01*
X176217807Y-103119254D01*
X176227350Y-103125188D01*
X176235026Y-103116992D01*
X176266844Y-103061883D01*
X176272099Y-103050080D01*
X176327844Y-102878512D01*
X176330532Y-102865870D01*
X176349389Y-102686460D01*
X176349389Y-102673540D01*
X176330532Y-102494129D01*
X176327844Y-102481487D01*
X176272099Y-102309919D01*
X176266843Y-102298114D01*
X176235028Y-102243009D01*
X176227349Y-102234810D01*
X176217807Y-102240744D01*
X175790096Y-102668456D01*
X175783431Y-102680000D01*
X175127034Y-102680000D01*
X175127034Y-102647906D01*
X175159128Y-102592319D01*
X175425000Y-102326447D01*
X175866517Y-101884928D01*
X175872426Y-101875142D01*
X175863400Y-101868122D01*
X175716800Y-101802851D01*
X175704501Y-101798856D01*
X175528058Y-101761352D01*
X175515193Y-101760000D01*
X175334807Y-101760000D01*
X175321941Y-101761352D01*
X175145492Y-101798857D01*
X175133207Y-101802848D01*
X174968398Y-101876226D01*
X174957212Y-101882685D01*
X174848309Y-101961807D01*
X174801205Y-101982778D01*
X174749643Y-101982778D01*
X174702539Y-101961806D01*
X174593044Y-101882253D01*
X174593038Y-101882249D01*
X174587785Y-101878433D01*
X174581853Y-101875791D01*
X174581848Y-101875789D01*
X174416955Y-101802374D01*
X174416948Y-101802371D01*
X174411017Y-101799731D01*
X174404661Y-101798380D01*
X174404655Y-101798378D01*
X174228110Y-101760852D01*
X174228107Y-101760851D01*
X174221748Y-101759500D01*
X174028252Y-101759500D01*
X174021893Y-101760851D01*
X174021889Y-101760852D01*
X173845344Y-101798378D01*
X173845335Y-101798380D01*
X173838983Y-101799731D01*
X173833045Y-101802374D01*
X173833044Y-101802375D01*
X173671163Y-101874448D01*
X173606886Y-101884393D01*
X173546418Y-101860435D01*
X173494435Y-101821521D01*
X173494429Y-101821518D01*
X173487331Y-101816204D01*
X173352483Y-101765909D01*
X173344770Y-101765079D01*
X173344767Y-101765079D01*
X173296180Y-101759855D01*
X173296169Y-101759854D01*
X173292873Y-101759500D01*
X173289550Y-101759500D01*
X172360439Y-101759500D01*
X172360420Y-101759500D01*
X172357128Y-101759501D01*
X172353850Y-101759853D01*
X172353838Y-101759854D01*
X172305231Y-101765079D01*
X172305225Y-101765080D01*
X172297517Y-101765909D01*
X172290252Y-101768618D01*
X172290246Y-101768620D01*
X172170980Y-101813104D01*
X172170978Y-101813104D01*
X172162669Y-101816204D01*
X172155572Y-101821516D01*
X172155568Y-101821519D01*
X172054550Y-101897141D01*
X172054546Y-101897144D01*
X172047454Y-101902454D01*
X172042144Y-101909546D01*
X172042141Y-101909550D01*
X171966519Y-102010568D01*
X171966516Y-102010572D01*
X171961204Y-102017669D01*
X171958104Y-102025978D01*
X171958104Y-102025980D01*
X171913620Y-102145247D01*
X171913619Y-102145250D01*
X171910909Y-102152517D01*
X171910079Y-102160227D01*
X171910079Y-102160232D01*
X171904855Y-102208819D01*
X171904854Y-102208831D01*
X171904500Y-102212127D01*
X171904500Y-102215448D01*
X171904500Y-102215449D01*
X171904500Y-103144560D01*
X171904500Y-103144578D01*
X171475500Y-103144578D01*
X171475500Y-102351496D01*
X171460262Y-102206518D01*
X171400144Y-102021492D01*
X171302870Y-101853008D01*
X171269731Y-101816204D01*
X171177041Y-101713261D01*
X171177040Y-101713260D01*
X171172692Y-101708431D01*
X171167434Y-101704610D01*
X171167432Y-101704609D01*
X171020557Y-101597898D01*
X171020555Y-101597897D01*
X171015299Y-101594078D01*
X170961588Y-101570164D01*
X170843509Y-101517592D01*
X170843502Y-101517589D01*
X170837571Y-101514949D01*
X170831218Y-101513598D01*
X170831210Y-101513596D01*
X170653636Y-101475852D01*
X170653633Y-101475851D01*
X170647274Y-101474500D01*
X170452726Y-101474500D01*
X170446367Y-101475851D01*
X170446363Y-101475852D01*
X170268789Y-101513596D01*
X170268778Y-101513599D01*
X170262429Y-101514949D01*
X170256499Y-101517588D01*
X170256490Y-101517592D01*
X170100030Y-101587253D01*
X170084701Y-101594078D01*
X170079448Y-101597894D01*
X170079442Y-101597898D01*
X169932567Y-101704609D01*
X169932560Y-101704614D01*
X169927308Y-101708431D01*
X169922963Y-101713256D01*
X169922958Y-101713261D01*
X169801476Y-101848180D01*
X169801471Y-101848186D01*
X169797130Y-101853008D01*
X169793885Y-101858628D01*
X169793881Y-101858634D01*
X169703104Y-102015865D01*
X169703101Y-102015870D01*
X169699856Y-102021492D01*
X169697850Y-102027664D01*
X169697848Y-102027670D01*
X169641746Y-102200336D01*
X169641744Y-102200341D01*
X169639738Y-102206518D01*
X169639059Y-102212970D01*
X169639058Y-102212979D01*
X169624838Y-102348275D01*
X169624837Y-102348285D01*
X169624500Y-102351496D01*
X169624500Y-103448504D01*
X129265364Y-103448504D01*
X129407955Y-103389441D01*
X129616595Y-103261586D01*
X129802666Y-103102666D01*
X129961586Y-102916595D01*
X130089441Y-102707955D01*
X130183083Y-102481882D01*
X130240207Y-102243944D01*
X130259406Y-101999999D01*
X130243666Y-101800000D01*
X138374838Y-101800000D01*
X138375310Y-101805395D01*
X138392335Y-101999999D01*
X138393451Y-102012747D01*
X138394851Y-102017971D01*
X138447321Y-102213797D01*
X138447324Y-102213805D01*
X138448724Y-102219030D01*
X138538979Y-102412581D01*
X138661471Y-102587519D01*
X138812481Y-102738529D01*
X138987419Y-102861021D01*
X139180970Y-102951276D01*
X139387253Y-103006549D01*
X139600000Y-103025162D01*
X139812747Y-103006549D01*
X140019030Y-102951276D01*
X140212581Y-102861021D01*
X140387519Y-102738529D01*
X140538529Y-102587519D01*
X140661021Y-102412581D01*
X140751276Y-102219030D01*
X140752676Y-102213801D01*
X140753478Y-102211601D01*
X140787027Y-102161860D01*
X140840001Y-102133693D01*
X140899999Y-102133693D01*
X140952973Y-102161860D01*
X140986522Y-102211601D01*
X140987323Y-102213803D01*
X140988724Y-102219030D01*
X140991008Y-102223929D01*
X140991010Y-102223933D01*
X141038814Y-102326447D01*
X141078979Y-102412581D01*
X141201471Y-102587519D01*
X141352481Y-102738529D01*
X141527419Y-102861021D01*
X141720970Y-102951276D01*
X141927253Y-103006549D01*
X142140000Y-103025162D01*
X142352747Y-103006549D01*
X142559030Y-102951276D01*
X142752581Y-102861021D01*
X142927519Y-102738529D01*
X143078529Y-102587519D01*
X143201021Y-102412581D01*
X143291276Y-102219030D01*
X143292676Y-102213801D01*
X143293478Y-102211601D01*
X143327027Y-102161860D01*
X143380001Y-102133693D01*
X143439999Y-102133693D01*
X143492973Y-102161860D01*
X143526522Y-102211601D01*
X143527323Y-102213803D01*
X143528724Y-102219030D01*
X143531008Y-102223929D01*
X143531010Y-102223933D01*
X143578814Y-102326447D01*
X143618979Y-102412581D01*
X143741471Y-102587519D01*
X143892481Y-102738529D01*
X144067419Y-102861021D01*
X144260970Y-102951276D01*
X144467253Y-103006549D01*
X144680000Y-103025162D01*
X144892747Y-103006549D01*
X145099030Y-102951276D01*
X145292581Y-102861021D01*
X145467519Y-102738529D01*
X145618529Y-102587519D01*
X145741021Y-102412581D01*
X145831276Y-102219030D01*
X145886549Y-102012747D01*
X145905162Y-101800000D01*
X145886549Y-101587253D01*
X145831276Y-101380970D01*
X145741021Y-101187419D01*
X145618529Y-101012481D01*
X145467519Y-100861471D01*
X145292581Y-100738979D01*
X145099030Y-100648724D01*
X145093805Y-100647324D01*
X145093797Y-100647321D01*
X144942220Y-100606707D01*
X144892747Y-100593451D01*
X144887359Y-100592979D01*
X144887356Y-100592979D01*
X144685395Y-100575310D01*
X144680000Y-100574838D01*
X144674605Y-100575310D01*
X144472643Y-100592979D01*
X144472638Y-100592979D01*
X144467253Y-100593451D01*
X144462028Y-100594850D01*
X144462028Y-100594851D01*
X144266202Y-100647321D01*
X144266190Y-100647325D01*
X144260970Y-100648724D01*
X144256065Y-100651010D01*
X144256060Y-100651013D01*
X144072329Y-100736689D01*
X144072325Y-100736691D01*
X144067419Y-100738979D01*
X144062986Y-100742082D01*
X144062979Y-100742087D01*
X143896916Y-100858365D01*
X143896911Y-100858368D01*
X143892481Y-100861471D01*
X143888657Y-100865294D01*
X143888651Y-100865300D01*
X143745300Y-101008651D01*
X143745294Y-101008657D01*
X143741471Y-101012481D01*
X143738368Y-101016911D01*
X143738365Y-101016916D01*
X143622087Y-101182979D01*
X143622082Y-101182986D01*
X143618979Y-101187419D01*
X143616691Y-101192325D01*
X143616689Y-101192329D01*
X143531010Y-101376066D01*
X143531007Y-101376073D01*
X143528724Y-101380970D01*
X143527324Y-101386193D01*
X143526521Y-101388401D01*
X143492972Y-101438139D01*
X143439998Y-101466306D01*
X143380002Y-101466306D01*
X143327028Y-101438139D01*
X143293479Y-101388401D01*
X143292676Y-101386195D01*
X143291276Y-101380970D01*
X143201021Y-101187419D01*
X143078529Y-101012481D01*
X142927519Y-100861471D01*
X142752581Y-100738979D01*
X142559030Y-100648724D01*
X142553805Y-100647324D01*
X142553797Y-100647321D01*
X142402220Y-100606707D01*
X142352747Y-100593451D01*
X142347359Y-100592979D01*
X142347356Y-100592979D01*
X142145395Y-100575310D01*
X142140000Y-100574838D01*
X142134605Y-100575310D01*
X141932643Y-100592979D01*
X141932638Y-100592979D01*
X141927253Y-100593451D01*
X141922028Y-100594850D01*
X141922028Y-100594851D01*
X141726202Y-100647321D01*
X141726190Y-100647325D01*
X141720970Y-100648724D01*
X141716065Y-100651010D01*
X141716060Y-100651013D01*
X141532329Y-100736689D01*
X141532325Y-100736691D01*
X141527419Y-100738979D01*
X141522986Y-100742082D01*
X141522979Y-100742087D01*
X141356916Y-100858365D01*
X141356911Y-100858368D01*
X141352481Y-100861471D01*
X141348657Y-100865294D01*
X141348651Y-100865300D01*
X141205300Y-101008651D01*
X141205294Y-101008657D01*
X141201471Y-101012481D01*
X141198368Y-101016911D01*
X141198365Y-101016916D01*
X141082087Y-101182979D01*
X141082082Y-101182986D01*
X141078979Y-101187419D01*
X141076691Y-101192325D01*
X141076689Y-101192329D01*
X140991010Y-101376066D01*
X140991007Y-101376073D01*
X140988724Y-101380970D01*
X140987324Y-101386193D01*
X140986521Y-101388401D01*
X140952972Y-101438139D01*
X140899998Y-101466306D01*
X140840002Y-101466306D01*
X140787028Y-101438139D01*
X140753479Y-101388401D01*
X140752676Y-101386195D01*
X140751276Y-101380970D01*
X140661021Y-101187419D01*
X140538529Y-101012481D01*
X140387519Y-100861471D01*
X140212581Y-100738979D01*
X140019030Y-100648724D01*
X140013805Y-100647324D01*
X140013797Y-100647321D01*
X139862220Y-100606707D01*
X139812747Y-100593451D01*
X139807359Y-100592979D01*
X139807356Y-100592979D01*
X139605395Y-100575310D01*
X139600000Y-100574838D01*
X139594605Y-100575310D01*
X139392643Y-100592979D01*
X139392638Y-100592979D01*
X139387253Y-100593451D01*
X139382028Y-100594850D01*
X139382028Y-100594851D01*
X139186202Y-100647321D01*
X139186190Y-100647325D01*
X139180970Y-100648724D01*
X139176065Y-100651010D01*
X139176060Y-100651013D01*
X138992329Y-100736689D01*
X138992325Y-100736691D01*
X138987419Y-100738979D01*
X138982986Y-100742082D01*
X138982979Y-100742087D01*
X138816916Y-100858365D01*
X138816911Y-100858368D01*
X138812481Y-100861471D01*
X138808657Y-100865294D01*
X138808651Y-100865300D01*
X138665300Y-101008651D01*
X138665294Y-101008657D01*
X138661471Y-101012481D01*
X138658368Y-101016911D01*
X138658365Y-101016916D01*
X138542087Y-101182979D01*
X138542082Y-101182986D01*
X138538979Y-101187419D01*
X138536691Y-101192325D01*
X138536689Y-101192329D01*
X138451013Y-101376060D01*
X138451010Y-101376065D01*
X138448724Y-101380970D01*
X138447325Y-101386190D01*
X138447321Y-101386202D01*
X138412116Y-101517592D01*
X138393451Y-101587253D01*
X138392979Y-101592638D01*
X138392979Y-101592643D01*
X138378263Y-101760852D01*
X138374838Y-101800000D01*
X130243666Y-101800000D01*
X130240207Y-101756054D01*
X130183083Y-101518116D01*
X130089441Y-101292043D01*
X130015825Y-101171913D01*
X129964132Y-101087557D01*
X129964129Y-101087553D01*
X129961586Y-101083403D01*
X129935994Y-101053439D01*
X129805826Y-100901032D01*
X129802666Y-100897332D01*
X129798965Y-100894171D01*
X129620299Y-100741575D01*
X129620294Y-100741572D01*
X129616595Y-100738412D01*
X129612447Y-100735870D01*
X129612440Y-100735865D01*
X129412113Y-100613105D01*
X129412112Y-100613104D01*
X129407955Y-100610557D01*
X129181882Y-100516915D01*
X129177153Y-100515779D01*
X129177145Y-100515777D01*
X128948677Y-100460927D01*
X128948673Y-100460926D01*
X128943944Y-100459791D01*
X128939091Y-100459409D01*
X128704853Y-100440974D01*
X128699999Y-100440592D01*
X128695145Y-100440974D01*
X128460906Y-100459409D01*
X128460904Y-100459409D01*
X128456054Y-100459791D01*
X128451326Y-100460925D01*
X128451320Y-100460927D01*
X128222852Y-100515777D01*
X128222840Y-100515780D01*
X128218116Y-100516915D01*
X128213619Y-100518777D01*
X128213615Y-100518779D01*
X127996547Y-100608691D01*
X127996542Y-100608693D01*
X127992043Y-100610557D01*
X127987890Y-100613101D01*
X127987884Y-100613105D01*
X127787557Y-100735865D01*
X127787544Y-100735874D01*
X127783403Y-100738412D01*
X127779708Y-100741567D01*
X127779698Y-100741575D01*
X127601032Y-100894171D01*
X127601025Y-100894177D01*
X127597332Y-100897332D01*
X127594177Y-100901025D01*
X127594171Y-100901032D01*
X127441575Y-101079698D01*
X127441567Y-101079708D01*
X127438412Y-101083403D01*
X127435874Y-101087544D01*
X127435865Y-101087557D01*
X127313105Y-101287884D01*
X127313101Y-101287890D01*
X127310557Y-101292043D01*
X127308693Y-101296542D01*
X127308691Y-101296547D01*
X127238732Y-101465444D01*
X127216915Y-101518116D01*
X127215780Y-101522840D01*
X127215777Y-101522852D01*
X127160927Y-101751320D01*
X127160925Y-101751326D01*
X127159791Y-101756054D01*
X127159409Y-101760904D01*
X127159409Y-101760906D01*
X127147284Y-101914974D01*
X127140592Y-101999999D01*
X120421617Y-101999999D01*
X120365911Y-101865513D01*
X120365046Y-101863363D01*
X120287431Y-101664453D01*
X120284696Y-101656689D01*
X120224359Y-101465325D01*
X120223850Y-101463665D01*
X120162889Y-101258901D01*
X120160680Y-101250386D01*
X120117312Y-101054765D01*
X120117027Y-101053439D01*
X120111495Y-101027057D01*
X120073153Y-100844192D01*
X120071576Y-100834936D01*
X120045490Y-100636793D01*
X120045483Y-100636743D01*
X120018881Y-100423330D01*
X120018052Y-100413455D01*
X120009486Y-100217271D01*
X120000605Y-100002562D01*
X120000500Y-99997439D01*
X120000500Y-98350000D01*
X171294751Y-98350000D01*
X171295531Y-98356923D01*
X171312906Y-98511135D01*
X171312907Y-98511142D01*
X171313687Y-98518059D01*
X171315986Y-98524630D01*
X171315987Y-98524633D01*
X171351020Y-98624753D01*
X171369544Y-98677690D01*
X171459523Y-98820890D01*
X171579110Y-98940477D01*
X171722310Y-99030456D01*
X171881941Y-99086313D01*
X172050000Y-99105249D01*
X172218059Y-99086313D01*
X172377690Y-99030456D01*
X172520890Y-98940477D01*
X172640477Y-98820890D01*
X172730456Y-98677690D01*
X172786313Y-98518059D01*
X172805249Y-98350000D01*
X175894751Y-98350000D01*
X175895531Y-98356923D01*
X175912906Y-98511135D01*
X175912907Y-98511142D01*
X175913687Y-98518059D01*
X175915986Y-98524630D01*
X175915987Y-98524633D01*
X175951020Y-98624753D01*
X175969544Y-98677690D01*
X176059523Y-98820890D01*
X176179110Y-98940477D01*
X176322310Y-99030456D01*
X176481941Y-99086313D01*
X176650000Y-99105249D01*
X176818059Y-99086313D01*
X176977690Y-99030456D01*
X177120890Y-98940477D01*
X177240477Y-98820890D01*
X177330456Y-98677690D01*
X177386313Y-98518059D01*
X177393982Y-98450000D01*
X181394751Y-98450000D01*
X181395531Y-98456923D01*
X181412906Y-98611135D01*
X181412907Y-98611142D01*
X181413687Y-98618059D01*
X181415986Y-98624630D01*
X181415987Y-98624633D01*
X181460670Y-98752331D01*
X181469544Y-98777690D01*
X181559523Y-98920890D01*
X181679110Y-99040477D01*
X181822310Y-99130456D01*
X181981941Y-99186313D01*
X182150000Y-99205249D01*
X182318059Y-99186313D01*
X182477690Y-99130456D01*
X182620890Y-99040477D01*
X182740477Y-98920890D01*
X182830456Y-98777690D01*
X182886313Y-98618059D01*
X182905249Y-98450000D01*
X182886313Y-98281941D01*
X182830456Y-98122310D01*
X182740477Y-97979110D01*
X182620890Y-97859523D01*
X182477690Y-97769544D01*
X182471124Y-97767246D01*
X182471121Y-97767245D01*
X182324633Y-97715987D01*
X182324630Y-97715986D01*
X182318059Y-97713687D01*
X182311142Y-97712907D01*
X182311135Y-97712906D01*
X182156923Y-97695531D01*
X182150000Y-97694751D01*
X182143077Y-97695531D01*
X181988864Y-97712906D01*
X181988855Y-97712907D01*
X181981941Y-97713687D01*
X181975371Y-97715985D01*
X181975366Y-97715987D01*
X181828878Y-97767245D01*
X181828872Y-97767247D01*
X181822310Y-97769544D01*
X181816419Y-97773245D01*
X181816418Y-97773246D01*
X181685010Y-97855815D01*
X181685005Y-97855818D01*
X181679110Y-97859523D01*
X181674185Y-97864447D01*
X181674181Y-97864451D01*
X181564451Y-97974181D01*
X181564447Y-97974185D01*
X181559523Y-97979110D01*
X181555818Y-97985005D01*
X181555815Y-97985010D01*
X181473246Y-98116418D01*
X181469544Y-98122310D01*
X181467247Y-98128872D01*
X181467245Y-98128878D01*
X181415987Y-98275366D01*
X181415985Y-98275371D01*
X181413687Y-98281941D01*
X181412907Y-98288855D01*
X181412906Y-98288864D01*
X181406018Y-98350000D01*
X181394751Y-98450000D01*
X177393982Y-98450000D01*
X177405249Y-98350000D01*
X177386313Y-98181941D01*
X177330456Y-98022310D01*
X177279347Y-97940972D01*
X177260341Y-97875000D01*
X177279348Y-97809027D01*
X177330456Y-97727690D01*
X177386313Y-97568059D01*
X177405249Y-97400000D01*
X177386313Y-97231941D01*
X177375136Y-97200000D01*
X178494751Y-97200000D01*
X178495531Y-97206923D01*
X178512906Y-97361135D01*
X178512907Y-97361142D01*
X178513687Y-97368059D01*
X178515986Y-97374630D01*
X178515987Y-97374633D01*
X178560029Y-97500500D01*
X178569544Y-97527690D01*
X178659523Y-97670890D01*
X178779110Y-97790477D01*
X178922310Y-97880456D01*
X179081941Y-97936313D01*
X179250000Y-97955249D01*
X179418059Y-97936313D01*
X179577690Y-97880456D01*
X179720890Y-97790477D01*
X179840477Y-97670890D01*
X179930456Y-97527690D01*
X179986313Y-97368059D01*
X180005249Y-97200000D01*
X179986313Y-97031941D01*
X179930456Y-96872310D01*
X179840477Y-96729110D01*
X179749048Y-96637680D01*
X179716954Y-96582094D01*
X179716954Y-96517906D01*
X179749048Y-96462319D01*
X179764226Y-96447141D01*
X179840477Y-96370890D01*
X179930456Y-96227690D01*
X179986313Y-96068059D01*
X180005249Y-95900000D01*
X179986313Y-95731941D01*
X179930456Y-95572310D01*
X179840477Y-95429110D01*
X179720890Y-95309523D01*
X179577690Y-95219544D01*
X179571124Y-95217246D01*
X179571121Y-95217245D01*
X179424633Y-95165987D01*
X179424630Y-95165986D01*
X179418059Y-95163687D01*
X179411142Y-95162907D01*
X179411135Y-95162906D01*
X179256923Y-95145531D01*
X179250000Y-95144751D01*
X179243077Y-95145531D01*
X179088864Y-95162906D01*
X179088855Y-95162907D01*
X179081941Y-95163687D01*
X179075371Y-95165985D01*
X179075366Y-95165987D01*
X178928878Y-95217245D01*
X178928872Y-95217247D01*
X178922310Y-95219544D01*
X178916419Y-95223245D01*
X178916418Y-95223246D01*
X178785010Y-95305815D01*
X178785005Y-95305818D01*
X178779110Y-95309523D01*
X178774185Y-95314447D01*
X178774181Y-95314451D01*
X178664451Y-95424181D01*
X178664447Y-95424185D01*
X178659523Y-95429110D01*
X178655818Y-95435005D01*
X178655815Y-95435010D01*
X178591672Y-95537093D01*
X178569544Y-95572310D01*
X178567247Y-95578872D01*
X178567245Y-95578878D01*
X178515987Y-95725366D01*
X178515985Y-95725371D01*
X178513687Y-95731941D01*
X178512907Y-95738855D01*
X178512906Y-95738864D01*
X178497380Y-95876665D01*
X178494751Y-95900000D01*
X178495531Y-95906923D01*
X178512906Y-96061135D01*
X178512907Y-96061142D01*
X178513687Y-96068059D01*
X178515986Y-96074630D01*
X178515987Y-96074633D01*
X178557819Y-96194184D01*
X178569544Y-96227690D01*
X178659523Y-96370890D01*
X178664450Y-96375817D01*
X178664451Y-96375818D01*
X178750952Y-96462319D01*
X178783046Y-96517906D01*
X178783046Y-96582094D01*
X178750952Y-96637681D01*
X178664451Y-96724181D01*
X178664447Y-96724185D01*
X178659523Y-96729110D01*
X178655818Y-96735005D01*
X178655815Y-96735010D01*
X178605899Y-96814451D01*
X178569544Y-96872310D01*
X178567247Y-96878872D01*
X178567245Y-96878878D01*
X178515987Y-97025366D01*
X178515985Y-97025371D01*
X178513687Y-97031941D01*
X178512907Y-97038855D01*
X178512906Y-97038864D01*
X178495531Y-97193077D01*
X178494751Y-97200000D01*
X177375136Y-97200000D01*
X177330456Y-97072310D01*
X177240477Y-96929110D01*
X177120890Y-96809523D01*
X176977690Y-96719544D01*
X176971124Y-96717246D01*
X176971121Y-96717245D01*
X176824633Y-96665987D01*
X176824630Y-96665986D01*
X176818059Y-96663687D01*
X176811142Y-96662907D01*
X176811135Y-96662906D01*
X176656923Y-96645531D01*
X176650000Y-96644751D01*
X176643077Y-96645531D01*
X176488864Y-96662906D01*
X176488855Y-96662907D01*
X176481941Y-96663687D01*
X176475371Y-96665985D01*
X176475366Y-96665987D01*
X176328878Y-96717245D01*
X176328872Y-96717247D01*
X176322310Y-96719544D01*
X176316419Y-96723245D01*
X176316418Y-96723246D01*
X176185010Y-96805815D01*
X176185005Y-96805818D01*
X176179110Y-96809523D01*
X176174185Y-96814447D01*
X176174181Y-96814451D01*
X176064451Y-96924181D01*
X176064447Y-96924185D01*
X176059523Y-96929110D01*
X176055818Y-96935005D01*
X176055815Y-96935010D01*
X175973246Y-97066418D01*
X175969544Y-97072310D01*
X175967247Y-97078872D01*
X175967245Y-97078878D01*
X175915987Y-97225366D01*
X175915985Y-97225371D01*
X175913687Y-97231941D01*
X175912907Y-97238855D01*
X175912906Y-97238864D01*
X175899130Y-97361135D01*
X175894751Y-97400000D01*
X175895531Y-97406923D01*
X175912906Y-97561135D01*
X175912907Y-97561142D01*
X175913687Y-97568059D01*
X175915986Y-97574630D01*
X175915987Y-97574633D01*
X175964370Y-97712906D01*
X175969544Y-97727690D01*
X175973245Y-97733580D01*
X175973246Y-97733582D01*
X176020652Y-97809028D01*
X176039658Y-97875000D01*
X176020652Y-97940972D01*
X175973246Y-98016417D01*
X175973246Y-98016418D01*
X175969544Y-98022310D01*
X175967247Y-98028872D01*
X175967245Y-98028878D01*
X175915987Y-98175366D01*
X175915985Y-98175371D01*
X175913687Y-98181941D01*
X175912907Y-98188855D01*
X175912906Y-98188864D01*
X175901639Y-98288864D01*
X175894751Y-98350000D01*
X172805249Y-98350000D01*
X172786313Y-98181941D01*
X172730456Y-98022310D01*
X172640477Y-97879110D01*
X172520890Y-97759523D01*
X172377690Y-97669544D01*
X172371124Y-97667246D01*
X172371121Y-97667245D01*
X172224633Y-97615987D01*
X172224630Y-97615986D01*
X172218059Y-97613687D01*
X172211142Y-97612907D01*
X172211135Y-97612906D01*
X172056923Y-97595531D01*
X172050000Y-97594751D01*
X172043077Y-97595531D01*
X171888864Y-97612906D01*
X171888855Y-97612907D01*
X171881941Y-97613687D01*
X171875371Y-97615985D01*
X171875366Y-97615987D01*
X171728878Y-97667245D01*
X171728872Y-97667247D01*
X171722310Y-97669544D01*
X171716419Y-97673245D01*
X171716418Y-97673246D01*
X171585010Y-97755815D01*
X171585005Y-97755818D01*
X171579110Y-97759523D01*
X171574185Y-97764447D01*
X171574181Y-97764451D01*
X171464451Y-97874181D01*
X171464447Y-97874185D01*
X171459523Y-97879110D01*
X171455818Y-97885005D01*
X171455815Y-97885010D01*
X171392981Y-97985010D01*
X171369544Y-98022310D01*
X171367247Y-98028872D01*
X171367245Y-98028878D01*
X171315987Y-98175366D01*
X171315985Y-98175371D01*
X171313687Y-98181941D01*
X171312907Y-98188855D01*
X171312906Y-98188864D01*
X171301639Y-98288864D01*
X171294751Y-98350000D01*
X120000500Y-98350000D01*
X120000500Y-97295748D01*
X120000500Y-97293178D01*
X119966341Y-96880946D01*
X119898258Y-96472943D01*
X119796714Y-96071956D01*
X119662404Y-95680724D01*
X119626995Y-95600000D01*
X135444751Y-95600000D01*
X135445531Y-95606923D01*
X135462906Y-95761135D01*
X135462907Y-95761142D01*
X135463687Y-95768059D01*
X135465986Y-95774630D01*
X135465987Y-95774633D01*
X135509854Y-95900000D01*
X135519544Y-95927690D01*
X135609523Y-96070890D01*
X135729110Y-96190477D01*
X135872310Y-96280456D01*
X136031941Y-96336313D01*
X136200000Y-96355249D01*
X136368059Y-96336313D01*
X136527690Y-96280456D01*
X136670890Y-96190477D01*
X136790477Y-96070890D01*
X136880456Y-95927690D01*
X136936313Y-95768059D01*
X136955249Y-95600000D01*
X136936313Y-95431941D01*
X136880456Y-95272310D01*
X136790477Y-95129110D01*
X136670890Y-95009523D01*
X136527690Y-94919544D01*
X136521124Y-94917246D01*
X136521121Y-94917245D01*
X136374633Y-94865987D01*
X136374630Y-94865986D01*
X136368059Y-94863687D01*
X136361142Y-94862907D01*
X136361135Y-94862906D01*
X136206923Y-94845531D01*
X136200000Y-94844751D01*
X136193077Y-94845531D01*
X136038864Y-94862906D01*
X136038855Y-94862907D01*
X136031941Y-94863687D01*
X136025371Y-94865985D01*
X136025366Y-94865987D01*
X135878878Y-94917245D01*
X135878872Y-94917247D01*
X135872310Y-94919544D01*
X135866419Y-94923245D01*
X135866418Y-94923246D01*
X135735010Y-95005815D01*
X135735005Y-95005818D01*
X135729110Y-95009523D01*
X135724185Y-95014447D01*
X135724181Y-95014451D01*
X135614451Y-95124181D01*
X135614447Y-95124185D01*
X135609523Y-95129110D01*
X135605818Y-95135005D01*
X135605815Y-95135010D01*
X135552699Y-95219544D01*
X135519544Y-95272310D01*
X135517247Y-95278872D01*
X135517245Y-95278878D01*
X135465987Y-95425366D01*
X135465985Y-95425371D01*
X135463687Y-95431941D01*
X135462907Y-95438855D01*
X135462906Y-95438864D01*
X135452186Y-95534012D01*
X135444751Y-95600000D01*
X119626995Y-95600000D01*
X119496245Y-95301920D01*
X119394875Y-95114605D01*
X119300592Y-94940385D01*
X119300589Y-94940381D01*
X119299372Y-94938131D01*
X119209127Y-94800000D01*
X171194751Y-94800000D01*
X171195531Y-94806923D01*
X171212906Y-94961135D01*
X171212907Y-94961142D01*
X171213687Y-94968059D01*
X171215986Y-94974630D01*
X171215987Y-94974633D01*
X171228195Y-95009523D01*
X171269544Y-95127690D01*
X171359523Y-95270890D01*
X171479110Y-95390477D01*
X171622310Y-95480456D01*
X171781941Y-95536313D01*
X171950000Y-95555249D01*
X172118059Y-95536313D01*
X172277690Y-95480456D01*
X172420890Y-95390477D01*
X172540477Y-95270890D01*
X172630456Y-95127690D01*
X172633147Y-95120000D01*
X188544341Y-95120000D01*
X188544813Y-95125395D01*
X188561353Y-95314451D01*
X188564937Y-95355408D01*
X188566336Y-95360630D01*
X188566337Y-95360634D01*
X188624694Y-95578430D01*
X188624697Y-95578438D01*
X188626097Y-95583663D01*
X188628385Y-95588570D01*
X188628386Y-95588572D01*
X188723678Y-95792927D01*
X188723681Y-95792933D01*
X188725965Y-95797830D01*
X188729064Y-95802257D01*
X188729066Y-95802259D01*
X188858399Y-95986966D01*
X188858402Y-95986970D01*
X188861505Y-95991401D01*
X188865336Y-95995232D01*
X188983430Y-96113326D01*
X189014726Y-96166072D01*
X189016915Y-96227365D01*
X188989462Y-96282210D01*
X188939083Y-96317189D01*
X188839132Y-96354469D01*
X188807669Y-96366204D01*
X188800572Y-96371516D01*
X188800568Y-96371519D01*
X188699550Y-96447141D01*
X188699546Y-96447144D01*
X188692454Y-96452454D01*
X188687144Y-96459546D01*
X188687141Y-96459550D01*
X188611519Y-96560568D01*
X188611516Y-96560572D01*
X188606204Y-96567669D01*
X188603104Y-96575978D01*
X188603104Y-96575980D01*
X188558620Y-96695247D01*
X188558619Y-96695250D01*
X188555909Y-96702517D01*
X188555079Y-96710227D01*
X188555079Y-96710232D01*
X188549855Y-96758819D01*
X188549854Y-96758831D01*
X188549500Y-96762127D01*
X188549500Y-96765448D01*
X188549500Y-96765449D01*
X188549500Y-98554560D01*
X188549500Y-98554578D01*
X188549501Y-98557872D01*
X188549853Y-98561150D01*
X188549854Y-98561161D01*
X188555079Y-98609768D01*
X188555080Y-98609773D01*
X188555909Y-98617483D01*
X188558619Y-98624749D01*
X188558620Y-98624753D01*
X188578365Y-98677690D01*
X188606204Y-98752331D01*
X188692454Y-98867546D01*
X188807669Y-98953796D01*
X188942517Y-99004091D01*
X189002127Y-99010500D01*
X190797872Y-99010499D01*
X190857483Y-99004091D01*
X190992331Y-98953796D01*
X191107546Y-98867546D01*
X191193796Y-98752331D01*
X191244091Y-98617483D01*
X191250500Y-98557873D01*
X191250499Y-96762128D01*
X191244091Y-96702517D01*
X191193796Y-96567669D01*
X191107546Y-96452454D01*
X190992331Y-96366204D01*
X190906020Y-96334012D01*
X190860916Y-96317189D01*
X190810537Y-96282210D01*
X190783084Y-96227365D01*
X190785273Y-96166072D01*
X190816566Y-96113329D01*
X190938495Y-95991401D01*
X191074035Y-95797830D01*
X191173903Y-95583663D01*
X191235063Y-95355408D01*
X191255659Y-95120000D01*
X191235063Y-94884592D01*
X191173903Y-94656337D01*
X191074035Y-94442171D01*
X190938495Y-94248599D01*
X190771401Y-94081505D01*
X190766970Y-94078402D01*
X190766966Y-94078399D01*
X190585841Y-93951574D01*
X190546976Y-93907256D01*
X190532965Y-93849999D01*
X190546976Y-93792742D01*
X190585839Y-93748426D01*
X190771401Y-93618495D01*
X190938495Y-93451401D01*
X191074035Y-93257830D01*
X191173903Y-93043663D01*
X191235063Y-92815408D01*
X191255659Y-92580000D01*
X191235063Y-92344592D01*
X191173903Y-92116337D01*
X191074035Y-91902171D01*
X190938495Y-91708599D01*
X190771401Y-91541505D01*
X190766968Y-91538401D01*
X190766961Y-91538395D01*
X190585842Y-91411575D01*
X190546976Y-91367257D01*
X190532965Y-91310000D01*
X190546976Y-91252743D01*
X190585842Y-91208425D01*
X190766961Y-91081604D01*
X190766961Y-91081603D01*
X190771401Y-91078495D01*
X190938495Y-90911401D01*
X191074035Y-90717830D01*
X191173903Y-90503663D01*
X191235063Y-90275408D01*
X191255659Y-90040000D01*
X191235063Y-89804592D01*
X191176419Y-89585728D01*
X191175305Y-89581569D01*
X191175304Y-89581567D01*
X191173903Y-89576337D01*
X191074035Y-89362171D01*
X190938495Y-89168599D01*
X190771401Y-89001505D01*
X190766968Y-88998401D01*
X190766961Y-88998395D01*
X190585842Y-88871575D01*
X190546976Y-88827257D01*
X190532965Y-88770000D01*
X190546976Y-88712743D01*
X190585842Y-88668425D01*
X190766961Y-88541604D01*
X190766961Y-88541603D01*
X190771401Y-88538495D01*
X190938495Y-88371401D01*
X191074035Y-88177830D01*
X191173903Y-87963663D01*
X191235063Y-87735408D01*
X191255659Y-87500000D01*
X191235063Y-87264592D01*
X191173903Y-87036337D01*
X191074035Y-86822171D01*
X190938495Y-86628599D01*
X190771401Y-86461505D01*
X190766968Y-86458401D01*
X190766961Y-86458395D01*
X190585842Y-86331575D01*
X190546976Y-86287257D01*
X190532965Y-86230000D01*
X190546976Y-86172743D01*
X190585842Y-86128425D01*
X190766961Y-86001604D01*
X190766961Y-86001603D01*
X190771401Y-85998495D01*
X190938495Y-85831401D01*
X191074035Y-85637830D01*
X191173903Y-85423663D01*
X191235063Y-85195408D01*
X191255659Y-84960000D01*
X191235063Y-84724592D01*
X191180544Y-84521121D01*
X191175305Y-84501569D01*
X191175304Y-84501567D01*
X191173903Y-84496337D01*
X191074035Y-84282171D01*
X190938495Y-84088599D01*
X190771401Y-83921505D01*
X190766970Y-83918402D01*
X190766966Y-83918399D01*
X190585405Y-83791269D01*
X190546540Y-83746951D01*
X190532529Y-83689694D01*
X190546540Y-83632437D01*
X190585406Y-83588119D01*
X190766638Y-83461219D01*
X190774909Y-83454278D01*
X190934278Y-83294909D01*
X190941215Y-83286643D01*
X191070498Y-83102008D01*
X191075886Y-83092676D01*
X191171143Y-82888397D01*
X191174831Y-82878263D01*
X191226943Y-82683780D01*
X191227311Y-82672551D01*
X191216369Y-82670000D01*
X188583631Y-82670000D01*
X188572688Y-82672551D01*
X188573056Y-82683780D01*
X188625168Y-82878263D01*
X188628856Y-82888397D01*
X188724113Y-83092676D01*
X188729501Y-83102008D01*
X188858784Y-83286643D01*
X188865721Y-83294909D01*
X189025090Y-83454278D01*
X189033356Y-83461215D01*
X189214595Y-83588120D01*
X189253460Y-83632438D01*
X189267471Y-83689695D01*
X189253460Y-83746952D01*
X189214594Y-83791270D01*
X189033034Y-83918399D01*
X189033029Y-83918402D01*
X189028599Y-83921505D01*
X189024775Y-83925328D01*
X189024769Y-83925334D01*
X188865334Y-84084769D01*
X188865328Y-84084775D01*
X188861505Y-84088599D01*
X188858402Y-84093029D01*
X188858399Y-84093034D01*
X188729073Y-84277731D01*
X188729068Y-84277738D01*
X188725965Y-84282171D01*
X188723677Y-84287077D01*
X188723675Y-84287081D01*
X188628386Y-84491427D01*
X188628383Y-84491432D01*
X188626097Y-84496337D01*
X188624698Y-84501557D01*
X188624694Y-84501569D01*
X188566337Y-84719365D01*
X188566335Y-84719371D01*
X188564937Y-84724592D01*
X188564465Y-84729977D01*
X188564465Y-84729982D01*
X188547371Y-84925366D01*
X188544341Y-84960000D01*
X188544813Y-84965395D01*
X188556589Y-85100000D01*
X188564937Y-85195408D01*
X188566336Y-85200630D01*
X188566337Y-85200634D01*
X188624694Y-85418430D01*
X188624697Y-85418438D01*
X188626097Y-85423663D01*
X188628385Y-85428570D01*
X188628386Y-85428572D01*
X188723678Y-85632927D01*
X188723681Y-85632933D01*
X188725965Y-85637830D01*
X188729064Y-85642257D01*
X188729066Y-85642259D01*
X188858399Y-85826966D01*
X188858402Y-85826970D01*
X188861505Y-85831401D01*
X189028599Y-85998495D01*
X189033032Y-86001599D01*
X189033038Y-86001604D01*
X189214158Y-86128425D01*
X189253024Y-86172743D01*
X189267035Y-86230000D01*
X189253024Y-86287257D01*
X189214159Y-86331575D01*
X189033041Y-86458395D01*
X189028599Y-86461505D01*
X189024775Y-86465328D01*
X189024769Y-86465334D01*
X188865334Y-86624769D01*
X188865328Y-86624775D01*
X188861505Y-86628599D01*
X188858402Y-86633029D01*
X188858399Y-86633034D01*
X188729073Y-86817731D01*
X188729068Y-86817738D01*
X188725965Y-86822171D01*
X188723677Y-86827077D01*
X188723675Y-86827081D01*
X188628386Y-87031427D01*
X188628383Y-87031432D01*
X188626097Y-87036337D01*
X188624698Y-87041557D01*
X188624694Y-87041569D01*
X188566337Y-87259365D01*
X188566335Y-87259371D01*
X188564937Y-87264592D01*
X188564465Y-87269977D01*
X188564465Y-87269982D01*
X188545351Y-87488457D01*
X188544341Y-87500000D01*
X188544813Y-87505395D01*
X188563442Y-87718327D01*
X188564937Y-87735408D01*
X188566336Y-87740630D01*
X188566337Y-87740634D01*
X188624694Y-87958430D01*
X188624697Y-87958438D01*
X188626097Y-87963663D01*
X188628385Y-87968570D01*
X188628386Y-87968572D01*
X188723678Y-88172927D01*
X188723681Y-88172933D01*
X188725965Y-88177830D01*
X188729064Y-88182257D01*
X188729066Y-88182259D01*
X188858399Y-88366966D01*
X188858402Y-88366970D01*
X188861505Y-88371401D01*
X189028599Y-88538495D01*
X189033032Y-88541599D01*
X189033038Y-88541604D01*
X189214158Y-88668425D01*
X189253024Y-88712743D01*
X189267035Y-88770000D01*
X189253024Y-88827257D01*
X189214159Y-88871575D01*
X189033041Y-88998395D01*
X189028599Y-89001505D01*
X189024775Y-89005328D01*
X189024769Y-89005334D01*
X188865334Y-89164769D01*
X188865328Y-89164775D01*
X188861505Y-89168599D01*
X188858402Y-89173029D01*
X188858399Y-89173034D01*
X188729073Y-89357731D01*
X188729068Y-89357738D01*
X188725965Y-89362171D01*
X188723677Y-89367077D01*
X188723675Y-89367081D01*
X188628386Y-89571427D01*
X188628383Y-89571432D01*
X188626097Y-89576337D01*
X188624698Y-89581557D01*
X188624694Y-89581569D01*
X188566337Y-89799365D01*
X188566335Y-89799371D01*
X188564937Y-89804592D01*
X188564465Y-89809977D01*
X188564465Y-89809982D01*
X188553153Y-89939280D01*
X188544341Y-90040000D01*
X188544813Y-90045395D01*
X188561604Y-90237319D01*
X188564937Y-90275408D01*
X188566336Y-90280630D01*
X188566337Y-90280634D01*
X188624694Y-90498430D01*
X188624697Y-90498438D01*
X188626097Y-90503663D01*
X188628385Y-90508570D01*
X188628386Y-90508572D01*
X188723678Y-90712927D01*
X188723681Y-90712933D01*
X188725965Y-90717830D01*
X188729064Y-90722257D01*
X188729066Y-90722259D01*
X188858399Y-90906966D01*
X188858402Y-90906970D01*
X188861505Y-90911401D01*
X189028599Y-91078495D01*
X189033032Y-91081599D01*
X189033038Y-91081604D01*
X189214158Y-91208425D01*
X189253024Y-91252743D01*
X189267035Y-91310000D01*
X189253024Y-91367257D01*
X189214159Y-91411575D01*
X189033041Y-91538395D01*
X189028599Y-91541505D01*
X189024775Y-91545328D01*
X189024769Y-91545334D01*
X188865334Y-91704769D01*
X188865328Y-91704775D01*
X188861505Y-91708599D01*
X188858402Y-91713029D01*
X188858399Y-91713034D01*
X188729073Y-91897731D01*
X188729068Y-91897738D01*
X188725965Y-91902171D01*
X188723677Y-91907077D01*
X188723675Y-91907081D01*
X188628386Y-92111427D01*
X188628383Y-92111432D01*
X188626097Y-92116337D01*
X188624698Y-92121557D01*
X188624694Y-92121569D01*
X188566337Y-92339365D01*
X188566335Y-92339371D01*
X188564937Y-92344592D01*
X188564465Y-92349977D01*
X188564465Y-92349982D01*
X188549394Y-92522242D01*
X188544341Y-92580000D01*
X188544813Y-92585395D01*
X188562509Y-92787665D01*
X188564937Y-92815408D01*
X188566336Y-92820630D01*
X188566337Y-92820634D01*
X188624694Y-93038430D01*
X188624697Y-93038438D01*
X188626097Y-93043663D01*
X188628385Y-93048570D01*
X188628386Y-93048572D01*
X188723678Y-93252927D01*
X188723681Y-93252933D01*
X188725965Y-93257830D01*
X188729064Y-93262257D01*
X188729066Y-93262259D01*
X188858399Y-93446966D01*
X188858402Y-93446970D01*
X188861505Y-93451401D01*
X189028599Y-93618495D01*
X189033032Y-93621599D01*
X189033038Y-93621604D01*
X189214158Y-93748425D01*
X189253024Y-93792743D01*
X189267035Y-93850000D01*
X189253024Y-93907257D01*
X189214160Y-93951574D01*
X189028599Y-94081505D01*
X189024775Y-94085328D01*
X189024769Y-94085334D01*
X188865334Y-94244769D01*
X188865328Y-94244775D01*
X188861505Y-94248599D01*
X188858402Y-94253029D01*
X188858399Y-94253034D01*
X188729073Y-94437731D01*
X188729068Y-94437738D01*
X188725965Y-94442171D01*
X188723677Y-94447077D01*
X188723675Y-94447081D01*
X188628386Y-94651427D01*
X188628383Y-94651432D01*
X188626097Y-94656337D01*
X188624698Y-94661557D01*
X188624694Y-94661569D01*
X188566337Y-94879365D01*
X188566335Y-94879371D01*
X188564937Y-94884592D01*
X188564465Y-94889977D01*
X188564465Y-94889982D01*
X188544813Y-95114605D01*
X188544341Y-95120000D01*
X172633147Y-95120000D01*
X172686313Y-94968059D01*
X172705249Y-94800000D01*
X172686313Y-94631941D01*
X172630456Y-94472310D01*
X172540477Y-94329110D01*
X172420890Y-94209523D01*
X172277690Y-94119544D01*
X172271124Y-94117246D01*
X172271121Y-94117245D01*
X172124633Y-94065987D01*
X172124630Y-94065986D01*
X172118059Y-94063687D01*
X172111142Y-94062907D01*
X172111135Y-94062906D01*
X171956923Y-94045531D01*
X171950000Y-94044751D01*
X171943077Y-94045531D01*
X171788864Y-94062906D01*
X171788855Y-94062907D01*
X171781941Y-94063687D01*
X171775371Y-94065985D01*
X171775366Y-94065987D01*
X171628878Y-94117245D01*
X171628872Y-94117247D01*
X171622310Y-94119544D01*
X171616419Y-94123245D01*
X171616418Y-94123246D01*
X171485010Y-94205815D01*
X171485005Y-94205818D01*
X171479110Y-94209523D01*
X171474185Y-94214447D01*
X171474181Y-94214451D01*
X171364451Y-94324181D01*
X171364447Y-94324185D01*
X171359523Y-94329110D01*
X171355818Y-94335005D01*
X171355815Y-94335010D01*
X171273246Y-94466418D01*
X171269544Y-94472310D01*
X171267247Y-94478872D01*
X171267245Y-94478878D01*
X171215987Y-94625366D01*
X171215985Y-94625371D01*
X171213687Y-94631941D01*
X171212907Y-94638855D01*
X171212906Y-94638864D01*
X171195531Y-94793077D01*
X171194751Y-94800000D01*
X119209127Y-94800000D01*
X119073130Y-94591841D01*
X118819064Y-94265418D01*
X118817331Y-94263535D01*
X118817323Y-94263526D01*
X118540636Y-93962965D01*
X118538910Y-93961090D01*
X118480431Y-93907256D01*
X118236473Y-93682676D01*
X118236462Y-93682666D01*
X118234582Y-93680936D01*
X118180528Y-93638864D01*
X117910187Y-93428448D01*
X117910179Y-93428442D01*
X117908159Y-93426870D01*
X117906012Y-93425467D01*
X117906006Y-93425463D01*
X117641919Y-93252927D01*
X117561869Y-93200628D01*
X117559625Y-93199414D01*
X117559614Y-93199407D01*
X117200324Y-93004969D01*
X117200316Y-93004965D01*
X117198080Y-93003755D01*
X117195742Y-93002729D01*
X117195737Y-93002727D01*
X116821614Y-92838621D01*
X116821602Y-92838616D01*
X116819276Y-92837596D01*
X116816868Y-92836769D01*
X116816857Y-92836765D01*
X116430468Y-92704118D01*
X116430464Y-92704116D01*
X116428044Y-92703286D01*
X116425570Y-92702659D01*
X116425565Y-92702658D01*
X116029533Y-92602369D01*
X116029532Y-92602368D01*
X116027057Y-92601742D01*
X116024543Y-92601322D01*
X116024536Y-92601321D01*
X115621587Y-92534081D01*
X115621570Y-92534079D01*
X115619054Y-92533659D01*
X115616490Y-92533446D01*
X115616486Y-92533446D01*
X115209388Y-92499712D01*
X115209372Y-92499711D01*
X115206822Y-92499500D01*
X115204252Y-92499500D01*
X115002706Y-92499500D01*
X114997297Y-92499382D01*
X114599784Y-92482025D01*
X114599629Y-92482018D01*
X114569083Y-92480646D01*
X114558462Y-92479710D01*
X114279730Y-92443014D01*
X114279271Y-92442953D01*
X114130470Y-92422798D01*
X114120280Y-92420981D01*
X114079429Y-92411925D01*
X113869016Y-92365277D01*
X113868263Y-92365107D01*
X113698699Y-92326406D01*
X113689003Y-92323776D01*
X113453323Y-92249465D01*
X113452293Y-92249135D01*
X113277161Y-92192232D01*
X113268026Y-92188862D01*
X113044945Y-92096459D01*
X113043732Y-92095949D01*
X112869152Y-92021330D01*
X112860649Y-92017306D01*
X112827405Y-92000000D01*
X135444751Y-92000000D01*
X135445531Y-92006923D01*
X135462906Y-92161135D01*
X135462907Y-92161142D01*
X135463687Y-92168059D01*
X135465986Y-92174630D01*
X135465987Y-92174633D01*
X135509854Y-92300000D01*
X135519544Y-92327690D01*
X135609523Y-92470890D01*
X135729110Y-92590477D01*
X135872310Y-92680456D01*
X136031941Y-92736313D01*
X136200000Y-92755249D01*
X136368059Y-92736313D01*
X136527690Y-92680456D01*
X136670890Y-92590477D01*
X136790477Y-92470890D01*
X136880456Y-92327690D01*
X136890145Y-92300000D01*
X142244751Y-92300000D01*
X142245531Y-92306923D01*
X142262906Y-92461135D01*
X142262907Y-92461142D01*
X142263687Y-92468059D01*
X142265986Y-92474630D01*
X142265987Y-92474633D01*
X142310683Y-92602369D01*
X142319544Y-92627690D01*
X142409523Y-92770890D01*
X142529110Y-92890477D01*
X142672310Y-92980456D01*
X142831941Y-93036313D01*
X142908944Y-93044989D01*
X142972373Y-93071262D01*
X143012102Y-93127254D01*
X143015952Y-93195801D01*
X142982742Y-93255890D01*
X142909523Y-93329110D01*
X142905818Y-93335005D01*
X142905815Y-93335010D01*
X142832682Y-93451401D01*
X142819544Y-93472310D01*
X142817247Y-93478872D01*
X142817245Y-93478878D01*
X142765987Y-93625366D01*
X142765985Y-93625371D01*
X142763687Y-93631941D01*
X142762907Y-93638855D01*
X142762906Y-93638864D01*
X142757970Y-93682676D01*
X142744751Y-93800000D01*
X142745531Y-93806923D01*
X142762906Y-93961135D01*
X142762907Y-93961142D01*
X142763687Y-93968059D01*
X142765986Y-93974630D01*
X142765987Y-93974633D01*
X142816693Y-94119544D01*
X142819544Y-94127690D01*
X142870963Y-94209523D01*
X142895516Y-94248599D01*
X142909523Y-94270890D01*
X143029110Y-94390477D01*
X143172310Y-94480456D01*
X143331941Y-94536313D01*
X143500000Y-94555249D01*
X143668059Y-94536313D01*
X143827690Y-94480456D01*
X143970890Y-94390477D01*
X144090477Y-94270890D01*
X144180456Y-94127690D01*
X144236313Y-93968059D01*
X144255249Y-93800000D01*
X144236313Y-93631941D01*
X144190145Y-93500000D01*
X150694751Y-93500000D01*
X150695531Y-93506923D01*
X150712906Y-93661135D01*
X150712907Y-93661142D01*
X150713687Y-93668059D01*
X150715986Y-93674630D01*
X150715987Y-93674633D01*
X150759854Y-93800000D01*
X150769544Y-93827690D01*
X150819539Y-93907256D01*
X150847386Y-93951575D01*
X150859523Y-93970890D01*
X150979110Y-94090477D01*
X151122310Y-94180456D01*
X151281941Y-94236313D01*
X151288864Y-94237093D01*
X151430341Y-94253034D01*
X151450000Y-94255249D01*
X151469659Y-94253034D01*
X151543011Y-94244769D01*
X151618059Y-94236313D01*
X151777690Y-94180456D01*
X151920890Y-94090477D01*
X152040477Y-93970890D01*
X152130456Y-93827690D01*
X152140145Y-93800000D01*
X183194751Y-93800000D01*
X183195531Y-93806923D01*
X183212906Y-93961135D01*
X183212907Y-93961142D01*
X183213687Y-93968059D01*
X183215986Y-93974630D01*
X183215987Y-93974633D01*
X183266693Y-94119544D01*
X183269544Y-94127690D01*
X183320963Y-94209523D01*
X183345516Y-94248599D01*
X183359523Y-94270890D01*
X183479110Y-94390477D01*
X183622310Y-94480456D01*
X183781941Y-94536313D01*
X183950000Y-94555249D01*
X184118059Y-94536313D01*
X184277690Y-94480456D01*
X184420890Y-94390477D01*
X184540477Y-94270890D01*
X184630456Y-94127690D01*
X184686313Y-93968059D01*
X184705249Y-93800000D01*
X184686313Y-93631941D01*
X184630456Y-93472310D01*
X184540477Y-93329110D01*
X184420890Y-93209523D01*
X184277690Y-93119544D01*
X184271124Y-93117246D01*
X184271121Y-93117245D01*
X184124633Y-93065987D01*
X184124630Y-93065986D01*
X184118059Y-93063687D01*
X184111142Y-93062907D01*
X184111135Y-93062906D01*
X183956923Y-93045531D01*
X183950000Y-93044751D01*
X183943077Y-93045531D01*
X183788864Y-93062906D01*
X183788855Y-93062907D01*
X183781941Y-93063687D01*
X183775371Y-93065985D01*
X183775366Y-93065987D01*
X183628878Y-93117245D01*
X183628872Y-93117247D01*
X183622310Y-93119544D01*
X183616419Y-93123245D01*
X183616418Y-93123246D01*
X183485010Y-93205815D01*
X183485005Y-93205818D01*
X183479110Y-93209523D01*
X183474185Y-93214447D01*
X183474181Y-93214451D01*
X183364451Y-93324181D01*
X183364447Y-93324185D01*
X183359523Y-93329110D01*
X183355818Y-93335005D01*
X183355815Y-93335010D01*
X183282682Y-93451401D01*
X183269544Y-93472310D01*
X183267247Y-93478872D01*
X183267245Y-93478878D01*
X183215987Y-93625366D01*
X183215985Y-93625371D01*
X183213687Y-93631941D01*
X183212907Y-93638855D01*
X183212906Y-93638864D01*
X183207970Y-93682676D01*
X183194751Y-93800000D01*
X152140145Y-93800000D01*
X152186313Y-93668059D01*
X152205249Y-93500000D01*
X152186313Y-93331941D01*
X152130456Y-93172310D01*
X152040477Y-93029110D01*
X151999048Y-92987681D01*
X151966954Y-92932094D01*
X151966954Y-92867906D01*
X151999048Y-92812319D01*
X152005546Y-92805821D01*
X152040477Y-92770890D01*
X152130456Y-92627690D01*
X152186313Y-92468059D01*
X152205249Y-92300000D01*
X152198062Y-92236216D01*
X158558342Y-92236216D01*
X158565111Y-92242984D01*
X158574765Y-92247634D01*
X158731782Y-92302576D01*
X158745280Y-92305657D01*
X158910577Y-92324282D01*
X158924423Y-92324282D01*
X159089719Y-92305657D01*
X159103217Y-92302576D01*
X159260233Y-92247634D01*
X159269888Y-92242984D01*
X159276656Y-92236216D01*
X160083342Y-92236216D01*
X160090111Y-92242984D01*
X160099765Y-92247634D01*
X160256782Y-92302576D01*
X160270280Y-92305657D01*
X160435577Y-92324282D01*
X160449423Y-92324282D01*
X160614719Y-92305657D01*
X160628217Y-92302576D01*
X160785233Y-92247634D01*
X160794888Y-92242984D01*
X160801656Y-92236216D01*
X160795728Y-92226781D01*
X160620299Y-92051352D01*
X185443534Y-92051352D01*
X185444314Y-92058275D01*
X185461689Y-92212487D01*
X185461690Y-92212494D01*
X185462470Y-92219411D01*
X185464769Y-92225982D01*
X185464770Y-92225985D01*
X185508158Y-92349982D01*
X185518327Y-92379042D01*
X185569910Y-92461135D01*
X185594644Y-92500500D01*
X185608306Y-92522242D01*
X185727893Y-92641829D01*
X185871093Y-92731808D01*
X186030724Y-92787665D01*
X186198783Y-92806601D01*
X186366842Y-92787665D01*
X186526473Y-92731808D01*
X186669673Y-92641829D01*
X186789260Y-92522242D01*
X186879239Y-92379042D01*
X186935096Y-92219411D01*
X186954032Y-92051352D01*
X186935096Y-91883293D01*
X186879239Y-91723662D01*
X186789260Y-91580462D01*
X186669673Y-91460875D01*
X186526473Y-91370896D01*
X186519907Y-91368598D01*
X186519904Y-91368597D01*
X186373416Y-91317339D01*
X186373413Y-91317338D01*
X186366842Y-91315039D01*
X186359925Y-91314259D01*
X186359918Y-91314258D01*
X186205706Y-91296883D01*
X186198783Y-91296103D01*
X186191860Y-91296883D01*
X186037647Y-91314258D01*
X186037638Y-91314259D01*
X186030724Y-91315039D01*
X186024154Y-91317337D01*
X186024149Y-91317339D01*
X185877661Y-91368597D01*
X185877655Y-91368599D01*
X185871093Y-91370896D01*
X185865202Y-91374597D01*
X185865201Y-91374598D01*
X185733793Y-91457167D01*
X185733788Y-91457170D01*
X185727893Y-91460875D01*
X185722968Y-91465799D01*
X185722964Y-91465803D01*
X185613234Y-91575533D01*
X185613230Y-91575537D01*
X185608306Y-91580462D01*
X185604601Y-91586357D01*
X185604598Y-91586362D01*
X185522029Y-91717770D01*
X185518327Y-91723662D01*
X185516030Y-91730224D01*
X185516028Y-91730230D01*
X185464770Y-91876718D01*
X185464768Y-91876723D01*
X185462470Y-91883293D01*
X185461690Y-91890207D01*
X185461689Y-91890216D01*
X185452440Y-91972310D01*
X185443534Y-92051352D01*
X160620299Y-92051352D01*
X160454042Y-91885095D01*
X160442500Y-91878431D01*
X160430956Y-91885096D01*
X160089271Y-92226780D01*
X160083342Y-92236216D01*
X159276656Y-92236216D01*
X159270728Y-92226781D01*
X158929042Y-91885095D01*
X158917500Y-91878431D01*
X158905956Y-91885096D01*
X158564271Y-92226780D01*
X158558342Y-92236216D01*
X152198062Y-92236216D01*
X152186313Y-92131941D01*
X152130456Y-91972310D01*
X152040477Y-91829110D01*
X151920890Y-91709523D01*
X151777690Y-91619544D01*
X151771124Y-91617246D01*
X151771121Y-91617245D01*
X151624633Y-91565987D01*
X151624630Y-91565986D01*
X151618059Y-91563687D01*
X151611142Y-91562907D01*
X151611135Y-91562906D01*
X151456923Y-91545531D01*
X151450000Y-91544751D01*
X151443077Y-91545531D01*
X151288864Y-91562906D01*
X151288855Y-91562907D01*
X151281941Y-91563687D01*
X151275371Y-91565985D01*
X151275366Y-91565987D01*
X151128878Y-91617245D01*
X151128872Y-91617247D01*
X151122310Y-91619544D01*
X151116419Y-91623245D01*
X151116418Y-91623246D01*
X150985010Y-91705815D01*
X150985005Y-91705818D01*
X150979110Y-91709523D01*
X150974185Y-91714447D01*
X150974181Y-91714451D01*
X150864451Y-91824181D01*
X150864447Y-91824185D01*
X150859523Y-91829110D01*
X150855818Y-91835005D01*
X150855815Y-91835010D01*
X150791672Y-91937093D01*
X150769544Y-91972310D01*
X150767247Y-91978872D01*
X150767245Y-91978878D01*
X150715987Y-92125366D01*
X150715985Y-92125371D01*
X150713687Y-92131941D01*
X150712907Y-92138855D01*
X150712906Y-92138864D01*
X150701175Y-92242984D01*
X150694751Y-92300000D01*
X150695531Y-92306923D01*
X150712906Y-92461135D01*
X150712907Y-92461142D01*
X150713687Y-92468059D01*
X150715986Y-92474630D01*
X150715987Y-92474633D01*
X150760683Y-92602369D01*
X150769544Y-92627690D01*
X150859523Y-92770890D01*
X150864450Y-92775817D01*
X150864451Y-92775818D01*
X150900952Y-92812319D01*
X150933046Y-92867906D01*
X150933046Y-92932094D01*
X150900952Y-92987681D01*
X150864451Y-93024181D01*
X150864447Y-93024185D01*
X150859523Y-93029110D01*
X150855818Y-93035005D01*
X150855815Y-93035010D01*
X150773246Y-93166418D01*
X150769544Y-93172310D01*
X150767247Y-93178872D01*
X150767245Y-93178878D01*
X150715987Y-93325366D01*
X150715985Y-93325371D01*
X150713687Y-93331941D01*
X150712907Y-93338855D01*
X150712906Y-93338864D01*
X150700227Y-93451401D01*
X150694751Y-93500000D01*
X144190145Y-93500000D01*
X144180456Y-93472310D01*
X144090477Y-93329110D01*
X143970890Y-93209523D01*
X143827690Y-93119544D01*
X143821124Y-93117246D01*
X143821121Y-93117245D01*
X143674633Y-93065987D01*
X143674630Y-93065986D01*
X143668059Y-93063687D01*
X143640037Y-93060529D01*
X143591053Y-93055010D01*
X143527625Y-93028737D01*
X143487896Y-92972744D01*
X143484047Y-92904197D01*
X143517254Y-92844112D01*
X143590477Y-92770890D01*
X143680456Y-92627690D01*
X143736313Y-92468059D01*
X143755249Y-92300000D01*
X143736313Y-92131941D01*
X143680456Y-91972310D01*
X143590477Y-91829110D01*
X143517257Y-91755890D01*
X143484047Y-91695801D01*
X143487897Y-91627254D01*
X143527626Y-91571262D01*
X143591053Y-91544989D01*
X143668059Y-91536313D01*
X143827690Y-91480456D01*
X143838417Y-91473716D01*
X157795842Y-91473716D01*
X157802611Y-91480484D01*
X157812265Y-91485134D01*
X157969284Y-91540077D01*
X157982771Y-91543155D01*
X158018481Y-91547178D01*
X158070569Y-91565404D01*
X158109591Y-91604425D01*
X158127819Y-91656513D01*
X158131843Y-91692219D01*
X158134923Y-91705717D01*
X158189864Y-91862731D01*
X158194515Y-91872389D01*
X158201282Y-91879156D01*
X158210717Y-91873228D01*
X158552404Y-91531542D01*
X158559068Y-91520000D01*
X159275931Y-91520000D01*
X159282595Y-91531542D01*
X159624281Y-91873228D01*
X159634547Y-91879679D01*
X159639047Y-91878105D01*
X159680001Y-91871147D01*
X159720955Y-91878106D01*
X159725451Y-91879679D01*
X159735717Y-91873228D01*
X160077404Y-91531542D01*
X160084068Y-91520000D01*
X160800931Y-91520000D01*
X160807595Y-91531542D01*
X161149281Y-91873228D01*
X161158716Y-91879156D01*
X161165484Y-91872388D01*
X161170134Y-91862733D01*
X161225077Y-91705715D01*
X161228155Y-91692227D01*
X161232178Y-91656518D01*
X161250405Y-91604428D01*
X161289428Y-91565405D01*
X161341518Y-91547178D01*
X161377227Y-91543155D01*
X161390715Y-91540077D01*
X161547733Y-91485134D01*
X161557388Y-91480484D01*
X161564156Y-91473716D01*
X161558228Y-91464281D01*
X161216542Y-91122595D01*
X161205000Y-91115931D01*
X161193457Y-91122595D01*
X160807595Y-91508457D01*
X160800931Y-91520000D01*
X160084068Y-91520000D01*
X160077404Y-91508457D01*
X159691542Y-91122595D01*
X159680000Y-91115931D01*
X159668457Y-91122595D01*
X159282595Y-91508457D01*
X159275931Y-91520000D01*
X158559068Y-91520000D01*
X158552404Y-91508457D01*
X158166542Y-91122595D01*
X158155000Y-91115931D01*
X158143456Y-91122596D01*
X157801771Y-91464280D01*
X157795842Y-91473716D01*
X143838417Y-91473716D01*
X143970890Y-91390477D01*
X144090477Y-91270890D01*
X144180456Y-91127690D01*
X144236313Y-90968059D01*
X144255249Y-90800000D01*
X144251240Y-90764423D01*
X157350718Y-90764423D01*
X157369342Y-90929719D01*
X157372423Y-90943217D01*
X157427364Y-91100231D01*
X157432015Y-91109889D01*
X157438782Y-91116656D01*
X157448217Y-91110728D01*
X157789904Y-90769042D01*
X157796568Y-90757500D01*
X158513431Y-90757500D01*
X158520095Y-90769042D01*
X158905957Y-91154904D01*
X158917500Y-91161568D01*
X158929042Y-91154904D01*
X159314904Y-90769042D01*
X159321568Y-90757500D01*
X160038431Y-90757500D01*
X160045095Y-90769042D01*
X160430957Y-91154904D01*
X160442500Y-91161568D01*
X160454042Y-91154904D01*
X160839904Y-90769042D01*
X160846568Y-90757500D01*
X161563431Y-90757500D01*
X161570095Y-90769042D01*
X161911781Y-91110728D01*
X161921216Y-91116656D01*
X161927984Y-91109888D01*
X161932634Y-91100233D01*
X161987576Y-90943217D01*
X161990657Y-90929719D01*
X162009282Y-90764423D01*
X162009282Y-90750577D01*
X161990657Y-90585280D01*
X161987576Y-90571782D01*
X161932634Y-90414765D01*
X161927984Y-90405111D01*
X161921216Y-90398342D01*
X161911780Y-90404271D01*
X161570096Y-90745956D01*
X161563431Y-90757500D01*
X160846568Y-90757500D01*
X160839904Y-90745957D01*
X160454042Y-90360095D01*
X160442500Y-90353431D01*
X160430957Y-90360095D01*
X160045095Y-90745957D01*
X160038431Y-90757500D01*
X159321568Y-90757500D01*
X159314904Y-90745957D01*
X158929042Y-90360095D01*
X158917500Y-90353431D01*
X158905957Y-90360095D01*
X158520095Y-90745957D01*
X158513431Y-90757500D01*
X157796568Y-90757500D01*
X157789904Y-90745957D01*
X157448219Y-90404272D01*
X157438783Y-90398343D01*
X157432013Y-90405113D01*
X157427366Y-90414764D01*
X157372423Y-90571782D01*
X157369342Y-90585280D01*
X157350718Y-90750577D01*
X157350718Y-90764423D01*
X144251240Y-90764423D01*
X144236313Y-90631941D01*
X144180456Y-90472310D01*
X144090477Y-90329110D01*
X143970890Y-90209523D01*
X143827690Y-90119544D01*
X143821124Y-90117246D01*
X143821121Y-90117245D01*
X143674633Y-90065987D01*
X143674630Y-90065986D01*
X143668059Y-90063687D01*
X143661142Y-90062907D01*
X143661135Y-90062906D01*
X143506923Y-90045531D01*
X143500000Y-90044751D01*
X143493077Y-90045531D01*
X143338864Y-90062906D01*
X143338855Y-90062907D01*
X143331941Y-90063687D01*
X143325371Y-90065985D01*
X143325366Y-90065987D01*
X143178878Y-90117245D01*
X143178872Y-90117247D01*
X143172310Y-90119544D01*
X143166419Y-90123245D01*
X143166418Y-90123246D01*
X143035010Y-90205815D01*
X143035005Y-90205818D01*
X143029110Y-90209523D01*
X143024185Y-90214447D01*
X143024181Y-90214451D01*
X142914451Y-90324181D01*
X142914447Y-90324185D01*
X142909523Y-90329110D01*
X142905818Y-90335005D01*
X142905815Y-90335010D01*
X142836370Y-90445531D01*
X142819544Y-90472310D01*
X142817247Y-90478872D01*
X142817245Y-90478878D01*
X142765987Y-90625366D01*
X142765985Y-90625371D01*
X142763687Y-90631941D01*
X142762907Y-90638855D01*
X142762906Y-90638864D01*
X142748239Y-90769042D01*
X142744751Y-90800000D01*
X142745531Y-90806923D01*
X142762906Y-90961135D01*
X142762907Y-90961142D01*
X142763687Y-90968059D01*
X142765986Y-90974630D01*
X142765987Y-90974633D01*
X142813608Y-91110728D01*
X142819544Y-91127690D01*
X142909523Y-91270890D01*
X142914450Y-91275817D01*
X142914451Y-91275818D01*
X142982742Y-91344109D01*
X143015952Y-91404197D01*
X143012103Y-91472744D01*
X142972374Y-91528737D01*
X142908946Y-91555010D01*
X142838864Y-91562906D01*
X142838855Y-91562907D01*
X142831941Y-91563687D01*
X142825371Y-91565985D01*
X142825366Y-91565987D01*
X142678878Y-91617245D01*
X142678872Y-91617247D01*
X142672310Y-91619544D01*
X142666419Y-91623245D01*
X142666418Y-91623246D01*
X142535010Y-91705815D01*
X142535005Y-91705818D01*
X142529110Y-91709523D01*
X142524185Y-91714447D01*
X142524181Y-91714451D01*
X142414451Y-91824181D01*
X142414447Y-91824185D01*
X142409523Y-91829110D01*
X142405818Y-91835005D01*
X142405815Y-91835010D01*
X142341672Y-91937093D01*
X142319544Y-91972310D01*
X142317247Y-91978872D01*
X142317245Y-91978878D01*
X142265987Y-92125366D01*
X142265985Y-92125371D01*
X142263687Y-92131941D01*
X142262907Y-92138855D01*
X142262906Y-92138864D01*
X142251175Y-92242984D01*
X142244751Y-92300000D01*
X136890145Y-92300000D01*
X136936313Y-92168059D01*
X136955249Y-92000000D01*
X136936313Y-91831941D01*
X136880456Y-91672310D01*
X136790477Y-91529110D01*
X136670890Y-91409523D01*
X136527690Y-91319544D01*
X136521124Y-91317246D01*
X136521121Y-91317245D01*
X136374633Y-91265987D01*
X136374630Y-91265986D01*
X136368059Y-91263687D01*
X136361142Y-91262907D01*
X136361135Y-91262906D01*
X136206923Y-91245531D01*
X136200000Y-91244751D01*
X136193077Y-91245531D01*
X136038864Y-91262906D01*
X136038855Y-91262907D01*
X136031941Y-91263687D01*
X136025371Y-91265985D01*
X136025366Y-91265987D01*
X135878878Y-91317245D01*
X135878872Y-91317247D01*
X135872310Y-91319544D01*
X135866419Y-91323245D01*
X135866418Y-91323246D01*
X135735010Y-91405815D01*
X135735005Y-91405818D01*
X135729110Y-91409523D01*
X135724185Y-91414447D01*
X135724181Y-91414451D01*
X135614451Y-91524181D01*
X135614447Y-91524185D01*
X135609523Y-91529110D01*
X135605818Y-91535005D01*
X135605815Y-91535010D01*
X135529470Y-91656513D01*
X135519544Y-91672310D01*
X135517247Y-91678872D01*
X135517245Y-91678878D01*
X135465987Y-91825366D01*
X135465985Y-91825371D01*
X135463687Y-91831941D01*
X135462907Y-91838855D01*
X135462906Y-91838864D01*
X135449881Y-91954469D01*
X135444751Y-92000000D01*
X112827405Y-92000000D01*
X112649634Y-91907458D01*
X112648131Y-91906663D01*
X112477902Y-91815059D01*
X112470037Y-91810445D01*
X112271378Y-91683885D01*
X112269691Y-91682792D01*
X112269633Y-91682754D01*
X112150975Y-91604428D01*
X112106420Y-91575017D01*
X112099246Y-91569906D01*
X111913783Y-91427596D01*
X111911956Y-91426167D01*
X111757625Y-91303092D01*
X111751165Y-91297568D01*
X111579674Y-91140424D01*
X111577885Y-91138749D01*
X111491803Y-91056446D01*
X111434259Y-91001428D01*
X111428529Y-90995575D01*
X111272148Y-90824916D01*
X111270189Y-90822727D01*
X111138829Y-90672373D01*
X111133837Y-90666279D01*
X111102443Y-90625366D01*
X110993385Y-90483239D01*
X110991446Y-90480641D01*
X110873662Y-90318525D01*
X110869400Y-90312265D01*
X110854328Y-90288606D01*
X112670305Y-90288606D01*
X112678191Y-90299869D01*
X112919684Y-90495425D01*
X112924938Y-90499242D01*
X113244733Y-90706920D01*
X113250354Y-90710166D01*
X113590116Y-90883283D01*
X113596040Y-90885920D01*
X113952044Y-91022578D01*
X113958197Y-91024577D01*
X114326537Y-91123273D01*
X114332879Y-91124621D01*
X114709508Y-91184273D01*
X114715951Y-91184950D01*
X115096756Y-91204908D01*
X115103244Y-91204908D01*
X115196890Y-91200000D01*
X133744751Y-91200000D01*
X133745531Y-91206923D01*
X133762906Y-91361135D01*
X133762907Y-91361142D01*
X133763687Y-91368059D01*
X133765986Y-91374630D01*
X133765987Y-91374633D01*
X133800657Y-91473716D01*
X133819544Y-91527690D01*
X133909523Y-91670890D01*
X134029110Y-91790477D01*
X134172310Y-91880456D01*
X134331941Y-91936313D01*
X134500000Y-91955249D01*
X134668059Y-91936313D01*
X134827690Y-91880456D01*
X134970890Y-91790477D01*
X135090477Y-91670890D01*
X135180456Y-91527690D01*
X135236313Y-91368059D01*
X135255249Y-91200000D01*
X135236313Y-91031941D01*
X135180456Y-90872310D01*
X135090477Y-90729110D01*
X134970890Y-90609523D01*
X134827690Y-90519544D01*
X134821124Y-90517246D01*
X134821121Y-90517245D01*
X134674633Y-90465987D01*
X134674630Y-90465986D01*
X134668059Y-90463687D01*
X134661142Y-90462907D01*
X134661135Y-90462906D01*
X134506923Y-90445531D01*
X134500000Y-90444751D01*
X134493077Y-90445531D01*
X134338864Y-90462906D01*
X134338855Y-90462907D01*
X134331941Y-90463687D01*
X134325371Y-90465985D01*
X134325366Y-90465987D01*
X134178878Y-90517245D01*
X134178872Y-90517247D01*
X134172310Y-90519544D01*
X134166419Y-90523245D01*
X134166418Y-90523246D01*
X134035010Y-90605815D01*
X134035005Y-90605818D01*
X134029110Y-90609523D01*
X134024185Y-90614447D01*
X134024181Y-90614451D01*
X133914451Y-90724181D01*
X133914447Y-90724185D01*
X133909523Y-90729110D01*
X133905818Y-90735005D01*
X133905815Y-90735010D01*
X133823246Y-90866418D01*
X133819544Y-90872310D01*
X133817247Y-90878872D01*
X133817245Y-90878878D01*
X133765987Y-91025366D01*
X133765985Y-91025371D01*
X133763687Y-91031941D01*
X133762907Y-91038855D01*
X133762906Y-91038864D01*
X133745531Y-91193077D01*
X133744751Y-91200000D01*
X115196890Y-91200000D01*
X115484048Y-91184950D01*
X115490491Y-91184273D01*
X115867120Y-91124621D01*
X115873462Y-91123273D01*
X116241802Y-91024577D01*
X116247955Y-91022578D01*
X116603959Y-90885920D01*
X116609883Y-90883283D01*
X116949645Y-90710166D01*
X116955266Y-90706920D01*
X117275061Y-90499242D01*
X117280315Y-90495425D01*
X117521806Y-90299870D01*
X117529693Y-90288606D01*
X117523027Y-90276580D01*
X117286897Y-90040450D01*
X157795319Y-90040450D01*
X157801772Y-90050719D01*
X158143457Y-90392404D01*
X158155000Y-90399068D01*
X158166542Y-90392404D01*
X158552404Y-90006542D01*
X158559068Y-89995000D01*
X158559067Y-89994999D01*
X159275931Y-89994999D01*
X159282595Y-90006542D01*
X159668457Y-90392404D01*
X159680000Y-90399068D01*
X159691542Y-90392404D01*
X160077404Y-90006542D01*
X160084068Y-89995000D01*
X160084067Y-89994999D01*
X160800931Y-89994999D01*
X160807595Y-90006542D01*
X161193457Y-90392404D01*
X161205000Y-90399068D01*
X161216542Y-90392404D01*
X161558228Y-90050717D01*
X161564679Y-90040451D01*
X161563106Y-90035955D01*
X161556147Y-89995001D01*
X161563105Y-89954047D01*
X161564679Y-89949547D01*
X161558228Y-89939281D01*
X161318947Y-89700000D01*
X168444751Y-89700000D01*
X168445531Y-89706923D01*
X168462906Y-89861135D01*
X168462907Y-89861142D01*
X168463687Y-89868059D01*
X168465986Y-89874630D01*
X168465987Y-89874633D01*
X168508105Y-89995001D01*
X168519544Y-90027690D01*
X168609523Y-90170890D01*
X168614451Y-90175818D01*
X168725952Y-90287319D01*
X168758046Y-90342906D01*
X168758046Y-90407094D01*
X168725952Y-90462681D01*
X168664451Y-90524181D01*
X168664447Y-90524185D01*
X168659523Y-90529110D01*
X168655818Y-90535005D01*
X168655815Y-90535010D01*
X168573246Y-90666418D01*
X168569544Y-90672310D01*
X168567247Y-90678872D01*
X168567245Y-90678878D01*
X168515987Y-90825366D01*
X168515985Y-90825371D01*
X168513687Y-90831941D01*
X168512907Y-90838855D01*
X168512906Y-90838864D01*
X168501149Y-90943217D01*
X168494751Y-91000000D01*
X168495531Y-91006923D01*
X168512906Y-91161135D01*
X168512907Y-91161142D01*
X168513687Y-91168059D01*
X168515986Y-91174630D01*
X168515987Y-91174633D01*
X168566693Y-91319544D01*
X168569544Y-91327690D01*
X168659523Y-91470890D01*
X168779110Y-91590477D01*
X168922310Y-91680456D01*
X169081941Y-91736313D01*
X169250000Y-91755249D01*
X169418059Y-91736313D01*
X169577690Y-91680456D01*
X169720890Y-91590477D01*
X169840477Y-91470890D01*
X169930456Y-91327690D01*
X169986313Y-91168059D01*
X170005249Y-91000000D01*
X169986313Y-90831941D01*
X169930456Y-90672310D01*
X169840477Y-90529110D01*
X169724048Y-90412681D01*
X169691954Y-90357094D01*
X169691954Y-90292906D01*
X169724048Y-90237319D01*
X169751844Y-90209523D01*
X169790477Y-90170890D01*
X169880456Y-90027690D01*
X169936313Y-89868059D01*
X169955249Y-89700000D01*
X169936313Y-89531941D01*
X169880456Y-89372310D01*
X169790477Y-89229110D01*
X169670890Y-89109523D01*
X169527690Y-89019544D01*
X169521124Y-89017246D01*
X169521121Y-89017245D01*
X169374633Y-88965987D01*
X169374630Y-88965986D01*
X169368059Y-88963687D01*
X169361142Y-88962907D01*
X169361135Y-88962906D01*
X169206923Y-88945531D01*
X169200000Y-88944751D01*
X169193077Y-88945531D01*
X169038864Y-88962906D01*
X169038855Y-88962907D01*
X169031941Y-88963687D01*
X169025371Y-88965985D01*
X169025366Y-88965987D01*
X168878878Y-89017245D01*
X168878872Y-89017247D01*
X168872310Y-89019544D01*
X168866419Y-89023245D01*
X168866418Y-89023246D01*
X168735010Y-89105815D01*
X168735005Y-89105818D01*
X168729110Y-89109523D01*
X168724185Y-89114447D01*
X168724181Y-89114451D01*
X168614451Y-89224181D01*
X168614447Y-89224185D01*
X168609523Y-89229110D01*
X168605818Y-89235005D01*
X168605815Y-89235010D01*
X168525915Y-89362171D01*
X168519544Y-89372310D01*
X168517247Y-89378872D01*
X168517245Y-89378878D01*
X168465987Y-89525366D01*
X168465985Y-89525371D01*
X168463687Y-89531941D01*
X168462907Y-89538855D01*
X168462906Y-89538864D01*
X168456289Y-89597595D01*
X168444751Y-89700000D01*
X161318947Y-89700000D01*
X161216542Y-89597595D01*
X161204999Y-89590931D01*
X161193457Y-89597595D01*
X160807595Y-89983457D01*
X160800931Y-89994999D01*
X160084067Y-89994999D01*
X160077404Y-89983457D01*
X159691542Y-89597595D01*
X159679999Y-89590931D01*
X159668457Y-89597595D01*
X159282595Y-89983457D01*
X159275931Y-89994999D01*
X158559067Y-89994999D01*
X158552404Y-89983457D01*
X158166542Y-89597595D01*
X158155000Y-89590931D01*
X158143456Y-89597596D01*
X157801771Y-89939280D01*
X157795320Y-89949547D01*
X157796894Y-89954046D01*
X157803852Y-89995000D01*
X157796893Y-90035954D01*
X157795319Y-90040450D01*
X117286897Y-90040450D01*
X115111542Y-87865095D01*
X115100000Y-87858431D01*
X115088457Y-87865095D01*
X112676971Y-90276580D01*
X112670305Y-90288606D01*
X110854328Y-90288606D01*
X110821654Y-90237319D01*
X110745767Y-90118200D01*
X110743915Y-90115200D01*
X110640818Y-89942644D01*
X110637277Y-89936302D01*
X110601752Y-89868059D01*
X110531226Y-89732580D01*
X110529537Y-89729210D01*
X110442109Y-89547664D01*
X110439292Y-89541367D01*
X110351534Y-89329500D01*
X110350022Y-89325669D01*
X110279110Y-89136726D01*
X110276965Y-89130508D01*
X110208083Y-88912041D01*
X110206813Y-88907743D01*
X110201851Y-88889764D01*
X110153070Y-88713010D01*
X110151566Y-88706963D01*
X110102017Y-88483465D01*
X110101074Y-88478780D01*
X110064971Y-88279836D01*
X110064057Y-88273994D01*
X110034195Y-88047169D01*
X110033640Y-88042163D01*
X110015502Y-87840627D01*
X110015126Y-87835002D01*
X110005152Y-87606568D01*
X110005035Y-87601161D01*
X110005035Y-87503244D01*
X111395092Y-87503244D01*
X111415049Y-87884048D01*
X111415726Y-87890491D01*
X111475378Y-88267120D01*
X111476726Y-88273462D01*
X111575422Y-88641802D01*
X111577421Y-88647955D01*
X111714079Y-89003959D01*
X111716716Y-89009883D01*
X111889833Y-89349645D01*
X111893079Y-89355266D01*
X112100757Y-89675061D01*
X112104574Y-89680315D01*
X112300129Y-89921807D01*
X112311392Y-89929693D01*
X112323418Y-89923027D01*
X114734904Y-87511542D01*
X114741568Y-87500000D01*
X115458431Y-87500000D01*
X115465095Y-87511542D01*
X117876580Y-89923027D01*
X117888606Y-89929693D01*
X117899870Y-89921806D01*
X118095425Y-89680315D01*
X118099242Y-89675061D01*
X118306920Y-89355266D01*
X118310166Y-89349645D01*
X118366327Y-89239423D01*
X157350718Y-89239423D01*
X157369342Y-89404719D01*
X157372423Y-89418217D01*
X157427364Y-89575231D01*
X157432015Y-89584889D01*
X157438782Y-89591656D01*
X157448217Y-89585728D01*
X157789904Y-89244042D01*
X157796568Y-89232500D01*
X158513431Y-89232500D01*
X158520095Y-89244042D01*
X158905957Y-89629904D01*
X158917499Y-89636568D01*
X158929042Y-89629904D01*
X159314904Y-89244042D01*
X159321568Y-89232500D01*
X160038431Y-89232500D01*
X160045095Y-89244042D01*
X160430957Y-89629904D01*
X160442499Y-89636568D01*
X160454042Y-89629904D01*
X160839904Y-89244042D01*
X160846568Y-89232500D01*
X161563431Y-89232500D01*
X161570095Y-89244042D01*
X161911781Y-89585728D01*
X161921216Y-89591656D01*
X161927984Y-89584888D01*
X161932634Y-89575233D01*
X161987576Y-89418217D01*
X161990657Y-89404719D01*
X162009282Y-89239423D01*
X162009282Y-89225577D01*
X161990657Y-89060280D01*
X161987576Y-89046782D01*
X161932634Y-88889765D01*
X161927984Y-88880111D01*
X161921216Y-88873342D01*
X161911780Y-88879271D01*
X161570096Y-89220956D01*
X161563431Y-89232500D01*
X160846568Y-89232500D01*
X160839904Y-89220957D01*
X160454042Y-88835095D01*
X160442500Y-88828431D01*
X160430957Y-88835095D01*
X160045095Y-89220957D01*
X160038431Y-89232500D01*
X159321568Y-89232500D01*
X159314904Y-89220957D01*
X158929042Y-88835095D01*
X158917500Y-88828431D01*
X158905957Y-88835095D01*
X158520095Y-89220957D01*
X158513431Y-89232500D01*
X157796568Y-89232500D01*
X157789904Y-89220957D01*
X157448219Y-88879272D01*
X157438783Y-88873343D01*
X157432013Y-88880113D01*
X157427366Y-88889764D01*
X157372423Y-89046782D01*
X157369342Y-89060280D01*
X157350718Y-89225577D01*
X157350718Y-89239423D01*
X118366327Y-89239423D01*
X118483283Y-89009883D01*
X118485920Y-89003959D01*
X118622578Y-88647955D01*
X118624577Y-88641802D01*
X118723273Y-88273462D01*
X118724621Y-88267120D01*
X118784273Y-87890491D01*
X118784950Y-87884048D01*
X118804908Y-87503244D01*
X118804908Y-87500000D01*
X123834127Y-87500000D01*
X123834656Y-87505709D01*
X123849983Y-87671121D01*
X123853978Y-87714229D01*
X123855547Y-87719743D01*
X123911286Y-87915647D01*
X123911288Y-87915651D01*
X123912856Y-87921162D01*
X123915408Y-87926288D01*
X123915410Y-87926292D01*
X124006200Y-88108623D01*
X124006202Y-88108627D01*
X124008755Y-88113753D01*
X124012205Y-88118321D01*
X124012209Y-88118328D01*
X124100000Y-88234582D01*
X124138409Y-88285444D01*
X124142643Y-88289304D01*
X124142646Y-88289307D01*
X124293169Y-88426526D01*
X124293172Y-88426528D01*
X124297405Y-88430387D01*
X124302272Y-88433400D01*
X124302274Y-88433402D01*
X124358470Y-88468197D01*
X124480326Y-88543647D01*
X124680944Y-88621367D01*
X124892427Y-88660900D01*
X125101844Y-88660900D01*
X125107573Y-88660900D01*
X125319056Y-88621367D01*
X125519674Y-88543647D01*
X125702595Y-88430387D01*
X125816464Y-88326582D01*
X125869753Y-88297966D01*
X125930244Y-88297966D01*
X125983536Y-88326583D01*
X125991108Y-88333486D01*
X126093168Y-88426526D01*
X126093171Y-88426528D01*
X126097404Y-88430387D01*
X126102271Y-88433400D01*
X126102273Y-88433402D01*
X126158469Y-88468197D01*
X126280325Y-88543647D01*
X126480943Y-88621367D01*
X126692426Y-88660900D01*
X126901843Y-88660900D01*
X126907572Y-88660900D01*
X127119055Y-88621367D01*
X127319673Y-88543647D01*
X127426258Y-88477652D01*
X127979425Y-88477652D01*
X127987360Y-88485497D01*
X128075675Y-88540179D01*
X128085897Y-88545269D01*
X128275732Y-88618811D01*
X128286714Y-88621937D01*
X128486843Y-88659347D01*
X128498202Y-88660400D01*
X128701798Y-88660400D01*
X128713156Y-88659347D01*
X128913285Y-88621937D01*
X128924267Y-88618811D01*
X129114102Y-88545269D01*
X129124324Y-88540179D01*
X129212637Y-88485497D01*
X129220573Y-88477652D01*
X129214643Y-88468197D01*
X128611542Y-87865095D01*
X128600000Y-87858431D01*
X128588457Y-87865095D01*
X127985355Y-88468197D01*
X127979425Y-88477652D01*
X127426258Y-88477652D01*
X127502594Y-88430387D01*
X127661590Y-88285444D01*
X127791244Y-88113753D01*
X127887143Y-87921162D01*
X127902930Y-87865673D01*
X127934515Y-87811928D01*
X128234904Y-87511539D01*
X128241567Y-87500000D01*
X128958431Y-87500000D01*
X128965095Y-87511542D01*
X129265482Y-87811928D01*
X129297067Y-87865674D01*
X129312855Y-87921162D01*
X129315410Y-87926294D01*
X129315412Y-87926298D01*
X129406199Y-88108623D01*
X129406201Y-88108627D01*
X129408754Y-88113753D01*
X129412204Y-88118321D01*
X129412208Y-88118328D01*
X129499999Y-88234582D01*
X129538408Y-88285444D01*
X129542642Y-88289304D01*
X129542645Y-88289307D01*
X129693168Y-88426526D01*
X129693171Y-88426528D01*
X129697404Y-88430387D01*
X129702271Y-88433400D01*
X129702273Y-88433402D01*
X129758469Y-88468197D01*
X129880325Y-88543647D01*
X130080943Y-88621367D01*
X130292426Y-88660900D01*
X130501843Y-88660900D01*
X130507572Y-88660900D01*
X130719055Y-88621367D01*
X130919673Y-88543647D01*
X130963867Y-88516283D01*
X157795843Y-88516283D01*
X157801772Y-88525719D01*
X158143457Y-88867404D01*
X158155000Y-88874068D01*
X158166542Y-88867404D01*
X158552404Y-88481542D01*
X158559068Y-88470000D01*
X159275931Y-88470000D01*
X159282595Y-88481542D01*
X159668457Y-88867404D01*
X159680000Y-88874068D01*
X159691542Y-88867404D01*
X160077404Y-88481542D01*
X160084068Y-88470000D01*
X160800931Y-88470000D01*
X160807595Y-88481542D01*
X161193457Y-88867404D01*
X161205000Y-88874068D01*
X161216542Y-88867404D01*
X161558228Y-88525717D01*
X161564156Y-88516282D01*
X161557389Y-88509515D01*
X161547731Y-88504864D01*
X161390717Y-88449923D01*
X161377219Y-88446843D01*
X161341513Y-88442819D01*
X161289425Y-88424591D01*
X161250404Y-88385569D01*
X161232178Y-88333481D01*
X161228155Y-88297771D01*
X161225077Y-88284284D01*
X161170134Y-88127265D01*
X161165484Y-88117611D01*
X161158716Y-88110842D01*
X161149280Y-88116771D01*
X160807596Y-88458456D01*
X160800931Y-88470000D01*
X160084068Y-88470000D01*
X160077404Y-88458457D01*
X159735719Y-88116772D01*
X159725450Y-88110319D01*
X159720954Y-88111893D01*
X159680000Y-88118852D01*
X159639046Y-88111894D01*
X159634547Y-88110320D01*
X159624280Y-88116771D01*
X159282596Y-88458456D01*
X159275931Y-88470000D01*
X158559068Y-88470000D01*
X158552404Y-88458457D01*
X158210719Y-88116772D01*
X158201283Y-88110843D01*
X158194513Y-88117613D01*
X158189866Y-88127264D01*
X158134923Y-88284282D01*
X158131843Y-88297779D01*
X158127819Y-88333486D01*
X158109592Y-88385572D01*
X158070572Y-88424592D01*
X158018486Y-88442819D01*
X157982779Y-88446843D01*
X157969282Y-88449923D01*
X157812264Y-88504866D01*
X157802613Y-88509513D01*
X157795843Y-88516283D01*
X130963867Y-88516283D01*
X131102594Y-88430387D01*
X131261590Y-88285444D01*
X131391244Y-88113753D01*
X131487143Y-87921162D01*
X131534767Y-87753783D01*
X158558343Y-87753783D01*
X158564272Y-87763219D01*
X158905957Y-88104904D01*
X158917500Y-88111568D01*
X158929042Y-88104904D01*
X159270728Y-87763217D01*
X159276655Y-87753783D01*
X160083343Y-87753783D01*
X160089272Y-87763219D01*
X160430957Y-88104904D01*
X160442500Y-88111568D01*
X160454042Y-88104904D01*
X160795728Y-87763217D01*
X160801656Y-87753782D01*
X160794889Y-87747015D01*
X160785231Y-87742364D01*
X160628217Y-87687423D01*
X160614719Y-87684342D01*
X160449423Y-87665718D01*
X160435577Y-87665718D01*
X160270280Y-87684342D01*
X160256782Y-87687423D01*
X160099764Y-87742366D01*
X160090113Y-87747013D01*
X160083343Y-87753783D01*
X159276655Y-87753783D01*
X159276656Y-87753782D01*
X159269889Y-87747015D01*
X159260231Y-87742364D01*
X159103217Y-87687423D01*
X159089719Y-87684342D01*
X158924423Y-87665718D01*
X158910577Y-87665718D01*
X158745280Y-87684342D01*
X158731782Y-87687423D01*
X158574764Y-87742366D01*
X158565113Y-87747013D01*
X158558343Y-87753783D01*
X131534767Y-87753783D01*
X131546021Y-87714229D01*
X131565872Y-87500000D01*
X131551973Y-87350000D01*
X170194751Y-87350000D01*
X170195531Y-87356923D01*
X170212906Y-87511135D01*
X170212907Y-87511142D01*
X170213687Y-87518059D01*
X170215986Y-87524630D01*
X170215987Y-87524633D01*
X170265354Y-87665718D01*
X170269544Y-87677690D01*
X170359523Y-87820890D01*
X170479110Y-87940477D01*
X170622310Y-88030456D01*
X170781941Y-88086313D01*
X170950000Y-88105249D01*
X171118059Y-88086313D01*
X171277690Y-88030456D01*
X171420890Y-87940477D01*
X171540477Y-87820890D01*
X171630456Y-87677690D01*
X171686313Y-87518059D01*
X171705249Y-87350000D01*
X171686313Y-87181941D01*
X171630456Y-87022310D01*
X171540477Y-86879110D01*
X171420890Y-86759523D01*
X171277690Y-86669544D01*
X171271124Y-86667246D01*
X171271121Y-86667245D01*
X171124633Y-86615987D01*
X171124630Y-86615986D01*
X171118059Y-86613687D01*
X171111142Y-86612907D01*
X171111135Y-86612906D01*
X170956923Y-86595531D01*
X170950000Y-86594751D01*
X170943077Y-86595531D01*
X170788864Y-86612906D01*
X170788855Y-86612907D01*
X170781941Y-86613687D01*
X170775371Y-86615985D01*
X170775366Y-86615987D01*
X170628878Y-86667245D01*
X170628872Y-86667247D01*
X170622310Y-86669544D01*
X170616419Y-86673245D01*
X170616418Y-86673246D01*
X170485010Y-86755815D01*
X170485005Y-86755818D01*
X170479110Y-86759523D01*
X170474185Y-86764447D01*
X170474181Y-86764451D01*
X170364451Y-86874181D01*
X170364447Y-86874185D01*
X170359523Y-86879110D01*
X170355818Y-86885005D01*
X170355815Y-86885010D01*
X170273246Y-87016418D01*
X170269544Y-87022310D01*
X170267247Y-87028872D01*
X170267245Y-87028878D01*
X170215987Y-87175366D01*
X170215985Y-87175371D01*
X170213687Y-87181941D01*
X170212907Y-87188855D01*
X170212906Y-87188864D01*
X170201988Y-87285771D01*
X170194751Y-87350000D01*
X131551973Y-87350000D01*
X131546021Y-87285771D01*
X131487143Y-87078838D01*
X131426886Y-86957825D01*
X131393798Y-86891376D01*
X131393797Y-86891375D01*
X131391244Y-86886247D01*
X131387791Y-86881675D01*
X131387789Y-86881671D01*
X131292747Y-86755815D01*
X131261590Y-86714556D01*
X131257355Y-86710695D01*
X131257352Y-86710692D01*
X131106829Y-86573473D01*
X131106824Y-86573469D01*
X131102594Y-86569613D01*
X131097728Y-86566600D01*
X131097724Y-86566597D01*
X130924544Y-86459369D01*
X130919673Y-86456353D01*
X130914335Y-86454285D01*
X130914331Y-86454283D01*
X130724401Y-86380704D01*
X130724400Y-86380703D01*
X130719055Y-86378633D01*
X130708998Y-86376753D01*
X130513201Y-86340152D01*
X130513198Y-86340151D01*
X130507572Y-86339100D01*
X130292426Y-86339100D01*
X130286800Y-86340151D01*
X130286796Y-86340152D01*
X130086580Y-86377579D01*
X130086577Y-86377579D01*
X130080943Y-86378633D01*
X130075600Y-86380702D01*
X130075596Y-86380704D01*
X129885666Y-86454283D01*
X129885658Y-86454286D01*
X129880325Y-86456353D01*
X129875458Y-86459366D01*
X129875453Y-86459369D01*
X129702273Y-86566597D01*
X129702263Y-86566603D01*
X129697404Y-86569613D01*
X129693178Y-86573465D01*
X129693168Y-86573473D01*
X129542645Y-86710692D01*
X129542636Y-86710700D01*
X129538408Y-86714556D01*
X129534954Y-86719128D01*
X129534951Y-86719133D01*
X129412208Y-86881671D01*
X129412200Y-86881682D01*
X129408754Y-86886247D01*
X129406204Y-86891367D01*
X129406199Y-86891376D01*
X129315412Y-87073701D01*
X129315410Y-87073707D01*
X129312855Y-87078838D01*
X129311288Y-87084346D01*
X129311285Y-87084355D01*
X129297067Y-87134325D01*
X129265482Y-87188070D01*
X128965095Y-87488457D01*
X128958431Y-87500000D01*
X128241567Y-87500000D01*
X128234903Y-87488457D01*
X127934515Y-87188069D01*
X127902929Y-87134321D01*
X127897702Y-87115951D01*
X127887143Y-87078838D01*
X127791244Y-86886247D01*
X127787791Y-86881675D01*
X127787789Y-86881671D01*
X127692747Y-86755815D01*
X127661590Y-86714556D01*
X127657355Y-86710695D01*
X127657352Y-86710692D01*
X127506829Y-86573473D01*
X127506824Y-86573469D01*
X127502594Y-86569613D01*
X127497728Y-86566600D01*
X127497724Y-86566597D01*
X127426256Y-86522346D01*
X127979425Y-86522346D01*
X127985355Y-86531801D01*
X128588457Y-87134903D01*
X128600000Y-87141567D01*
X128611542Y-87134903D01*
X129214643Y-86531801D01*
X129220573Y-86522346D01*
X129212636Y-86514500D01*
X129124327Y-86459822D01*
X129114101Y-86454730D01*
X128924267Y-86381188D01*
X128913285Y-86378062D01*
X128713156Y-86340652D01*
X128701798Y-86339600D01*
X128498202Y-86339600D01*
X128486843Y-86340652D01*
X128286714Y-86378062D01*
X128275732Y-86381188D01*
X128085898Y-86454730D01*
X128075672Y-86459822D01*
X127987362Y-86514500D01*
X127979425Y-86522346D01*
X127426256Y-86522346D01*
X127324544Y-86459369D01*
X127319673Y-86456353D01*
X127314335Y-86454285D01*
X127314331Y-86454283D01*
X127124401Y-86380704D01*
X127124400Y-86380703D01*
X127119055Y-86378633D01*
X127108998Y-86376753D01*
X126913201Y-86340152D01*
X126913198Y-86340151D01*
X126907572Y-86339100D01*
X126692426Y-86339100D01*
X126686800Y-86340151D01*
X126686796Y-86340152D01*
X126486580Y-86377579D01*
X126486577Y-86377579D01*
X126480943Y-86378633D01*
X126475600Y-86380702D01*
X126475596Y-86380704D01*
X126285666Y-86454283D01*
X126285658Y-86454286D01*
X126280325Y-86456353D01*
X126275458Y-86459366D01*
X126275453Y-86459369D01*
X126102273Y-86566597D01*
X126102263Y-86566603D01*
X126097404Y-86569613D01*
X126027834Y-86633034D01*
X125983537Y-86673416D01*
X125930244Y-86702033D01*
X125869754Y-86702033D01*
X125816461Y-86673415D01*
X125706830Y-86573473D01*
X125706825Y-86573469D01*
X125702595Y-86569613D01*
X125697729Y-86566600D01*
X125697725Y-86566597D01*
X125524545Y-86459369D01*
X125519674Y-86456353D01*
X125514336Y-86454285D01*
X125514332Y-86454283D01*
X125324402Y-86380704D01*
X125324401Y-86380703D01*
X125319056Y-86378633D01*
X125308999Y-86376753D01*
X125113202Y-86340152D01*
X125113199Y-86340151D01*
X125107573Y-86339100D01*
X124892427Y-86339100D01*
X124886801Y-86340151D01*
X124886797Y-86340152D01*
X124686581Y-86377579D01*
X124686578Y-86377579D01*
X124680944Y-86378633D01*
X124675601Y-86380702D01*
X124675597Y-86380704D01*
X124485667Y-86454283D01*
X124485659Y-86454286D01*
X124480326Y-86456353D01*
X124475459Y-86459366D01*
X124475454Y-86459369D01*
X124302274Y-86566597D01*
X124302264Y-86566603D01*
X124297405Y-86569613D01*
X124293179Y-86573465D01*
X124293169Y-86573473D01*
X124142646Y-86710692D01*
X124142637Y-86710700D01*
X124138409Y-86714556D01*
X124134955Y-86719128D01*
X124134952Y-86719133D01*
X124012209Y-86881671D01*
X124012201Y-86881682D01*
X124008755Y-86886247D01*
X124006205Y-86891367D01*
X124006200Y-86891376D01*
X123915410Y-87073707D01*
X123915409Y-87073710D01*
X123912856Y-87078838D01*
X123911290Y-87084341D01*
X123911286Y-87084352D01*
X123861491Y-87259365D01*
X123853978Y-87285771D01*
X123834127Y-87500000D01*
X118804908Y-87500000D01*
X118804908Y-87496756D01*
X118784950Y-87115951D01*
X118784273Y-87109508D01*
X118724621Y-86732879D01*
X118723273Y-86726537D01*
X118624577Y-86358197D01*
X118622578Y-86352044D01*
X118485920Y-85996040D01*
X118483283Y-85990116D01*
X118310166Y-85650354D01*
X118306920Y-85644733D01*
X118099242Y-85324938D01*
X118095425Y-85319684D01*
X117917529Y-85100000D01*
X134144751Y-85100000D01*
X134145531Y-85106923D01*
X134162906Y-85261135D01*
X134162907Y-85261142D01*
X134163687Y-85268059D01*
X134165986Y-85274630D01*
X134165987Y-85274633D01*
X134216303Y-85418430D01*
X134219544Y-85427690D01*
X134309523Y-85570890D01*
X134429110Y-85690477D01*
X134572310Y-85780456D01*
X134731941Y-85836313D01*
X134900000Y-85855249D01*
X135068059Y-85836313D01*
X135227690Y-85780456D01*
X135355734Y-85700000D01*
X142194751Y-85700000D01*
X142195531Y-85706923D01*
X142212906Y-85861135D01*
X142212907Y-85861142D01*
X142213687Y-85868059D01*
X142269544Y-86027690D01*
X142359523Y-86170890D01*
X142479110Y-86290477D01*
X142622310Y-86380456D01*
X142781941Y-86436313D01*
X142788864Y-86437093D01*
X142941426Y-86454283D01*
X142950000Y-86455249D01*
X142958574Y-86454283D01*
X142992014Y-86450514D01*
X143118059Y-86436313D01*
X143277690Y-86380456D01*
X143420890Y-86290477D01*
X143540477Y-86170890D01*
X143630456Y-86027690D01*
X143686313Y-85868059D01*
X143705249Y-85700000D01*
X143686313Y-85531941D01*
X143630456Y-85372310D01*
X143540477Y-85229110D01*
X143420890Y-85109523D01*
X143394716Y-85093077D01*
X143337886Y-85057368D01*
X143277690Y-85019544D01*
X143271124Y-85017246D01*
X143271121Y-85017245D01*
X143124633Y-84965987D01*
X143124630Y-84965986D01*
X143118059Y-84963687D01*
X143111142Y-84962907D01*
X143111135Y-84962906D01*
X142956923Y-84945531D01*
X142950000Y-84944751D01*
X142943077Y-84945531D01*
X142788864Y-84962906D01*
X142788855Y-84962907D01*
X142781941Y-84963687D01*
X142775371Y-84965985D01*
X142775366Y-84965987D01*
X142628878Y-85017245D01*
X142628872Y-85017247D01*
X142622310Y-85019544D01*
X142616419Y-85023245D01*
X142616418Y-85023246D01*
X142485010Y-85105815D01*
X142485005Y-85105818D01*
X142479110Y-85109523D01*
X142474185Y-85114447D01*
X142474181Y-85114451D01*
X142364451Y-85224181D01*
X142364447Y-85224185D01*
X142359523Y-85229110D01*
X142355818Y-85235005D01*
X142355815Y-85235010D01*
X142302615Y-85319678D01*
X142269544Y-85372310D01*
X142267247Y-85378872D01*
X142267245Y-85378878D01*
X142215987Y-85525366D01*
X142215985Y-85525371D01*
X142213687Y-85531941D01*
X142212907Y-85538855D01*
X142212906Y-85538864D01*
X142197648Y-85674289D01*
X142194751Y-85700000D01*
X135355734Y-85700000D01*
X135370890Y-85690477D01*
X135490477Y-85570890D01*
X135580456Y-85427690D01*
X135636313Y-85268059D01*
X135655249Y-85100000D01*
X135636313Y-84931941D01*
X135580456Y-84772310D01*
X135490477Y-84629110D01*
X135370890Y-84509523D01*
X135358231Y-84501569D01*
X135332775Y-84485574D01*
X135227690Y-84419544D01*
X135221124Y-84417246D01*
X135221121Y-84417245D01*
X135074633Y-84365987D01*
X135074630Y-84365986D01*
X135068059Y-84363687D01*
X135061142Y-84362907D01*
X135061135Y-84362906D01*
X134906923Y-84345531D01*
X134900000Y-84344751D01*
X134893077Y-84345531D01*
X134738864Y-84362906D01*
X134738855Y-84362907D01*
X134731941Y-84363687D01*
X134725371Y-84365985D01*
X134725366Y-84365987D01*
X134578878Y-84417245D01*
X134578872Y-84417247D01*
X134572310Y-84419544D01*
X134566419Y-84423245D01*
X134566418Y-84423246D01*
X134435010Y-84505815D01*
X134435005Y-84505818D01*
X134429110Y-84509523D01*
X134424185Y-84514447D01*
X134424181Y-84514451D01*
X134314451Y-84624181D01*
X134314447Y-84624185D01*
X134309523Y-84629110D01*
X134305818Y-84635005D01*
X134305815Y-84635010D01*
X134223246Y-84766418D01*
X134219544Y-84772310D01*
X134217247Y-84778872D01*
X134217245Y-84778878D01*
X134165987Y-84925366D01*
X134165985Y-84925371D01*
X134163687Y-84931941D01*
X134162907Y-84938855D01*
X134162906Y-84938864D01*
X134148097Y-85070305D01*
X134144751Y-85100000D01*
X117917529Y-85100000D01*
X117899869Y-85078191D01*
X117888606Y-85070305D01*
X117876580Y-85076971D01*
X115465095Y-87488457D01*
X115458431Y-87500000D01*
X114741568Y-87500000D01*
X114734904Y-87488457D01*
X112323418Y-85076971D01*
X112311393Y-85070305D01*
X112300127Y-85078194D01*
X112104578Y-85319678D01*
X112100756Y-85324939D01*
X111893079Y-85644733D01*
X111889833Y-85650354D01*
X111716716Y-85990116D01*
X111714079Y-85996040D01*
X111577421Y-86352044D01*
X111575422Y-86358197D01*
X111476726Y-86726537D01*
X111475378Y-86732879D01*
X111415726Y-87109508D01*
X111415049Y-87115951D01*
X111395092Y-87496756D01*
X111395092Y-87503244D01*
X110005035Y-87503244D01*
X110005035Y-87398839D01*
X110005153Y-87393431D01*
X110007049Y-87350000D01*
X110015127Y-87164991D01*
X110015501Y-87159378D01*
X110033641Y-86957825D01*
X110034194Y-86952841D01*
X110064059Y-86725992D01*
X110064969Y-86720176D01*
X110101082Y-86521177D01*
X110102013Y-86516554D01*
X110151570Y-86293017D01*
X110153065Y-86287007D01*
X110206821Y-86092227D01*
X110208074Y-86087984D01*
X110276972Y-85869468D01*
X110279102Y-85863295D01*
X110350037Y-85674289D01*
X110351517Y-85670540D01*
X110439303Y-85458605D01*
X110442097Y-85452361D01*
X110529562Y-85270738D01*
X110531199Y-85267471D01*
X110637292Y-85063667D01*
X110640809Y-85057368D01*
X110743950Y-84884740D01*
X110745726Y-84881863D01*
X110854327Y-84711393D01*
X112670305Y-84711393D01*
X112676971Y-84723418D01*
X115088457Y-87134904D01*
X115100000Y-87141568D01*
X115111542Y-87134904D01*
X117523027Y-84723418D01*
X117529693Y-84711392D01*
X117521807Y-84700129D01*
X117280315Y-84504574D01*
X117275061Y-84500757D01*
X116955266Y-84293079D01*
X116949645Y-84289833D01*
X116773337Y-84200000D01*
X138894751Y-84200000D01*
X138895531Y-84206923D01*
X138912906Y-84361135D01*
X138912907Y-84361142D01*
X138913687Y-84368059D01*
X138915986Y-84374630D01*
X138915987Y-84374633D01*
X138961889Y-84505815D01*
X138969544Y-84527690D01*
X139059523Y-84670890D01*
X139179110Y-84790477D01*
X139322310Y-84880456D01*
X139481941Y-84936313D01*
X139650000Y-84955249D01*
X139818059Y-84936313D01*
X139977690Y-84880456D01*
X140120890Y-84790477D01*
X140240477Y-84670890D01*
X140330456Y-84527690D01*
X140386313Y-84368059D01*
X140405249Y-84200000D01*
X140386313Y-84031941D01*
X140330456Y-83872310D01*
X140240477Y-83729110D01*
X140120890Y-83609523D01*
X139977690Y-83519544D01*
X139971124Y-83517246D01*
X139971121Y-83517245D01*
X139824633Y-83465987D01*
X139824630Y-83465986D01*
X139818059Y-83463687D01*
X139811142Y-83462907D01*
X139811135Y-83462906D01*
X139656923Y-83445531D01*
X139650000Y-83444751D01*
X139643077Y-83445531D01*
X139488864Y-83462906D01*
X139488855Y-83462907D01*
X139481941Y-83463687D01*
X139475371Y-83465985D01*
X139475366Y-83465987D01*
X139328878Y-83517245D01*
X139328872Y-83517247D01*
X139322310Y-83519544D01*
X139316419Y-83523245D01*
X139316418Y-83523246D01*
X139185010Y-83605815D01*
X139185005Y-83605818D01*
X139179110Y-83609523D01*
X139174185Y-83614447D01*
X139174181Y-83614451D01*
X139064451Y-83724181D01*
X139064447Y-83724185D01*
X139059523Y-83729110D01*
X139055818Y-83735005D01*
X139055815Y-83735010D01*
X139005098Y-83815726D01*
X138969544Y-83872310D01*
X138967247Y-83878872D01*
X138967245Y-83878878D01*
X138915987Y-84025366D01*
X138915985Y-84025371D01*
X138913687Y-84031941D01*
X138912907Y-84038855D01*
X138912906Y-84038864D01*
X138895531Y-84193077D01*
X138894751Y-84200000D01*
X116773337Y-84200000D01*
X116609883Y-84116716D01*
X116603959Y-84114079D01*
X116247955Y-83977421D01*
X116241802Y-83975422D01*
X115873462Y-83876726D01*
X115867120Y-83875378D01*
X115490491Y-83815726D01*
X115484048Y-83815049D01*
X115103244Y-83795092D01*
X115096756Y-83795092D01*
X114715951Y-83815049D01*
X114709508Y-83815726D01*
X114332879Y-83875378D01*
X114326537Y-83876726D01*
X113958197Y-83975422D01*
X113952044Y-83977421D01*
X113596040Y-84114079D01*
X113590116Y-84116716D01*
X113250354Y-84289833D01*
X113244733Y-84293079D01*
X112924939Y-84500756D01*
X112919678Y-84504578D01*
X112678194Y-84700127D01*
X112670305Y-84711393D01*
X110854327Y-84711393D01*
X110869418Y-84687705D01*
X110873643Y-84681500D01*
X110991503Y-84519280D01*
X110993329Y-84516833D01*
X111133865Y-84333683D01*
X111138803Y-84327656D01*
X111270264Y-84177186D01*
X111272068Y-84175170D01*
X111428551Y-84004399D01*
X111434236Y-83998592D01*
X111577986Y-83861153D01*
X111579568Y-83859672D01*
X111751204Y-83702395D01*
X111757601Y-83696926D01*
X111912058Y-83573750D01*
X111913673Y-83572487D01*
X112099260Y-83430081D01*
X112106393Y-83424999D01*
X112269868Y-83317090D01*
X112271330Y-83316143D01*
X112470052Y-83189543D01*
X112477867Y-83184959D01*
X112648297Y-83093246D01*
X112649430Y-83092647D01*
X112860690Y-82982672D01*
X112869108Y-82978688D01*
X113044018Y-82903928D01*
X113044597Y-82903684D01*
X113268068Y-82811120D01*
X113277130Y-82807777D01*
X113452406Y-82750826D01*
X113453203Y-82750571D01*
X113689045Y-82676210D01*
X113698661Y-82673602D01*
X113868516Y-82634833D01*
X113868645Y-82634804D01*
X114120326Y-82579007D01*
X114130422Y-82577208D01*
X114279249Y-82557047D01*
X114558484Y-82520286D01*
X114569061Y-82519353D01*
X114599034Y-82518006D01*
X114997297Y-82500617D01*
X115002706Y-82500500D01*
X115204252Y-82500500D01*
X115206822Y-82500500D01*
X115619054Y-82466341D01*
X116027057Y-82398258D01*
X116428044Y-82296714D01*
X116819276Y-82162404D01*
X117198080Y-81996245D01*
X117561869Y-81799372D01*
X117908159Y-81573130D01*
X118234582Y-81319064D01*
X118538910Y-81038910D01*
X118712814Y-80850000D01*
X150744751Y-80850000D01*
X150745531Y-80856923D01*
X150762906Y-81011135D01*
X150762907Y-81011142D01*
X150763687Y-81018059D01*
X150765986Y-81024630D01*
X150765987Y-81024633D01*
X150811220Y-81153903D01*
X150819544Y-81177690D01*
X150909523Y-81320890D01*
X151029110Y-81440477D01*
X151172310Y-81530456D01*
X151331941Y-81586313D01*
X151500000Y-81605249D01*
X151668059Y-81586313D01*
X151827690Y-81530456D01*
X151970890Y-81440477D01*
X152090477Y-81320890D01*
X152180456Y-81177690D01*
X152236313Y-81018059D01*
X152255249Y-80850000D01*
X152236313Y-80681941D01*
X152180456Y-80522310D01*
X152090477Y-80379110D01*
X151970890Y-80259523D01*
X151827690Y-80169544D01*
X151821124Y-80167246D01*
X151821121Y-80167245D01*
X151674633Y-80115987D01*
X151674630Y-80115986D01*
X151668059Y-80113687D01*
X151661142Y-80112907D01*
X151661135Y-80112906D01*
X151506923Y-80095531D01*
X151500000Y-80094751D01*
X151493077Y-80095531D01*
X151338864Y-80112906D01*
X151338855Y-80112907D01*
X151331941Y-80113687D01*
X151325371Y-80115985D01*
X151325366Y-80115987D01*
X151178878Y-80167245D01*
X151178872Y-80167247D01*
X151172310Y-80169544D01*
X151166419Y-80173245D01*
X151166418Y-80173246D01*
X151035010Y-80255815D01*
X151035005Y-80255818D01*
X151029110Y-80259523D01*
X151024185Y-80264447D01*
X151024181Y-80264451D01*
X150914451Y-80374181D01*
X150914447Y-80374185D01*
X150909523Y-80379110D01*
X150905818Y-80385005D01*
X150905815Y-80385010D01*
X150823246Y-80516418D01*
X150819544Y-80522310D01*
X150817247Y-80528872D01*
X150817245Y-80528878D01*
X150765987Y-80675366D01*
X150765985Y-80675371D01*
X150763687Y-80681941D01*
X150762907Y-80688855D01*
X150762906Y-80688864D01*
X150745531Y-80843077D01*
X150744751Y-80850000D01*
X118712814Y-80850000D01*
X118819064Y-80734582D01*
X119073130Y-80408159D01*
X119299372Y-80061869D01*
X119495477Y-79699500D01*
X147544751Y-79699500D01*
X147545531Y-79706423D01*
X147562906Y-79860635D01*
X147562907Y-79860642D01*
X147563687Y-79867559D01*
X147619544Y-80027190D01*
X147709523Y-80170390D01*
X147829110Y-80289977D01*
X147972310Y-80379956D01*
X148131941Y-80435813D01*
X148300000Y-80454749D01*
X148468059Y-80435813D01*
X148627690Y-80379956D01*
X148770890Y-80289977D01*
X148890477Y-80170390D01*
X148980456Y-80027190D01*
X149031960Y-79880000D01*
X188544341Y-79880000D01*
X188544813Y-79885395D01*
X188563129Y-80094751D01*
X188564937Y-80115408D01*
X188566336Y-80120630D01*
X188566337Y-80120634D01*
X188624694Y-80338430D01*
X188624697Y-80338438D01*
X188626097Y-80343663D01*
X188628385Y-80348570D01*
X188628386Y-80348572D01*
X188723678Y-80552927D01*
X188723681Y-80552933D01*
X188725965Y-80557830D01*
X188729064Y-80562257D01*
X188729066Y-80562259D01*
X188858399Y-80746966D01*
X188858402Y-80746970D01*
X188861505Y-80751401D01*
X189028599Y-80918495D01*
X189033031Y-80921598D01*
X189033033Y-80921600D01*
X189214595Y-81048731D01*
X189253460Y-81093049D01*
X189267471Y-81150306D01*
X189253460Y-81207563D01*
X189214595Y-81251881D01*
X189033352Y-81378788D01*
X189025092Y-81385719D01*
X188865719Y-81545092D01*
X188858784Y-81553357D01*
X188729508Y-81737982D01*
X188724110Y-81747332D01*
X188628856Y-81951602D01*
X188625168Y-81961736D01*
X188573056Y-82156219D01*
X188572688Y-82167448D01*
X188583631Y-82170000D01*
X191216369Y-82170000D01*
X191227311Y-82167448D01*
X191226943Y-82156219D01*
X191174831Y-81961736D01*
X191171143Y-81951602D01*
X191075889Y-81747332D01*
X191070491Y-81737982D01*
X190941215Y-81553357D01*
X190934280Y-81545092D01*
X190774909Y-81385721D01*
X190766643Y-81378784D01*
X190585405Y-81251880D01*
X190546540Y-81207562D01*
X190532529Y-81150305D01*
X190546540Y-81093048D01*
X190585406Y-81048730D01*
X190596966Y-81040636D01*
X190771401Y-80918495D01*
X190938495Y-80751401D01*
X191074035Y-80557830D01*
X191173903Y-80343663D01*
X191235063Y-80115408D01*
X191255659Y-79880000D01*
X191235063Y-79644592D01*
X191173903Y-79416337D01*
X191074035Y-79202171D01*
X190938495Y-79008599D01*
X190771401Y-78841505D01*
X190766968Y-78838401D01*
X190766961Y-78838395D01*
X190585842Y-78711575D01*
X190546976Y-78667257D01*
X190532965Y-78610000D01*
X190546976Y-78552743D01*
X190585842Y-78508425D01*
X190766961Y-78381604D01*
X190766961Y-78381603D01*
X190771401Y-78378495D01*
X190938495Y-78211401D01*
X191074035Y-78017830D01*
X191173903Y-77803663D01*
X191235063Y-77575408D01*
X191255659Y-77340000D01*
X191235063Y-77104592D01*
X191173903Y-76876337D01*
X191074035Y-76662171D01*
X190938495Y-76468599D01*
X190771401Y-76301505D01*
X190766970Y-76298402D01*
X190766966Y-76298399D01*
X190582259Y-76169066D01*
X190582257Y-76169064D01*
X190577830Y-76165965D01*
X190572933Y-76163681D01*
X190572927Y-76163678D01*
X190368572Y-76068386D01*
X190368570Y-76068385D01*
X190363663Y-76066097D01*
X190358438Y-76064697D01*
X190358430Y-76064694D01*
X190140634Y-76006337D01*
X190140630Y-76006336D01*
X190135408Y-76004937D01*
X190130020Y-76004465D01*
X190130017Y-76004465D01*
X189905395Y-75984813D01*
X189900000Y-75984341D01*
X189894605Y-75984813D01*
X189669982Y-76004465D01*
X189669977Y-76004465D01*
X189664592Y-76004937D01*
X189659371Y-76006335D01*
X189659365Y-76006337D01*
X189441569Y-76064694D01*
X189441557Y-76064698D01*
X189436337Y-76066097D01*
X189431432Y-76068383D01*
X189431427Y-76068386D01*
X189227081Y-76163675D01*
X189227077Y-76163677D01*
X189222171Y-76165965D01*
X189217738Y-76169068D01*
X189217731Y-76169073D01*
X189033034Y-76298399D01*
X189033029Y-76298402D01*
X189028599Y-76301505D01*
X189024775Y-76305328D01*
X189024769Y-76305334D01*
X188865334Y-76464769D01*
X188865328Y-76464775D01*
X188861505Y-76468599D01*
X188858402Y-76473029D01*
X188858399Y-76473034D01*
X188729073Y-76657731D01*
X188729068Y-76657738D01*
X188725965Y-76662171D01*
X188723677Y-76667077D01*
X188723675Y-76667081D01*
X188628386Y-76871427D01*
X188628383Y-76871432D01*
X188626097Y-76876337D01*
X188624698Y-76881557D01*
X188624694Y-76881569D01*
X188566337Y-77099365D01*
X188566335Y-77099371D01*
X188564937Y-77104592D01*
X188564465Y-77109977D01*
X188564465Y-77109982D01*
X188555550Y-77211886D01*
X188544341Y-77340000D01*
X188544813Y-77345395D01*
X188563911Y-77563687D01*
X188564937Y-77575408D01*
X188566336Y-77580630D01*
X188566337Y-77580634D01*
X188624694Y-77798430D01*
X188624697Y-77798438D01*
X188626097Y-77803663D01*
X188628385Y-77808570D01*
X188628386Y-77808572D01*
X188723678Y-78012927D01*
X188723681Y-78012933D01*
X188725965Y-78017830D01*
X188729064Y-78022257D01*
X188729066Y-78022259D01*
X188858399Y-78206966D01*
X188858402Y-78206970D01*
X188861505Y-78211401D01*
X189028599Y-78378495D01*
X189033032Y-78381599D01*
X189033038Y-78381604D01*
X189214158Y-78508425D01*
X189253024Y-78552743D01*
X189267035Y-78610000D01*
X189253024Y-78667257D01*
X189214159Y-78711575D01*
X189033041Y-78838395D01*
X189028599Y-78841505D01*
X189024775Y-78845328D01*
X189024769Y-78845334D01*
X188865334Y-79004769D01*
X188865328Y-79004775D01*
X188861505Y-79008599D01*
X188858402Y-79013029D01*
X188858399Y-79013034D01*
X188729073Y-79197731D01*
X188729068Y-79197738D01*
X188725965Y-79202171D01*
X188723677Y-79207077D01*
X188723675Y-79207081D01*
X188628386Y-79411427D01*
X188628383Y-79411432D01*
X188626097Y-79416337D01*
X188624698Y-79421557D01*
X188624694Y-79421569D01*
X188566337Y-79639365D01*
X188566335Y-79639371D01*
X188564937Y-79644592D01*
X188564465Y-79649977D01*
X188564465Y-79649982D01*
X188560462Y-79695737D01*
X188544341Y-79880000D01*
X149031960Y-79880000D01*
X149036313Y-79867559D01*
X149055249Y-79699500D01*
X149036313Y-79531441D01*
X148980456Y-79371810D01*
X148890477Y-79228610D01*
X148770890Y-79109023D01*
X148627690Y-79019044D01*
X148621124Y-79016746D01*
X148621121Y-79016745D01*
X148474633Y-78965487D01*
X148474630Y-78965486D01*
X148468059Y-78963187D01*
X148461142Y-78962407D01*
X148461135Y-78962406D01*
X148306923Y-78945031D01*
X148300000Y-78944251D01*
X148293077Y-78945031D01*
X148138864Y-78962406D01*
X148138855Y-78962407D01*
X148131941Y-78963187D01*
X148125371Y-78965485D01*
X148125366Y-78965487D01*
X147978878Y-79016745D01*
X147978872Y-79016747D01*
X147972310Y-79019044D01*
X147966419Y-79022745D01*
X147966418Y-79022746D01*
X147835010Y-79105315D01*
X147835005Y-79105318D01*
X147829110Y-79109023D01*
X147824185Y-79113947D01*
X147824181Y-79113951D01*
X147714451Y-79223681D01*
X147714447Y-79223685D01*
X147709523Y-79228610D01*
X147705818Y-79234505D01*
X147705815Y-79234510D01*
X147654073Y-79316857D01*
X147619544Y-79371810D01*
X147617247Y-79378372D01*
X147617245Y-79378378D01*
X147565987Y-79524866D01*
X147565985Y-79524871D01*
X147563687Y-79531441D01*
X147562907Y-79538355D01*
X147562906Y-79538364D01*
X147550330Y-79649982D01*
X147544751Y-79699500D01*
X119495477Y-79699500D01*
X119496245Y-79698080D01*
X119662404Y-79319276D01*
X119796714Y-78928044D01*
X119898258Y-78527057D01*
X119966341Y-78119054D01*
X119995762Y-77764001D01*
X121293087Y-77764001D01*
X121301064Y-77771822D01*
X121488112Y-77886445D01*
X121496775Y-77890859D01*
X121713771Y-77980742D01*
X121723008Y-77983744D01*
X121951399Y-78038575D01*
X121960985Y-78040093D01*
X122195146Y-78058523D01*
X122204854Y-78058523D01*
X122439014Y-78040093D01*
X122448600Y-78038575D01*
X122676991Y-77983744D01*
X122686228Y-77980742D01*
X122903224Y-77890859D01*
X122911887Y-77886445D01*
X123098934Y-77771822D01*
X123106911Y-77764001D01*
X123100980Y-77754533D01*
X122211542Y-76865094D01*
X122200000Y-76858430D01*
X122188457Y-76865094D01*
X121299018Y-77754533D01*
X121293087Y-77764001D01*
X119995762Y-77764001D01*
X120000500Y-77706822D01*
X120000500Y-77500000D01*
X120000500Y-77499500D01*
X120000500Y-76504853D01*
X120641476Y-76504853D01*
X120659905Y-76739013D01*
X120661423Y-76748599D01*
X120716254Y-76976990D01*
X120719256Y-76986227D01*
X120809139Y-77203223D01*
X120813553Y-77211886D01*
X120928175Y-77398933D01*
X120935996Y-77406910D01*
X120945464Y-77400979D01*
X121834903Y-76511540D01*
X121841567Y-76499998D01*
X122558431Y-76499998D01*
X122565095Y-76511540D01*
X123454534Y-77400979D01*
X123464002Y-77406910D01*
X123471823Y-77398933D01*
X123586446Y-77211886D01*
X123590860Y-77203223D01*
X123680743Y-76986227D01*
X123683745Y-76976990D01*
X123738576Y-76748599D01*
X123740094Y-76739013D01*
X123758524Y-76504853D01*
X123758524Y-76495145D01*
X123740094Y-76260984D01*
X123738576Y-76251398D01*
X123683745Y-76023007D01*
X123680743Y-76013770D01*
X123590860Y-75796774D01*
X123586446Y-75788111D01*
X123471823Y-75601063D01*
X123464002Y-75593086D01*
X123454534Y-75599017D01*
X122565095Y-76488455D01*
X122558431Y-76499998D01*
X121841567Y-76499998D01*
X121834903Y-76488455D01*
X120945464Y-75599017D01*
X120935996Y-75593086D01*
X120928175Y-75601062D01*
X120813548Y-75788119D01*
X120809141Y-75796767D01*
X120719256Y-76013770D01*
X120716254Y-76023007D01*
X120661423Y-76251398D01*
X120659905Y-76260984D01*
X120641476Y-76495145D01*
X120641476Y-76504853D01*
X120000500Y-76504853D01*
X120000500Y-75235995D01*
X121293087Y-75235995D01*
X121299018Y-75245463D01*
X122188457Y-76134902D01*
X122200000Y-76141566D01*
X122211542Y-76134902D01*
X123100980Y-75245463D01*
X123106911Y-75235995D01*
X123098934Y-75228174D01*
X122911887Y-75113552D01*
X122903224Y-75109138D01*
X122686228Y-75019255D01*
X122676991Y-75016253D01*
X122448600Y-74961422D01*
X122439014Y-74959904D01*
X122204854Y-74941475D01*
X122195146Y-74941475D01*
X121960985Y-74959904D01*
X121951399Y-74961422D01*
X121723008Y-75016253D01*
X121713771Y-75019255D01*
X121496768Y-75109140D01*
X121488120Y-75113547D01*
X121301063Y-75228174D01*
X121293087Y-75235995D01*
X120000500Y-75235995D01*
X120000500Y-75002561D01*
X120000606Y-74997437D01*
X120002066Y-74962141D01*
X120009488Y-74782687D01*
X120018052Y-74586540D01*
X120018881Y-74576673D01*
X120045491Y-74363195D01*
X120071578Y-74165045D01*
X120073151Y-74155816D01*
X120117062Y-73946392D01*
X120117297Y-73945302D01*
X120160684Y-73749599D01*
X120162885Y-73741111D01*
X120194476Y-73635000D01*
X137844341Y-73635000D01*
X137844813Y-73640395D01*
X137858160Y-73792956D01*
X137864937Y-73870408D01*
X137866336Y-73875630D01*
X137866337Y-73875634D01*
X137924694Y-74093430D01*
X137924697Y-74093438D01*
X137926097Y-74098663D01*
X137928385Y-74103570D01*
X137928386Y-74103572D01*
X138023678Y-74307927D01*
X138023681Y-74307933D01*
X138025965Y-74312830D01*
X138029064Y-74317257D01*
X138029066Y-74317259D01*
X138158399Y-74501966D01*
X138158402Y-74501970D01*
X138161505Y-74506401D01*
X138165335Y-74510231D01*
X138165336Y-74510232D01*
X138283430Y-74628326D01*
X138314726Y-74681072D01*
X138316915Y-74742365D01*
X138289462Y-74797210D01*
X138239083Y-74832189D01*
X138123702Y-74875223D01*
X138107669Y-74881204D01*
X138100572Y-74886516D01*
X138100568Y-74886519D01*
X137999550Y-74962141D01*
X137999546Y-74962144D01*
X137992454Y-74967454D01*
X137987144Y-74974546D01*
X137987141Y-74974550D01*
X137911519Y-75075568D01*
X137911516Y-75075572D01*
X137906204Y-75082669D01*
X137903104Y-75090978D01*
X137903104Y-75090980D01*
X137858620Y-75210247D01*
X137858619Y-75210250D01*
X137855909Y-75217517D01*
X137855079Y-75225227D01*
X137855079Y-75225232D01*
X137849855Y-75273819D01*
X137849854Y-75273831D01*
X137849500Y-75277127D01*
X137849500Y-75280448D01*
X137849500Y-75280449D01*
X137849500Y-77069560D01*
X137849500Y-77069578D01*
X137849501Y-77072872D01*
X137849853Y-77076150D01*
X137849854Y-77076161D01*
X137855079Y-77124768D01*
X137855080Y-77124773D01*
X137855909Y-77132483D01*
X137858619Y-77139749D01*
X137858620Y-77139753D01*
X137882293Y-77203223D01*
X137906204Y-77267331D01*
X137992454Y-77382546D01*
X138107669Y-77468796D01*
X138242517Y-77519091D01*
X138302127Y-77525500D01*
X139176273Y-77525499D01*
X139232566Y-77539014D01*
X139276589Y-77576613D01*
X139298744Y-77630101D01*
X139294202Y-77687817D01*
X139263953Y-77737179D01*
X139172023Y-77829110D01*
X139168318Y-77835005D01*
X139168315Y-77835010D01*
X139127165Y-77900500D01*
X139082044Y-77972310D01*
X139079747Y-77978872D01*
X139079745Y-77978878D01*
X139028487Y-78125366D01*
X139028485Y-78125371D01*
X139026187Y-78131941D01*
X139025407Y-78138855D01*
X139025406Y-78138864D01*
X139016802Y-78215232D01*
X139007251Y-78300000D01*
X139008031Y-78306923D01*
X139025406Y-78461135D01*
X139025407Y-78461142D01*
X139026187Y-78468059D01*
X139028486Y-78474630D01*
X139028487Y-78474633D01*
X139047697Y-78529533D01*
X139082044Y-78627690D01*
X139172023Y-78770890D01*
X139291610Y-78890477D01*
X139434810Y-78980456D01*
X139594441Y-79036313D01*
X139762500Y-79055249D01*
X139930559Y-79036313D01*
X140090190Y-78980456D01*
X140233390Y-78890477D01*
X140352977Y-78770890D01*
X140442956Y-78627690D01*
X140498813Y-78468059D01*
X140517749Y-78300000D01*
X140498813Y-78131941D01*
X140442956Y-77972310D01*
X140352977Y-77829110D01*
X140233390Y-77709523D01*
X140227492Y-77705817D01*
X140227482Y-77705809D01*
X140227381Y-77705746D01*
X140227326Y-77705685D01*
X140222047Y-77701475D01*
X140222751Y-77700591D01*
X140181911Y-77655122D01*
X140170003Y-77588125D01*
X140195242Y-77524932D01*
X140250025Y-77484574D01*
X140292331Y-77468796D01*
X140407546Y-77382546D01*
X140493796Y-77267331D01*
X140544091Y-77132483D01*
X140550500Y-77072873D01*
X140550500Y-77000000D01*
X177094540Y-77000000D01*
X177095219Y-77006460D01*
X177113646Y-77181795D01*
X177113647Y-77181803D01*
X177114326Y-77188256D01*
X177116331Y-77194428D01*
X177116333Y-77194435D01*
X177137318Y-77259019D01*
X177172821Y-77368284D01*
X177176068Y-77373908D01*
X177176069Y-77373910D01*
X177263589Y-77525500D01*
X177267467Y-77532216D01*
X177271811Y-77537041D01*
X177271813Y-77537043D01*
X177301503Y-77570017D01*
X177394129Y-77672888D01*
X177547270Y-77784151D01*
X177720197Y-77861144D01*
X177905354Y-77900500D01*
X178088143Y-77900500D01*
X178094646Y-77900500D01*
X178279803Y-77861144D01*
X178449566Y-77785559D01*
X178500000Y-77774839D01*
X178550433Y-77785559D01*
X178720197Y-77861144D01*
X178905354Y-77900500D01*
X179088143Y-77900500D01*
X179094646Y-77900500D01*
X179279803Y-77861144D01*
X179452730Y-77784151D01*
X179605871Y-77672888D01*
X179732533Y-77532216D01*
X179827179Y-77368284D01*
X179885674Y-77188256D01*
X179905460Y-77000000D01*
X179885674Y-76811744D01*
X179827179Y-76631716D01*
X179786927Y-76561997D01*
X179770315Y-76499998D01*
X179786929Y-76437997D01*
X179792880Y-76427690D01*
X179827179Y-76368284D01*
X179885674Y-76188256D01*
X179905460Y-76000000D01*
X179885674Y-75811744D01*
X179827179Y-75631716D01*
X179732533Y-75467784D01*
X179689097Y-75419544D01*
X179610220Y-75331942D01*
X179610219Y-75331941D01*
X179605871Y-75327112D01*
X179600613Y-75323292D01*
X179600611Y-75323290D01*
X179457988Y-75219669D01*
X179457987Y-75219668D01*
X179452730Y-75215849D01*
X179440146Y-75210246D01*
X179285745Y-75141501D01*
X179285740Y-75141499D01*
X179279803Y-75138856D01*
X179273444Y-75137504D01*
X179273440Y-75137503D01*
X179101008Y-75100852D01*
X179101005Y-75100851D01*
X179094646Y-75099500D01*
X178905354Y-75099500D01*
X178898995Y-75100851D01*
X178898991Y-75100852D01*
X178726559Y-75137503D01*
X178726552Y-75137505D01*
X178720197Y-75138856D01*
X178550433Y-75214440D01*
X178500000Y-75225160D01*
X178449566Y-75214440D01*
X178279803Y-75138856D01*
X178273444Y-75137504D01*
X178273440Y-75137503D01*
X178101008Y-75100852D01*
X178101005Y-75100851D01*
X178094646Y-75099500D01*
X177905354Y-75099500D01*
X177898995Y-75100851D01*
X177898991Y-75100852D01*
X177726559Y-75137503D01*
X177726552Y-75137505D01*
X177720197Y-75138856D01*
X177714262Y-75141498D01*
X177714254Y-75141501D01*
X177553207Y-75213205D01*
X177553202Y-75213207D01*
X177547270Y-75215849D01*
X177542016Y-75219665D01*
X177542011Y-75219669D01*
X177399388Y-75323290D01*
X177399381Y-75323295D01*
X177394129Y-75327112D01*
X177389784Y-75331937D01*
X177389779Y-75331942D01*
X177271813Y-75462956D01*
X177271808Y-75462962D01*
X177267467Y-75467784D01*
X177264222Y-75473404D01*
X177264218Y-75473410D01*
X177176069Y-75626089D01*
X177176066Y-75626094D01*
X177172821Y-75631716D01*
X177170815Y-75637888D01*
X177170813Y-75637894D01*
X177116333Y-75805564D01*
X177116331Y-75805573D01*
X177114326Y-75811744D01*
X177113648Y-75818194D01*
X177113646Y-75818204D01*
X177102384Y-75925366D01*
X177094540Y-76000000D01*
X177095219Y-76006460D01*
X177113646Y-76181795D01*
X177113647Y-76181803D01*
X177114326Y-76188256D01*
X177116331Y-76194428D01*
X177116333Y-76194435D01*
X177170813Y-76362105D01*
X177172821Y-76368284D01*
X177176068Y-76373908D01*
X177176069Y-76373910D01*
X177213071Y-76437999D01*
X177229684Y-76499998D01*
X177213072Y-76561997D01*
X177176071Y-76626085D01*
X177176067Y-76626092D01*
X177172821Y-76631716D01*
X177170814Y-76637890D01*
X177170811Y-76637899D01*
X177116333Y-76805564D01*
X177116331Y-76805573D01*
X177114326Y-76811744D01*
X177113648Y-76818194D01*
X177113646Y-76818204D01*
X177106987Y-76881569D01*
X177094540Y-77000000D01*
X140550500Y-77000000D01*
X140550499Y-76100000D01*
X170594751Y-76100000D01*
X170595531Y-76106923D01*
X170612906Y-76261135D01*
X170612907Y-76261142D01*
X170613687Y-76268059D01*
X170615986Y-76274630D01*
X170615987Y-76274633D01*
X170650725Y-76373910D01*
X170669544Y-76427690D01*
X170759523Y-76570890D01*
X170879110Y-76690477D01*
X171022310Y-76780456D01*
X171181941Y-76836313D01*
X171350000Y-76855249D01*
X171518059Y-76836313D01*
X171677690Y-76780456D01*
X171820890Y-76690477D01*
X171940477Y-76570890D01*
X172030456Y-76427690D01*
X172086313Y-76268059D01*
X172105249Y-76100000D01*
X172086313Y-75931941D01*
X172030456Y-75772310D01*
X171940477Y-75629110D01*
X171820890Y-75509523D01*
X171677690Y-75419544D01*
X171671124Y-75417246D01*
X171671121Y-75417245D01*
X171524633Y-75365987D01*
X171524630Y-75365986D01*
X171518059Y-75363687D01*
X171511142Y-75362907D01*
X171511135Y-75362906D01*
X171356923Y-75345531D01*
X171350000Y-75344751D01*
X171343077Y-75345531D01*
X171188864Y-75362906D01*
X171188855Y-75362907D01*
X171181941Y-75363687D01*
X171175371Y-75365985D01*
X171175366Y-75365987D01*
X171028878Y-75417245D01*
X171028872Y-75417247D01*
X171022310Y-75419544D01*
X171016419Y-75423245D01*
X171016418Y-75423246D01*
X170885010Y-75505815D01*
X170885005Y-75505818D01*
X170879110Y-75509523D01*
X170874185Y-75514447D01*
X170874181Y-75514451D01*
X170764451Y-75624181D01*
X170764447Y-75624185D01*
X170759523Y-75629110D01*
X170755818Y-75635005D01*
X170755815Y-75635010D01*
X170673246Y-75766418D01*
X170669544Y-75772310D01*
X170667247Y-75778872D01*
X170667245Y-75778878D01*
X170615987Y-75925366D01*
X170615985Y-75925371D01*
X170613687Y-75931941D01*
X170612907Y-75938855D01*
X170612906Y-75938864D01*
X170603426Y-76023007D01*
X170594751Y-76100000D01*
X140550499Y-76100000D01*
X140550499Y-75277128D01*
X140544091Y-75217517D01*
X140493796Y-75082669D01*
X140407546Y-74967454D01*
X140399488Y-74961422D01*
X140299431Y-74886519D01*
X140299430Y-74886518D01*
X140292331Y-74881204D01*
X140222359Y-74855106D01*
X140160916Y-74832189D01*
X140110537Y-74797210D01*
X140083084Y-74742365D01*
X140085273Y-74681072D01*
X140116566Y-74628329D01*
X140238495Y-74506401D01*
X140374035Y-74312830D01*
X140473903Y-74098663D01*
X140535063Y-73870408D01*
X140555659Y-73635000D01*
X140539473Y-73450000D01*
X190494435Y-73450000D01*
X190514632Y-73629255D01*
X190516928Y-73635819D01*
X190516930Y-73635824D01*
X190571913Y-73792956D01*
X190574211Y-73799522D01*
X190670184Y-73952262D01*
X190797738Y-74079816D01*
X190950478Y-74175789D01*
X191120745Y-74235368D01*
X191300000Y-74255565D01*
X191479255Y-74235368D01*
X191649522Y-74175789D01*
X191802262Y-74079816D01*
X191929816Y-73952262D01*
X192025789Y-73799522D01*
X192085368Y-73629255D01*
X192105565Y-73450000D01*
X192085368Y-73270745D01*
X192025789Y-73100478D01*
X192022082Y-73094579D01*
X192004108Y-73065973D01*
X191985101Y-73000000D01*
X192004108Y-72934027D01*
X192022086Y-72905415D01*
X192025789Y-72899522D01*
X192085368Y-72729255D01*
X192105565Y-72550000D01*
X192085368Y-72370745D01*
X192025789Y-72200478D01*
X192004106Y-72165969D01*
X191985101Y-72099998D01*
X192004107Y-72034027D01*
X192025789Y-71999522D01*
X192085368Y-71829255D01*
X192105565Y-71650000D01*
X192085368Y-71470745D01*
X192025789Y-71300478D01*
X191929816Y-71147738D01*
X191802262Y-71020184D01*
X191649522Y-70924211D01*
X191642959Y-70921914D01*
X191642956Y-70921913D01*
X191485824Y-70866930D01*
X191485819Y-70866928D01*
X191479255Y-70864632D01*
X191472335Y-70863852D01*
X191472334Y-70863852D01*
X191306923Y-70845215D01*
X191300000Y-70844435D01*
X191293077Y-70845215D01*
X191127665Y-70863852D01*
X191127662Y-70863852D01*
X191120745Y-70864632D01*
X191114182Y-70866928D01*
X191114175Y-70866930D01*
X190957043Y-70921913D01*
X190957036Y-70921915D01*
X190950478Y-70924211D01*
X190944590Y-70927910D01*
X190944587Y-70927912D01*
X190803638Y-71016476D01*
X190803633Y-71016479D01*
X190797738Y-71020184D01*
X190792813Y-71025108D01*
X190792809Y-71025112D01*
X190675112Y-71142809D01*
X190675108Y-71142813D01*
X190670184Y-71147738D01*
X190666479Y-71153633D01*
X190666476Y-71153638D01*
X190577912Y-71294587D01*
X190577910Y-71294590D01*
X190574211Y-71300478D01*
X190571915Y-71307036D01*
X190571913Y-71307043D01*
X190516930Y-71464175D01*
X190516928Y-71464182D01*
X190514632Y-71470745D01*
X190513852Y-71477662D01*
X190513852Y-71477665D01*
X190498499Y-71613931D01*
X190494435Y-71650000D01*
X190514632Y-71829255D01*
X190516928Y-71835819D01*
X190516930Y-71835824D01*
X190571913Y-71992955D01*
X190574211Y-71999522D01*
X190577909Y-72005408D01*
X190577911Y-72005411D01*
X190595893Y-72034029D01*
X190614898Y-72099999D01*
X190595893Y-72165969D01*
X190577919Y-72194574D01*
X190577913Y-72194585D01*
X190574211Y-72200478D01*
X190571913Y-72207043D01*
X190571910Y-72207051D01*
X190516930Y-72364175D01*
X190516928Y-72364182D01*
X190514632Y-72370745D01*
X190513852Y-72377662D01*
X190513852Y-72377665D01*
X190495215Y-72543077D01*
X190494435Y-72550000D01*
X190495215Y-72556923D01*
X190495940Y-72563362D01*
X190514632Y-72729255D01*
X190516928Y-72735819D01*
X190516930Y-72735824D01*
X190571913Y-72892956D01*
X190574211Y-72899522D01*
X190577912Y-72905412D01*
X190595892Y-72934027D01*
X190614898Y-72999997D01*
X190595893Y-73065968D01*
X190577916Y-73094579D01*
X190577914Y-73094584D01*
X190574211Y-73100478D01*
X190571915Y-73107036D01*
X190571913Y-73107043D01*
X190516930Y-73264175D01*
X190516928Y-73264182D01*
X190514632Y-73270745D01*
X190513852Y-73277662D01*
X190513852Y-73277665D01*
X190499507Y-73404982D01*
X190494435Y-73450000D01*
X140539473Y-73450000D01*
X140535063Y-73399592D01*
X140473903Y-73171337D01*
X140374035Y-72957171D01*
X140238495Y-72763599D01*
X140071401Y-72596505D01*
X140066970Y-72593402D01*
X140066966Y-72593399D01*
X139882259Y-72464066D01*
X139882257Y-72464064D01*
X139877830Y-72460965D01*
X139872933Y-72458681D01*
X139872927Y-72458678D01*
X139668572Y-72363386D01*
X139668570Y-72363385D01*
X139663663Y-72361097D01*
X139658438Y-72359697D01*
X139658430Y-72359694D01*
X139440634Y-72301337D01*
X139440630Y-72301336D01*
X139435408Y-72299937D01*
X139430020Y-72299465D01*
X139430017Y-72299465D01*
X139205395Y-72279813D01*
X139200000Y-72279341D01*
X139194605Y-72279813D01*
X138969982Y-72299465D01*
X138969977Y-72299465D01*
X138964592Y-72299937D01*
X138959371Y-72301335D01*
X138959365Y-72301337D01*
X138741569Y-72359694D01*
X138741557Y-72359698D01*
X138736337Y-72361097D01*
X138731432Y-72363383D01*
X138731427Y-72363386D01*
X138527081Y-72458675D01*
X138527077Y-72458677D01*
X138522171Y-72460965D01*
X138517738Y-72464068D01*
X138517731Y-72464073D01*
X138333034Y-72593399D01*
X138333029Y-72593402D01*
X138328599Y-72596505D01*
X138324775Y-72600328D01*
X138324769Y-72600334D01*
X138165334Y-72759769D01*
X138165328Y-72759775D01*
X138161505Y-72763599D01*
X138158402Y-72768029D01*
X138158399Y-72768034D01*
X138029073Y-72952731D01*
X138029068Y-72952738D01*
X138025965Y-72957171D01*
X138023677Y-72962077D01*
X138023675Y-72962081D01*
X137928386Y-73166427D01*
X137928383Y-73166432D01*
X137926097Y-73171337D01*
X137924698Y-73176557D01*
X137924694Y-73176569D01*
X137866337Y-73394365D01*
X137866335Y-73394371D01*
X137864937Y-73399592D01*
X137864465Y-73404977D01*
X137864465Y-73404982D01*
X137852962Y-73536460D01*
X137844341Y-73635000D01*
X120194476Y-73635000D01*
X120223875Y-73536253D01*
X120224337Y-73534743D01*
X120284704Y-73343284D01*
X120287423Y-73335565D01*
X120365074Y-73136564D01*
X120365883Y-73134553D01*
X120442762Y-72948951D01*
X120445874Y-72942051D01*
X120539587Y-72750357D01*
X120540945Y-72747667D01*
X120633667Y-72569551D01*
X120637118Y-72563362D01*
X120645080Y-72550000D01*
X120746295Y-72380139D01*
X120748150Y-72377129D01*
X120856090Y-72207697D01*
X120859721Y-72202316D01*
X120983635Y-72028764D01*
X120986102Y-72025433D01*
X121108401Y-71866048D01*
X121112114Y-71861445D01*
X121249903Y-71698758D01*
X121253027Y-71695211D01*
X121388811Y-71547028D01*
X121392440Y-71543238D01*
X121543238Y-71392440D01*
X121547028Y-71388811D01*
X121695211Y-71253027D01*
X121698758Y-71249903D01*
X121861445Y-71112114D01*
X121866048Y-71108401D01*
X122025433Y-70986102D01*
X122028764Y-70983635D01*
X122202316Y-70859721D01*
X122207697Y-70856090D01*
X122377129Y-70748150D01*
X122380139Y-70746295D01*
X122563373Y-70637111D01*
X122569551Y-70633667D01*
X122747667Y-70540945D01*
X122750357Y-70539587D01*
X122942051Y-70445874D01*
X122948951Y-70442762D01*
X123134553Y-70365883D01*
X123136564Y-70365074D01*
X123335565Y-70287423D01*
X123343284Y-70284704D01*
X123534743Y-70224337D01*
X123536253Y-70223875D01*
X123741111Y-70162885D01*
X123749599Y-70160684D01*
X123945302Y-70117297D01*
X123946392Y-70117062D01*
X124155816Y-70073151D01*
X124165045Y-70071578D01*
X124363195Y-70045491D01*
X124576673Y-70018881D01*
X124586540Y-70018052D01*
X124782628Y-70009490D01*
X124997437Y-70000605D01*
X125002561Y-70000500D01*
X194997439Y-70000500D01*
X195002562Y-70000605D01*
G37*
%TD.AperFunction*%
%TD*%
M02*
